<svg width="233" height="235" xmlns="http://www.w3.org/2000/svg" xmlns:xlink="http://www.w3.org/1999/xlink"><defs><linearGradient id="a" x1="116.72" y1="237.98" x2="116.72" y2="6.21" gradientUnits="userSpaceOnUse"><stop offset="0" stop-color="gray" stop-opacity=".25"/><stop offset=".54" stop-color="gray" stop-opacity=".12"/><stop offset="1" stop-color="gray" stop-opacity=".1"/></linearGradient><linearGradient id="b" x1="384.97" y1="232.29" x2="384.97" y2=".51" xlink:href="#a"/></defs><title>background</title><path fill="none" d="M-1-1h235v237H-1z"/><g><title>Layer 1</title><circle cx="116.821" cy="117.549" r="115.89" fill="url(#b)" opacity=".5"/><circle cx="116.821" cy="116.919" r="113.44" fill="#f5f5f5"/><path d="M72.571 117.929s-12.86 63.36-19.88 59.85c0 0 67.7 58.48 127.48 0 0 0-10.53-44.65-25.73-59.85h-81.87z" fill="#333"/><path d="M117.141 230.699a112.91 112.91 0 0 0 62.36-18.66c-4.18-22.84-20.09-24.15-20.09-24.15h-87.72s-15 1.23-19.7 22.25a112.92 112.92 0 0 0 65.15 20.56z" fill="#6c63ff"/><circle cx="115.941" cy="114.419" r="50.29" fill="#333"/><path d="M98.271 160.029h35.09v28.07a17.54 17.54 0 0 1-17.51 17.54 17.54 17.54 0 0 1-17.54-17.54v-28.07h-.04z" opacity=".1"/><path d="M101.621 158.729h28.39a3.35 3.35 0 0 1 3.35 3.35v24.72a17.54 17.54 0 0 1-17.51 17.54 17.54 17.54 0 0 1-17.54-17.54v-24.73a3.35 3.35 0 0 1 3.31-3.34z" fill="#be7c5e"/><path d="M98.341 173.279a50.5 50.5 0 0 0 35.09.1v-4.31h-35.09v4.21z" opacity=".1"/><circle cx="115.941" cy="125.329" r="50.29" fill="#be7c5e"/><path d="M67.871 106.229h95.9s-8.19-38.72-44.44-36.25-51.46 36.25-51.46 36.25z" fill="#333"/><ellipse cx="66.691" cy="123.189" rx="4.68" ry="8.77" fill="#be7c5e"/><ellipse cx="164.931" cy="123.189" rx="4.68" ry="8.77" fill="#be7c5e"/><path d="M67.871 107.529h95.9s-8.19-38.72-44.44-36.25-51.46 36.25-51.46 36.25z" opacity=".1"/></g></svg>