<svg xmlns="http://www.w3.org/2000/svg" width="389.541" height="331.867" viewBox="0 0 389.541 331.867" preserveAspectRatio="none"><path style="isolation:auto;mix-blend-mode:normal" d="M0 0v331.867h389.541V0zm50.258 1.129l.23.115.23.309.077.424-.115.232-.694.887v.613l.155.193.23-.037.27-.119.039-.113V3.44l.039-.193.23-.076.194-.04.539-.27.115.58.771 1.46-.078.696.268-.116.387-.539.27-.617.386.154.267-.23.309-.309.424-.195 1.193.156.348.116 2.54 1.427 1.231.961 1.93 2.696 1.463.732-.12.191-.075.157-.077.115-.191.113v.463l.42.193.232-.115.235-.232.38-.153h.465l.616.23 1.156.194 1.885-.076.504-.309.343.268.541.078.344.27.04.845-.23.461-.306.504-.156.576.271.735h.192l.19-.695.118-.694.194-.578.421-.309.27-1 1.771-.384 3.004-.116.465.153 1.848-.153 1.27.385.81.076 1.693-.884 1.54.154 1.58.576 1.117.617.308-.232.344-.076h.771l-.039-.192-.076-.463-.076-.193.424.076.728.424.428.117 1.576-.308h1.58l.461-.077.81-.384.733-.196.192-.228.232-.233.424-.076.96.733.386.152 2.384.272.467-.272.5.232.463-.195.459-.346.502-.23h3.545l.152-.385-.193-.308-.115-.348.388-.461-.08-.154-.076-.309-.076-.115h1l.346-.193.154-.5.193-.385.5.039 1 .502.656.576 1.696 2.004.58.885h.191l.153-.618.228.194.352.732 1.576.27 6.162-.27.924.27.076.578-.383.652-.54.502.19.27.31-.192.655-.232.31-.152.23-.272.076-.27.152-.23.465-.076 1.271.115.5.192 2.194 1.462 1.043.387 2.656.115.732.192.307.54.387-.232 2.152.657.234-.08.424-.383.346-.08.35.08.693.383 2.191.464 2.504 1.192.617.195 6.932.613.807.809.658-.613.846-.157.847.233.576.576h.196l.304-.539.31-.152 1.423.152 3.816-.424.848-.654 1.922-.615.734-.116h1.385l.195-.115.04-.193.036-.192.229-.08.232.08.73.537.157-.193.154-.037h.153l.191-.04-.152-.075-.27-.233v-.267l1.041-.772.537-.232.502.156.385-.232.076.039.157.193.884-.537.924-.195.924.195.848.576-1.346.613-.578.387-.426.461.309.387.156.117.152.076-.115.04h-.076l-.037.036v.192h.343l.272-.04.46-.228.19-.193.428-.578.115-.116.266.079.273.421.268.116.115-.19-.074-.386-.193-.385-.194-.196v-.267l.422.078.193.037.233.152.039-.228h.037l.117-.04-.232-.308.35-.152.882-.08.344-.229.313-.308.345-.194 2.35-.73.771.037-.039.732.537.04.426.308.342.344.273.156 2.118.385.154.154.115.233.041.267-.04.385-.116.039-.195-.04-.227.077-.117-.115-.309-.192-.27-.076-.115.23-.115.233-.23.229-.502.271.617.115.346.461.27.196.425-.772.344.5.425.04.924-.27.42.078 1.467.5 1.885.27 1.388.538.387.077.309.191.69.809 1.386.423.58.08.693-.54.963.617 1.504 1.308v-.308l-.351-1-.116-.5-.19-.309v-.156l.153-.192.424-.115.346-.424 1.347-.808.5-.156v-.538h-.19v-.271l.5-.305.77-.078 1.577.078 1.465-.156.658-.27.535-.193.387.076.656.465.613.615.274.463.341 1.041.116.885.117-.156.234-.77.04-.191v-.233l.034-.23.155-.154.347-.078.346.119.346.152.963.191 1.773.77 1.309.271.693.272.576.922 2.967 1.387 1.233.384 1.306.155 1.352-.155 1.002-.27.343-.038.192.156.236.307.266.308.385.115.082-.039.115-.076.15-.115.194-.04.152.079.076.191.078.194.233.076.886-.693.383-.116.654-.076 2.159-.81.693-.461.346-.157h.46l.387.309.23.424.233.195.424-.31-.193-.114-.268-.308-.195-.192 1.234-.58 1.153-1.039 1.117-.58.54.31-.19 1.157-.04.885v.5l.887.424.38.5.118.808.154.348.346-.04.346-.193.656-.076.617-.267.27.039.578.265.304.233v.191l-.076.233.037.384.235.735.154.19.383.194.35.038.384-.038.348-.195.191-.385.23-.732.462-.268h.615l.965.268 1.271.656.346-.037.348-.115h.38l.887.924.12 1.537-.35 1.656-.461 1.313-.387.539-1.267 1.347-.272.346.383.924.539.615.695.385.733.195.845.076.54-.191.27-.58.077-1.076.233-.848.539-.578.695-.27.691.192-.654.539-.232.54.156.577.5.615.576.348 1.773.308 1.036.577 1.005.808 1.155-.113.267.113.504.309.229.193 1.078.117.504.153.385.424 1.078.808 1.152.385 2.428.191 2.351-.424.807.272.58 1.46v.311l-.121.194-.037.23.158.385.307.309.304.039.31-.04.311.04 1.036.652.543.465 1.189 1.576.04.195-.077.192v.154l.191.078h.504l.114.037.195.229-.041.271v.233l.306.191.235-.037.5-.348.27-.076.036-1h.772l1.656.77.924-.08.732-.422 1.463-1.155.272.268.228-.076.23-.309.157-.424.461.424 1.846 1.117.35.772.806.115.887-.23.54-.233-.077.733.193.73.385.617.5.424.195.229.037.308.078.272.305.152.387.115.23.196.154.228.192.194 1.195.462 1.08-.115 2.348-.885 1.885-.271.58-.385.5-.076 1.619.424.5.232.654 1.153.461.58.465-.076.846-1.196.537-.54.543-.192.847.732.075.155v.193l.037.152.154.155.617.117.617-.04 1.153-.308.506.23 3.808-.115 1.078.153.387-.153.266-.424.04-.695-.19-.613-.382-.463-.427-.156.191-.424.115-.19.233-.195-.348-.46.426-1.155-.078-.885.154-.617.693-.272.848-.076.54.04 1.038.421.54.12.58-.04.538.076 1.307.772.922.344.273.195.498.461.35.152.305-.152.27-.232.312-.116.265.116.506.423.227.157 2.619.191.656.193.537.5.31.577.231.656.31.576.538.387.346.037 1.043-.348h3.77l.731.195-.115.577.155.156h.27l.27.152.538.963.576.809.506 1.427.459.577-.155.27-.154.423-.037.387.268.19v.153l-.5.885-.116.465.694-.08.539.467.115.652-.617.424-.192.037-.5.232.887 1.387v.5l.346.27 1.85.23.23-.039.348-.191.193-.233.111-.228.157-.196 1.925-.267 1.002-.422.344-1.12.117-.114.076-.037.077.037.08.115.343.115h.385l.348-.152.308-.348.077.037.078.076.037.12v.115l.576.228 1.89.272.655.27 1.728 1.19.735.157.582.039.46.229.423.693.384 1.543.309.652.62.504.38.229.426.076.808-.076.498-.116.348-.232.5-.537.734-.576.153-.233.23-.615.155-.232.5-.23 1.464.19 1.887-.576.961-.117.848.461.388.309 1.772.847.965.196h.496l.232.652.46.656.58.461.58.155.615.345.343.115h.307l.195-.19.272-.694.23-.23h.578l1.424.462.692.113.808-.037v-.195l-.383-.424-.27-.765.233-.348 1.305-1.004.541-.268.62-.037 1.19.19.657-.114.5-.308.924-.887.5-.27.502-.038h.539l.5-.077 1-.771 1 .387.54-.348.307.08.889.037.193.04.192.46.232.385.307.307.387.232.615.191.767.08.81-.039 2.079-.347-.152.924v.5l.152.539.543.888.117.383.303.309.693-.116.735-.037.382.577h.194l.308-.311.385.08.73.5-.73 1.463-.117.424-.115.617-.229.307-.271.232-.233.424-.5-.235-3.004-.113-.384.309-.348.885-.266 1.543-.039 1 .192.732.502.537 1.04.656.423.344.384.889-.035.924-.117.847.191.653.114.271.154.848.039.27.117.23.576.46.153.31-.116.81-.77 1.308-.38 1.037-.506.543-2.267 1.424-1.62 1.694-4.119 3.043-1.199.5-.96.156-.307.113-.233.233-.193.267-.23.233-.31.115-.152.076-.46.424-.04.271-.115.309-.273.076h-.342l-.313.076-3.964 2.541-6.202 2.852-.613.652-1.771 1.194-2.274.964-.885.692-.808 1.119-1.504 2.617-.887 1.233-1 .923-2.16 1.196-1.227.345-2.08.192-2.043.543-.619.385-.304.076-1.038-.04-5.816 1.577-2.62.195-7.704 2.889-2.152.463-.233.19-.539.966-.115.305-.155.232-.312.152-.73-.46-.233-.077-1.346.037-1.271.233-1.15.539-1.006.732-3.463 3.428-1.697 2.232-2.774 2.694-.576 1.158.805.46.89.349h.385l.154-.192-.117-.308-.422-.309.5.037.422.233.348.347.732.924.81.652.42.463.194.156.232.077.19.113.078.232-.078.31-.19.19-.195.155-.308.58-.5.304-1.967.58-.844.77-1.502 1.963-.654.656-.807.576-.773.04-.54-.963 1.118.191 1.002-.463 1.465-1.385-.657-.347-.924.076-2.542.81-.614.424-.502.541-.619.616-1.459 3.544-.543.766-.537.58-.422.654-.193 1.041-.809.81-2.084 4.16-.343.423-.81.691-.384.422-1.04 1.467-1.464 1.537-2.23 3.7-.848.884-1.93 1.194-.806 1.156-1.309 2.812-.808 1.192-1.926 2.16-3.16 5.275-.153.424-.078.961-.193.656-.348.5-.732.809-.42.576-.389.693-.152.659-.23.537-.962 1.386-.312.694-.191 1.619.039 1.771.232 1.692.77 2.851 1.615 4.313.39.732.077.268-.116.422-.427.386-.077.424.114.696.926 1.847.732 1.926 1.154 1.58 1.157 2 .462.58 1.157.924 1.152 1.195.658.5.846.227 1.385.158 1.463.424 1.312.732.961 1.077-.115.076-.309.232.348.153.228.271.467.654.305-.078.195.506v.613l-.23.233-.58.037-.5.115-.463.272-.42.421-.348.809-.08.078-.115.15-.576.04-.235.117-.38.422-.348.193-.305.27-.312.617.232.578-.62-.154-.423.115-.424.193-.574.115h-.928l-.42.153-.427.347-.344.657v.576l.039.537-.192.543-.464.5-.455.191h-1.276l-1.387.309-.773.309-.96.69-2.925 1.233-.465.346-.195.422-.226.156-1.118 1.235-.347.578-.116.77v.384l-.193.115-1.002.04-.424.115-.306.308-.114.576-1.084-.074-.267 1.54.078 3.312-.344.502-.543.152-1.113-.08-.695.193-.543.467-.42.613-.307.657-.234.498-.116.615-.076 1.658.23 2.773-.077.73-.266.347-.467.31-.574.613-.31.504-1.231 3.08-.076.616.156 1.58-.156.385-.848-1.041-.73 2.04-.391.348-.687.194-.272.539.115.732 1.002 1.809.309.386 1 .65.693.348.615.075.272-.461.576.31.195.461-.119.463-.424.346-.228.273-.272.153h-.271l-.266-.192-.31.192-.846.306-.502.117-.883.461h-1.158l-.385.08-.422.19-.73.5-.273-.188-1.23-.582-.999-.193-1.97-.035-.536.076-.465.19-.341.31-.159.383.078.385.422.31-.695-.074-1.537-.467-.156-.076-.155-.19-.191-.195-1.113-.344h-.35l-1.695.463-1.387.112-.537.193-.502.309-1.344 1.347-.506.346-.617.117-.15.076-.23.194-.235.23-.111.192-.077.193-.312 1.271-.037.27-.268.193-.193-.039-.156-.117h-.23l-.268.193-.62.54-.265.115-.463.076-1.582.695-1.58 1.12-.268.345-.152.687-.428.776-.922 1.308-1.808 1.809-.772 1.08-.54 1.54-.231 1.347-.381 1.04-.156 1.079-.922 2.352-.657 1.074-.039.465.078.345.116.31.039.306-.04.347-.154.196-.23.074-.697.037-.19.078-.387.387-1.076.728-.424.5-.308 1.58-.348.465-.5.115-.502.537-.115.27-.154.732-.149.309-.275.193-.344.114-.271.117-.309.73-.459.387-.619.23-.654.077-1.153-.344-.847-.887-.733-1.04-.808-.886-1.078-.654-.659-.271-.691-.075-.576.114-1.004.539-.615.154-.272-.078-.848-.348-.382-.074-2.62.422-.501.271-.807 1.233-.617 1.693-.77.807-.156.119-.342.342-.771.35-.848.156-.541-.196-.617.272-.615-.307-.618-.463-.578-.273-.27.08-.265.346-.27.076-.31-.19-.848-1.12-.656-.38-.576-.044-1.154.158-7.856-.5-3.123.386-.46.305-.425.422-.619.46-1.342.503-1.117-.041-4.582-1.309-.35-.304-.308-.155-1.963.541-1.348.114-2.347-.768-1.35-.12-3.082.852-3-.35-.773.079-3.545 1.193-.846.116-5.469-.424-.537.154-.386.346-.846 1.504-.194.308-.423.463-.307.537-.115.615-.233.346-3.697 2.313-.582 1.232-.228.23-.266.157-.658.267-1.309.268-1.271-.035-3.81-.698-.696-.035-.309.076-.344.27-2.16 1.154-2.076.541-1.426.887-.386.15-1.118.157-.498.154-.386.232-.383.54-.85 1.5-.578.58-.5 1.384-.271.58-.153.188-.23.2-.23.148-.503.193.04.27.115.347.039.27-1.389 2.08-.156.384-.15 1.811h-.618l-.23-.617-.5-.346-.733-.27h-.576l-.113.385-.272.307-.156.461.037.543.196.5-.157.266.08.345.153.387.08.31-.12.426-.193.27-.191.187-.076.276-3.617 1.072-.467.271-.381.079-1.12-.922-1.269-.737-.543-.423-.728.273-.656-.234-.616-.387-1.312-.385-.46-.422-.655-.963-2.002-1.963-.578-.384h-.655l-1.347.267-1.272-.46-.808-1.038-.62-1.273-.69-1.156-1.5-1.116-.194-.54-.077-.618-.195-.687-.266-.66-.695-1.233-.732-1.656-.848-1.153-.693-1.31-.653-.576-.234-.35.39-.19.266.036.963.886.272.348-.157.31.233.38.46.543.385-.077.235-.23.344-.502.656-.73-.23-.042-.62.194-.537-.076-.232-.579.195-1.158-.271-.726-1.233-1.121-.308-.192-2.077-.154-.543-.152-.462-.461-.385-1.504-.305-.733-.428-.732-.19-.69.153-.695.58-.617.575-.268 1.158-.425.424-.346.308-.885-.271-1.582.156-.883 1.037-.886 2.506.195.885-1.158-.58.422-.772.31h-.768l-.576-.502-1.312.502-.576.463-.233.807.196 2.312-.196.424h-1.076l-.848-1.117-1-2.543-.693-1.192-.887-.923-7.51-5.432-.808-.422-.732-.195-.54-.23-1.271-1.04-.617-.271-.615-.309-.538-.848-.19-1 .19-.464.381-.307 1.08-1.613.348-.696-1.541 1.73-.848.622h-.963v.225l.657 1.046.306.688.038.426-.42.039-2.698-1.31-1.004-.31-2.423-.23.423.23.887.118.422.191-7.43.194-.465.191-.615.54-.576.077-.541-.232-.5-.268-.463-1.697-.152-.848.191-.576-.308-1.27-.235-3.04-.613-1.272.08-.426-.08-.847-.191-.922-.233-.694-.152-.232-.543-.424-.229-.23-.267-.426-.08-.23-.037-.27-.157-.54h-.115l-.039-.038v-.422l.115-.152.313-.39.039-.19.076-.155.037-.193-.076-.233.307-.191.808-.887.192-.304.156-.579.27-1.85.42-1.153.542-.81 2.809-2.35.847-1.5.35-1.313.652-1.805.157-.697v-.385l-.078-.387v-.306l.193-.229.963-.197.345-.227.387.04.381.113.389.039.383-.191.388-.116.23-.158.305-.422.313-.808.267-.309.541.041 1.733.69.767-.073.272-.926.268-.5.27-1.158.577-1.193.426-1.309.228-.576.311-1.117-.5-.387-.848.076-.808.23h-.076l-.157-.034-.386.537-.733.345-.771.155h-.457l-.733-.653-1.232-3.162-.156-.187-.536-.385-.195-.234-.117-.229-.191-.5-.116-.234-3.236-4.158-.885-.653-.424-.236.424-.461.309-.422.039-.465-.348-.496.309-.465.539-1.963 1.271-1.85.157-.538-.08-.309-.192-.152-.195-.115-.153-.27-.037-.31v-.383l.077-.887.189-1.348.12-.267.27-.504.038-.154 1.808-1.46.463-.195.5-.426.424-.5.156-.386.305-.268 1.428-.305.5-.234.384-.387.383-.306.233-.155-.04-.537.157-.62-.428-.768.656-.537.696-.963 1.039-2.004.308-.385.153-.387-.037-.344-.348-.27.193-.695-.193-.77-.42-.692-.504-.46-.695-.462-.809-.233-.808.076-.729.461-.386.159-.461-.08-.463-.23-.309-.31-.037-.347.346-.768.078-.385-.387-.732-.728-.346-.852-.232-.768-.422-.425-.617-.23-.77.038-.81.424-.73-1.5-1.85-.58-.463-.229-.461-.156-.85v-.883l.156-.539.229-.58.152-.886v-.846l-.228-.387-1.272-.346-.656-.304-.46-.385-.307-.887-.27-.347-1.043-.537-.5-.504-.924-1.23-.537-.5-1.004-2.774-.271-.657 6.625.31.427-.116.497-.23.58-.116 1.232.037.54-.152.655.424.961.037 4.504-.578.465-.192.344-.847-.037-.309-.077-.271v-.381l.153-.387.35-.656.115-.385-.04-.348-.113-.384-.039-.424.23-.537.23-.192.693-.308.31-.192.768-1.158.117-.385.039-.656.037-.344v-.193l-.115-.385v-.23l.078-.194.309-.23.076-.156.191-1 .115-.346-.039-.424.157-.424.537-.887-1.233-2.232-.691-.846-.426-.656-.344-.31-.347-.114-.809-.115-.387-.115-.343-.541-.233-1.348-.27-.576.27-.461.31-.928.266-.383.543-.27 1.305-.847.58-.076.62.037.575-.037.577-.385.076-.234.037-.652.115-.309.195-.232 1.309-.963.271-.27.538-.963-1.038-.96-.695-1.157-.191-1.309.576-1.386.73-1.002.08-.463-.156-.691-.306-.541-.348-.344-.27-.428-.076-.69.19-.619.695-1.308.232-.692v-.503l-.08-.69-.228-1.348-.385-1.312-.078-.576v-.772l.039-.385.076-.23.041-.232-.117-.424-.04-.268.04-1.002.5-.154.115-.5-.267-.654-.348-.235-.463-.113-.266-.348-.275-.847-.652-1.657-.385-.691-.963-1.041-.309-.46-.076-.5.348-.54.113-.771.657-.31 1.886.153.846-.076.424-.424 1.232-1.808.268-.733-.076-1 .119-.271.385-.5 1.076-.924.195-.309.232-.615 1.077-1.656.343-.385.541-.117 2-.04.276-.19 1.808-.77 1-.772 1-1 .961-1.58.12-.037.384.076.115-.039.077-.228.037-.309v-.234h-.076l.386-.305.424-.156.961-.076v-.348l1.156-1.885v-.271l-.076-.27-.04-.306.194-.424.81-.848 1.464-2.156-.31-.385-.425-.617-1.308-1.387-1.389-.885-1.5-.539-2.504-.502h-.424l-.228.194-.194.228-.423.272-.463.232-.309.076-.847-.308-.424-.656-.153-.805-.08-.772-.152-.384-.192-.348-.076-.348.192-.384.228-.344.12-.385.728-3.352.351-.771-.81-.27-.541-.076-.229-.271.229-1.772-.115-.652-.424-.504-.729-.305-.427.885-1.038.307-2.197.078-.924-.27-1.115-1.732-.924-.154-.193 1.23-.73.465-1.89.152-.847-.191-.732-.578-.692-.348-.732.541-1.08.463-.961-.424-.928-.81-1-.618-.42.077-.54.308-.462.348-.234.23-.076.58.191 1.346-.076.654-.615.926-1.004.615-2.19.733-.543.076-1.113-.04-.467.079-.42.27-.732.847-.428.348-.113-.656-.307-.696-.384-.537-.424-.154-.309-.037-.463-.309h-.228l-.233.19-.08.234-.037.27-.154.306-.461.348-.615.23-.657.078-.537-.039-.502-.27-.039-.386.463-1.271-1.658-.077-.537-.27-.846-.614-.465-.116-.847.463-1.885.461-.848-.037-.308.113-.155.235-.115.265-.191.235h-.963l-.194-1.196-.076-1.117-.617.233-.154.46-.153.696-.27.537h-.577l-.502-.076-.424.191-.385.385-.308.5-1.002 1.041-1.385.387-2.658-.156.115-1.076-.039-.543-.23-.305-1.079-.424-.347-.732.04-.772.307-.732 1.196-1.77.885-.886.884-.577.5-.423.31-.504.077-.729-.23-.617-.463-.463-.578-.229-.655.038-.539.267-.5.04-.387-.307-.113-.657.076-1.77-.27-.614-.269-.385-.926.652-.578.233-.537.037-.232.039-.268.191-.771.733-.5.271-4.739.77-.578.23-1.039.732-.576.229-1.117.041-.54.115-.54.385-.268.424-.31.887-.23.421-.616.424-.809.23-.693.348-.309.27-.345.695-.463.614-.578.462-.615.194-.5.191-.502.576-.5.424-.5-.19.076-.58-.615-8.01.076-.73.345-.271h1.233l.578-.152.232-.385-.156-.309-.576-.271-.115-.268.154-.156.809-.424.076-.191.076-.385.154-.385.309-.191.154-.12.578-.728 1.617-1.232.385-.157.154-.076.963-.924.537-.232.618-.424.193-.191.115-.346v-1.271l-.039-.272-.113-.037-.27.076-.463.426-.347.768-.424.732-.77.309-.617.154-1.656.77-.346.347-.345.076-1.62-.115-.576.191.116-.5.308-.923v-.577h.192l.423.655.194-.309v-1.348l-.078-.347-.077-.192.116-.115.424-.078 1.117.27.152-.114.23-.539 1.157-1.388.539-.463 1.002-.653.424-.424.23-.617-.27.153h-.23l-.309-.114-.269.037-.113.04-.08.078-.655.423-.77.616-.423.271-.656.19-.961.076-1.002-.113-.73-.463-.272-.461-.152-.772-.233-.424-.383-.23-1.04-.193-.231-.153.23-.424.576-.345.618-.272.463-.113.384.113.27.348v.385l-.422.267.268.194.423.193.461.078.309-.117.115-.424-.076-.463v-.46l.385-.31-.385-1.423-.04-.733.116-.615.272-.5.384-.308.385-.116.385-.502 1.115-2.54.233-.926h-.194l-.23.656-.307.654-.424.461-.539.195-.578-.232-.385-.54-.308-.655-.424-.577-.463 1.118-.076.5.306.347-.652.961-.348.233-.423-.346.154-.424-.424.192-1.002.769.424.54-.346.31-1.117.306-.076.23-.23.927-.27.076-.233.23-.421.541-.465-.504-.076-.77-.155-.69-.693-.31-.461-.462.154-1 .424-1.08.383-.613-.037-.504.115-.848.193-.848.346-.5.154-.267.23-.309.349-.115.076-.078.886-.5.77-1.115.46-.424.735-.194.192-.308.193-.655-.078-.693-.654-.348-.118.965-.46.576-.694.309-.808.115-1.541-.232-.653.117.113.691-.693.772-.385.193-.576-.117-.426-.344-.193-.54-.152-.655-.309-.732h.385l.27-.153.23-.308.195-.424-.232-.463-.424-.27-.576-.23-.04-.309-.154-.537-.04-.232.08-.154.269-.31.074-.231.041-.385-.04-.268-.23-.156-.538-.04-.27-.189-.463-.771-.385-.152v.267l.192.461-.192.233-.271.076-.037-.114-.115-.539-.309-.039-.348.23-.267.233-.233.344-.306.848-.194.384-.154-.115-.309-.96-.27-.272v-.268l.194-.385.616-1.732.039-.272.078-.347.115-.309.115-.228.115-.385-.23-.233-.463-.343-.23-1.004.27-.23h.384l.23-.385.155-.772.345-.346.348-.271.154-.5.463.385.387.115.385-.115.46-.385.155-.229.076-.234.113-.19.272-.232.232-.115.23-.076.538-.08v-.305l-.537.268-.694.154-.502-.037.038-.385-.961.498-.424-.037-.268-.732 1.463-1.387 1-.537 1.156.5h.537l.541-.116.387-.156.385-.347.383-.461.308-.577.157-.619h.228l.576.504.81-.037.81-.31.538-.422-.654.037-.347-.233-.461-.923h-.155l-.384-.192-.27-.232.232-.114.305-.039 1.233-.54 1.312-.887.961-.268.23-.309.233-.189.348-.08.384.232.963 1 .537.233.54.076 1.195.387.578.076.847-.31 1.077-.614 1.156-.348 1.039.461 1.617-.77.27-.267.117-.387.23-.308.309-.229.693-.232.114-.156.08-.192.191-.152 1.656-.424.116.537.269.424.693.615.385-.46.115-.387-.076-1 .27-.538.617.114.885.576.424.156.19.387.118.46.192.462.693.691.307.424.232.656.23-.693v-.654l-.23-1.27v-.656l.154-.387.348-.305.576-.384-.615-.309-.54-.078-1.04.078-.54-.191-.732-.81-.5-.194.578-.463 3.08-.422.233-.078.23-.194.116-.267-.037-.309-.155-.037-.693.309-1.848.304.113-.152.079-.078.232-.113-.117-.117-.307-.192-.347.537-.618.233-1.347.039.232-.657.113-.884.155-.655.347.155.385-.578-.232-.233-.23-.346-.153-.423.039-.463h.113l.541.078.192-.078.73.115.889-.463 4.467-3.426.113.461.271.235.346.037.348-.157-.309.042-.076-.042v-.267l.115-.076.153-.157.154-.076-.578-.463-.076-.46.154-.463.115-.5.193-.346.461-.115h1.041l.924-.272.848-.5.77-.693.615-.809.847.114.348.619.23.732.461.576v.272l-.191-.12-.307-.076-.154-.076-.232.348-.155.385v.343l.194.311-.307.232-.117-.039-.23-.193-.192.193-.078.04-.154.036v.268l1.54.08.27-.31-.578-.922.348-.235h.384l.77.272-.076-.115-.078-.309-.077-.154.424-.463.54-.463.616-.346 1.231-.306.656-.461.537-.618.194-.654zm295.73 55.42l.305.463.313.693.343.576-.113.04-.31.076h-.073l-.695-.116-.426-.308-.037-.537.346-.735.347-.152zm-83.377 188.207h.15l.04.078v.115l.037.076.115.155.196.386.156.229-.274.844-.039.93.428 1.425-.62-.736-.112-1.153.039-1.271-.116-1.078z" color="#000" overflow="visible" fill="#fff"/><g transform="translate(364.166 139.572) scale(.46087)" style="line-height:125%" font-weight="400" font-size="88.879" font-family="sans-serif" letter-spacing="0" word-spacing="0"><path style="isolation:auto;mix-blend-mode:normal" color="#000" overflow="visible" d="M4.823 281.526h13.334v44.437H4.823z"/><path style="-inkscape-font-specification:'Gilroy Ultra-Bold'" d="M-220.39 327.208c8.71 0 16.265-4.533 20.087-11.466l-11.643-6.666c-1.422 3.111-4.71 4.978-8.622 4.978-5.777 0-10.043-4.178-10.043-10.31 0-6.133 4.266-10.31 10.043-10.31 3.911 0 7.11 1.866 8.622 4.977l11.643-6.755c-3.822-6.844-11.466-11.376-20.087-11.376-13.51 0-23.553 10.22-23.553 23.464 0 13.243 10.044 23.464 23.553 23.464zM-174.561 327.208c13.065 0 23.553-10.221 23.553-23.464 0-13.243-10.488-23.464-23.553-23.464-13.066 0-23.553 10.22-23.553 23.464 0 13.243 10.487 23.464 23.553 23.464zm0-12.976c-5.778 0-10.221-4.178-10.221-10.488s4.443-10.488 10.22-10.488c5.778 0 10.222 4.177 10.222 10.488 0 6.31-4.444 10.488-10.221 10.488zM-94.98 280.28c-6.311 0-10.4 2.31-12.888 5.866-2.489-3.733-6.4-5.866-11.643-5.866-5.955 0-9.866 2.31-11.91 5.332v-4.088h-13.332v44.44h13.332V300.9c0-5.244 2.488-8.355 6.932-8.355 4.267 0 6.4 2.844 6.4 7.288v26.13h13.332V300.9c0-5.244 2.488-8.355 6.932-8.355 4.266 0 6.4 2.844 6.4 7.288v26.13h13.331v-27.285c0-11.11-6.666-18.398-16.887-18.398zM-20.192 280.28c-6.31 0-10.399 2.31-12.888 5.866-2.488-3.733-6.399-5.866-11.643-5.866-5.955 0-9.865 2.31-11.91 5.332v-4.088h-13.332v44.44h13.332V300.9c0-5.244 2.489-8.355 6.933-8.355 4.266 0 6.4 2.844 6.4 7.288v26.13h13.331V300.9c0-5.244 2.489-8.355 6.933-8.355 4.266 0 6.4 2.844 6.4 7.288v26.13h13.331v-27.285c0-11.11-6.666-18.398-16.887-18.398zM53.953 294.323v-12.8H44.8v-12.442l-13.332 4v8.443h-7.11v12.799h7.11v15.731c0 12.443 5.066 17.687 22.486 15.91v-12.088c-5.866.356-9.154 0-9.154-3.822v-15.731h9.154z" font-weight="800" font-family="Gilroy"/><circle r="7.987" cy="269.629" cx="11.543" style="isolation:auto;mix-blend-mode:normal" color="#000" overflow="visible" fill="#fe3600"/></g><g style="line-height:125%;text-align:end" font-weight="300" font-size="26.014" font-family="Roboto" letter-spacing="0" word-spacing="0" text-anchor="end" fill="#333"><path d="M305.504 312.577h-9.275v-.936l5.075-5.756q1.261-1.454 1.75-2.4.488-.946.488-1.84 0-1.404-.824-2.218-.824-.824-2.268-.824-1.495 0-2.42.956-.916.956-.916 2.482h-1.21q0-1.251.56-2.278.569-1.027 1.606-1.607 1.048-.59 2.38-.59 2.034 0 3.173 1.068 1.15 1.068 1.15 2.909 0 1.037-.652 2.268-.64 1.23-2.268 3.07l-4.129 4.669h7.78v1.027zM310.488 304.512h1.26q1.048 0 1.831-.366.784-.376 1.19-1.017.417-.65.417-1.495 0-1.424-.803-2.227-.804-.804-2.309-.804-1.424 0-2.339.845-.905.834-.905 2.206h-1.22q0-1.149.58-2.095.579-.956 1.606-1.474 1.027-.519 2.278-.519 2.014 0 3.173 1.098 1.16 1.099 1.16 3.01 0 1.069-.682 1.974-.67.895-1.85 1.342 1.382.387 2.094 1.332.712.936.712 2.238 0 1.902-1.24 3.061-1.241 1.16-3.316 1.16-1.322 0-2.43-.53-1.099-.528-1.709-1.474-.6-.956-.6-2.217h1.22q0 1.414.987 2.308.986.885 2.532.885 1.576 0 2.451-.803.885-.814.885-2.35 0-1.484-.956-2.267-.946-.783-2.797-.783h-1.22v-1.038zM323.312 306.556h-4.871v-1.027h4.871v1.027zM334.59 312.577h-9.274v-.936l5.074-5.756q1.262-1.454 1.75-2.4t.488-1.84q0-1.404-.824-2.218-.824-.824-2.268-.824-1.495 0-2.42.956-.916.956-.916 2.482h-1.21q0-1.251.56-2.278.57-1.027 1.606-1.607 1.048-.59 2.38-.59 2.034 0 3.173 1.068 1.15 1.068 1.15 2.909 0 1.037-.651 2.268-.641 1.23-2.268 3.07l-4.13 4.669h7.78v1.027zM344.344 307.807h2.308v1.027h-2.308v3.743h-1.22v-3.743h-6.967v-.691l6.854-10.373h1.333v10.037zm-6.692 0h5.471v-8.461l-.539.936-4.932 7.525zM365.01 312.577h-1.252l-8.512-12.672v12.672h-1.261V297.77h1.26l8.523 12.682V297.77h1.241v14.807zM367.836 306.912q0-1.586.61-2.857.62-1.272 1.74-1.973 1.129-.712 2.552-.712 2.197 0 3.56 1.546 1.363 1.535 1.363 4.078v.254q0 1.597-.62 2.878-.611 1.271-1.73 1.963-1.118.691-2.552.691-2.187 0-3.56-1.535-1.363-1.546-1.363-4.089v-.244zm1.22.336q0 1.973 1.018 3.244 1.027 1.261 2.685 1.261 1.647 0 2.664-1.26 1.027-1.272 1.027-3.347v-.234q0-1.26-.467-2.308-.468-1.048-1.312-1.617-.845-.58-1.933-.58-1.627 0-2.654 1.281-1.027 1.272-1.027 3.336v.224zM383.447 310.899l3.346-9.326h1.251l-4.109 11.004h-.986l-4.129-11.004h1.25l3.377 9.326z" style="-inkscape-font-specification:'Roboto Light';text-align:end"/></g></svg>