<svg xmlns="http://www.w3.org/2000/svg" width="389.541" height="331.867" viewBox="0 0 389.541 331.867" preserveAspectRatio="none"><path style="isolation:auto;mix-blend-mode:normal" d="M-3.516-4.922v338.195h395.147V-4.922zm257.65 10.469c1.04 1.146 3.196 2.574 2.266 5.137.602-.003.435-1.095 1.207-.856.099.717.243 1.365.606 1.71.296-.149.401-.57.451-1.07.206.067.126.537.152.858.291-.087.119-.83.602-.642.252.424-.014.27 0 .853.596.06.463-.912 1.059-.853 1.817 1.624-.88 3.692-.454 6.63 1.5-1.867 2.48-4.474 3.926-6.418.385.452.296 1.579.303 2.567-.717-.088-.622.975-.756 1.713 1.43-.826 1.494-3.59 3.322-3.85.926 1.213.14 3.715-.15 5.133.51.36.895-1.29 1.508-1.498-.042.726-.24 1.23-.15 2.14.475-.324.729-.963 1.058-1.497.877.522 1.3-.287 2.113-.428.537.308 1.035.671 1.057 1.71 2.948-1.094 2.781 2.733 1.66 4.92.046.646.634.4.754 0 .365.197-.341.631-.15 1.286.909-.64 1.267-2.054 2.113-2.783.267.192.442.517.756.642-.002.98-.132 2.374.605 1.711.047.496-.025.823-.152 1.07.235-.146 1.497-.065 1.66 1.07.375-.252.889-.31 1.36-.427.478 1.592.39 2.701.906 4.28.711-.225.93.51 1.51-.428.956 1.207-.03 3.328-.303 4.705 1.548 2.428 2.721-2.18 4.228-2.565-.715 3.025 1.617 2.342 2.87 2.992a6.436 6.436 0 0 0-.153 1.928c1.517-2.061 4.48-3.924 5.436-7.488 1.735-1.152 2.817-3.361 4.982-2.781.083.856.377 1.81 1.209 2.138-.082.828.27 1.043.15 1.924.207.28.799-.71 1.358-.64.068.19.134.383.304.43-.023.964-.528 1.246-.603 2.138.657.283.955-1.78 1.81-1.928.59 1.75-.482 4.12-.605 6.207.576.168.986-1.741 1.664-2.14.328-.04.478.175.451.642.712-.984 1.559-1.787 2.113-2.996.203.21.301.572.454.855.066 1.095-.583 1.173-.604 2.141a7.85 7.85 0 0 0 2.414-2.996c.604.118.455.118 1.059 0-.075 1.39.569 1.762.603 2.996.442-.159.743-.519 1.057-.857.494.308.381.479.3 1.285.493.055.732-.255.757-.858.357-.005.446.37.908.215.122.605-.213.555-.153 1.07.115.354 1.244.354 1.36 0 .218.263.228.818.451 1.07.714.158 1.04-.24 1.662-.214.33.448-.078.61 0 1.283.365.517.4-.52 1.057-.215.247.334-.051.834-.15 1.284 2.957 2.906 4.92-5.075 7.247-6.844.78-.109.755.92 1.66.64.06 1.343.988 2.744 1.811 1.711.144 2.42-1.43 4.246-1.965 6.418 1.376-1.974 2.233-4.686 3.778-6.418 1.267 1.951-.99 3.854-1.057 5.99-1.077 2.183-1.986 4.606-2.87 7.063.081.171.158.345.15.639 2.784-3.829 4.752-8.814 7.552-12.621.06.515-.277.465-.152 1.07.887.032 2.208-.369 2.718-1.926.94.24.85 1.932 1.358 2.78 2.742-.264 5.954 1.41 7.549 4.066 2.603.093 4.19 1.626 6.343 2.353 1.465 2.272 4.038 2.975 5.735 4.92.952 1.794 1.894 4.737 3.17 5.35-.103 1.17.256 1.904.756 3.422.73 2.207 1.41 6.102 2.87 6.418.482 1.885.065 5.044 1.508 5.564-.132 1.404.08 2.312.756 2.565.226 1.861-.005 3.49-.302 6.42.571.182.712-.709 1.058-.213.036 1.334-.402 1.997-.904 2.566-.064.446.104.567.148.858.786.042 1.127-.547 1.36-1.286.638.095.813.843 1.662.641.427 2.13-.32 3.81-1.057 5.35.656-.09 1.135-.759 1.81-.213.006 1.079-.522 1.397-.753 2.138.48.98.88-.559 1.808-.214-.023.25.034.383.153.43-.6 1.738-.03 2.872-.905 4.491.69-.062 1.833-1.071 3.17-.43-.05.43.03.67.301.643-.314.626-.283 1.741-.453 2.569.615.84 2.191.317 2.566 1.498-1.353 8.76-4.973 15.414-7.697 22.463-.952 2.459-1.916 5.238-2.871 7.7-.284.74-.437 1.614-.602 2.782-.725.688-1.153 2.928-1.513 3.422-.526.33-1.25-.21-1.637.603 1.444 2.293-1.357 4.874-.777 7.315-.24 1.07-1.368 1.592-1.057 2.78-1.186.318-.843 2.802-2.266 2.782-.225 3.044-1.775 5.072-1.658 7.916-1.973 1.286-2.024 4.572-3.172 6.631-.232-2.54 1.648-3.939 1.659-6.845-.421.542-.514 1.547-1.055 1.925-.087.8-.13 3.138-1.207 3.21.444-2.25.839-2.841 1.81-5.35.016-.88-.604-.856-.453-1.926.666 1.063.908-.967 1.21-1.709.384.023.3.714.302 1.281.897-.155-.08-1.349.752-1.71-.132-.632-.227.496-.604.212.38-.975-.14-2.502.303-2.994.02-.385-.185-.45-.152-.855-.658.165-.917-.06-1.358.642.472.658-1.233 1.91-.603 3.85-.25-.216-.164-.907-.305-1.281-.519.975-.64 2.51-1.353 3.207.086.763.869.151.902-.428.328-.036.07.76.152 1.07h-1.054c-.025.605.423.536.597.856-.22.47-.456.917-.45 1.71.046.291.381.178.607.215-.468.266-.284 1.453-.754 1.711-.107.575.31.415.45.643-.063.406-.434.385-.304 1.068.067.318.194-.084.451 0-.177 2.17-.978 3.458-1.357 5.35-.505.22-.233-.666-.3-1.07-.923.37-.536 1.416-.755 2.568-.877.04-1.032 1.106-1.51 1.71-.175-.32-.628-.252-.603-.855.482-.067 1.203-.607 1.055-1.71.1-.643.324.203.605 0 .025-.678-.4-.716-.303-1.499.136.166.34.23.604.213-.123-.397-.194-.863-.451-1.068.018-1.002.22.234.603 0 .219-.048.051-.64.3-.643-.258-.704-.683-1.172-1.056-1.713-.287.091-.273.614-.754.43.06.414.691.017.452.856-.01.998-.343-.25-.602-.215-.736.294.246.882-.15 1.285-.162-.054-.102-.428-.303-.43-.522 1.473-1.1 2.865-1.813 4.065.017.547.277.749.456 1.07-.933.465-1.485 1.47-1.965 2.568.098.218.345.22.302.641-.946-.503-.87 2.15-1.812 2.355.278 1.308-.032 2.905-.754 3.85-.13-.917.08-1.422.3-2.139-2.892 4.457-5.21 11.586-8.755 15.83.051 1-.326 1.394-.455 2.141-.465-.15-.29-.15-.756 0 .07.19.134.381.305.426a1.381 1.381 0 0 0-.905.642c.061.732.408.274.149 1.07-.288.402-.377.026-.756 0 .389 1.347-.454 3.267-1.357 2.782-.57 1.403-1.932 2.824-1.961 4.28-.266.48-1.008.284-.909 1.283-.179.029-.29-.038-.363-.163-.006 1.278-1.093 1.924-1.146 3.8-1.145.231-1.245 1.947-1.81 2.993-.657-.346.164-.266 0-1.068-.057-.3-.268-.019-.304.213-.426.036.125-1.317-.302-1.281.47-.432.744.101 1.207-.428-1.436-1.562.353-3.628 1.056-5.137.326.321-.108.525.153 1.07-.71.207-.806 1.283-1.36 1.711.017.405.5.15.455.643.399-.927 1.99-2.17 1.055-4.064.309-.994.908-1.565 1.51-2.14-.245.72-.58.669-.301 1.71.32-.674 1.186-.246.756-1.496.333-.118.212.408.451.428-.536-.92-.59-2.51 0-3.424.306-.43.296.095.606.215.352-2.208 1.455-3.36 1.962-5.35-.876-.572-1.77 1.5-1.36 2.781-1.705.096-2.114 3.841-3.624 4.922-2.248 5.013-4.456 10.088-7.246 14.334-.671-.61-1.955 1.271-2.414 2.354.13.879.37.965.752 1.07-.36.342-.321 1.255-1.055 1.068-.232-.388.072-1.322.303-1.71-.613-.332-1.28.437-1.211 1.71-.223.113-.378.318-.604.43-1.957 5.355-5.618 8.294-7.853 13.264.307-1.853 1.93-3.69 2.57-5.78-5.43 5.571-9.44 15.01-14.949 21.184-.574-.85-1.337.875-1.96 1.71-.178-.035-.131-.39-.153-.642-.634.526-.344.61-.153 1.07-1.165-.542-1.348 1.853-2.564 1.926 2.574-4.413 5.784-7.92 8.152-12.623-4.459 4.021-7.448 10.126-11.777 14.332-2.995 3.816-6.584 7.927-10.418 9.844.018-.405.5-.15.453-.644-1.009-.64-1.712.994-2.566 1.285-.737-.76-1.748-.636-2.717-.213-.21-.275-.092-1.01-.303-1.285h-2.113c1.222-1.833 3.309-2.442 4.379-4.493-1.834-.03-3.695 1.751-5.285 2.782-.33.039-.48-.175-.452-.64-4.248-.828-6.44-4.57-9.664-6.847-.49.314-1.4.39-1.36-.642 2.782-1.407 4.54-4.266 6.19-7.276-2.914 1.498-4.537 5.743-7.85 5.993-.078-3.34 3.325-2.582 3.321-5.135 2.944-3.604 5.664-7.523 7.852-12.195.412.017.302-.357.603 0-.137-.835.107-2.794.756-3.21-1.69.5-3.424 3.793-5.135 4.28-2.63 2.692-4.953 6.951-7.547 8.984 1.15-1.935 2.56-3.503 3.624-5.562-.137-.516-.446.484-.907.215.049.494-.024.82-.15 1.068-1.402-.171-1.875 2.01-2.871 1.71.126.607-.213.558-.15 1.073-1.659.715-2.367 2.775-3.624 4.063-.498-.32.256-.604.303-.854-3.03 1.628-6.303 5.898-9.21 7.7.939-2.376 3.01-3.152 3.925-5.561.963.528 1.113-1.805 1.963-2.139-.169-.333-.491-.446-.455-1.07-5.22 4.367-9.489 10.085-15.098 13.906-.671-.317-.935-.07-1.51.213-.333.118-.213-.408-.453-.428-1.143.45-2.324.137-3.017-.64-2.533 1.697-4.65-1.416-7.248-.43-.697-.296-1.223-.832-2.264-.64-.055-.637-.262-1.058-.604-1.286-2.779 1.252-2.516-3.34-4.228-4.277-1.08.305-2.524.718-3.02-.645.634-1.81 2.323-2.126 2.717-4.275-1.648.16-3.21 2.294-4.83 3.209-.555-.212-.905-.717-1.51-.86-1.035.074-1.436 2.051-2.418 1.499.457-.753 1.005-2.365 1.662-2.137.05-.5.18-.886.301-1.285-1.142.524-2.343 2.322-3.623 3.638-1.847 1.901-3.585 4.29-5.588 6.418-3.929 4.182-8.744 6.665-12.982 10.483 4.59-4.198 9.557-9.111 14.494-14.762 1.87-2.142 3.966-5.207 5.436-6.846.308-.347 1.018-.112.603-1.07 1.02.307.777-1.182 1.512-1.283-1.127-.8-1.665 2.854-2.569 1.71.11.655-.154.781-.15 1.286-1.006 0-1.138 1.24-1.812 1.71-.53-.775-1.388-.157-1.51.856-4.212 1.02-6.14 5.278-9.362 7.701.35-.86.97-1.336 1.36-2.138-4.54 4.12-9.046 8.286-14.041 11.765 2.995-3.744 7.211-5.755 10.115-9.627-2.047 1.23-3.93 2.834-5.889 4.28-1.421 1.048-2.884 2.16-4.226 3.422-.635-.079-2.145 1.452-1.057.214 2.048-2.328 6.497-5.31 8.906-6.847.637-.735.982-1.887 2.114-1.924 2.375-4.101 5.568-5.754 8.004-9.627-2.087.539-3.312 4.147-5.89 4.707-.395.15-.297 1.003-.603 1.281-3.36 1.232-5.292 5.626-8.302 6.635-.177.32-.63.253-.606.854-4.488 2.2-8.247 5.43-12.984 7.275-3.122-1.514-7.594-2.197-9.817-4.28 5.725-1.217 10.882-4.36 15.1-8.343 1.291-1.662 3.368-2.219 4.229-4.492-.352.075-.708.136-.606.853-.855-.986-1.178 1.224-1.96 1.498-2.138.753-5.626 3.415-7.702 4.71-1.378.859-3.48 1.721-5.133 2.779 4.02-3.644 8.159-7.122 10.871-12.622-4.492 2.2-11.665 10.028-17.21 10.913-1.195.189-2.474-.337-3.022-1.715 3.154-.665 5.444-2.552 8.154-3.85 2.086-1.607 3.85-3.67 6.037-5.135.231-.388.572-1.268 1.059-.64-1.476 2.473-3.867 3.65-5.889 5.35 3.992-1.834 7.7-5.919 11.172-9.2-1.687.177-2.82 2.99-4.832 3.422-.03-.366.259-.555 0-.643 4.15-4.534 8.652-8.562 12.08-14.119-5.144 5.05-11.092 10.812-16.91 15.617.3-2.155 3.47-2.668 4.379-4.707-.082-.308-.877.169-1.21.215-.075-1.392.877-.439.757-2.138 1.418-.701 2.467-1.926 3.02-3.854.96 1.011 1.51-.938 2.566-1.068-.241-.817-.241-.252 0-1.069-2.244 1.509-3.952 2.625-6.192 4.278.319-.722.175-.985.756-1.07-.541-1-1.045.663-1.51 1.07.038.553.26-.293.604 0-1.932 1.828-3.862 3.653-5.283 6.205-1.787.563-3.336 3.24-4.983 4.707 1.816.12 2.713-2.819 4.983-3.21 1.003-1.328 2.482-2.99 3.773-3.21-3.979 5.248-9.455 7.114-14.344 10.91 1.094-1.947 2.873-2.917 4.38-4.277.53-.961 1.212-1.704 2.113-2.139 1.03-.965 1.657-2.907 2.568-3.424.224-.094-.06-.273 0-.642 1.268-1.272 2.816-2.142 3.32-4.493 2.227-1.267 3.275-4.203 4.832-6.418-.375-.468-.69.445-.756 1.07-.379-.087-.694-.732-.453-1.07-2.438 1.48-3.797 4.07-6.34 5.776-.145-.655 1.058-.468.452-1.068 1.252-.692 2.54-3.073 3.474-4.92-.116 1.23 1.269-.25 1.21-1.498.265-.402.438.254.751-.215-.065-.191-.13-.383-.3-.428.385-.31 1.011-.277 1.359-.643.056-.722-.264-.912-.453-1.283.134-.576.612.1.453.643.375.034.466-.335.754-.428-.038-.267-.3-.216-.301 0-.39-.294-.033-1.312 0-1.713-.371.19-.873.192-.906.856-.268-.193-.25-.786-.606-.856 1.298-.517 1.408-2.711 2.719-3.207-.176-.317-.176-.542 0-.857-1.507.232-1.544 2.905-3.02 2.568-.479.819-.96 1.64-1.359 2.568-.364.086-.328-.393-.756-.216-.185.693.49.165.303.857-.703.999-1.504 1.863-1.963 3.209-.186-.094-.308-.275-.3-.643-.428 2.032-1.634 2.964-2.567 4.28-.273-1.557.884-1.905 1.36-2.994-.253-.765-.406-.425-.907-.643.063-.48.801-.006.906-.428-.902-1.121-1.233 1.659-2.113 1.926.079-.173.155-.348.148-.643-1.6.443-1.888 2.744-3.47 3.211.034 1.047-.451 1.36-1.059 1.497-1.35 1.533-2.664 4.173-4.377 4.492 2.392-3.6 5.354-6.39 7.397-10.483-2.944 2.035-5.383 6.633-8.606 8.987-.255-.518.679-1.174 1.057-1.498-.548-.628-1.135.522-1.358 1.068-5.62 5.357-11.803 11.564-17.968 16.687-1.556 1.291-2.681 2.432-4.83 2.141 7.236-5.72 13.8-12.393 19.326-20.539v-1.285c.434-.453 1.097-.581 1.207-1.496-.45-.098-.641-.97 0-1.069-.284-.977-.925.299-1.207.641.131.622.225.24.603.215-.225.526-.62.477-.303 1.281-.473-.1-.617.268-.755.643-.218-.048-.05-.64-.301-.643-.516.353-.09.717-.301 1.498.132-.66.462-.137.672-.306-1.302 2.21-3.94 3.048-5.05 6.082-.429-.175-.393.302-.757.216v-1.283c1.114.243 1.808-2.769 2.567-2.353.199-1.115 1.089-1.513 1.662-1.498.022-.534-.238-.662-.303-1.07-.504.497-.934 1.099-1.36 1.71-.696-.804.227-.953.454-1.283 1.424-2.063 3.35-5.178 4.982-7.273.212-.769.433-1.528 1.057-1.713-.173-.316-.173-.538 0-.856.919.762 1.979-1.292 2.265-2.78-.852-.263-.964 1.363-1.51.856-.019.384.186.451.151.856-2.761 1.862-4.123 5.708-6.945 7.486-.303-.654.193-1.115-.15-1.71-1.86 1.144-3.833 2.129-5.133 4.064-.817.2-1.306.862-1.663 1.713-1.994 1.952-4.257 3.525-6.04 5.775-3.955 2.491-5.935 6.812-10.72 8.346 1.13-1.325 2.796-1.889 3.776-3.424h.906c5.947-5.195 11.205-11.367 16.608-17.33-.064-.448.104-.567.152-.856 1.493-.948 1.978-3.33 3.623-4.064.356-.781.797-1.436 1.51-1.711.462-2.839 2.364-3.64 3.322-5.78-2.249 1.242-4.141 4.826-6.342 6.846 1.358-2.71 3.541-4.252 4.832-7.058-2.563.932-4.355 4.812-6.796 6.633 2.06-3.276 4.576-5.548 6.644-9.2-.588.236-.814.985-1.207 1.498-.772-.233-1.975.376-2.113 1.711.873.098.605-1.422 1.508-1.285-.668.908-1.235 1.959-2.114 2.568.245-.296.189-1.015.756-.855-1.322-.818-1.97 2.876-3.474 3.209-2.738 4.178-6.463 6.957-9.36 10.91-.718-.16-.825.54-1.207.856.103-1.282 2.104-1.722 1.961-4.065.555-.497.937-1.24 1.51-1.71.515-.16.249.789.603.855 1.002-1.946 1.633-4.574 3.172-4.707.126-.248.201-.573.153-1.069 2.154-2.223 3.675-5.348 5.886-7.488-.127-.32-.38-.46-.754-.428 1.022-.305 2.225-.953 2.567-2.78 1.821-1.629 3.205-3.877 4.982-5.563.014-.584-.252-.432 0-.856 1.225-.198 1.46-1.394 1.813-2.353-.475.087-.617.772-.907 0 .248-.86 1.753.06 1.811-1.07.072-.457-.213-.407-.451-.428.304-1.088.5-.163 1.056 0 .14-.157.23-.39.301-.643.187-.692-.487-.164-.3-.856.41-.02.303.357.603 0-.11-.2-.273-.322-.453-.427.228-.706.368.445.756.215.41-.197-.405-.398-.153-1.07.537.606.8-.611 1.36-.641-.2-.562-.663-.423-.606-.856.017-.524.501-.047.455.213.26-.604.187-.498.604-.643.2-.534-.596-.67-.15-.855.32-.1.285.306.3.643.595-.084.463-.152 1.057-.428-.253-.496-.564-.912-.602-1.713-3.918 5.287-7.692 10.78-11.629 16.045h-.601c-1.431 2.329-3.67 4.636-5.436 5.777 1.578-2.683 3.761-4.513 5.284-7.273-1.188.192-2 2.714-3.32 3.424.13-1.785 2.173-1.986 1.507-3.639.043-.44.668-.05.605-.643.254.956 2.247-1.618 1.961-2.779.709.168.84-1.014.909-1.713-1.382-.53-1.812 2.142-3.172 2.356.336 1.647-2.077 1.869-2.116 3.423-1.422.62-1.787.248-2.867 1.497.024-2.12 1.175-2.054 1.813-3.64-1.375.122-2.24 2.818-3.475 3.852-.325-1.392.916-2.409 1.662-2.996 1.703-2.15 2.78-5.186 4.983-6.63-.033-.228-.343-.595-.56-.608-.051.049-.153.137-.194.18.034-.14.107-.185.193-.18 1.166-1.12 4.536-3.807 4.94-6.88-.068-.748-1.16-1.64-1.51-.643.261.27.395.724.906.642-.351 1.5-1.513 1.85-1.963 3.211-.268-.157-.02-.391 0-.642-.754.617-1.267.268-1.662 1.283.227.25.371.617.756.64-.187.448-.594.587-.756 1.07-.39-.05.208-.366 0-.855-2.174-.084-1.914 3.276-3.924 3.424.02.528.023 1.03-.15 1.283-.357-.841-1.158.729-1.059 1.284-.64.078-1.7 0-1.207-.856-.397.221-.51.847-.906 1.07.025.252.275.18.451.213-.126.248-.198.573-.148 1.07-.626-.056-.609.253-.455.856-.309.428-.295-.095-.604-.213.083 1.537-1.192.889-1.207 2.568-.585-1.155-.638 1.625-.756.426-2.156 3.078-4.888 5.34-6.34 9.414-.394-.626-.829.13-.908-.857-2.119 2.88-4.02 6.871-6.793 9.414 2.137-3.461 4.583-6.487 6.645-10.055.122.041.15.215.3.213.629-1.166 1-2.086 1.208-3.422.372.029.727.033.906-.213.02-.385-.184-.452-.15-.857h.906c.649-2.275 2.917-3.956 3.775-6.63.244-.062.259.2.451.212 1.323-2.721 2.556-4.773 4.38-7.06-.125-.794-.528-.046-.755.214-.133-.194-.026-.632-.152-1.283.257.01.391-.16.455-.43.078.232.234.908.904.856.202-.145-.13-.65.301-.856-.015-.522-.498-.043-.451.215-.389-1.155 1.505-.494 1.057-1.926.233.487.315.404.755.215-.225-.322-.678-.326-.603-1.07.213.018.428.035.451-.213.22.262.229.815.453 1.068.285-.025.106-.706.453-.64-.224-.537-.678-.751-1.058-1.07.325-.585.746.501 1.058.642.436-.31.583-1.029.907-1.498-.018-.522-.501-.046-.456.213-.264-.847.444-.62.756-.64-.258-1.051.107-1.848-.603-2.356.488-.234.473-1.183 1.058-1.281.18.28.059.335 0 .642.555-.14.75-.791 1.055-1.285-.259-.205-.303-.711-.603-.855-.629 1.159-2.444 2.736-2.114 3.85-1.108 1.497-2.105 3.149-3.32 4.493.062.409.051.92.451.856-.185.647-.575-.15-.754-.213.384-1.384 1.353-1.936 1.81-3.211-1.513 1.136-2.665 2.784-3.472 4.92-1.297.66-1.968 2.204-2.566 3.851-.997.054-.71.593-1.057 1.499-.311-.273-.765-.343-.754-1.07.793-.732.85-2.504 1.66-3.21-.137-.686-1.04.829-.603-.213-.305-.487-.503.99-1.057.856-.15-.96-.193-.955-.303-1.713-.375.025-.466.401-.753 0 .14 1.006.312.57 0 1.498-.155-.877-.448-.319-1.21-.428.84.321-.04.94 0 1.926-.19-.054-.152-.424 0-.428.031-.893-1.177.123-.603-.642-.158-.412-.6.563-.756.857.523.171.58-.32 1.057-.215.123.887-.44.802-.604 1.283.695.243 1.335-.677 1.81-1.068.393 1.769-1.365 2.338-2.263 2.994.31-1.589.258-1.417 0-2.781-.444.296-.61.987-1.056 1.283.186.307.52.407.904.43-.285.956-1.158-.651-1.356.428.136.585.529-.381.754.213-.431.677-.151 1.037.453 1.285-.164.841-1.33 1.384-1.056 2.136-.832.202-.12-1.874.451-2.136-.028-.175-.15-.214-.15-.428-.497.007-.576.607-.604 1.283-1.014-.013-1.182 1.178-1.51 2.139-.937-.216-1.507 1.828-2.265 2.566 1.272-.2 2.188-2.741 3.472-3.635.528.753-.54 1.235-.756 1.498-.105.129.113.492.153.426-.449.739-1.265 1.493-2.113 2.569-.937 1.189-1.456 2.783-3.02 2.78.025-.25.275-.182.451-.214.569-1.048 1.129-2.112 1.813-2.996-.731.105-.797 1.15-1.358 1.498-.257.078-.286-.167-.302-.428-.387.023-.53.393-.756.643.065.317.194-.084.453 0-.274 1.113-.723-.102-.453 1.498-.323.387-.989-.042-.604.855-.203-.14-.28-.457-.3-.855-.69.09-.576.681-.456 1.498-.5.146-.241-.443-.15-.643-.658.209-.912.988-1.358 1.496.04.44.562.203.604.643-.242.656-.888.74-.906 1.711-.309-.408-.305-.93-.153-1.498-4.204 5.738-8.25 11.696-13.435 16.045-1.084 1.886-2.657 3.083-3.776 4.922-1.526-.025-1.617 1.987-3.02 2.14 2.272-3.27 5.495-5.196 7.55-8.771 2.263-2 3.5-5.453 5.89-7.274.894-1.585 1.866-3.057 3.018-4.279-.075-.676.272-.756.15-1.498.554.838 1.624-1.248 1.057-1.285.778-1.94 2.634-2.244 2.871-4.063 1.655-.387 2.41-4.521 3.924-5.136.004-.503-.26-.629-.15-1.282 1.9-.81 2.564-4.483 4.226-4.921.532-3.01 2.583-4.272 4.078-7.061.046-.563-.209-.701-.603-.64-1.192 1.52-2.606 2.726-3.02 5.347-.2-.275-.556-.275-.756 0-.389.99-1.167 2.588-2.414 2.994-1.13 3.322-3.177 5.34-5.285 7.276-.105.658-.105.41 0 1.068-2.472 2.13-4.167 5.367-6.797 7.275.901-1.72 2.63-4.12 3.926-5.99-2.401 1.33-3.728 4.933-6.34 6.418v.856c-.375-.033-.734-.04-.756.427-.175-.035-.125-.39-.15-.642-4.008 4.59-7.61 9.753-12.23 13.478-.257.08-.285-.165-.301-.426-.066.692-1.016.13-1.057.856.083.483.235-.262.453.21-.04.443-.67.053-.605.643-.225-.092.059-.273 0-.642-.424.255-.962.349-.905 1.285-4.012 2.377-6.508 8.037-11.175 8.771-1.442 2.003-5.289 3.774-9.057 3.852 2.614-1.287 5.716-3.023 7.246-5.135 1.175-1.116 2.514-2 3.775-2.994.133.687-.39.444-.453.854 1.056.208 2.06-1.496 2.867-2.352-.99-.048-1.051 1.218-2.113 1.068 2.98-2.924 6.247-5.794 8.155-9.627.7.327 1.277.022 1.51-.855.069-.456-.217-.408-.454-.428.626-.754 1.194-1.59 2.113-1.925-.051.281-.265.335-.3.64 1.498-1.582 2.276-3.146 3.773-4.92-.046.505-.523.398-.451 1.07 1.124-.864 2.678-2.473 3.168-4.492 1.951-.73 2.279-3.04 4.078-4.279-.116-.19-.163-.483-.15-.855-2.505 1.44-3.653 4.81-6.041 6.418.016-1.263.718-1.552 1.058-2.354-.839-.046-1.039.81-1.209 1.711-2.249 2.09-4.632 3.99-6.19 7.06-1.171.09-2.298 1.225-2.868 2.782-1.854-.072-3.247 4.45-5.737 2.781-.162.198-.451.22-.666.346-.08.099-.164.193-.24.295a.47.47 0 0 1 .24-.295c1.564-1.945 3.805-3.354 5.647-5.268 2.33-2.42 4.424-5.385 6.644-7.701-.2-.535.596-.67.15-.856.15-.344.404-.493.606-.214-.246-2.331 2.07-2.726 2.565-4.705-.139-.582-.281.57-.754.214-.886 1.541-2.228 3.525-3.473 3.85-.063.407-.325.539-.3 1.07-7.734 8.29-14.309 16.247-24.762 20.11 7.91-3.552 13.446-10.47 19.927-16.045.387-.022.246-.798.455-1.07 3.309-3.087 5.976-7.078 9.21-10.27-.062-.515.275-.464.152-1.068-.025-.25-.277-.181-.455-.215.537-1.093 1.31-1.854 1.962-2.78.446.714-.274 1.597-.45 2.137.705-.303 1.39-1.019 1.66-1.71.06-.155-.064-.632-.01-.805-.009-.012-.01-.027.01-.051-.008.01-.006.036-.01.05.095.134 1.758-.502 1.672-1.763-.13-.626-.383.28-.756 0 .454-.995 1.196-1.582 1.66-2.567.454.587-.216 1.393-.303 1.926 1.116-1.059 2.279-2.051 2.719-4.064-1.095-.084-.964 2.571-1.963 1.926 1.294-1.46 1.615-3.209 2.416-4.495-.047.501-.298.884 0 1.286.504 0 .514-.696 1.057-.641-.024.531.237.662.302 1.068.558-.064.564-.908.905-1.283-.025-.251-.275-.18-.453-.215.35-.13.42-1.12.152-1.496-.26.223-.188 1.25-.604.64.176-1.337 1.812-1.77 2.414-2.78.076-.894.573-1.186 1.057-1.498v.855c.567-.553 1.745-.237 2.266-.855-.128-.248-.2-.575-.15-1.07.895-.086.847-1.51 1.056-2.567-.46-.063-.587.685-.906.215-.042-.881.628-1.043.302-2.141.35-.094.404-.945.754-.428-.11-1.246-1.535.657-1.36-.855-.65-.071-.37 1.184-1.056 1.07.838-2.282 1.895-3.002 3.022-4.707.169.85-.136 1.143.15 1.926.865-.202 1.108-1.284 1.963-1.498v-1.283c.198-.418.8.428.906-.43.056-.647-.493-.445-.756-.64-.913.36-1.049 1.923-1.962 1.712.611-1.196.715-3.071 2.416-3.638.289-.275-.357-.441 0-1.069.955-.073.813-1.7 1.66-1.926-.083.437-.452.419-.15.856 1.399-2.868 3.227-5.125 4.83-7.701-.992.092-1.357 1.069-1.962 1.71-.638-1.836 1.524-1.546 1.663-2.995-.674.333-2.218 1.28-2.418 2.996-.66-.179-1.694 1.41-1.66 2.14-1.934.517-2.293 4.272-4.229 5.776-.263-.197-.523-.398-.451-1.07-.422.35-.798 1.025-1.057 0-.432.174-.594.727-.908 1.07.037.376.26.486.605.427-.622 1.01.035 2.148-.906 3.207-.267-.192-.249-.786-.603-.855-.553.337.35.32.15.855-.584-.09-.538-.232-.906.217.14 1.24-.522 3.08-1.51 3.422.984-1.015-.995-1.107-.15-1.926-.708.141-1.24.526-1.36 1.498-.047.32.38.33.477.08a.667.667 0 0 0-.022-.294c.055.122.051.219.022.294-.087.829-1.315 2.193-1.987 2.702.1-.075-.07-.462.15-.428-.263-.041-.854 1.124-1.056.64.137-.449.233-.951.453-1.283-.6.218-1.03.682-1.207 1.498.082-1.048 1.197-4.693 2.114-3.851.14-.157.228-.39.302-.643.52.155.1.644 0 1.07.468-.119.657-.637 1.057-.855-.486-.756.027-.783.3-1.498-.046-.289-.377-.175-.603-.213v-1.285c1.1-.225 1.93-.83 1.813-2.78-1.208 1.499-2.882 2.338-3.776 4.278-.329-.81.519-1.219.303-2.139-1.078 1.011-2.407 2.662-3.625 2.782-.136 1.995-1.535 2.978-1.96 4.92-.458.067-1.177-.236-1.21.43-.326-.34.557-.769.604-1.286-.778.362-1.272-.204-1.66.643.355-2.135 2.845-3.097 3.472-5.563 1.357.307 1.204-2.257 2.266-2.781-.043-.45-.404.31-.606-.213 1.018-2.908 3.155-4.231 4.53-6.635.437.43-.434.794-.301 1.498.981-1.175 2.04-2.24 2.867-3.635-.053-.335-.265.187-.3-.214-.767.483-1.041 1.666-1.813 2.14.169-1.116 1.144-1.092 1.056-2.568 1.29-.171 1.199-2.297 2.416-2.568.19-.34-.157-1.217.454-.643-.208-.678-.034-.715 0-1.496-3.005 3.16-5.017 7.722-8.002 10.91-.41-.196.404-.398.152-1.07-.724-.17-.704.718-1.209.857-.29-1.127.94-1.947 1.209-2.996-1.242 1.193-2.1 1.692-3.172 3.209.02.685.344.941.906.855-.092.509-.203.998-.603 1.07.159-1.233-.511-.292-.453-1.07-.44.589-1.274.622-1.36 1.713-.537.332-.092-.728-.453-.642-.275.346.107.678-.303 1.07-.502-.307-.786-.128-1.507 0 .137.375.528.391.754.643-.641.993-1.197 1.844-2.416 1.498-.016.663.475.61.302 1.496.681.253.339-.947 1.057-.64-.11.652.154.778.15 1.28-2.67-.625-3.864 4.485-5.736 5.137.019.398.097.715.3.856-.403.33-.443-.815-1.056 0-.114.804.802.146.604 1.068-.4.007-.945-.2-.754.643-.604-.657-.898.54-1.36 0 .294-.937.88-1.465 1.057-2.567.848.646 1.914-.995 1.209-1.926 1.283.11 1.602-1.151 1.963-2.353 1.57-.82 1.693-2.69 2.867-4.28.49-.124.703.146 1.059.213.073-.674-.273-.754-.153-1.496.404-.447 1.176-.707.756-1.713.624.172.775-.326.756-1.068 1.028-.469 2.036-2.1 1.96-3.422.768-.847 1.629-1.939 1.36-3.638-1.043 1.52-1.548 2.61-2.869 3.85-.367-.842.57-1.397.604-2.352-.038-.232-.3-.146-.301-.428-.95.189-.152 1.552-.906 1.283-.189.692.487.164.3.856-.613.387-.462.364-.904-.213-.02.383.185.45.15.853-.197-.274-.555-.274-.753 0 .148.29.508.28.603.645-.578-.129-.832.78-1.662.853.7-2.214 1.93-3.685 3.022-5.347-1.863-1.336-2.244 2.89-3.776 3.423-.17.67.043.564-.15 1.07-1.307.145-1.728 1.544-2.266 2.78-.128.04-.142-.083-.15-.213.027-.182-.06-.202-.153-.215.212-.63.707-.851.756-1.71-.754.358-1.519.698-1.66 1.925-.391-.109-.564-.092-1.059-.428.37-.83.994-1.304 1.36-2.138.33-.04.482.175.453.64.497-.223.626-.967 1.057-1.285.445.187-.35.32-.15.856.646-.08.804-.854 1.206-1.282.114-.732-.612-.273-.45-1.07.334-.168.587-.45 1.056-.428v.643c.577-.109.51-1.13.904-1.498-.066-.318-.19.084-.451 0 .2-1.512 1.83-1.608 1.51-3.211.902-.665.662-.494.904-1.926.314.121.32.336.152.643.528.037.475-.753.754-1.069-.706-.23-.29-.294-.451-1.07-.277-1.309-1.26.517-2.568.856-.132 1.04.984.316 1.056 1.07-.098.362-.347.133-.302-.215-1.903 1.296-2.265 4.778-4.227 5.992.058-1.203.516-1.836 1.057-2.353-.02-.4-.098-.717-.301-.858.243-.319.727.141 1.056-.427-.102-.425-.461-.489-.605-.856-.684.53-1.576.76-1.508 2.354-.271-.029-.32.263-.605.214.063.516-.276.463-.153 1.069-4.328 6.846-8.845 13.423-13.134 20.324-.527-.255-.422-.732-.15-1.283-.642.4-.943.667-1.51 1.496.078-.754-.503-.687-.303-1.496-.209.344-.426.676-.602 1.07.022.394.51.13.602.426-.291-.082-1.479 1.008-1.66.642-.567.17-.008.75-.301 1.07-.295-.09.246-.609-.455-.427.13-1.348 1.035-.46 1.056-1.71 1.089-.22 1.64-2.272 2.569-3.21.781-.79 1.549-1.109 2.265-1.926 1.382-3.675 3.82-5.854 5.284-9.414.661.225.495-.724 1.056-.642-.315-.507.131-1.238.15-1.926.867-.055 1.322-.697 1.362-1.924 1.456-1.501 2.266-3.918 3.623-5.562-.046-.509-.408.238-.453.427-.528-.643-.733-1.215 0-1.71.404-.002.328.674.754.64.817-1.293 1.433-1.544 2.113-2.994-.025-.252-.275-.18-.451-.213.31-.774.215-1.154.3-1.928-.152-.135-.684.105-.753-.64-.607.638-1.332 1.108-1.21 2.78.27.263.613.418.757.856-.376 1.031-1.326-.06-1.36-.855.259.009.39-.16.451-.428-.398.041-1.463 1.053-.754 1.283-1.012.846-1.807 2-2.263 3.637.348.29.673.616 1.207.643-.116.19-.162.482-.15.855-.35-.503-.863-.774-1.36-1.07-.459.133-.771.475-.756 1.283-2.656 3.294-4.92 7.147-7.396 10.697.108.655-.26.63-.15 1.283-.636.045-.636-.81-1.21-.853-.306.205-.327.82-.302 1.496-.538-.654-.793.461-1.057.856.1.641.324-.204.605 0 .005.793-.23 1.24-.453 1.71-.638-.023-.39-1.3-1.058-1.28.61-1.187 1.987-2.003 1.963-3.425.482-.126.467.402.754 0-.163.007-.723-.362-.301-1.07.474-.246.366.337.603.428.251-1.903 1.267-2.756 1.963-4.494-.865-.669-.567.835-1.207 1.07-.266-.193-.442-.514-.756-.64-.405.324-.748.734-.45 1.497-1.318.773-2.205 2.155-3.022 3.637-.006.366.114.554.304.643-1.34-.922-1.9 3.396-3.474 2.779.211-.346.299-.647.453-1.498-.385.027-.776.041-.754.643-.209-.573-.211-1.521.3-1.924.462-.013.363.769.907.64.63.11.415-.982.756-1.283-.274-.107-.588.267-1.21.215.006-.778.622-.69.755-1.285.503-.148.244.443.152.642.282.204.504-.642.604 0 1.03-2.293 2.973-3.75 3.472-6.418.148.005.118.26.15.426 2.15-2.088 3.625-5.134 5.589-7.486-.155-.282-.15-.789-.303-1.07-.643.315-.64.525-1.36.214.213-.485.613-.703.756-1.283 1.033.631 1.431-1.243 1.207-1.926.566.017.864-.343 1.057-.855-.247.132.46-1.224 1.057-2.14.069-.106.195.374.152.427.822-1.032 1.095-3.079 2.264-3.637-1.113-.306 1.269-2.595 1.962-3.636-.669-.851-1.748.774-2.263 1.498-.605-.275.041-.443 0-1.07-.304-.206-1.11.704-1.21 1.497.466.16.185-.738.757-.427.062 1.223-.843.881-1.36 1.71-1.145-.345-.284-1.275-.754-2.138.956-.92 1.624-2.543 1.508-3.852.337-.117.217.41.455.428.154-.139.157-.492.453-.428.114-.73-.613-.27-.453-1.068.462-.155.443.368.905.213.105-.792-.238-.947-.754-.856.215-.55.982-.32 1.056-1.07-.029-.175-.15-.214-.15-.428-1.676.944-2.164 3.487-3.172 5.135-.04.066-.22-.31-.3-.215-1.484 1.726-2.716 4.703-3.624 7.06-1.03.256-1.687 1.034-1.812 2.567-.344.179-.586.06-.908.643-.78-1.284.899-1.741 1.36-2.569.428-1.817 1.499-2.721 2.265-4.062-.05-.501-.182-.886-.303-1.285-.92.278-.911.39-1.658-.213.052.66-.697 1.42-.907 2.353-.27-.156-.022-.39 0-.642-.67-.096-.799.577-1.209.855.086.484.235-.26.452.213-.35.788-.738 1.52-1.055 2.354-.44-.808-.744-.064-1.36 0 .34-1.227.836-2.24 1.813-2.567-.027-1.305.674-2.9 1.812-3.209.594-1.367.953-3.07 2.264-3.422-.063-.408-.431-.389-.303-1.072-1.195 1.13-2.019 3.54-3.472 3.639-.153.644.336.38.603.428-1.474 2.878-4.16 6.398-6.19 9.414-.632.94-.91 2.339-2.112 2.353-.28.032-.093.724-.303.854-1.384-1.145-.518 2.81-1.813 2.996-.017.383.186.45.153.855-.373.327-.898.441-1.057 1.07-.25-.228.387-.648 0-1.283.46.01.587-.451.904-.642-.295-.4-.046-.782 0-1.283-.098-.64-.32.205-.601 0 .153.101.827-1.414.82-1.555-.022.016-.046.026-.066.057.05-.077.065-.082.066-.057.119-.084.264-.011.387-.158 2.663-3.198 4.775-8.475 7.398-11.123.417-1.049 1.225-3.203 2.717-3.424.172-.672-.238-.519-.303-.856.021-.825.592-.877 1.21-.855-.106-1.368.728-2.284 1.359-3.21-1.007-1.024-1.004 1.736-1.963 2.354-.25-.577.647-1.358.906-1.925-.038-.234-.302-.145-.303-.428 1.884-1.856 2.857-4.042 4.076-7.06-.098-.643-.323.203-.603 0 .123-1.242.475-1.325.303-2.354 1.119-.769 2.248-1.518 2.414-3.637-1.051.155-1.568 2.192-2.264 2.139.64-1.12 1.019-1.282 1.36-2.78.315-.092.4.147.603.213-.063-1.036.585-1.349.603-2.78.747-.94 2.206-.868 2.416-2.567-.144-.53-.579.294-1.056 0-1.332 2.568-2.968 4.452-4.53 6.845-2.45 3.76-4.541 7.92-7.398 11.125-.266-.358.135-.717 0-1.498 1.614-1.49 2.408-4.148 3.775-5.99a181.259 181.259 0 0 0-10.42 15.617c-.054.279-.047 1.352-.906 1.07.33-.447-.075-.61 0-1.283 1.592-1.667 2.519-4.28 4.229-5.777v-1.068c.64-.83 1.758-.594 1.36-2.356 1.775-.237.94-2.91 2.716-3.209.44-2.241 2.36-3.82 3.322-5.99.007-.365-.11-.553-.3-.64-.984 1.034-2.433 2.542-2.417 4.279-.693-.13-1.15 2.438-1.964 2.136-.234-.76.513-.127.453-.64.084-.473-.289-.304-.303-.643-1.082.179-.832 2.241-1.96 2.354.07-.685.573-.755.603-1.498-.3.011-1.226.967-1.207 2.14-.597.038.047-.328-.303-.642-1.282.895-1.49 3.307-3.02 3.851-.176.034-.126.391-.15.643-1.322-1.132-1.336 1.887-1.963 2.996-.38-.284.397-.706.303-1.285-.641.16-1.232.397-1.059 1.71-.727-.5-.64-.153-1.207.43.11.47.71.71.303 1.282-.437-.45-.236-.038-.908-.64.21-.632.699-.866.908-1.497-.132-.624-.227-.244-.606-.217.314-.652.2-.67.454-1.496-.593.088-.777.751-1.208 1.07.1.218.347.222.303.643-.688-.12-1.878 1.095-1.209 1.496-.328.464-.922.55-1.209 1.07.016.758.29.938-.15 1.284.126.435.528-.515.754-.643-.12.619.528 1.179 1.056 1.498.17-.405.38-.75.455-1.283.192.988-.684 2.308-1.209 2.996.115-.624.36-1.061.606-1.498-1.141-.14-1.065.385-1.965.428.027.606.278.891.303 1.498-1.324-.173-1.655 2.55-2.717 3.422-.276-1.297.93-2.21 1.508-2.995.072-.456-.213-.408-.451-.427.066-.676.69-1.27 1.056-.856.184-.85-1.008-.089-.453-.857-.614.055-.703.858-.906 1.498-.585-.6-1.576.927-1.057 1.068-.18.414-.518 1.169-.906.643-.281.387-.553.785-.453 1.71-.988-.186-.798 1.295-1.357 1.714.047.29.376.177.603.213-.906.499-1.568 1.344-2.416 1.925.712 1.254 1.095-1.17 1.813-1.283.038.7-.588.453-.606 1.07.08.172.156.349.15.643.411-.132.708-.426.907-.857.427.76-.798 1.003-.907 1.712-.389-.051.209-.368 0-.855-.843-.127-.888.878-1.51 1.068.03-.173.155-.214.153-.43-.993.02-.71 1.848-1.66 1.928-.146 2.488-2.856 2.864-2.719 5.776-.44 0-.824-.09-1.51.43-.013.583.252.429 0 .855-.592-.733-.43.972-1.207.64.16.594.447 1.26-.152.856-.288.81.918 1.15.152 1.283-.152-.447-.248-.536-.756-.853-.41.192.46.477 0 .853-.282-.419-.553-.066-.906 0-.027.467.124.682.453.643-.963 1.558-2.191 2.742-3.172 4.28-.145-.996 1.206-1.713 1.663-2.57-.219-.226-.934.667-1.663.428.681-1.817 2.082-2.615 3.172-3.851-.333-.849.515-1.459 1.057-1.068.228-1.493 1.165-1.902 1.209-3.21 1.408-1.285 2.027-3.687 3.17-5.347-.654-.068-1.087 2.022-1.963 2.351-.012-1.752 1.661-2.904 2.113-4.705-.152-.354-.64-.233-.904-.427.626-.865.995-2.696 1.81-3.852.376 1.107-.878 1.745-1.056 2.781.137.377.339.661.605.856.59-.52.53-1.956 1.508-1.926.014-.799.17-.61 0-1.283 1.169-.84 2.067-2.064 2.416-4.065-.903.503-1.15 1.935-2.113 2.354.057-1.04.758-1.755 1.057-2.996-.105-.67-.403-.277-.756-.213.004-.638.714-.275.908-.643-.047-.29-.379-.177-.606-.213.157-.633.473-1.043.756-1.498.454-.215.266.478.301.856.635.043 1.262.076 1.36-.643-.025-.251-.275-.179-.454-.213.16-.98.963-.965.606-2.14.93.936.562-1.554 1.207-1.711-.07-.285-.653.255-.756-.428 1.353.04 1.307-2.468 1.963-3.851.634-.327.98.283 1.51-.428-.923-2.634 1.46-3.349 1.359-5.348.243-.06.26.203.453.215.221-.47.458-.92.453-1.713.373.03.732.04.754-.428-2.044.384-2.95 4.235-4.68 5.776v1.07c-.946-.661-1.256 2.059-1.962 1.711.481 1.587-1.606 1.254-1.813 2.568.185.653.578-.313.756.213-1.52.844-2.193 2.884-3.172 4.494-.555-.766.605-2.673 1.057-3.421-.098-.642-.322.203-.604 0-.044-.564.588-.171.455-.858-.047-.29-.38-.177-.605-.215-.352.34-.394 1.161-.303 1.928-.969.551-1.76 1.354-1.81 3.207-2.352 2.516-3.783 6.338-6.493 8.344-.081.58-.122.534-.302 1.285-1.076-.17-1.56.5-1.663 1.71-.522-.17-.579.32-1.056.216.081-.173.16-.349.152-.643-.565.054-.343 1.226-1.056 1.07-.083-.476.288-.305.302-.642-.346-.544-1.05.21-1.209.642-.004.835.76.038.754.428-.683 1.28-1.59.923-2.263 2.139-.008.365.11.553.3.64.45-.219.58-.89 1.21-.855-.567 1.501-1.817 2.363-2.567 2.996-.502-.453.452-.623.3-1.285-.091.583-.789.307-1.056.643.059.843.109.654.303 1.498-.768-.683-1.282.382-1.813.642.153.137.521.13 1.059.213-.454 1.781-1.863 2.212-2.87 3.209.233-.965.808-1.555 1.057-1.924-1.492-.255-1.807 1.027-2.437 2.127.008.006.013.003.021.01-.01-.009-.02.006-.03.004a4.605 4.605 0 0 1-.272.424c.039-.054.153-.443.271-.424l.01-.014c-.54-.42-.533 1.034-.281.653-.299.451-1.127 1.237-1.66 1.283.271-1.268 1.257-1.627 1.208-2.78 1.21.74.658-1.087 1.51-1.07.02-.383-.185-.452-.152-.855.532-.244.822-.83 1.209-1.283.33-.04.48.173.453.64.197-.074.236-.376.451-.427-.395-.227-.284-1.164-.451-1.711 1.012-1.49 1.815-3.274 2.867-4.707.07-.457-.216-.409-.453-.43.965-.565.791-2.34 1.813-2.352.024-.88-.677-.4-.303-1.283.392-.128.544.085.453.64.985-.475-.549-1.92.453-2.566.31.489.83.683.303 1.284.191-.177.861-.75.453-1.07 1.084-.058 1.494-1.201 1.96-2.567-.895-.27-1.99 1.025-2.263 2.353-.547-.679-.033-1.206 0-2.138-.376-.034-.468.335-.756.426-.087.695.104.995.153 1.498-.43-.502-1.034.119-1.36.427-.009.728.777.329.756 1.07-.681.573-1.253 2.31-2.113 1.926-.119.477-.317.835-.303 1.498.475.03.517-.55.604-1.07.427 1.402-.347 1.883-.453 3.422-.73 1.029-2.555 1.427-2.114 3.424-.288.093-.38.461-.754.428.517-.84-.56-1.356 0-2.14-.377-.605-.924-.973-.906-2.138.835.207.587-1.356 1.358-.642-1.053-2.23.876-3.442 1.962-4.493.656-.07 1.582.243 1.813-.43-.489-.477-.483-.544-1.057-.64v-1.285c-1.388 1.318-3.108 3.296-3.623 5.137-.703.043-1.16 1.601-2.115 1.925.197-.86.299-.525 0-1.283 2.092-1.958 3.453-4.952 5.588-6.847-.19-.287-.455-.42-.152-.856-5.359 6.241-9.946 13.58-15.4 19.682.99-2.138 3.457-3.165 3.321-6.203.46-.418 1.03-.681 1.66-.858-.04-.75-.668.388-.603-.213.56-1.633 2.1-3.014 2.566-4.066.485-.24 1.031-.394.907-1.496.48-.104.63-.673 1.207-.64.112-.197.006-.86.152-1.499.465-.15.29-.15.754 0-.217-.886.507-1.858 1.36-2.353-.089-.377.182-1.257-.151-1.285 1.062-.612 1.835-.96 2.566-2.352.112-.66-.415-.412-.302-1.07.593.27.449-.505.453-1.07-.698.039-.062-.942-.15-2.352.664-.396.618.342 1.056 0-.095-.904-.335-.787-.906-.643-.483.74-.79 1.731-1.66 1.924.17-1.18-.465-.005-.756-.64.211-1.326-.05-2.31.453-3.424.422-.188.746-.513 1.209-.641-.228-1.25.782-.745.603-1.926-.874-.096-.752 1.216-1.51 1.283 1.49-3.878 3.995-6.319 5.887-9.627a1.31 1.31 0 0 1-.15-.642c-3.075 2.34-4.722 9.823-8.303 8.771-.559-1.202.963-.013.604-1.71 1.567.392 1.826-1.88 1.66-3.637-2.457 2.22-3.654 6.233-6.342 8.129.059-1.258 1.964-2.476 1.813-4.065.83-.251 1.898-1.299 1.51-2.568.75-1.106 1.75-.999 1.206-1.924 1.722-.685 2.348-4.62 4.38-5.563-.191-1.339.745-1.082.603-2.353-3.491 3.894-6.025 9.148-9.362 13.264-.764-.73.852-1.21.606-2.567-.468.052-.586.595-.906.856-.576-.706.545-1.856 1.207-2.141-.079-.897.264-1.194.302-1.924-3.349 3.397-5.585 7.944-8.455 11.553-.102-.423-.685-.68-.754 0 .753.344-.73 1.948-1.056 2.781.245-.51.09-1.44.15-2.353-1.083.25-1.27 1.767-1.963 2.566.061.412.584.171.451.857a2.37 2.37 0 0 0-1.357-.214c1.768-3.342 3.92-6.143 5.889-9.2-.587.024-1.784.084-2.114.856.047.29.378.177.602.215-.289 1.159-.926 1.821-1.81 2.138.097.218.348.222.302.641-.545.37-.576 1.469-1.512 1.285-.638.162-.471 1.466-1.205 1.496.373 1.21-.765 2.04-1.359 1.926-.37-.606 1.093-.846.604-1.71.9-.787 2.242-1.868 2.113-3.423 1.418-1.2 2.15-3.374 3.625-4.494.16-.656.484-1.882 1.056-1.283.38.603-.443.795-.605 1.283.316.353.827-.256.303.643.848-.45.9-1.607 1.056-2.567.047-.435-.435.044-.453.213-.353-.444.324-1.244.453-1.71.134.163.34.23.604.212-.081.922-.4.695-.15 1.711 1.8-1.969 3.403-5.023 4.832-6.846-1.354.651-1.691 2.744-3.172 3.211-.13-.173-.09-.587-.303-.642.951-1.864 2.257-3.22 3.02-5.35-.846-.724-1.153 2.154-1.961 1.498-.086.448-.374.611-.303 1.283-.596-.262-.953 1.058-1.207 1.926-.864-.225-.883.745-1.51.856.463 1.863-1.611 1.42-1.66 3.209-.245.06-.263-.203-.455-.215-.377 1.535-1.173 2.473-2.414 2.783.028 1.646-1.021 2.783-1.965 2.353.392-1.768 2.735-2.431 2.115-4.279.707-.78 1.248-1.796 1.66-2.994h.906c1.253-2.043 2.716-4.637 3.774-7.06.148.005.12.26.152.425 1.698-3.94 4.126-6.846 6.04-10.48-.609-.57-.824 1.25-1.51 1.283-1.014 2.486-2.731 3.975-4.077 5.99v.856c-2.357 1.58-3.173 5.345-5.738 6.633 4.651-6.89 8.935-14.299 13.287-21.608-.541.159-2.329 1.066-1.812 2.78-2.071.738-4.21 2.94-5.887 4.921.848-.816 1.061-2.328 1.81-3.638.969-1.694 2.704-2.775 2.569-4.92.063-.601-.563.536-.606-.215-.656 1.004-.8 1.424-.906 3.209-1.144 1.516-2.48 2.76-3.924 3.853-.037.767.453.781.452 1.496-.976.9-1.28 2.752-3.02 2.567.013-.799.17-.61 0-1.283 1.757-1.329 3.755-3.983 3.625-6.633.122.114.243.224.451.215-.204-.423-.526-.68-.906-.856-.644.819-1.912 1.988-1.357 3.21-.146-.007-.118-.263-.15-.429-1.508.505-1.724 2.838-3.173 3.424-.918 1.837-2.501 2.73-3.17 4.92-2.62 1.493-3.936 4.833-6.19 6.846-.521.46-.753 2.274-1.661 1.498.28.88-.28.4 0 1.283-.285.451-.87.48-1.057 1.07-.452-.14.145-.457 0-.855-.5.075-.655.64-.906 1.07.272.027.319-.263.605-.215-.565.839-1.846.668-1.965 2.14.882-.076.096-1.186 1.208-.856-.529 1.5-1.637.855-2.565 1.71.088-1.137 1.294-.88 1.81-2.351-.927-.407.631-1.072.303-2.568.356-.006.446.37.907.215.127-.603.518-.836.754-1.286-.11-.2-.273-.324-.452-.427.728-1.279 2.174-2.338 2.262-3.85.745.212 1.228-1.61 1.965-2.353.417-.423 1.57-.324.754-1.07 1.235-.03 2.27-1.628 2.566-3.638-.51-.083-.236.946-.904.641-.13-.171-.09-.585-.3-.64 1.283-.395.955-1.299 1.657-1.926-.776-.312-1.567 1.198-2.416 1.496-.327.037-.067-.758-.15-1.069-.2.214-.561.203-.604.643-.15.802.742.466.303 1.068-.625-1.018-.065.569-.605.856-.313-.055-.04-.94-.301-1.069-.69-.12-.64.807-1.36.641 1.026-1.4 2.042-2.813 3.323-3.85.269.157.022.39 0 .641.736.275.707-1.245 1.209-.64-.05-.848-.47.158-.606-.428.043-1.04 1.035.377 1.207-.643.047-.435-.435.045-.453.215-.288-.023.179-.718 0-1.285.467.15.29.15.756 0-.385-.902.239-1.082.453-1.711-.633-.82-1.466 1.715-1.963.428-.692.604-.642 1.594-1.209 2.568-.665 1.141-1.801 1.568-2.564 2.566-.188.245-.074.877-.303 1.284-.292.52-1.015.635-1.36 1.07-.215.275-.808 1.5-.3 1.5-.343.433-1.404 1.916-1.512 1.281-.278.032-.092.724-.302.856-2.61 1.294-3.45 5.096-6.19 6.205 1.536-2.818 3.645-4.822 5.133-7.703 1.382-.109 1.568-1.917 2.266-2.995-.035-.272-.45-.281-.452 0-.23-.203.362-1.04.754-1.068.229.958 1.589-1.112 1.207-1.713 1.07-1.234 2.821-2.511 2.87-4.494 3.309-2.655 5.054-7.525 7.548-11.338-.084-.308-.236-.521-.453-.64-.807.353-.83 1.815-1.508 2.353-.177-.036-.129-.391-.152-.642-.864.558-1.702 1.153-2.113 2.351-2.54-.8-2.072 3.093-4.076 3.639.041-.724.18-1.312.753-1.283.744-1.441 1.573-2.766 2.87-3.424 1.002-3.542 3.275-5.018 4.226-8.131-.035-.551-.26.294-.603 0-.132-.828.37-.76.453-1.283-.138-.452-.606.405-1.057.214.533-1.098 1.902-1.013 1.813-2.994 1.413-.137 1.34-2.38 2.566-2.783.187-.692-.488-.163-.303-.855.413-.155.305.426.606.427.342-.165.608-1.543.45-1.71.067-.316.195.085.454 0-.24-.867.321-1.393 1.057-1.924.473.761.823-.051 1.209.213.373-.157-.5-.645 0-1.07h-.606c.465-2.48 2.114-3.283 2.719-5.563.396-.323.571.495 1.057-.215-.047-.29-.38-.176-.606-.213.386-1.557 1.616-.805 1.815-2.781.786.734.436-.973 1.207-.856-.21-2.063 2.296-1.79 2.416-4.066 1.506-.646 1.906-2.859 3.472-3.424.098.781-.72.267-.756.86.31.49.79-.315 1.057.427 1.58-1.473 3.897-3.04 4.531-5.137.552-1.144 2.643-1 2.414-2.566.429.223.632.223 1.059 0-.345.715.125 1.16.3 2.139-.837.023-.844 1.227-1.812 1.07-.087.228-.154.648-.303 1.283.055.282.268.336.303.643.393-.23.741-.52 1.36-.428-.241.68-.953 1.018-.604 1.926-.917.626-1.642 1.524-1.812 3.207 1.516-.918 1.249-4.362 3.925-3.635.235.76-.513.127-.453.64.365.504.805-.702 1.057-1.068-.147-.219-.298-.434-.453-.642 2.483-.16 5.091-5.4 8.304-6.631-.589 2.73-2.035 4.246-3.773 5.348.116.19.162.482.15.855-1.45.444-1.581 2.75-3.17 2.996-.162.799.374.61.301 1.283-1.015.762-1.446 2.28-2.263 2.78.066.19.13.383.3.43-.135.582-.337-.652-.603 0-.424.21.22.57-.15.855-1.574 1.123-2.594 3.03-3.624 4.92 1.97-.416 2.987-4.037 4.83-5.348.02-.385-.183-.453-.15-.857.652-.291.92-.154.906-1.069 1.245-.29 2.097-1.592 2.264-2.783.588-.166 1.178-.326 1.36-1.068-.677-.318-.465.627-1.057.43.229-.685 1.924-2.197 1.81-1.286.51-.458 1.01-.984 1.813-1.498-.066-.19-.133-.383-.303-.428.14-.374.474-.472.908-.427-.113-.405-.452-.149-.152-.643.457.314.424.458.906 0-.098-.217-.347-.22-.303-.64.352.173 1.046-.72 1.51-1.07.375.145-.223.651-.303.855.396.06.652-.08.606-.643.228.774.672.002 1.357.215-1.417 2.197-2.727 4.548-4.529 6.203-2.386 4.32-5.207 8.029-7.549 12.41 1.782-.827 2.845-4.527 5.135-5.347.25-.427-.014-.273 0-.856.426-.176.39.3.754.213-.428 1.962-1.645 2.804-2.566 4.064 1.207.072 1.746-2.66 3.322-2.779-.145.505-.265 1.05-.906.854-.217 2.473-1.644 3.235-2.416 4.922.314.57.72-.533 1.207-.428-.064.447.103.566.15.855.288-.09.38-.46.756-.427.041.345-.143.367-.15.64.723.029.576-1.179 1.359-1.068-.088-2.192 1.936-1.392 2.566-2.569-.066-.262-.192-.438-.453-.427.573-1.086 1.749-3.21 2.719-2.352-.492 1.015-1.318 1.557-1.512 2.992-.865.057-1.273.763-1.207 2.141-1.166 1.746-2.816 3.543-3.172 5.777.018.546.508.423.908.426-.27 1.115-.71 1.99-1.359 2.568.2.835.674.043 1.057.428-.175-.724-.301-.336-.153-1.283 1.869-.99 2.247-4.092 4.076-5.135 1.677-2.832 3.33-5.696 5.74-7.486.406.59-.378 1.308-.605 1.709.148.22.298.434.453.642.446-1.182.79-1.837 1.057-2.779.78.244.98-1.764 1.963-2.14-.344 1.239-1.494 2.183-1.21 3.636-.915 1.054-1.611 2.42-2.565 3.424.999 2.794 2.86-1.32 3.775-.857.357-.487-.189-.64-.453-.856.61-.057 1.197-.182 1.662-.642.39-.387.136-.725.451-1.284.009-.014.432.12.606-.214.611-1.184 2.138-2.254 2.716-3.85-.1-.64-.322.205-.603 0 .968-2.02 2.168-3.18 3.472-4.28.116.108-.082 1.584-.603 1.499 1.316 1.046 1.044-2.318 2.867-1.924.407-2.548 2.369-4.592 3.172-7.276-.194-.33-.79.58-1.51.215.976-1.542 2.813-1.862 3.02-4.492-.444-.333-1.146.794-1.662 1.069-.545-.013-.73-.532-1.207-.641-.388 1.018-.88 1.89-1.51 2.566.846-1.14 1.28-4.924 3.623-4.064.385-.023.3-.718.303-1.285 1.513-.706 1.9-3.012 3.322-3.852-.115-1.06.462-1.14.15-1.924-1.785.421-.913 3.507-3.02 3.639.25-.36.12-1.258.757-1.072.002-2.063 1.161-2.487 1.357-4.278 2.001-1.023 2.987-5.318 4.982-7.06.158-.952 1.088-1.348.756-2.354 1.96-1.735 2.13-6.633 4.83-8.129.77-1.478 2.012-2.284 2.72-3.851 1.974-.016 2.827 1.557 3.32 3.637.301-.503 1.302-1.044 1.662-.215.265-.407.749-.508 1.056-.856 1.754 2.005-.074 5.65.153 9.2 1.766-1.634 3.254-3.658 4.527-5.989 1.071 1.154 1.345-1.93 2.568-1.926.511 1.714.53 3.785.301 5.56.501-.145.683-.74.754-1.497.318.669-.263 2.064-.15 3.64.986-.741 1.547-2.087 2.566-2.783-.454.669.412.674.303 1.496.981-.392 1.13-1.962 2.568-1.71-.3 1.724.29 2.183.299 3.638.984-.604 1.029-2.538 2.115-2.994.428.89 1.017 1.553 1.813 1.924-.25 3.406-.468 6.494-2.114 8.771.638-.098 1.4-1.864 2.114-2.566-.763-.21.474-.323.603-1.07-.433-.637-.033-1.083.152-1.926.42.526.78.284 1.055-.428.017 2.236-1.786 3.743-2.263 5.99 1.263-.777 2.279-3.758 3.623-5.134-.691 3.584-1.918 6.409-3.02 9.412 1.792-1.318 3.203-6.152 5.135-7.274.069 1.241-1.061.78-1.057 1.926.761.824.438 3.157.754 4.066.404-.142.553-.644.754-1.07.39.052-.208.367 0 .856.642.265.405-.711.754-.856.677.014.195.488.455.856 2.338-.942 1.438 2.973 1.51 4.277-.406.032-1.63.827-.756 1.285-1.568 1.414-2.031 4.394-3.17 6.418 2.207-2.29 3.879-5.343 5.889-7.914-.315-.804.19-1.514-.15-2.354.835-.81 1.672-1.623 3.017-1.712-.089.683.284.662 0 1.07.126.606.93.254 1.209.642.347.065.168-.619.453-.642.872-.023 1.291.597 1.51 1.498.36-.007.72-1.097 1.056-.43.277-.248.105-1.135.754-.855-.595.941-1.608 2.59-2.416 1.926.713 1.267 1.735 1.098 2.871.427-.087-1.262.436-1.661 1.057-1.924-.26-.547.171-.749-.152-1.07.296-.786 1.383-.366.906-1.713.83.432 1.925-.14 2.113-1.283.472-.044 1.11.144 1.36-.215-.02-.397-.1-.714-.301-.855.211-.53.518-.377.906-.213.324-.394.397-1.147.754-1.498-.025-.25-.275-.181-.453-.213-.082-.758.535-.526.453-1.285-.96.216-1.526 2.112-2.416 1.71-.417-.088.272-1.265-.756-1.28.145-.437.308-.849.453-1.286 1.381.91 1.86-.987 2.567-1.71-.187-3.485 2.732-4.396 3.474-7.274 1.626-1.263 2.454-3.655 3.473-5.775-.026-.203-.263-.26-.383-.16-.023.053-.048.105-.07.16 0-.073.028-.126.07-.16 1.86-4.455 5.772-7.772 8.082-12.25.462.154.55-.22.906-.215.136-1.306.594-2.15 1.207-2.782.984.817 2.403 1.015 2.567 2.996 1.436-.182 1.39 1.74 1.814 2.994 1.087-1.034 2.013.2 3.018-1.496.394.082.421.685 1.056.428-.09.769.055 1.207.455 1.283-.391 1.759.508 4.042.604 5.135.316-.194.46-.63.451-1.283 1.588-.177 1.793-2.31 3.322-2.568-.023.604.429.536.606.855.05.663-.35 1.024 0 1.498.987-.818 2.586-.52 2.867-1.283.42.118-.212 1.725.604 1.283-.302 1.824.796 1.926.3 3.424 1.132.702 2.986-.449 4.229.213-.258 1.077.478.747.754 1.068-.388.38-.434 1.236-.602 1.926.371.538.856-1.205 1.057.215.433-.742 1.127-1.111 1.81-1.496.843 1.895-.334 3.87-.906 5.562 1.038-.595 2.112-1.93 3.172-1.285-.141.72-.687.622-.152 1.285.99-.307 1.25-1.657 2.568-1.498-.212 1.129-1.346 2.082-1.057 3.207-.505.783-1.3 1.157-1.511 2.354.634.25 1.69-.74 1.963-1.71.426.266.499.876.302 1.497.547-.437.94-1.094 1.66-1.283.02.543.221.83.606.857.124.603-.213.551-.15 1.066 1.108-1.353 2.379-2.475 2.716-4.918 1.678-1.547 2.81-3.865 3.926-6.207.025-.675-.402-.715-.303-1.498.88-.248 1.08-1.464 2.114-1.496-.061-.412-.584-.169-.452-.855.943-.731 1.356-2.215 1.963-3.424.176-.034.268.049.301.215 1.463-2.454 2.656-4.329 4.078-7.06 1.238-.957 1.966-2.635 3.32-3.425 1.457.29 1.422 2.694 2.717 3.211-.174 1.534.932 1.254 1.059 2.354 1.222-1.054 2.2 1.124 2.867.213.886.742 1.158 4.059.606 4.922-.327.034-.07-.76-.153-1.07-.786.24-.651 1.787-.906 2.78 1.147-.372 2.038-2.958 3.623-3.421.274-1.327.75-2.365 1.815-2.569.018.616-.084 1.4.15 1.711.578-.25 1.052-.647 1.51-1.068.563-.228.43.531.904.428.066.734-.058 1.197-.15 1.71.126.607.929.254 1.209.641.119 1.238-.22 1.83-.153 2.996 1.03.125 1.567-1.422 2.569-.642.69-1.058 1.507-1.68 2.716-1.496-.063.763-.4 1.142-.302 2.138.436.937.966-.27 1.511-.427.244.438.726.54 1.055.855.389 1.523-.411 1.764-.3 3.424 1.15 1.138 2.106-1.583 2.868.642.155.448.374.15.604.856.343 1.06 1.048.82.603 2.351.677-.27 1.661-.7 2.418-.212.286.333-.217.833.15 1.283-.142-.642.748-.802 1.208-.215.91-.697 1.377-2.713 1.36-4.063.499-.3.634-.118.452-1.07 2.08-.758 1.455-4.048 2.414-6.42 1.2-2.291 2.633-4.256 3.32-7.271.574-.617.988-1.455 1.36-2.354.244-.06.263.2.455.213.856-2.23 2.623-4.583 4.227-6.42zM22.376 93.049c.225.628-.17.796.303 1.07.027-.317.363-.195.601-.213.07-.617.536-.669.455-1.498-.207.01-.333-.102-.455-.215.065 1.056-.268.526-.904.856zm86.814 103.762c-.157.568-.283 1.644.153 1.925.62-.19.522-1.398 1.207-1.498-.231-.483-1.013.297-.604-.642-.105-.533-.401.396-.756.215zM239.205 33.379c-.055-.017-.11.034-.168.195.677.385-.142 1.409-.303 1.926.662.08.728-.682.907-1.283-.114-.125-.27-.787-.436-.838zm-93.295 8.068a.53.53 0 0 0-.181.045c-.162.697-.856.64-1.057 1.281.5.436 1.108.458 1.51.428-.43-.417.537-.646.45-1.283-.415.09-.363-.48-.722-.47zM82.25 73.645c-.115-.032-1.162 1.444-1.896 1.86.128.5-.528.923-.153 1.071.554-.838 1.135-.478 1.813 0 .503-.644 1.446-1.794 1.357-2.568-.46.558-.717 1.409-1.508 1.498a1.287 1.287 0 0 0-.152-.64c.45-.88.591-1.207.539-1.221zm-9.748 1.433c-.925.4-1.78.905-2.115 2.14.727-.037.607-1.281 1.66-.857.135-.449.236-.95.455-1.283zm-.303 1.713c-.364-.087-.329.39-.756.213-3.106 5.653-7.11 10.033-10.113 15.832 1.111.032.441-1.192 1.205-1.711 1.47.155 1.1-2.294 2.266-2.568-.035.306-.248.36-.301.642 1.07.09 1.397-.873 1.66-1.926-.568-.422-.51 1.097-.754.428.019-.776.748-1.54 1.057-.642.446-.293.562-1.055 1.057-1.284.043-.42-.205-.423-.303-.64.207-.009.331.099.451.213 1.683-2.61 3.512-5.008 4.531-8.557zm9.362.64c-.86.067-1.32.7-1.963 1.071v-.643c-.668.268-1.013.991-1.66 1.284.213.658.068.963-.15 1.5-.607-.302-1.64 1.628-1.665 2.136.418.229.614-1.125 1.059-.64-.758 1.136-1.528 2.257-2.266 3.424.784.039.894-.873 1.813-.643.321-.897.416-2.12 1.51-1.926-.046-.991.263-1.48.904-1.498.01 1.867-1.393 1.73-1.659 3.21.49.743 1.353-1.58 1.057 0 .285.047.332-.24.602-.214.845-2.182 2.092-4.846 2.418-7.06zm-19.932 5.563c-1.119-.155-.015 2.445-1.207 1.498.05.5.154.922.453 1.07.227-.82 1.044-.803.906-2.14-.282.013-.32-.164-.152-.428zm12.08 2.354c-.801.914-2.53 2.616-1.963 4.064.376-1.608 2.31-2.142 1.963-4.064zm-25.668.427c-.434.598-1.03.964-1.357 1.713.656-.146 1.425-1.253 1.357-1.713zm12.38 0c-.812.202-.73 1.673-1.812 1.498.006.942-.98 1.594-.601 2.352.4-.567.54 1.015.601 1.072-.29-.561-.806.487-1.056-.43.178-.032.43.037.455-.214-.77-.516-1.202 1.097-1.662 1.713.531.126.496-1.011.906-.428-.256.423.004 1.576-.756 1.283.009-.273.194-.295.15-.64-.613.128-1.167.34-1.207 1.283-1.106 1.214-2.598 3.02-2.869 4.707 1.112-.994 1.604-2.862 3.02-3.424-.857 1.995-2.007 3.574-2.867 5.562 1.573.726.902-1.285 1.81-1.925.035.404-.17.472-.15.855 1.173.095.38-2.6 1.207-2.994.224.11.382.315.605.428.897-2.235 1.664-3.395 3.623-5.135v-1.285c.97-.833 1.974-1.624 2.416-3.207-.478-.036-.504.568-1.056.427.065-.408.431-.387.3-1.07h-.753c-.106.658-.106.412 0 1.07-.285-.048-.334.242-.604.215.08-.599.221-1.113.3-1.713zm-14.493.215c-.492-.055-.727.253-.754.856.576.174.585-.456.754-.856zm28.838.64c-1.622.595-1.714 2.914-3.17 3.212.342.897-.235 1.428-.606 1.924 1.555-1.149 3.494-2.894 3.776-5.135zm-29.635.61c-.384.018-.336.645-.863.461V89.2c-.822.904-2.082 2.324-2.266 3.422.12-.305.71-.057.754 0-.563.77-1.431 1.107-1.66 2.354-.468-.509-.99.34-1.207.857.226.036.557-.078.603.213-.218.799-1.39-.233-1.51 1.07.121.566.71-.48.754.426-.232.243-.37.615-.603.855-.62-.333-1.017-.165-1.66 0 .252 1.147.858 1.662 1.51 1.713.429-.882.529-1.189.453-1.925 1.808-1.217 2.838-3.537 4.076-5.563-.26.013-.386-.164-.453-.428.833-.957 2.008-1.434 2.718-2.568.062-.514-.276-.462-.15-1.068-.226-.036-.558.076-.606-.213.331-.032.325-.54.303-1.07a.51.51 0 0 0-.193-.034zm30.238 3.67c-1.965 1.78-3.744 5.678-4.982 9.2 2.517-1.948 3.987-7.233 4.982-9.2zm-53.371 2.64c-.213.033-.389.514-.53.784.434.043.824.026.755-.643-.08-.112-.154-.151-.225-.14zm44.916 3.565c-.398-.064-.494.296-.451.856.397.064.494-.298.451-.856zm-14.797 1.069c-.41 1.059-1.328 1.395-1.508 2.78.855-.18 1.854-2.311 1.508-2.78zm18.12 2.138c-.53.39-1.002.866-1.21 1.713.417-.335.733-.819 1.21-1.07-.534-.062.532-.579 0-.643zm18.57 1.498c-.056.874-2.484 2.01-1.66 3.424-.451.756-1.059 1.61-.756 2.996.82-1.845 2.666-4.48 2.416-6.42zm3.625 1.285c-.477-.105-.534.385-1.057.213-1.35 2.652-3.262 4.507-4.078 7.916-1.097.16-1.46 1.355-2.113 2.141.885.182 1.236-.39 1.812-.643-.182.67-.612.987-.906 1.497.864-.503 1.8-1.75 1.662-2.995 1.942-2.166 3.25-5.233 4.68-8.129zm-72.172.428c-.285-.048-.333.24-.604.213v.43c.225.642.676-.16.604-.643zm7.7 8.344c-.778.822-1.577 1.616-1.962 2.996 1.014-.348 2.034-1.82 1.963-2.996zm-10.265.855c-.18.956-1.085.89-1.056 2.141.619.225.987-1.01 1.357-.43-.194.58-.67.761-.603 1.713.786-.74 1.62-1.41 2.263-2.353-.558-.607-1.388-1.087-1.96-1.07zm352.541.42c-.316.049-.32.541-.295 1.077.424.032.436-.523.452-1.069a.445.445 0 0 0-.157-.008zm-1.709.108c-.374-.032-.83.294-.851.969-.064.345.562.717.603.214-.196-.003-.192-.592 0-.64.132.314.225.676.606.64.307-.762.016-1.151-.358-1.183zm-282.74 1.183a85.303 85.303 0 0 0-2.717 3.637c.476-.244.367.337.604.428.7-1.097 2.51-2.836 2.113-4.065zm-60.09.43c-.046.505-.526.398-.455 1.068.548.33.838-.783.455-1.068zm341.557.266c-.156-.022-.273.05-.334.375.96.096.251 1.045.453 1.496.615-.23.246-.741 1.057-.854.036-.406-.17-.472-.15-.855-.4.174-.767-.126-1.026-.162zm-.637 1.017c-.311.598.548.968.455 1.924.474.1.676-.185.604-.855-.75.21-.4-1.147-1.059-1.069zm-.15 1.496c-.179.034-.426-.034-.451.215.275 1.054-.357 1.508-.758 2.139.6-.503.462.403 1.058.428-.286-1.302 1.04.33.907-1.07-.539-.334-.829.222-1.057-.641.508.22.234-.666.3-1.07zm1.812.428c.112.585-.3.431-.302.856.519.089.859-.064.753-.856zm-336.697 1.498c-.291.101-.505.975-.299 1.07.014-.55.588-.306.604-.855-.102-.196-.208-.249-.305-.215zm333.074 1.498c-.479 1.006-.329 1.711-.302 3.21h.755c-.247-.709.11-1.263.756-1.284v-1.07c-.868.37-.57-.906-1.209-.856zm1.961 2.354c-.069.683-.774.472-.752 1.283.173.18.405.28.752.213.014-.378.266-1.061 0-1.496zm-2.867.425a76.66 76.66 0 0 0-.605 2.569c.49.276 1.17 1.423 1.662.428-.305-.46-.36-.804-.905-1.284.02-.37.489-1.754-.152-1.713zm1.81 1.499c.009.294-.071.47-.15.642.11.175 1.045.573.906-.215-.127-.317-.484-.308-.755-.427zm-3.017 2.14c-.275 1.074-.247 1.25-.303 2.569.547-.712.67-.992 1.51-.43.447-.555.038-.986.453-1.496-.805-.316-1.13.198-1.51 0 .12-.048.298-.007.303-.215-.219-.052-.255-.353-.453-.428zm2.566.856c.107.86-.637.525-.607 1.283.299-.064.302.29.457.43-.042-.555.687-1.826.15-1.713zm-274.79.642c-.373-.028-.73-.033-.909.213.087.52.131 1.1.606 1.07-.196-.847.496-.436.302-1.283zm271.769 1.283c.083.758-.533.526-.451 1.284.548.449.647.213 1.508.214v-.855c-.322-.255-.844-.232-1.057-.643zm2.266 1.07c.034.405-.17.471-.15.856.374-.28.623.628.755 0-.357-.07-.34-.663-.605-.855zm-274.944.428c.111.584-.299.43-.3.854.475.102.617-.264.755-.64-.092-.01-.18-.032-.152-.214zm272.227 0c-.118.049-.3.006-.305.213.44.947-.7.124.152 1.069-.332 1.376-1.111 1.187-1.359 2.355.378-.027.473-.41.607.213-.013 1.869-1.99.76-1.363 2.781.389-.085.652-.333 1.059-.855.37.458-.345 1.968 0 2.353.04-.301.33-.244.453-.427-.101-.81-.184-1.15.451-1.284.05.903-.398 1.221.152 1.711.384-.865-.074-2.095-.603-2.353.782.262.43-.75.603-.856.533.557.085 1.881.905 2.354-.008-.972-.27-1.548 0-2.354.227.041.143.517.154.856.466-.05.469-.76.602-1.283-1.068.248.277-1.766-.602-1.926-.017.262-.048.506-.303.428-.158-.489-.696-.442-.603-1.284.479.826.473-.11 1.207 0 .069-.44.223-1.37-.301-1.498-.209.489.39.806 0 .856-.515-.137-.882-.334-.606-1.069zm1.914.627c-.167.032-.253.177-.406.227.184.183.326.37.449.557-.028-.369.111-.502.156-.768a.427.427 0 0 0-.2-.016zm-274.744.442c-.673 1.546-2.24 2.959-2.416 4.494.039-.444.664-.059.755-.428-.19-1.5 2.273-2.736 1.66-4.066zm-78.813 1.283c-.286.736-.843 1.088-1.36 1.498.081-.403.795-.989.454-1.283-.411.631-1.04.954-1.21 1.926 1.104-.01 2.382-.905 2.116-2.141zm65.268.756c-.644-.055-1.41 1.445-1.1 2.24.038-.376.26-.488.604-.428.05-1.305.474-1.01.906-1.498-.12-.206-.262-.301-.41-.314zm60.047.101c-.118.418-1.13.661-.602 1.284.046-.52.928-.945.602-1.284zm-105.838.213c-.896.443-.986 2.028-2.266 1.926.506 2.315-1.751 1.909-1.81 4.067-.705 0-.982.603-1.21 1.28.316.126.433.532.907.428.67-1.189.98-2.887 2.263-3.207-.079-1.756 1.556-2.738 2.418-3.851.01-.367-.116-.55-.302-.643zm104.48 1.498c-2.818 4.137-5.988 7.773-8.605 12.194.902-1.243 2.6-2.065 2.566-3.422.462.153.55-.22.904-.215 1.41-3.138 4.092-5.614 5.135-8.557zm-48.012 1.07c-.268.689-.994.73-1.056 1.712.537-.173 1.303-1.137 1.056-1.711zm274.038.428c-.243.318-.527 1.106.148 1.07-.082-.311.178-1.107-.148-1.07zm-329.903.428c-.162.555-.545.795-.603 1.496.436-.037.951-1.057.603-1.496zm59.035.428c-.194.793-.95.793-.906 1.924.458-.064.425-.824.906-.856-.356-.626.291-.794 0-1.068zm270.11 0c-.269.761-1.05.794-1.207 1.71.398-.063.387.448.45.856.509-.45 1.371-1.85.757-2.566zm-261.352.428c-.11.483-.576.467-.603 1.07h.904c.022-.531.03-1.04-.3-1.07zm-25.97.214c-.478.75-.917 1.552-1.358 2.354.693.196.727-.537 1.357-.43-.124-1.112.575-1.35 0-1.924zm3.775 0c-.493-.057-.728.253-.756.856.493.055.727-.255.756-.856zm59.637.426c-.136.378-.555.355-.602.856.443.182.98-.578.602-.856zm-44.118.194c-.414.062-.71.85-.572.879.302-.218.645-.37.756-.856a.35.35 0 0 0-.184-.023zm-1.326 2.16c-1.129-.029-.793 2.016-1.662 2.353.758-.037 1.815-1.356.906-1.283.438-.094.69-.451.756-1.07zm-18.722.215c-.925.886-2.386.365-2.567 1.925-.652-.139-.847.37-1.209.641.173 1.015-.198 1.965-.756 1.285.114.658-.414.412-.3 1.07 1.751.835 2.245-1.385 4.076-1.498.045-.72.67-.621.756-1.285-.333-.192-.23-.56-.604-1.068.225-.323.677-.325.604-1.07zm286.359.185c-.06-.02-.14-.015-.246.027-.33.457-.353 1.353-.451 2.141.353-.285.85-.364 1.207-.643-.608.114-.086-1.378-.51-1.525zm-288.625.242c-.076.409-.92.811-.451 1.284.007-.505.851-.907.451-1.284zm23.031.196c-.718.169-.5 1.661-1.59 1.302.081.758-.535.526-.453 1.284.254.508.837.402 1.057-.213-.116-.048-.298-.007-.303-.215.283-.171.552-.358.904-.428-.065-1.022.65-.939.758-1.713a.767.767 0 0 0-.373-.017zm3.223 1.547a.98.98 0 0 0-.736.183c-.242.842.651.076.603.643-1.1.554-1.478.88-2.113 1.925.806-.319 1.327-.777 1.96-.427.14-1.015.875-1.189 1.06-2.14-.273-.064-.527-.155-.774-.184zm-7.606.824a.117.117 0 0 0-.078.002c-.804 1.712-2.173 2.621-3.17 4.062-1.367.06-1.51 1.854-1.66 3.639-.533.314-1.06.636-1.056 1.71.46.012.36-.768.904-.64-.023.942.427.06.605 0-.119.738.14.94.451 1.069.002-1.156.859-1.598.303-2.354.281-.028.505-.14.606-.428-.352-.319-.651.075-.756-.213.812-.72.926.014 1.66-.214.604-2.495 2.224-3.555 2.568-6.418H87.6c-.007-.1-.016-.191-.075-.215zm270.791.427a.344.344 0 0 0-.154.002c-.018.76-.557.777-.453 1.711.266.409.566.767 1.059.856.25-.744-.132-1.427.302-2.139-.496.2-.453-.356-.754-.43zm-336.998.002c.108.534-.666.879-.152 1.284.056-.321.863-1.226.152-1.284zm68.698.428c-.179.389-.788.168-1.057.428.037.88.786.881 1.207.643-.083-.313.177-1.106-.15-1.07zm-34.536.2c-.541.108-.607 1.13-.04 1.296.216-.262.286-.735.302-1.283a.558.558 0 0 0-.262-.014zm-17.181.835c-.51.049-.83.931-.524 1.317-.114-.945.588-.734.754-1.281a.503.503 0 0 0-.23-.036zm-17.434.036c-.579.32-1.215.56-1.209 1.71.59-.306.992-.876 1.21-1.71zm98.893.212c-.179.61-1.09 1.297-.754 1.924.19-.658.455.24.152.43.8.16.143-.56.451-.855-.177-.034-.426.036-.45-.213.313-.141.951-.915.6-1.286zm10.117 0c-.13.673-.872.476-.906 1.286.52.749 1.011-1.179.906-1.286zm-36.94.332a1.13 1.13 0 0 0-1.107.954c.372.481 1.833-.168 1.358-.858-.037-.059-.129-.092-.25-.096zm-25.496.444c-.006-.003-.03.02-.072.08-.39.374-.725-.222-.904.643.28.619 1.023-.703.976-.723zm63.493.293c-.903 2.156-3.135 3.532-3.473 5.777.857 0 .93-1.108 1.812-1.07-.352-1.168.024-1.757.754-1.926-.034-.275.434-1.657 1.057-1.709-.082-.312.178-1.108-.15-1.072zm-12.23 1.072c-.71.348-1.077 1.181-1.661 1.71.042.653-.19.286.3.856-.66.042-1.71.503-1.357 1.926-.474-.693-.11.557-.453.64.188-1.237-.502-.048-.603-.64.434-.009.357-1.21.756-.642.171-.628.088-.796-.305-1.07.011.729-.443.797-.754 1.07.394.898-.124.88-.3 1.498.385.424.694-.222.905.213-.019.472-.64.091-.906.214.262.485-.06 1.794.451 1.924.027-.248.241-.232.455-.213.018-.686.333-.954.454-1.496.035.377.258.487.603.428.204-1.425.68-2.463 1.51-2.996.187-.692-.488-.164-.303-.856.759.077.968-.627 1.057-1.498-.345-.292-.566.553-.604 0 .337-.237.41-.845.754-1.068zm-26.573.64c-1.49.388-1.812 2.427-3.322 2.782.864-.066 1.143-.277 1.511-.643-.028.468.123.682.452.643.84-.023.61-1.562 1.511-1.498.02-.528.02-1.03-.152-1.283zm11.523 1.91a.43.43 0 0 0-.199.016c-.992 2.233-2.272 4.053-3.322 6.204.221.497.478-.418.453.427.836-1.036 1.312-1.266 1.963-2.566.054.66.77-.563.906.215-.383.633-1.033 1.423-1.057 1.924-.203-.066-.29-.304-.605-.215-.393.668-.137.932-.451 1.713.667-.489 1.227-1.104 1.96-.428-.51-2.311 1.063-2.855 1.513-5.348-.484.6-1.04 1.096-1.512 1.711-1.416-.968.698-1.97.756-3.424-.153-.05-.239-.197-.405-.228zm253.002.016c-.068.498-.666.571-.304 1.069.45.255.649-.9.304-1.069zm-258.334.428c-.354.071-.65.218-.756.64.471-.099.541.54.303.858.287.048.331-.241.604-.215.02-.527.021-1.03-.15-1.283zm14.797 0c.204 1.074-.52.835-.605 1.498.225-.035.557.076.605-.215-.332-.123.737-.237.754-1.07-.426.177-.391-.3-.754-.213zm-68.699.64c-.862.705-1.51 1.714-2.113 2.784.635-.35.897-1.245 1.81-.643-.366-1.187.993-1.883.303-2.14zm13.437.43c-.23.459-.613.698-.603 1.497.522.085.874-1.168.603-1.496zm295.434.54c-.47-.09-1.007.798-.713 1.386-.699.362-.8 1.576-1.207 2.352.198.57.622.473.752.642-.225.65-.45.12-.752.428-.044.421.203.423.3.64-.326.138-.478-.605-.45.216.26.365.394-.035.902.213.17-.616.035-1.667.305-2.14.354.067.625.42.906 0-.17.31-.165.522.152.643.321-1.146-.611-2.13-1.058-2.138.134-.623.226-.242.605-.215.022-.826.51-.99.453-1.926a.4.4 0 0 0-.195-.101zm-256.328.101c-.033.166-.127.249-.303.215v.855c-.403-.51-.884.17-.754 1.07-.638.022-.903.576-1.058 1.284.517.09.454-.642.756-.856.438.831-.783.79-.756 1.711.37.54.324-.45.908-.214.033.404-.172.472-.152.855 1.043-.034-.092-.86.152-1.71.828.028.117-.184.15-.429.137-.998 1.566-1.834 1.057-2.78zm70.357 0c-1.038 1.792-2.507 3.928-3.773 4.707.29.535-.231.879.152 1.283 1.153-1.93 3.167-3.78 3.621-5.99zm-45.597.215c-.057.26-.803-.08-.754.855.488.175 1.06-.613.754-.855zm-30.346.428c-.773.128-1.76 1.463-1.209 2.138.287-.877.946-1.225 1.209-2.138zm-32.766 1.07c-1.332.68-1.962 2.352-2.716 3.85 1.319-.7 1.827-2.545 2.716-3.85zm55.112.428c-.007.294.071.467.15.64-1.385-.198-1.962 2.266-2.719 3.637.404.59.329-.25.756-.213-.086.446-.432.69-.152 1.069 1.252-.528 1.736-3.221 3.02-2.995.36-1.096-.66-1.468-1.055-2.138zm13.588.213c-.432.597-1.137.817-1.36 1.71.417-.477 2.24-.765 1.36-1.71zm-38.047 1.496c-.552.508-1.573 1.476-1.36 2.355.46-.777 1.183-1.178 1.36-2.355zm18.722.215c-.026.25-.242.232-.455.214.034.403-.17.473-.15.856h.453c-.486-1.002.604-.179.152-1.07zm-2.265.214c-.922.405-1.044 1.946-1.963 2.354-.007.653.137 1.089.453 1.283.749-1.339.725-2.495 1.51-3.637zm-5.85.422a.338.338 0 0 0-.191.006v.856c.51.148.574-.748.191-.862zm14.455.006c-.034.168-.127.249-.303.213-.045.564.21.703.604.643-.02-.398-.099-.715-.3-.856zm239.612.213c-.549.116-1.209 1.738-.604 2.14.365-.48.682-1.027.604-2.14zm-260.297.215c-.001.426-.412.272-.301.856.234.258.588.683.906.214-.095-.508-.204-.995-.605-1.07zm13.287.213c-1.006.282-.915 2.284-1.963 1.926.152 1.57-.88 1.463-.906 2.783-.344.059-.568-.051-.604-.428.721-.565.267-.976.303-2.14-.867.292-.546 1.66-1.21 2.568 0-.216.122-.255.151-.428-1.362.717-2.957 3.111-2.717 4.705-.3.003-.19.583-.603.428.338-.956-.823.201-.754.855.4.8 1.813.667 1.055 1.926h.605c.277-.303-.238-1.04.15-1.498-.207-.009-.33.1-.453.215.049-.496-.026-.822-.152-1.07.727-.143.482-.55.455-1.498.482.133.67.09 1.508-.428.058.908-.38 1.106-.3 1.498.025-.25.24-.233.452-.215-.193-.847.498-.436.301-1.283.594.631.737-.852 1.057-1.283-.008.369.119.548.304.64.042-.438.403-.424.604-.64.091-.51-.19-1.553.15-1.713.01.957.346.275.604.644.163-2.412 2.406-3.66 1.963-5.564zm-8.004.428c-.186.449-.416.835-.602 1.285.17.046.235.237.303.428.323.01 1.038-.497.604-.856 0 .12-.125.243-.153 0-.026-.32.054-.79-.152-.857zm25.97 0c-1.05.58-1.646 1.803-2.265 2.996 1.096-.054 1.51-2.089 2.113-2.139-.01-.373.036-.667.153-.857zm-69.15.215c-1.176 1.332-2.711 3.289-3.02 5.134 1.22-1.41 1.982-3.465 3.02-5.134zm39.71 0c-.427.04-.645.373-.606 1.07.474.03.52-.548.605-1.07zm67.943.427c-1.126.19-1.226 1.83-1.963 2.569.945-.444 1.356-1.643 1.963-2.569zm-46.354.428c-.844 1.8-2.463 2.503-3.02 4.709.773-.262 1.31-.857 1.358-2.14 1-.263 1.477-1.79 1.662-2.569zm-18.873.855c-1.727 1.851-24.27 37.985-4.076 5.778 1.971-1.056 2.963-3.504 4.076-5.778zm3.02.43c-.872.046-1.86-.073-1.961 1.068h.904c.076.673-.354.874.152 1.069.252-.781.867-1.05.905-2.137zm8.943.11c-.608-.066-1.062 1.02-.338 1.173-.426.177-.39-.302-.754-.215-.554 1.498-1.56 2.355-2.264 3.637.766-.37 1.103.164 1.508 0 .046-.419-.202-.423-.299-.64.409-.248.375-.106.905 0-.17-.817 1.09-1.03 1.357-2.354-.378-.283-.367.996-.603.215.264-.553.666-.91.753-1.713a.568.568 0 0 0-.265-.103zm.871.103c-.425.04-.644.373-.606 1.07.435-.028.72-.268.606-1.07zm-11.63 1.023a.311.311 0 0 0-.145.047c-.003.425-.413.27-.305.854.971.25-.132.444 0 1.287.209-.01.333.098.455.21.172-.468.505-.708.603-1.28-.5.146-.245-.443-.152-.643-.426.231-.194-.472-.457-.475zm-13.282.047c-1.281.182-1.755 1.51-2.266 2.782 1.216-.61 1.575-1.862 2.266-2.782zm32.764 0c-.478.207-1.156.935-.907 1.498.669.02 1.037-.385.907-1.498zm42.275.428c-.446.01-1.22 1.218-1.36 2.354.759-.355.791-1.733 1.36-2.354zm184.805.643c-.063.408-.433.387-.301 1.07.443-.016.56-.492.754-.857-.21.009-.334-.101-.453-.213zm-240.368.855c.046.562-.207.701-.603.64-.067.926-.436 1.753-1.059 1.284.139.845.579.446 1.059.428-.086-1.049.546-1.08 1.057-1.282-.052-.5-.156-.922-.454-1.07zm52.996.426c-1.516 2.133-3.008 4.296-4.53 6.42.666-.032-.016.523.152 1.07-.607-.274-1.05.777-.604 1.281 1.88-2.47 3.367-6.632 5.434-8.127-.025 1.176-.993 1.014-1.055 2.137.952-.22 1.335-1.242 1.66-2.351-.392-.11-.561-.095-1.056-.43zm-45.9.215c-.18.59-.327.893-.15 1.498.574.159 1.011-.975.754-1.283-.147.654-.402-.247-.604-.215zm232.018 1.054a.239.239 0 0 0-.106.016c-.063.407-.323.537-.303 1.068.352-.07.653-.218.756-.64-.21-.016-.144-.422-.347-.444zm-236.848.016c-2.99.54-4.171 5.494-6.041 7.914-.626.059-.587-.28-1.057 0 .308 2.02-1.02 2.337-1.056 3.639 1.835-2.177 3.336-4.83 5.285-6.846.177.56-.467.92.15.856-.083-2.037 1.83-3.637 2.719-5.563zm16.004 0c-.137.376-.557.354-.606.856.424.741 1.352-.576.606-.856zm-6.191.428c-.615 1.098-1.314 3.877-2.114 4.064-.642.152-1.393.22-1.51 1.713.463-.155.55.217.907.213.344-.51.767-.909 1.207-1.283-.112.658.416.41.302 1.07-.405-.148-.29.443-.453.64 1.39-.24 1.62-2.126 2.416-3.208-.51-.343-.644.908-.906.215.116-.705.815-.433.453-1.286.648-.365 1.305-.717 1.66-1.498-.303-.105-1.371-.303-1.962-.64zm-13.74.428c.316 1.376-.81.705-.755 1.71h.606c-.018-.736.52-.687.603-1.283-.15-.294-.25.093-.455-.427zm240.214.853c-.253.07-.353.355-.299.857.47.1.673-.185.604-.855a.65.65 0 0 0-.305-.002zm-231.457.002c-.63.608-1.828 1.541-1.66 2.568.37-1.114 1.304-1.43 1.66-2.568zm-86.814.215c-.095.437-.764.06-.606.855.238.731 1.193-.416.606-.855zm132.111 0c-.544.014-.707.565-.906 1.068.73.25.494-.868.906-1.068zm-57.072.213c-.165.214-.568 1.166-.153 1.498.025-.762.784-.936.153-1.498zm23.12.035c-.266.01-.49.51-.624.82.46.01.769-.193.906-.64-.097-.132-.192-.183-.281-.18zm-39.673.15c-.187.056-.237.308-.51.242-.065 1.1.32.565.606.858.126-.248.198-.575.15-1.07-.106-.045-.184-.048-.246-.03zm18.816.67c-.54.091-.827.537-1.056 1.07.67.093.955-.357 1.056-1.07zm10.721 0c-.425.396-.664 1.059-1.209 1.285-.033.405.172.472.152.856-1.242.558-2.577 2.657-2.265 4.064-1.45-.51-2.562 1.545-2.565 2.996.997-.01.875-1.61 1.961-1.498-.05-.495.024-.82.153-1.07.198.275.554.275.754 0-.212-2.41 1.601-2.208 2.414-2.994.004-.505-.258-.63-.149-1.283 1.123-.11 1.072-1.739.754-2.356zm11.777 0c-1.637.605-2.309 2.578-3.322 4.067 1.081-.075 1.342-.796 1.963-1.07-.047-.504-.238-.805-.15-1.499.091.37.716-.016.754.428-.135.522-.352.928-.301 1.713.559.151.646-.367 1.205-.215-.194-.531.338-1.036 0-1.068-.905.369-.483-1.755-.149-2.356zm-42.127.215c-.331.457-.876.61-.904 1.498.72.091 1.13-.256 1.51-.642-.018-.544-.22-.831-.606-.856zm258.94 1.07c-.002.425-.412.27-.303.856h.608c.04-.489-.04-.804-.305-.856zm-306.594.356c-.352.005-.665.447-.357 1.142a1.43 1.43 0 0 0 .906-.642c-.113-.35-.338-.503-.549-.5zm305.988.715c.014.6-.731 1.222-.302 1.71.112-.169.929.61.756-.855-.179-.034-.427.035-.454-.215.025-.253.27-.485 0-.64zm-235.232.64c-.473.041-.725.398-.754 1.07.529.036.474-.752.754-1.07zm42.879.856c-.15.428-.667.337-.604 1.068.424.086.852-.908.604-1.068zm191.6.215c-.355.572.297 1.016-.452.64-.128.607.21.555.149 1.07-.425.179-.39-.302-.754-.214-.072.97-.82.978-.606 2.353.262.086.391-.317.457 0 0 .582-.638 1.004 0 1.285.424-1.248.02-2.306.303-3.21.476.32 1.185.265 1.354-.428-.63-.246.463-1.213-.451-1.496zm-219.079.853c-2.352 1.587-3.79 4.473-5.435 7.06.339.272 1.053-.403 1.36-.853.164 1.307-.81 2.124-.454 2.994.198-.442.783-1.444 1.057-1.068-.067.489-.834 1.08-.453 1.496 1.08-1.796 2.013-2.504 2.869-4.492-.285.048-.333-.242-.602-.215-.088.82-.435 1.932-1.209 1.713.007.65-.138 1.089-.455 1.281-.13-1.396.668-1.478.906-2.351-.646-.132-.614.696-1.207.642-.126-.25-.198-.574-.15-1.07.711-.631 1.097-1.728 2.115-1.926 0 .284.263.196.3.428-.28.032-.092.723-.3.855.645-.374.66-.955 1.356-.855-.606-1.004.032-1.178-.604-2.14.656-.06.502-.525.906-1.499zm-9.209.217c-.835 2.095-3.21 2.012-3.625 4.705.262-.013.389.164.454.428 1.793-.43 1.592-2.895 3.02-3.21-.134-.771.59-1.427.151-1.923zm27.243.187c-.283-.06-.655.354-.67.666.311-.128 1.048.347.904-.427-.058-.147-.14-.219-.234-.239zm7.332 1.309c.045.564-.586.169-.453.855.466.28.857-.605.453-.855zm-41.067.428c-.227.463-.757.498-.756 1.283.442.055.465-.483.907-.428-.025-.32.054-.79-.15-.855zm-25.365.215c.111.658-.416.41-.303 1.068.655.326.815-.976.303-1.068zm63.08.22c-.09.018-.184.083-.271.207-.07.669.322.684.754.641.037-.52-.21-.9-.483-.848zm-28.957.207c-.172.542-.743.517-.756 1.284.546.117 1.148-.783.756-1.284zm36.084.213c-1.66 1.284-2.653 3.516-3.625 5.776.494.035.978.496 1.059-.426-.201-.526-.456.386-.604-.213.714-.872 1.399-2.831 2.264-2.783.166-1.074.352-1.503.906-2.354zm-45.9.643c-.028.317-.366.195-.604.213.033.404-.17.474-.15.857.555.086 1.408-.747.754-1.07zm43.787 0c-.314.35-1.13 1.097-.906 1.498.227-.47 1.479-.601.906-1.498zm189.984.72c-.077-.021-.15.016-.2.135.173.045.236.237.306.428-.442.647-.332-.438-.907-.213-.072.672.403.564.452 1.068.364.088.329-.389.753-.212.11-.542-.172-1.14-.404-1.205zm-193.91.135c-.271.47-.406 1.138-.756 1.498.681-.266.516-.4 1.21 0-.063-.515.275-.466.15-1.07-.344-.294-.568.55-.604 0-.017-.24.219-.333 0-.428zm-40.012.643c-.166.588-.962 1.045-.603 1.71.6-.005.606-.851.906-1.283-.032-.24-.167-.333-.303-.427zm36.086.427c-.127.202-.796.69-.3 1.07-.009-.392.77-.725.3-1.07zm6.34 0c-.108.56-.543.656-.603 1.284.445-.223.737-.67 1.058-1.07-.207.008-.333-.101-.455-.214zm-5.633.237c-.173.056-.306.248-.254.619.374.03.732.04.754-.428a.452.452 0 0 0-.5-.191zm2.16.619c-.31.417-.734.667-.754 1.496.294-.307 1.199-.854.754-1.496zm193.4.15a2.663 2.663 0 0 0-.591.065c-.512 1.136-1.387 2.633-1.36 3.85-.197-.002-.137-.375-.302-.428-1.002 1-1.278 3.038-2.414 3.851.091.44-.245 1.485.3 1.283.212-.84.314-1.837 1.21-1.71.256-.778.21-1.984.605-2.569-.011 1.343.812.949 1.057 1.498-.133-.827.366-.76.45-1.283-.269-.33-.757-.355-.605-1.285.497.688 1.185.063 1.51-.641-.06-.481-.827.032-.754-.643-.022-.53.079-.886.303-1.068.06.268.192.437.451.426-.17-1.705 1.185.08 1.211-1.281-.485.124-.614-.055-1.07-.065zm-190.68.49c-.142.808-1.485.78-1.057 1.711.582-.107 1.197-1.286 1.056-1.71zm-5.772.38c-.354-.003-.199.718-.723.476.026 1.223.936.296.908-.426a.458.458 0 0 0-.185-.05zm-.723 1.118c-.439.384-1.315 1.02-1.055 1.711.755.063 1.31-1.03 1.055-1.71zm-1.055 1.711c-.224.038-.556-.075-.603.215.443.573-.755.63-.604 1.498.5-.433 1.126-.687 1.207-1.713zm3.44-1.517c-.662.124-.561 1.325-1.477 1.09v.855c-.474.243-.4-.06-.756.215-.18 1.116-1.018 2.004-.603 2.781.927-.968 1.278-2.752 2.566-3.209-.221-1.17.387-1.165.606-1.713a.77.77 0 0 0-.336-.02zm-3.59.02c-.418.138-1.473 1.36-.908 1.497.324-.469.56-1.063.908-1.498zm-56.922.642c-.239.32-.22 1.22.3 1.07.023-.53.03-1.038-.3-1.07zm35.03.643c.113.73-.616.273-.456 1.07.529.123.987-.951.455-1.07zm28.535.212c-1.025.006-1.923 1.96-2.717 2.996 1.598-.017 1.607-2.286 2.717-2.996zm-8.756 1.498c-.8.44-1.202 1.437-1.664 2.354.494-.055.728.254.755.855-.495-.545-.922.435-.906 1.286.357.522.283-.322.758-.215-.001.214.12.255.148.427-.445.928-.365.823 0 1.711-.739-.05-1.011.562-1.054 1.498.537.27.788-1.069.754.215.678-.372.859-.886 1.51-.857-.18-.384.132-1.444-.454-1.711.14-.228.557-.067.453-.643-.474.109-.616-.501-.753.217.116.046.296.005.3.213-.178-.034-.43.037-.453-.213.298-.772.419-1.466-.15-1.928.167-.486 1.164-.9.756-1.496-.19.448-.44.805-.756 1.07-.074-.675.27-.756.15-1.497.177-.034.428.034.453-.215-.456-.262.107-.817.153-1.07zm.906.856c-.227.037-.559-.076-.606.215.358.066.282.744.756.642.045-.42-.203-.425-.302-.642.092-.013.178-.033.152-.215zm11.172.215c.025.483-.726.94-.303 1.283.183-.37.93-1.03.303-1.283zm-17.108.416a.169.169 0 0 0-.105.011c-.104.673.018.875-.15 1.07-1.28-.03-1.871 3.665-3.02 3.85.11.655-.26.63-.15 1.284.575.032.725-.538 1.207-.641-.17-1.024.47-.902.3-1.924 1.03-.046.964-2.03 2.116-1.285-.604-1.113 1.028-1.351.45-2.354-.11.55-.397.039-.648-.011zm7.143.226c-.479.457-.73 2.16-1.512 1.496-.153.494-.518.692-.453 1.498.443-.228.781-.607 1.512-.427.19-.87.734-1.24.906-2.139-.216-.052-.257-.353-.453-.428zm3.182.317c-.177.003-.364.122-.616.539.018.544.22.829.604.855.393-.37.78-.748 1.057-1.283-.485.202-.75-.116-1.045-.111zm5.423 1.61c-1.017.552-1.635 1.674-2.113 2.993.867.159.76-1.063 1.51-1.07.178.105.34.228.451.43-.11 1.055-.99 1.02-1.055 2.138.903-.148 1.14-1.238 1.51-2.138-.28-.642-.375-.731-.756-.856.076-.604.366-.91.453-1.498zm-13.437.212c-.51 1.562-2.185 2.606-2.266 4.064.194-.44.243-1.084.756-1.07.134.892-.483 2.41-1.36 2.569.14.855-.035.709-.302 1.283.638.19.854-.216 1.059-.64.168.044.233.236.3.427-.135.626-.135.657 0 1.283-.177.32-.628.251-.603.855.534.116.372-.756.906-.64.024.251-.025.605.15.64.042-.333.332-.15.454 0v-.855c-.378-.275-.472.11-.604-.213.39.118 1.137-1.197 1.207-.215 1.204-.699.245-1.828.906-3.209-.377.284-.366-.996-.603-.215.17.045.234.237.3.428-.779-.248-.788.59-1.054 1.07-.428.157-.895-.704-.455-1.07.389.384.726.536.906-.213-.217-.472-.367.269-.451-.215.851-.313.399-1.862 1.207-2.566-.209.01-.331-.1-.453-.213.028.466-.124.678-.453.639-.076-.83.816-1.396.453-1.924zM113.717 193c-.348.075-.743.775-.451 1.03.045-.578.635-.386.755-.858-.078-.153-.188-.197-.304-.172zm44.39.814c-.292.368-.455.923-.904 1.07-.073-.252-.161-.485-.303-.642-.775 1.272-.45 1.623-.904 2.996.468.022.722-.262 1.057-.427-.01-1.579 1.286-1.818 1.054-2.997zm-19.777.856c-.226.392-.631.535-.756 1.07.501.125 1.095-.715.756-1.07zm-10.117.643c-.638-.05-.767.623-1.207.855v.857c.627.245.59-.45 1.058-.43-.265-.757.1-.525.149-1.283zm3.172.855c-.647.155-.865.917-1.21 1.498.578.103.31-.99 1.06-.64-.01-.373.03-.667.15-.858zm12.23.215c-.5.433-1.185.603-1.209 1.71.428-.035.63-.391 1.059-.427-.067-.476.466-1.16.15-1.283zm5.041 3.219c-.204-.01-.325.452-.662.418.349.72.341.976.453 1.71.014-.549.589-.304.604-.853-.546.203-.269-.924-.153-1.07-.097-.145-.174-.202-.242-.205zm-18.904.619c-.26.007-.464.09-.48.441.563-.226.488.45.753.64v-1.07a2.524 2.524 0 0 0-.273-.011zm1.633.011c-.065.409-.325.54-.303 1.07.621-.1-.143.577.455.643.078-.315.222-.54.3-.857-.706.057.197-.829-.452-.856zm-3.32.43c-.113.483-.578.468-.606 1.068.365.001.965-.749.605-1.068zm10.113 1.283c-.554.141-.75.79-1.057 1.283.556-.14.752-.787 1.057-1.283zm-24.004.856c-.461-.012-.771.193-.908.64.41.24 1.042.42.908-.64zm22.799.855c-.445.32-.562-.24-.756.428.205.068.288.306.603.215a1.289 1.289 0 0 1 .153-.643zm-25.065 1.926c-.028.603-.717.268-.603 1.07.538.246.79-.995.603-1.07zm33.973 1.283c-.262.701-.797 1.012-1.059 1.713.634-.04 1.23-1.246 1.059-1.713zm-42.58.215c.018.88-.704.712-.754 1.498.441-.168 1.377-1.156.754-1.498zm46.2 5.133c-.485.308-1.08.462-1.054 1.498.847.201.868-.765 1.055-1.498zm-35.638.418c-.25.003-.472.045-.597.224.036.664.537.667.908.856.046-.505.522-.396.451-1.068-.236.022-.512-.015-.762-.012zm5.83.713c-.27-.122-.663.923-.84 1.224.591.337.312-.557.604-.642h.453c-.05-.37-.127-.542-.217-.582zm28.452.154c-.046.5-.323.922.15 1.07.33-.447.312-.804-.15-1.07zm-.454.643c-.145.934-1.195.588-1.058 1.925.794.054 1.057-.646 1.361-1.285-.073-.253-.16-.483-.303-.64zm24.913 1.496c.008.528-1.001.698-.452 1.285.147-.71.298.238.452.21.113-.786.766-1.064 0-1.495zm-1.627 2.558c-.594.119-.952 1.14-.788 1.506.364-.48.802-.858 1.055-1.498a.591.591 0 0 0-.267-.008zm-72.354.436c-.24.995.78.743.604 0zm8.604.642c-.436.095-.688.452-.754 1.07.556.077.629-.531.754-1.07zm73.228 1.713c-.297.402-.088 1.03.453.856v-.428c-.008-.13-.022-.254-.152-.215-.01.13-.02.254-.15.215-.034-.166-.006-.422-.15-.428zm-13.89 1.284c-.027.25-.238.23-.454.212.2 1.402-1.093.544-.603 1.713.218-.331.587-.449 1.056-.427.114-.66-.521-.261-.302-1.07.308.244.72-.336.302-.428zm13.277.033c-.296.023-.548.567-.746.822.373.465.899-.152 1.056-.643-.108-.137-.212-.187-.31-.18zm-14.805 2.082c-.259.06-.38.316-.738.238-.945 1.94-2.927 3.555-3.322 5.563.525-1.044 2.027-1.836 2.568-2.14-.226-.037-.558.077-.604-.214.194-.67.313-.112.756-.43.045-.42-.204-.423-.302-.64.571-.899 1.61-1.14 1.96-2.354a.571.571 0 0 0-.318-.023zm12.399.453c-.255.294-1.014.974-.15 1.066-.253-.67.56-.872.15-1.066zm-7.702.213v.428c.12.492.712-.11.756-.428zm6.795.642c-.357.493-.756.921-.906 1.71.238.092.129.675.604.429-.35-1.13.213-.955.755-1.283.025-.537-.233-.67-.453-.856zm-1.51 2.354c-.668.62-1.41 1.14-1.812 2.139.839-.38 1.436-1.105 1.813-2.14zm7.249 0c-.028.6-.72.266-.606 1.068.392.04 1.07-.6.606-1.068zm-49.676 1.71c-.461.002-.987 1.01-.754 1.284.227-.464.754-.499.754-1.283zm40.414.499c-.204-.01-.394.353-.402.785.287-.09.649-.08.603-.643-.065-.096-.133-.14-.201-.142zm-78.16 1.64c-.438.173-1.094 1.146-.754 1.713.108-.774.822-.69.754-1.713zm75.797 1.07c-.42.076-.889.641-.604 1.07.483.045.367-.763.604-1.07zm-1.663.429c.11.583-.3.429-.302.855.364.087.33-.391.756-.215v-.64zm4.077 1.925c-.889.309-1.161 1.493-1.813 2.139 1.022-.123 1.404-1.149 1.813-2.139zm81.078 1.924c-1.748 2.302-3.892 4.041-5.586 6.42.296-.064.3.289.453.428.56-.567 1.198-1.579 1.662-1.072.814-2.117 2.69-3.864 3.47-5.776zm-78.512 1.713c.035.405-.168.472-.15.855.384-.025.585-.31.603-.855zm-1.678 1.897c-.395.028-.766.64-.435.884.094-.435.761-.058.603-.857a.37.37 0 0 0-.168-.027zm-18.101 14.148c-.7.221-1.602.155-1.963.855.526.3 1.561-.292 1.963-.855z" color="#000" overflow="visible" fill="#fff"/><g transform="translate(364.166 139.572) scale(.46087)" style="line-height:125%" font-weight="400" font-size="88.879" font-family="sans-serif" letter-spacing="0" word-spacing="0"><path style="isolation:auto;mix-blend-mode:normal" color="#000" overflow="visible" d="M4.823 281.526h13.334v44.437H4.823z"/><path style="-inkscape-font-specification:'Gilroy Ultra-Bold'" d="M-220.39 327.208c8.71 0 16.265-4.533 20.087-11.466l-11.643-6.666c-1.422 3.111-4.71 4.978-8.622 4.978-5.777 0-10.043-4.178-10.043-10.31 0-6.133 4.266-10.31 10.043-10.31 3.911 0 7.11 1.866 8.622 4.977l11.643-6.755c-3.822-6.844-11.466-11.376-20.087-11.376-13.51 0-23.553 10.22-23.553 23.464 0 13.243 10.044 23.464 23.553 23.464zm45.829 0c13.065 0 23.553-10.221 23.553-23.464 0-13.243-10.488-23.464-23.553-23.464-13.066 0-23.553 10.22-23.553 23.464 0 13.243 10.487 23.464 23.553 23.464zm0-12.976c-5.778 0-10.221-4.178-10.221-10.488s4.443-10.488 10.22-10.488c5.778 0 10.222 4.177 10.222 10.488 0 6.31-4.444 10.488-10.221 10.488zm79.581-33.952c-6.311 0-10.4 2.31-12.888 5.866-2.489-3.733-6.4-5.866-11.643-5.866-5.955 0-9.866 2.31-11.91 5.332v-4.088h-13.332v44.44h13.332V300.9c0-5.244 2.488-8.355 6.932-8.355 4.267 0 6.4 2.844 6.4 7.288v26.13h13.332V300.9c0-5.244 2.488-8.355 6.932-8.355 4.266 0 6.4 2.844 6.4 7.288v26.13h13.331v-27.285c0-11.11-6.666-18.398-16.887-18.398zm74.788 0c-6.31 0-10.399 2.31-12.888 5.866-2.488-3.733-6.399-5.866-11.643-5.866-5.955 0-9.865 2.31-11.91 5.332v-4.088h-13.332v44.44h13.332V300.9c0-5.244 2.489-8.355 6.933-8.355 4.266 0 6.4 2.844 6.4 7.288v26.13h13.331V300.9c0-5.244 2.489-8.355 6.933-8.355 4.266 0 6.4 2.844 6.4 7.288v26.13h13.331v-27.285c0-11.11-6.666-18.398-16.887-18.398zm74.145 14.043v-12.8H44.8v-12.442l-13.332 4v8.443h-7.11v12.799h7.11v15.731c0 12.443 5.066 17.687 22.486 15.91v-12.088c-5.866.356-9.154 0-9.154-3.822v-15.731h9.154z" font-weight="800" font-family="Gilroy"/><circle r="7.987" cy="269.629" cx="11.543" style="isolation:auto;mix-blend-mode:normal" color="#000" overflow="visible" fill="#fe3600"/></g><g style="line-height:125%;text-align:end" font-weight="300" font-size="26.014" font-family="Roboto" letter-spacing="0" word-spacing="0" text-anchor="end" fill="#333"><path d="M305.504 312.577h-9.275v-.936l5.075-5.756q1.261-1.454 1.75-2.4.488-.946.488-1.84 0-1.404-.824-2.218-.824-.824-2.268-.824-1.495 0-2.42.956-.916.956-.916 2.482h-1.21q0-1.251.56-2.278.569-1.027 1.606-1.607 1.048-.59 2.38-.59 2.034 0 3.173 1.068 1.15 1.068 1.15 2.909 0 1.037-.652 2.268-.64 1.23-2.268 3.07l-4.129 4.669h7.78v1.027zm4.984-8.065h1.26q1.048 0 1.831-.366.784-.376 1.19-1.017.417-.65.417-1.495 0-1.424-.803-2.227-.804-.804-2.309-.804-1.424 0-2.339.845-.905.834-.905 2.206h-1.22q0-1.149.58-2.095.579-.956 1.606-1.474 1.027-.519 2.278-.519 2.014 0 3.173 1.098 1.16 1.099 1.16 3.01 0 1.069-.682 1.974-.67.895-1.85 1.342 1.382.387 2.094 1.332.712.936.712 2.238 0 1.902-1.24 3.061-1.241 1.16-3.316 1.16-1.322 0-2.43-.53-1.099-.528-1.709-1.474-.6-.956-.6-2.217h1.22q0 1.414.987 2.308.986.885 2.532.885 1.576 0 2.451-.803.885-.814.885-2.35 0-1.484-.956-2.267-.946-.783-2.797-.783h-1.22v-1.038zm12.824 2.044h-4.871v-1.027h4.871v1.027zm11.278 6.021h-9.274v-.936l5.074-5.756q1.262-1.454 1.75-2.4t.488-1.84q0-1.404-.824-2.218-.824-.824-2.268-.824-1.495 0-2.42.956-.916.956-.916 2.482h-1.21q0-1.251.56-2.278.57-1.027 1.606-1.607 1.048-.59 2.38-.59 2.034 0 3.173 1.068 1.15 1.068 1.15 2.909 0 1.037-.651 2.268-.641 1.23-2.268 3.07l-4.13 4.669h7.78v1.027zm9.754-4.77h2.308v1.027h-2.308v3.743h-1.22v-3.743h-6.967v-.691l6.854-10.373h1.333v10.037zm-6.692 0h5.471v-8.461l-.539.936-4.932 7.525zm27.358 4.77h-1.252l-8.512-12.672v12.672h-1.261V297.77h1.26l8.523 12.682V297.77h1.241v14.807zm2.826-5.665q0-1.586.61-2.857.62-1.272 1.74-1.973 1.129-.712 2.552-.712 2.197 0 3.56 1.546 1.363 1.535 1.363 4.078v.254q0 1.597-.62 2.878-.611 1.271-1.73 1.963-1.118.691-2.552.691-2.187 0-3.56-1.535-1.363-1.546-1.363-4.089v-.244zm1.22.336q0 1.973 1.018 3.244 1.027 1.261 2.685 1.261 1.647 0 2.664-1.26 1.027-1.272 1.027-3.347v-.234q0-1.26-.467-2.308-.468-1.048-1.312-1.617-.845-.58-1.933-.58-1.627 0-2.654 1.281-1.027 1.272-1.027 3.336v.224zm14.391 3.651l3.346-9.326h1.251l-4.109 11.004h-.986l-4.129-11.004h1.25l3.377 9.326z" style="-inkscape-font-specification:'Roboto Light';text-align:end"/><g style="line-height:125%" font-weight="300" font-size="20.966" font-family="Roboto"><path d="M227.423 297.67l5.498 13.156 5.518-13.155h1.678v14.905h-1.259v-6.49l.103-6.654-5.549 13.144h-.972l-5.529-13.093.103 6.562v6.531h-1.26v-14.905h1.67zM250.6 312.576q-.184-.522-.235-1.546-.645.84-1.648 1.3-.993.451-2.11.451-1.596 0-2.59-.89-.982-.891-.982-2.253 0-1.617 1.341-2.56 1.351-.94 3.757-.94h2.222v-1.26q0-1.188-.737-1.863-.727-.686-2.13-.686-1.28 0-2.119.655-.84.655-.84 1.577l-1.228-.01q0-1.321 1.229-2.284 1.228-.972 3.02-.972 1.853 0 2.917.931 1.075.922 1.106 2.58v5.242q0 1.607.338 2.405v.123h-1.31zm-3.849-.88q1.229 0 2.19-.594.973-.594 1.414-1.587v-2.436h-2.191q-1.833.02-2.867.676-1.033.644-1.033 1.78 0 .932.685 1.547.697.614 1.802.614zM254.337 306.936q0-2.58 1.147-4.106 1.156-1.535 3.132-1.535 2.242 0 3.42 1.77v-6.213h1.218v15.724h-1.147l-.051-1.474q-1.177 1.679-3.46 1.679-1.915 0-3.092-1.536-1.167-1.545-1.167-4.166v-.143zm1.239.215q0 2.119.85 3.347.849 1.218 2.395 1.218 2.262 0 3.214-1.996v-5.2q-.952-2.16-3.194-2.16-1.546 0-2.405 1.218-.86 1.208-.86 3.573zM271.617 302.544q-.389-.072-.829-.072-1.146 0-1.945.645-.788.635-1.126 1.853v7.606h-1.218V301.5h1.198l.02 1.76q.973-1.965 3.122-1.965.512 0 .81.133l-.032 1.116zM274.914 312.576h-1.229V301.5h1.229v11.076zm-1.444-14.28q0-.349.226-.584.225-.246.614-.246t.614.246q.235.235.235.583t-.235.584q-.225.235-.614.235-.39 0-.614-.235-.226-.236-.226-.584zM277.76 306.936q0-2.58 1.146-4.106 1.157-1.535 3.133-1.535 2.242 0 3.42 1.77v-6.213h1.217v15.724h-1.146l-.051-1.474q-1.178 1.679-3.46 1.679-1.915 0-3.092-1.536-1.167-1.545-1.167-4.166v-.143zm1.238.215q0 2.119.85 3.347.85 1.218 2.396 1.218 2.262 0 3.214-1.996v-5.2q-.952-2.16-3.194-2.16-1.546 0-2.406 1.218-.86 1.208-.86 3.573z" style="-inkscape-font-specification:'Roboto Light'"/></g></g></svg>