<?xml version="1.0" encoding="UTF-8" standalone="no"?>
<!-- Created with Inkscape (http://www.inkscape.org/) -->

<svg
   xmlns:dc="http://purl.org/dc/elements/1.1/"
   xmlns:cc="http://creativecommons.org/ns#"
   xmlns:rdf="http://www.w3.org/1999/02/22-rdf-syntax-ns#"
   xmlns:svg="http://www.w3.org/2000/svg"
   xmlns="http://www.w3.org/2000/svg"
   xmlns:sodipodi="http://sodipodi.sourceforge.net/DTD/sodipodi-0.dtd"
   xmlns:inkscape="http://www.inkscape.org/namespaces/inkscape"
   width="74.990242mm"
   height="44.558601mm"
   viewBox="0 0 265.71346 157.88481"
   id="svg9743"
   version="1.1"
   inkscape:version="0.91 r13725"
   sodipodi:docname="TechSHEssions.svg"
   inkscape:export-xdpi="194.69"
   inkscape:export-ydpi="194.69">
  <defs
     id="defs9745">
    <clipPath
       clipPathUnits="userSpaceOnUse"
       id="clipPath4217">
      <path
         d="M 0,0 257,0 257,36 0,36 0,0 Z"
         id="path4219"
         inkscape:connector-curvature="0" />
    </clipPath>
    <clipPath
       clipPathUnits="userSpaceOnUse"
       id="clipPath16">
      <path
         d="M 0,343 515,343 515,0 0,0 0,343 Z"
         id="path18"
         inkscape:connector-curvature="0" />
    </clipPath>
  </defs>
  <sodipodi:namedview
     id="base"
     pagecolor="#ffffff"
     bordercolor="#666666"
     borderopacity="1.0"
     inkscape:pageopacity="0.0"
     inkscape:pageshadow="2"
     inkscape:zoom="2.7549803"
     inkscape:cx="-15.855579"
     inkscape:cy="27.460261"
     inkscape:document-units="px"
     inkscape:current-layer="layer1"
     showgrid="false"
     showguides="true"
     inkscape:guide-bbox="true"
     fit-margin-top="0"
     fit-margin-left="0"
     fit-margin-right="0"
     fit-margin-bottom="0"
     inkscape:window-width="1855"
     inkscape:window-height="1056"
     inkscape:window-x="1985"
     inkscape:window-y="24"
     inkscape:window-maximized="1" />
  <metadata
     id="metadata9748">
    <rdf:RDF>
      <cc:Work
         rdf:about="">
        <dc:format>image/svg+xml</dc:format>
        <dc:type
           rdf:resource="http://purl.org/dc/dcmitype/StillImage" />
        <dc:title></dc:title>
      </cc:Work>
    </rdf:RDF>
  </metadata>
  <g
     inkscape:label="Layer 1"
     inkscape:groupmode="layer"
     id="layer1"
     transform="translate(-256.02299,-5.4089149)">
    <g
       transform="matrix(1.2246085,0,0,-1.2246085,81.21013,365.96643)"
       id="g12">
      <g
         id="g14"
         clip-path="url(#clipPath16)">
        <g
           id="g20"
           transform="translate(275.125,279.875)">
          <path
             d="m 0,0 c 0.756,1.306 3.006,2.375 5,2.375 1.994,0 4.469,-0.956 5.5,-2.125 1.031,-1.169 2.55,-3.419 3.375,-5 0.825,-1.581 1.5,-4.084 1.5,-5.563 0,-1.478 -0.281,-5.247 -0.625,-8.374 -0.344,-3.128 -1.3,-6.588 -2.125,-7.688 -0.825,-1.1 -2.513,-2 -3.75,-2 -1.237,0 -3.15,0.788 -4.25,1.75 -1.1,0.962 -2.619,2.875 -3.375,4.25 -0.756,1.375 -2.05,4.046 -2.875,5.938 -0.825,1.89 -1.5,4.872 -1.5,6.624 0,1.753 0.394,4.144 0.875,5.313 0.481,1.169 1.494,3.194 2.25,4.5"
             style="fill:#00dab2;fill-opacity:1;fill-rule:nonzero;stroke:none"
             id="path22"
             inkscape:connector-curvature="0" />
        </g>
        <g
           id="g24"
           transform="translate(286.875,237.208)">
          <path
             d="m 0,0 c 0.619,-1.397 1.969,-0.16 3,2.75 1.031,2.911 2.325,7.486 2.875,10.167 0.55,2.681 1,8.1 1,12.041 l 0,11.125 c 0,2.178 -0.646,6.828 -1.438,10.334 C 4.646,49.923 4,54.254 4,56.042 c 0,1.788 1.997,1.506 4.438,-0.625 2.44,-2.131 5.45,-7.306 6.687,-11.5 1.237,-4.194 2.7,-10.212 3.25,-13.375 0.55,-3.163 1.338,-8.112 1.75,-11 0.412,-2.888 0.75,-7.894 0.75,-11.125 0,-3.231 -1.35,-13.413 -3,-22.625 -1.65,-9.212 -4.182,-18.55 -5.625,-20.75 -1.443,-2.2 -4.256,-5.688 -6.25,-7.75 -1.994,-2.063 -4.693,-5.044 -6,-6.625 -1.307,-1.581 -4.175,-4.169 -6.375,-5.75 -2.2,-1.581 -5.519,-3.906 -7.375,-5.167 -1.856,-1.26 -4.219,-2.554 -5.25,-2.875 -1.031,-0.32 -0.975,3.129 0.125,7.667 1.1,4.538 2.169,11.794 2.375,16.125 0.206,4.331 0.094,11.531 -0.25,16 -0.344,4.469 -1.131,12.062 -1.75,16.875 -0.619,4.812 -2.475,12.575 -4.125,17.25 -1.65,4.675 -4.013,10.356 -5.25,12.625 -1.237,2.269 -2.925,5.7 -3.75,7.625 -0.825,1.925 -0.037,2.956 1.75,2.291 1.787,-0.664 4.656,-2.07 6.375,-3.125 1.719,-1.054 4.362,-3.154 5.875,-4.666 1.513,-1.513 3.875,-4.663 5.25,-7 1.375,-2.337 3.456,-5.769 4.625,-7.625 1.169,-1.856 3.138,-4.5 4.375,-5.875 C -2.138,3.667 -0.619,1.398 0,0"
             style="fill:#00dab2;fill-opacity:1;fill-rule:nonzero;stroke:none"
             id="path26"
             inkscape:connector-curvature="0" />
        </g>
        <g
           id="g28"
           transform="translate(150.5,202.979)">
          <path
             d="m 0,0 c -0.413,-1.249 -0.131,-3.668 0.625,-5.375 0.756,-1.707 3.456,-3.835 6,-4.729 2.544,-0.894 6.931,-1.625 9.75,-1.625 2.819,0 6.7,1.064 8.625,2.364 1.925,1.301 4.119,3.945 4.875,5.875 0.756,1.931 -0.031,4.748 -1.75,6.261 -1.719,1.513 -4.925,3.2 -7.125,3.75 -2.2,0.55 -5.462,1 -7.25,1 -1.788,0 -4.487,-0.675 -6,-1.5 C 6.237,5.196 4.044,4.015 2.875,3.396 1.706,2.777 0.413,1.249 0,0"
             style="fill:#99ff9f;fill-opacity:1;fill-rule:nonzero;stroke:none"
             id="path30"
             inkscape:connector-curvature="0" />
        </g>
        <g
           id="g32"
           transform="translate(191.75,203.854)">
          <path
             d="m 0,0 c 2.888,-1.73 3.394,-3.98 1.125,-5 -2.269,-1.02 -5.7,-2.36 -7.625,-2.979 -1.925,-0.619 -5.244,-1.913 -7.375,-2.875 -2.131,-0.962 -5.731,-3.044 -8,-4.625 -2.269,-1.581 -6.206,-4.506 -8.75,-6.5 -2.544,-1.994 -4.625,-4.919 -4.625,-6.5 0,-1.581 2.081,-2.388 4.625,-1.792 2.544,0.596 6.481,1.777 8.75,2.625 2.269,0.848 6.487,1.936 9.375,2.417 2.888,0.481 7.219,0.875 9.625,0.875 2.406,0 7.637,-0.337 11.625,-0.75 3.987,-0.413 9.837,-1.2 13,-1.75 3.162,-0.55 8.169,-1.3 11.125,-1.667 2.956,-0.366 7.006,-1.154 9,-1.75 1.994,-0.596 5.369,-1.871 7.5,-2.833 2.131,-0.962 4.831,-2.538 6,-3.5 1.169,-0.962 3.138,-1.75 4.375,-1.75 1.237,0 2.25,1.406 2.25,3.125 0,1.719 -0.787,5.263 -1.75,7.875 -0.963,2.612 -3.044,7 -4.625,9.75 -1.581,2.75 -4,6.294 -5.375,7.875 -1.375,1.581 -3.794,4.337 -5.375,6.125 -1.581,1.788 -4.619,4.825 -6.75,6.75 -2.131,1.925 -5.394,4.4 -7.25,5.5 -1.856,1.1 -5.231,2.844 -7.5,3.875 -2.269,1.031 -7.612,3 -11.875,4.375 -4.263,1.375 -16.525,2.5 -27.25,2.5 -10.725,0 -22.594,-0.675 -26.375,-1.5 C -45.906,17.071 -49,15.327 -49,14.021 c 0,-1.306 4.781,-2.6 10.625,-2.875 5.844,-0.275 13.719,-1.4 17.5,-2.5 3.781,-1.1 8.844,-2.788 11.25,-3.75 C -7.219,3.934 -2.888,1.73 0,0"
             style="fill:#99ff9f;fill-opacity:1;fill-rule:nonzero;stroke:none"
             id="path34"
             inkscape:connector-curvature="0" />
        </g>
        <g
           id="g36"
           transform="translate(204.4844,233.2148)">
          <path
             d="m 0,0 c -0.329,-1.349 1.396,-3.298 3.833,-4.333 2.438,-1.036 5.782,-2.707 7.432,-3.716 1.65,-1.008 6.45,-4.983 10.667,-8.833 4.216,-3.85 9.991,-9.775 12.833,-13.166 2.841,-3.392 7.641,-11.117 10.667,-17.167 3.025,-6.05 6.625,-11.075 8,-11.167 1.375,-0.092 3.25,1.184 4.166,2.834 0.917,1.65 2.716,8.549 4,15.333 1.284,6.783 0.984,17.358 -0.666,23.5 -1.651,6.142 -5.326,14.767 -8.167,19.167 -2.842,4.4 -6.892,9.949 -9,12.333 -2.109,2.383 -5.259,5.458 -7,6.833 -1.742,1.375 -4.892,4 -7,5.833 -2.109,1.834 -5.334,4.534 -7.167,6 -1.833,1.467 -4.008,2.667 -4.833,2.667 -0.826,0 -2.025,-0.675 -2.667,-1.5 -0.642,-0.825 -0.642,-2.175 0,-3 0.642,-0.825 1.617,-1.95 2.167,-2.5 0.549,-0.55 1.825,-1.675 2.833,-2.5 1.008,-0.825 2.583,-2.4 3.5,-3.5 0.917,-1.1 2.192,-2.6 2.834,-3.333 0.641,-0.733 2.441,-3.358 4,-5.833 1.558,-2.475 3.358,-5.551 4,-6.834 0.641,-1.283 1.391,-3.233 1.666,-4.333 0.275,-1.1 0.725,-3.05 1,-4.334 0.275,-1.283 0.575,-2.933 0.667,-3.666 0.091,-0.733 -0.659,-0.733 -1.667,0 -1.008,0.733 -2.846,1.708 -4.083,2.166 -1.238,0.459 -3.188,1.134 -4.333,1.5 -1.146,0.367 -3.059,0.967 -4.25,1.334 -1.192,0.366 -3.067,0.817 -4.167,1 -1.1,0.183 -3.576,0.633 -5.5,1 -1.925,0.366 -4.85,0.667 -6.5,0.667 l -4.833,0 C 1.423,2.452 0.329,1.349 0,0"
             style="fill:#ffc372;fill-opacity:1;fill-rule:nonzero;stroke:none"
             id="path38"
             inkscape:connector-curvature="0" />
        </g>
        <g
           id="g40"
           transform="translate(207.749,252.333)">
          <path
             d="m 0,0 c 0,2.934 1.65,5.858 3.667,6.5 2.017,0.642 5.242,0.642 7.166,0 1.925,-0.642 4.625,-1.917 6,-2.833 1.375,-0.917 3.213,-2.492 4.084,-3.5 0.871,-1.009 2.259,-2.846 3.084,-4.084 0.825,-1.237 1.875,-3.149 2.333,-4.25 0.458,-1.1 0.833,-2.899 0.833,-4 0,-1.1 -0.6,-2.6 -1.333,-3.333 -0.733,-0.733 -3.283,-1.333 -5.666,-1.333 -2.384,0 -6.133,0.788 -8.334,1.75 -2.2,0.962 -5.762,3.55 -7.917,5.75 C 1.763,-7.133 0,-2.933 0,0"
             style="fill:#ffc372;fill-opacity:1;fill-rule:nonzero;stroke:none"
             id="path42"
             inkscape:connector-curvature="0" />
        </g>
        <g
           id="g44"
           transform="translate(338.5,236.25)">
          <path
             d="m 0,0 c 1.375,0.825 3.794,1.163 5.375,0.75 1.581,-0.413 3.55,-1.931 4.375,-3.375 0.825,-1.444 1.5,-4.031 1.5,-5.75 0,-1.719 -0.731,-4.644 -1.625,-6.5 -0.894,-1.856 -2.862,-4.725 -4.375,-6.375 -1.513,-1.65 -3.763,-3.9 -5,-5 -1.237,-1.1 -3.544,-2 -5.125,-2 -1.581,0 -3.55,1.181 -4.375,2.625 -0.825,1.444 -1.5,4.594 -1.5,7 0,2.406 0.731,6.062 1.625,8.125 0.894,2.062 2.75,4.931 4.125,6.375 1.375,1.444 3.625,3.3 5,4.125"
             style="fill:#ff75e6;fill-opacity:1;fill-rule:nonzero;stroke:none"
             id="path46"
             inkscape:connector-curvature="0" />
        </g>
        <g
           id="g48"
           transform="translate(323.25,199.875)">
          <path
             d="m 0,0 c -0.412,-1.581 0.432,-2.425 1.875,-1.875 1.443,0.55 3.919,1.9 5.5,3 1.581,1.1 4.057,2.844 5.5,3.875 1.443,1.031 3.412,2.606 4.375,3.5 0.963,0.894 2.537,2.413 3.5,3.375 0.963,0.962 2.65,2.987 3.75,4.5 1.1,1.513 3.631,4.831 5.625,7.375 1.994,2.544 4.469,4.175 5.5,3.625 1.031,-0.55 1.144,-2.8 0.25,-5 -0.894,-2.2 -2.525,-5.8 -3.625,-8 C 31.15,12.175 27.888,6.606 25,2 22.112,-2.606 17.557,-8.737 14.875,-11.625 c -2.682,-2.888 -9.094,-7.95 -14.25,-11.25 -5.156,-3.3 -15.956,-6.956 -24,-8.125 -8.044,-1.169 -16.932,-1.563 -19.75,-0.875 -2.818,0.688 -5.125,2.15 -5.125,3.25 0,1.1 2.025,3.406 4.5,5.125 2.475,1.719 6.244,4.7 8.375,6.625 2.131,1.925 6.688,6.481 10.125,10.125 3.438,3.644 7.432,8.144 8.875,10 1.443,1.856 3.356,4.781 4.25,6.5 0.894,1.719 2.778,7.831 4.188,13.583 1.409,5.752 4.109,10.684 6,10.959 1.89,0.274 3.549,-0.606 3.687,-1.959 0.138,-1.352 0.193,-3.639 0.125,-5.083 -0.068,-1.444 -0.068,-4.2 0,-6.125 C 1.943,19.2 1.719,14.306 1.375,10.25 1.031,6.194 0.412,1.581 0,0"
             style="fill:#ff75e6;fill-opacity:1;fill-rule:nonzero;stroke:none"
             id="path50"
             inkscape:connector-curvature="0" />
        </g>
      </g>
    </g>
    <text
       xml:space="preserve"
       style="font-style:normal;font-variant:normal;font-weight:normal;font-stretch:normal;font-size:31.84680939px;line-height:125%;font-family:'Minion LT';-inkscape-font-specification:'Minion LT';letter-spacing:0px;word-spacing:0px;fill:#000000;fill-opacity:1;stroke:none;stroke-width:1px;stroke-linecap:butt;stroke-linejoin:miter;stroke-opacity:1"
       x="289.56158"
       y="309.05054"
       id="text14328-2"
       sodipodi:linespacing="125%"><tspan
         sodipodi:role="line"
         id="tspan14330-0"
         x="289.56158"
         y="309.05054"
         style="font-style:normal;font-variant:normal;font-weight:normal;font-stretch:normal;font-family:Anagram;-inkscape-font-specification:Anagram" /></text>
    <flowRoot
       xml:space="preserve"
       id="flowRoot14380"
       style="font-style:normal;font-variant:normal;font-weight:normal;font-stretch:normal;font-size:22px;line-height:125%;font-family:'Minion LT';-inkscape-font-specification:'Minion LT';letter-spacing:0px;word-spacing:0px;fill:#000000;fill-opacity:1;stroke:none;stroke-width:1px;stroke-linecap:butt;stroke-linejoin:miter;stroke-opacity:1"><flowRegion
         id="flowRegion14382"><rect
           id="rect14384"
           width="374.01431"
           height="140.25537"
           x="198.29207"
           y="281.76373" /></flowRegion><flowPara
         id="flowPara14386" /></flowRoot>  </g>
</svg>
