<?xml version="1.0" encoding="UTF-8" standalone="no"?>
<!-- Created with Inkscape (http://www.inkscape.org/) -->

<svg
   xmlns:dc="http://purl.org/dc/elements/1.1/"
   xmlns:cc="http://creativecommons.org/ns#"
   xmlns:rdf="http://www.w3.org/1999/02/22-rdf-syntax-ns#"
   xmlns:svg="http://www.w3.org/2000/svg"
   xmlns="http://www.w3.org/2000/svg"
   xmlns:sodipodi="http://sodipodi.sourceforge.net/DTD/sodipodi-0.dtd"
   xmlns:inkscape="http://www.inkscape.org/namespaces/inkscape"
   id="svg2"
   version="1.1"
   inkscape:version="0.91 r13725"
   xml:space="preserve"
   width="414.35001"
   height="61.287498"
   viewBox="0 0 414.35001 61.287498"
   sodipodi:docname="accenture.svg"><metadata
     id="metadata8"><rdf:RDF><cc:Work
         rdf:about=""><dc:format>image/svg+xml</dc:format><dc:type
           rdf:resource="http://purl.org/dc/dcmitype/StillImage" /><dc:title></dc:title></cc:Work></rdf:RDF></metadata><defs
     id="defs6" /><sodipodi:namedview
     pagecolor="#ffffff"
     bordercolor="#666666"
     borderopacity="1"
     objecttolerance="10"
     gridtolerance="10"
     guidetolerance="10"
     inkscape:pageopacity="0"
     inkscape:pageshadow="2"
     inkscape:window-width="1855"
     inkscape:window-height="1056"
     id="namedview4"
     showgrid="false"
     inkscape:zoom="0.88572462"
     inkscape:cx="72.821731"
     inkscape:cy="30.643749"
     inkscape:window-x="1985"
     inkscape:window-y="24"
     inkscape:window-maximized="1"
     inkscape:current-layer="g10" /><g
     id="g10"
     inkscape:groupmode="layer"
     inkscape:label="ink_ext_XXXXXX"
     transform="matrix(1.25,0,0,-1.25,0,61.2875)"><g
       id="g12"
       transform="scale(0.1,0.1)"><path
         d="m 951.113,370.027 93.947,34.922 -93.947,36.711 0,48.606 160.897,-64.797 0,-40.313 L 951.113,320 l 0,50.027"
         style="fill:#00d700;fill-opacity:1;fill-rule:nonzero;stroke:none"
         id="path14"
         inkscape:connector-curvature="0" /><path
         d="m 1510.18,179.98 70.55,0 c -1.08,27.715 -13.68,39.59 -34.56,39.59 -16.55,0 -31.67,-8.996 -35.99,-39.59 z m 37.44,-119.8628 c -54.36,0 -91.43,32.3945 -91.43,95.0198 l 0,3.601 c 0,62.992 39.23,97.551 89.62,97.551 46.8,0 86.03,-26.277 86.03,-88.547 l 0,-22.683 -122.38,0 c 2.16,-33.829 16.56,-46.7856 39.23,-46.7856 20.16,0 30.96,10.7896 34.56,24.4686 l 48.59,0 c -5.76,-35.6326 -34.91,-62.6248 -84.22,-62.6248 z m -217.07,192.2068 52.54,0 0,-34.551 c 11.17,25.196 28.8,37.071 56.52,37.071 l 0,-51.824 c -35.64,0 -56.52,-10.801 -56.52,-42.122 l 0,-96.8277 -52.54,0 0,188.2537 z m -38.18,-188.2537 -52.56,0 0,27.7149 c -8.99,-17.9961 -26.63,-31.668 -54.71,-31.668 -33.83,0 -58.68,20.5195 -58.68,64.7848 l 0,127.422 52.92,0 0,-119.504 c 0,-21.59 8.64,-31.668 27.36,-31.668 18.36,0 33.11,11.516 33.11,34.914 l 0,116.258 52.56,0 0,-188.2537 z m -233.99,245.1287 0,-56.875 36,0 0,-39.226 -36,0 0,-89.27 c 0,-14.043 6.47,-20.515 18.72,-20.515 7.56,0 13.31,1.074 18.35,3.23 l 0,-41.0352 c -6.11,-1.7969 -16.55,-3.9531 -29.51,-3.9531 -41.04,0 -60.47,18.7187 -60.47,56.8753 l 0,94.668 -21.966,0 0,39.226 21.966,0 0,35.285 52.91,21.59 z m -264.591,-56.875 52.551,0 0,-28.078 c 9.363,17.649 28.074,32.043 56.875,32.043 34.195,0 56.875,-20.516 56.875,-66.23 l 0,-125.9887 -52.563,0 0,118.0707 c 0,21.953 -8.992,31.675 -28.074,31.675 -18.351,0 -33.113,-11.16 -33.113,-34.918 l 0,-114.8277 -52.551,0 0,188.2537 z m -154.082,-72.344 70.555,0 c -1.082,27.715 -13.68,39.59 -34.559,39.59 -16.555,0 -31.672,-8.996 -35.996,-39.59 z M 677.148,60.1172 c -54.355,0 -91.425,32.3945 -91.425,95.0198 l 0,3.601 c 0,62.992 39.226,97.551 89.617,97.551 46.797,0 86.039,-26.277 86.039,-88.547 l 0,-22.683 -122.387,0 c 2.16,-33.829 16.555,-46.7856 39.231,-46.7856 20.156,0 30.957,10.7896 34.558,24.4686 l 48.598,0 C 755.613,87.1094 726.465,60.1172 677.148,60.1172 Z m -197.285,0 c -52.187,0 -89.98,32.3945 -89.98,96.1058 l 0,2.515 c 0,63.711 40.312,97.551 90.34,97.551 42.832,0 78.117,-21.601 82.433,-70.906 l -50.39,0 c -3.243,18.347 -12.598,30.23 -30.957,30.23 -22.325,0 -37.793,-17.633 -37.793,-54.715 l 0,-5.761 c 0,-38.153 13.672,-55.43 38.156,-55.43 17.996,0 31.305,13.32 34.187,33.84 l 47.879,0 C 560.137,90.7148 530.977,60.1172 479.863,60.1172 Z m -195.84,0 c -52.187,0 -89.98,32.3945 -89.98,96.1058 l 0,2.515 c 0,63.711 40.312,97.551 90.34,97.551 42.832,0 78.117,-21.601 82.433,-70.906 l -50.39,0 c -3.242,18.347 -12.598,30.23 -30.957,30.23 -22.324,0 -37.793,-17.633 -37.793,-54.715 l 0,-5.761 c 0,-38.153 13.672,-55.43 38.152,-55.43 18,0 31.309,13.32 34.192,33.84 l 47.878,0 C 364.297,90.7148 335.137,60.1172 284.023,60.1172 Z m -171.718,66.5938 0,17.984 -20.8792,0 c -25.918,0 -39.2305,-7.195 -39.2305,-24.109 l 0,-1.797 c 0,-12.961 7.9219,-21.9648 25.5586,-21.9648 18,0 34.5511,10.0778 34.5511,29.8868 z M 61.9141,60.1172 C 28.0742,60.1172 0,77.3945 0,115.547 l 0,2.156 c 0,46.438 40.3125,61.555 88.9063,61.555 l 23.3987,0 0,8.996 c 0,18.719 -8.282,30.242 -27.7152,30.242 -17.6367,0 -26.9921,-10.078 -28.4375,-24.48 l -50.39058,0 c 3.59375,41.757 36.70708,62.273 81.34768,62.273 45.3516,0 77.7536,-19.441 77.7536,-66.23 l 0,-125.9887 -51.476,0 0,21.6055 C 104.383,71.9922 87.1094,60.1172 61.9141,60.1172"
         style="fill:#000000;fill-opacity:1;fill-rule:nonzero;stroke:none"
         id="path16"
         inkscape:connector-curvature="0" /><path
         d="m 3238.87,115.547 47.87,136.777 28.07,0 -93.22,-249.44119 -27.36,0 30.23,79.91019 -66.59,169.531 28.8,0 52.2,-136.777 z m -135.37,37.07 0,19.446 c 0,38.511 -19.8,60.828 -52.91,60.828 -33.12,0 -52.55,-23.758 -52.55,-60.469 l 0,-21.602 c 0,-38.152 21.95,-58.6716 50.75,-58.6716 31.67,0 54.71,21.9536 54.71,60.4686 z M 3049.86,0 c -50.03,0 -72.7,23.0352 -76.67,53.6328 l 27.37,0 c 3.59,-20.8789 19.79,-30.957 48.95,-30.957 33.12,0 53.63,16.2031 53.63,53.6328 l 0,27.0044 c -9.72,-17.6372 -32.04,-33.8403 -57.96,-33.8403 -43.91,0 -74.86,32.0313 -74.86,80.9883 l 0,21.238 c 0,47.871 31.31,83.504 77.02,83.504 28.8,0 46.44,-14.39 55.8,-32.027 l 0,29.148 27,0 0,-177.4529 C 3130.14,24.1211 3097.38,0 3049.86,0 Z m -135,146.863 0,21.953 c 0,39.602 -21.23,64.075 -54.35,64.075 -33.83,0 -54.71,-24.832 -54.71,-63.711 l 0,-22.317 c 0,-38.511 20.52,-63.3552 54.71,-63.3552 33.47,0 54.35,24.8442 54.35,63.3552 z m -136.77,0 0,22.317 c 0,51.472 34.55,86.023 82.42,86.023 47.88,0 82.07,-33.824 82.07,-85.66 l 0,-22.316 c 0,-52.1997 -34.19,-86.0356 -82.42,-86.0356 -48.25,0 -82.07,35.2734 -82.07,85.6716 z m -64.81,190.774 27.72,0 0,-273.5667 -27.72,0 0,273.5667 z m -64.81,-190.774 0,21.953 c 0,39.602 -21.23,64.075 -54.36,64.075 -33.83,0 -54.71,-24.832 -54.71,-63.711 l 0,-22.317 c 0,-38.511 20.52,-63.3552 54.71,-63.3552 33.48,0 54.36,24.8442 54.36,63.3552 z m -136.78,0 0,22.317 c 0,51.472 34.55,86.023 82.42,86.023 47.88,0 82.07,-33.824 82.07,-85.66 l 0,-22.316 c 0,-52.1997 -34.19,-86.0356 -82.42,-86.0356 -48.24,0 -82.07,35.2734 -82.07,85.6716 z m -176.76,105.461 27,0 0,-28.426 c 7.91,16.551 26.99,31.305 55.43,31.305 35.28,0 59.76,-19.793 59.76,-69.109 l 0,-122.0237 -27.37,0 0,123.8277 c 0,30.239 -12.59,44.27 -39.95,44.27 -25.55,0 -47.87,-16.914 -47.87,-47.512 l 0,-120.5857 -27,0 0,188.2537 z m -185.76,85.313 27,0 0,-113.739 c 7.91,16.551 26.99,31.305 55.43,31.305 35.28,0 59.76,-19.793 59.76,-69.109 l 0,-122.0237 -27.37,0 0,123.8277 c 0,30.239 -12.59,44.27 -39.95,44.27 -25.55,0 -47.87,-16.914 -47.87,-47.512 l 0,-120.5857 -27,0 0,273.5667 z m -108,-276.4456 c -47.16,0 -82.07,31.6797 -82.07,85.3126 l 0,22.312 c 0,52.914 36,86.387 80.99,86.387 36.72,0 69.11,-16.91 73.43,-62.262 l -26.64,0 c -3.24,29.508 -23.03,39.95 -46.79,39.95 -30.96,0 -53.27,-23.758 -53.27,-64.075 l 0,-22.312 c 0,-41.758 21.95,-62.9962 54.35,-62.9962 24.47,0 46.08,14.4024 48.23,45.0002 l 25.2,0 c -2.88,-41.0353 -32.39,-67.3166 -73.43,-67.3166 z m -235.79,114.1136 99.35,0 0,3.953 c -1.09,38.152 -19.8,53.633 -48.24,53.633 -27,0 -48.59,-17.996 -51.11,-57.586 z m 53.27,-114.1136 c -48.23,0 -80.98,32.7539 -80.98,85.6716 l 0,21.953 c 0,52.2 32.03,86.387 78.82,86.387 41.04,0 75.59,-24.469 75.59,-83.863 l 0,-18 -126.7,0 0,-6.113 c 0,-42.118 18.72,-63.7192 53.63,-63.7192 26.63,0 42.11,11.5195 45.72,33.4762 l 26.64,0 c -5.04,-37.0738 -33.12,-55.7926 -72.72,-55.7926 z m -145.08,232.8906 0,-41.758 40.68,0 0,-23.039 -40.68,0 0,-117.703 c 0,-18.3476 7.56,-26.6328 22.32,-26.6328 8.28,0 15.11,1.0742 20.15,3.2422 l 0,-22.6836 c -5.04,-1.7969 -11.87,-3.5937 -22.31,-3.5937 -32.03,0 -47.51,18.3593 -47.51,47.1489 l 0,120.222 -24.84,0 0,23.039 24.84,0 0,41.758 27.35,0"
         style="fill:#00d700;fill-opacity:1;fill-rule:nonzero;stroke:none"
         id="path18"
         inkscape:connector-curvature="0" /></g></g></svg>