<?xml version="1.0" encoding="UTF-8" standalone="no"?>
<svg
   xmlns:dc="http://purl.org/dc/elements/1.1/"
   xmlns:cc="http://creativecommons.org/ns#"
   xmlns:rdf="http://www.w3.org/1999/02/22-rdf-syntax-ns#"
   xmlns:svg="http://www.w3.org/2000/svg"
   xmlns="http://www.w3.org/2000/svg"
   viewBox="0 0 354.33124 81.716246"
   height="81.716248"
   width="354.33124"
   xml:space="preserve"
   version="1.1"
   id="svg2"><metadata
     id="metadata8"><rdf:RDF><cc:Work
         rdf:about=""><dc:format>image/svg+xml</dc:format><dc:type
           rdf:resource="http://purl.org/dc/dcmitype/StillImage" /><dc:title></dc:title></cc:Work></rdf:RDF></metadata><defs
     id="defs6"><clipPath
       id="clipPath16"
       clipPathUnits="userSpaceOnUse"><path
         id="path18"
         d="m 0,260.787 473.386,0 L 473.386,0 0,0 0,260.787 Z" /></clipPath></defs><g
     transform="matrix(1.25,0,0,-1.25,-118.70025,203.85038)"
     id="g10"><g
       id="g12"><g
         clip-path="url(#clipPath16)"
         id="g14"><g
           transform="translate(335.4072,114.3323)"
           id="g20"><path
             id="path22"
             style="fill:#231f20;fill-opacity:1;fill-rule:nonzero;stroke:none"
             d="m 0,0 c 0.375,-9.674 8.641,-16.531 22.447,-16.531 11.272,0 20.571,4.884 20.571,15.686 0,7.514 -4.227,11.928 -13.996,13.806 l -7.607,1.503 c -4.885,0.94 -8.266,1.879 -8.266,4.791 0,3.193 3.288,4.602 7.42,4.602 6.012,0 8.453,-3.005 8.642,-6.575 l 12.022,0 C 40.576,26.675 33.062,32.968 20.945,32.968 8.452,32.968 1.033,26.111 1.033,17.188 1.033,6.293 9.862,4.509 17.47,3.1 l 6.293,-1.128 c 4.508,-0.845 6.481,-2.159 6.481,-4.79 0,-2.348 -2.254,-4.696 -7.608,-4.696 C 14.84,-7.514 12.304,-3.475 12.21,0 L 0,0 Z m -43.675,8.172 c 0,7.607 6.105,13.713 13.713,13.713 7.608,0 13.713,-6.106 13.713,-13.713 0,-7.609 -6.105,-13.714 -13.713,-13.714 -7.608,0 -13.713,6.105 -13.713,13.714 m 27.332,-23.764 11.929,0 0,47.997 -11.929,0 0,-3.851 c -4.038,2.818 -8.923,4.414 -14.182,4.414 -13.714,0 -24.797,-11.083 -24.797,-24.796 0,-13.808 11.083,-24.797 24.797,-24.797 5.259,0 10.144,1.596 14.182,4.414 l 0,-3.381 z M -99.466,8.172 c 0,7.607 6.105,13.713 13.713,13.713 7.608,0 13.713,-6.106 13.713,-13.713 0,-7.609 -6.105,-13.714 -13.713,-13.714 -7.608,0 -13.713,6.105 -13.713,13.714 m 27.333,40.576 0,-20.194 c -4.039,2.818 -8.924,4.414 -14.184,4.414 -13.713,0 -24.796,-11.083 -24.796,-24.796 0,-13.808 11.083,-24.797 24.796,-24.797 5.26,0 10.145,1.596 14.184,4.414 l 0,-3.381 11.928,0 0,64.34 -11.928,0 z m -43.864,-16.343 -11.928,0 0,-47.997 11.928,0 0,47.997 z m 0,16.343 -11.928,0 0,-11.928 11.928,0 0,11.928 z M -173.008,8.172 c 0,7.607 6.105,13.713 13.713,13.713 7.608,0 13.713,-6.106 13.713,-13.713 0,-7.609 -6.105,-13.714 -13.713,-13.714 -7.608,0 -13.713,6.105 -13.713,13.714 m 27.332,40.576 0,-20.194 c -4.038,2.818 -8.923,4.414 -14.182,4.414 -13.714,0 -24.797,-11.083 -24.797,-24.796 0,-13.808 11.083,-24.797 24.797,-24.797 5.259,0 10.144,1.596 14.182,4.414 l 0,-3.381 11.929,0 0,64.34 -11.929,0 z M -228.8,8.172 c 0,7.607 6.106,13.713 13.714,13.713 7.608,0 13.713,-6.106 13.713,-13.713 0,-7.609 -6.105,-13.714 -13.713,-13.714 -7.608,0 -13.714,6.105 -13.714,13.714 m 27.333,-23.764 11.929,0 0,47.997 -11.929,0 0,-3.851 c -4.039,2.818 -8.923,4.414 -14.183,4.414 -13.713,0 -24.797,-11.083 -24.797,-24.796 0,-13.808 11.084,-24.797 24.797,-24.797 5.26,0 10.144,1.596 14.183,4.414 l 0,-3.381 z" /></g></g></g></g></svg>