<?xml version="1.0" encoding="UTF-8" standalone="no"?>
<svg
   xmlns:dc="http://purl.org/dc/elements/1.1/"
   xmlns:cc="http://creativecommons.org/ns#"
   xmlns:rdf="http://www.w3.org/1999/02/22-rdf-syntax-ns#"
   xmlns:svg="http://www.w3.org/2000/svg"
   xmlns="http://www.w3.org/2000/svg"
   viewBox="0 0 248.86026 101.78813"
   height="101.78813"
   width="248.86028"
   xml:space="preserve"
   version="1.1"
   id="svg2"><metadata
     id="metadata8"><rdf:RDF><cc:Work
         rdf:about=""><dc:format>image/svg+xml</dc:format><dc:type
           rdf:resource="http://purl.org/dc/dcmitype/StillImage" /><dc:title></dc:title></cc:Work></rdf:RDF></metadata><defs
     id="defs6"><clipPath
       id="clipPath16"
       clipPathUnits="userSpaceOnUse"><path
         id="path18"
         d="m 0,595.28 841.89,0 L 841.89,0 0,0 0,595.28 Z" /></clipPath></defs><g
     transform="matrix(1.25,0,0,-1.25,-439.96961,424.30687)"
     id="g10"><g
       id="g12"><g
         clip-path="url(#clipPath16)"
         id="g14"><g
           transform="translate(404.6943,320.385)"
           id="g20"><path
             id="path22"
             style="fill:#004481;fill-opacity:1;fill-rule:nonzero;stroke:none"
             d="m 0,0 3.611,5.391 c 0.912,1.351 1.107,2.199 1.107,3.148 0,2.646 -2.328,4.869 -5.005,4.869 l -5.554,0 0,-31.847 3.075,0 c 5.15,0 9.056,2.778 9.056,9.288 C 6.29,-3.778 3.768,-0.914 0,0 m 2.162,-24.257 -18.189,0 0,43.314 18.85,0 c 8.838,0 11.916,-7.2 7.442,-13.845 L 8.15,2.073 c 14.825,-7.7 10.006,-26.33 -5.988,-26.33" /></g><g
           transform="translate(368.063,320.385)"
           id="g24"><path
             id="path26"
             style="fill:#004481;fill-opacity:1;fill-rule:nonzero;stroke:none"
             d="m 0,0 3.611,5.391 c 0.913,1.351 1.107,2.199 1.107,3.148 0,2.646 -2.326,4.869 -5.004,4.869 l -5.555,0 0,-31.847 3.076,0 c 5.149,0 9.053,2.778 9.053,9.288 C 6.288,-3.778 3.769,-0.914 0,0 m 2.162,-24.257 -18.189,0 0,43.314 18.852,0 c 8.836,0 11.919,-7.2 7.442,-13.845 L 8.152,2.073 c 14.825,-7.7 10.004,-26.33 -5.99,-26.33" /></g><g
           transform="translate(449.8828,339.4455)"
           id="g28"><path
             id="path30"
             style="fill:#004481;fill-opacity:1;fill-rule:nonzero;stroke:none"
             d="M 0,0 6.833,0 -6.364,-43.298 -16.756,-43.295 -30.912,-0.008 -23.266,0 c 2.957,0 3.732,-0.765 5.279,-5.668 L -9.791,-32.89 0,0" /></g><g
           transform="translate(463.1387,311.8283)"
           id="g32"><path
             id="path34"
             style="fill:#004481;fill-opacity:1;fill-rule:nonzero;stroke:none"
             d="M 0,0 5.909,19.75 11.904,0 0,0 Z m 15.279,23.192 c -1.22,3.613 -2.043,4.41 -5.242,4.41 l -8.275,0.007 -13.254,-43.297 6.754,0 2.84,9.347 15.752,0 2.856,-9.343 11.704,0 -13.135,38.876" /></g></g></g><text
       id="text36"
       style="font-variant:normal;font-weight:normal;font-stretch:normal;font-size:24.37409973px;font-family:'BentonSansBBVA Book';-inkscape-font-specification:BentonSansBBVA-Book;writing-mode:lr-tb;fill:#02a5a5;fill-opacity:1;fill-rule:nonzero;stroke:none"
       transform="matrix(1,0,0,-1,349.5835,263.085)"><tspan
         id="tspan38"
         y="0"
         x="0 18.109957 30.906359 43.361523 52.233696 57.011021 68.710587 82.018845 94.961494 109.12285 123.28419 137.34805 143.19783 157.26169 171.05743 176.90721 189.97174">Next Technologies</tspan></text>
</g></svg>