<?xml version="1.0" encoding="UTF-8" standalone="no"?>
<!-- Created with Inkscape (http://www.inkscape.org/) -->

<svg
   xmlns:dc="http://purl.org/dc/elements/1.1/"
   xmlns:cc="http://creativecommons.org/ns#"
   xmlns:rdf="http://www.w3.org/1999/02/22-rdf-syntax-ns#"
   xmlns:svg="http://www.w3.org/2000/svg"
   xmlns="http://www.w3.org/2000/svg"
   xmlns:sodipodi="http://sodipodi.sourceforge.net/DTD/sodipodi-0.dtd"
   xmlns:inkscape="http://www.inkscape.org/namespaces/inkscape"
   id="svg2"
   version="1.1"
   inkscape:version="0.91 r13725"
   xml:space="preserve"
   width="299.99896"
   height="86.983002"
   viewBox="0 0 299.99896 86.983"
   sodipodi:docname="futurespace.svg"><metadata
     id="metadata8"><rdf:RDF><cc:Work
         rdf:about=""><dc:format>image/svg+xml</dc:format><dc:type
           rdf:resource="http://purl.org/dc/dcmitype/StillImage" /><dc:title></dc:title></cc:Work></rdf:RDF></metadata><defs
     id="defs6"><clipPath
       clipPathUnits="userSpaceOnUse"
       id="clipPath18"><path
         d="m 0,841.89 595.28,0 L 595.28,0 0,0 0,841.89 Z"
         id="path20"
         inkscape:connector-curvature="0" /></clipPath></defs><sodipodi:namedview
     pagecolor="#ffffff"
     bordercolor="#666666"
     borderopacity="1"
     objecttolerance="10"
     gridtolerance="10"
     guidetolerance="10"
     inkscape:pageopacity="0"
     inkscape:pageshadow="2"
     inkscape:window-width="1855"
     inkscape:window-height="1056"
     id="namedview4"
     showgrid="false"
     fit-margin-top="3.3"
     fit-margin-left="0"
     fit-margin-right="0"
     fit-margin-bottom="0"
     inkscape:zoom="1.2685909"
     inkscape:cx="12.397697"
     inkscape:cy="42.411576"
     inkscape:window-x="1985"
     inkscape:window-y="24"
     inkscape:window-maximized="1"
     inkscape:current-layer="g16" /><g
     id="g10"
     inkscape:groupmode="layer"
     inkscape:label="logo_futurespace_editable (1)"
     transform="matrix(1.25,0,0,-1.25,-210.66925,733.49836)"><g
       id="g14"><g
         id="g16"
         clip-path="url(#clipPath18)"><g
           id="g78"
           transform="matrix(0.55839597,0,0,0.55839597,199.41829,582.7769)"><path
             d="m 0,0 c -2.39,-0.847 -10.045,-3.202 -13.988,-5.37 -8.474,-4.671 -25.747,-16.192 -36.995,-47.679 -6.981,-19.539 -6.6,-48.301 9.32,-57.031 3.522,-1.921 9.281,-4.058 11.214,-4.863 -8.218,8.052 -16.486,12.328 -14.753,43.422 0.423,7.498 7.334,39.287 30.853,61.043 C -11.597,-7.932 -0.963,-0.931 0,0"
             style="fill:#006db7;fill-opacity:1;fill-rule:nonzero;stroke:none"
             id="path80"
             inkscape:connector-curvature="0" /></g><g
           id="g82"
           transform="matrix(0.55839597,0,0,0.55839597,193.99682,579.53178)"><path
             d="m 0,0 c 9.973,7.448 24.4,12.831 36.762,2.761 6.002,-4.881 21.172,-27.488 0.876,-72.748 -1.538,-3.424 -18.789,-39.906 -47.487,-41.584 -15.743,-0.919 -31.708,17.095 -24.945,52.036 C -34.249,-56.706 -29.2,-21.785 0,0 m -0.007,-3.063 c 9.404,6.904 22.181,10.049 34.047,0.682 5.705,-4.502 21.475,-24.588 2.285,-67.558 -1.457,-3.251 -18.14,-37.656 -45.806,-38.725 -15.129,-0.583 -30.38,17.008 -23.917,49.894 0.521,2.651 5.917,35.543 33.391,55.707"
             style="fill:#006db7;fill-opacity:1;fill-rule:evenodd;stroke:none"
             id="path84"
             inkscape:connector-curvature="0" /></g><g
           id="g86"
           transform="matrix(0.55839597,0,0,0.55839597,206.58586,581.58545)"><path
             d="m 0,0 c 0,-2.609 0.518,-22.893 0.518,-25.114 -7.934,3.657 -16.548,6.764 -25.983,-0.759 -2.928,-2.333 -7.713,-9.341 -14.246,-23.247 -1.82,1.293 -7.391,4.717 -7.391,4.717 l -6.212,-10.928 c 0,0 3.144,-2.143 6.303,-4.485 0.375,-0.275 0.45,-0.534 0.197,-1.04 -0.252,-0.511 -12.391,-23.502 -12.391,-23.502 l 8.567,-22.93 c 0,0 17.891,35.142 19.282,37.708 8.318,-9.828 25.106,-15.72 34.814,-7.677 3.344,2.765 13.498,8.837 13.498,38.069 0,6.779 -0.968,31.965 -0.968,31.965 L 0.565,1.614 C 0.565,1.614 0,2.609 0,0 m 0.889,-38.063 c 0.342,-13.262 -0.837,-25.952 -10.925,-26.987 -7.653,-0.78 -13.325,6.646 -14.262,8.85 7.683,14.896 9.274,16.946 13.562,19.575 3.728,2.284 9.324,0.39 11.625,-1.438"
             style="fill:#006db7;fill-opacity:1;fill-rule:evenodd;stroke:none"
             id="path88"
             inkscape:connector-curvature="0" /></g><g
           id="g90"
           transform="matrix(0.55839597,0,0,0.55839597,222.32782,559.99178)"><path
             d="M 0,0 0,1.834 C 4.79,1.617 10.064,1.515 15.82,1.515 c 6.05,0 12.685,0.102 19.905,0.319 l 0.681,-11.566 -2.15,0 c -0.862,3.27 -1.507,5.358 -1.941,6.267 -0.284,0.613 -0.742,1.062 -1.368,1.344 -0.623,0.276 -2.025,0.413 -4.194,0.413 l -13.419,0 c -0.125,-2.705 -0.225,-7.928 -0.307,-15.676 l 8.446,0 c 1.624,0 2.676,0.093 3.161,0.281 0.482,0.186 0.885,0.545 1.202,1.082 0.32,0.541 0.674,1.76 1.065,3.658 0.06,0.357 0.175,0.872 0.34,1.555 l 2.022,0 c -0.169,-4.327 -0.256,-7.144 -0.256,-8.448 0,-0.416 0.087,-3.056 0.256,-7.923 l -2.022,0 c -0.105,0.575 -0.173,1.01 -0.218,1.294 -0.428,2.661 -0.912,4.234 -1.447,4.726 -0.533,0.495 -1.904,0.742 -4.122,0.742 l -8.401,0 c -0.02,-2.057 -0.03,-3.436 -0.03,-4.138 0,-8.207 0.061,-12.62 0.183,-13.239 0.086,-0.41 0.312,-0.72 0.681,-0.924 0.479,-0.288 2.818,-0.761 7.027,-1.416 l 0,-1.838 c -4.654,0.215 -7.999,0.322 -10.038,0.322 l -10.814,-0.322 0,1.838 c 0.817,0.161 1.434,0.272 1.845,0.333 2.485,0.371 3.952,0.787 4.412,1.237 0.462,0.456 0.692,1.395 0.692,2.843 l 0.157,8.787 c 0.024,1.356 0.033,3.95 0.033,7.773 0,9.317 -0.045,14.585 -0.125,15.8 C 7.011,-2.56 6.81,-2.018 6.456,-1.728 6.001,-1.337 4.407,-0.876 1.664,-0.339 1.298,-0.278 0.739,-0.167 0,0"
             style="fill:#006db7;fill-opacity:1;fill-rule:nonzero;stroke:none"
             id="path92"
             inkscape:connector-curvature="0" /></g><g
           id="g94"
           transform="matrix(0.55839597,0,0,0.55839597,243.82495,551.44921)"><path
             d="m 0,0 0,1.707 c 3.731,0.202 7.169,0.644 10.306,1.327 l 0.769,-0.588 c -0.43,-3.558 -0.645,-7.881 -0.645,-12.971 0,-4.431 0.14,-7.252 0.417,-8.478 0.277,-1.228 0.88,-2.187 1.803,-2.888 0.929,-0.706 2.034,-1.05 3.334,-1.05 1.479,0 2.874,0.401 4.177,1.204 1.309,0.808 2.222,1.828 2.734,3.068 0.512,1.235 0.772,3.148 0.772,5.727 0,0.314 -0.065,3.789 -0.188,10.436 -0.101,0.888 -0.362,1.486 -0.788,1.795 -0.42,0.313 -1.585,0.517 -3.501,0.616 L 18.074,0 l 0,1.707 c 4.405,0.32 7.843,0.761 10.312,1.327 L 29.19,2.446 c -0.187,-1.707 -0.324,-3.843 -0.422,-6.411 -0.088,-2.563 -0.136,-5.556 -0.136,-8.974 0,-4.304 0.114,-6.854 0.341,-7.662 0.223,-0.801 0.803,-1.206 1.728,-1.206 0.534,0 1.616,0.127 3.241,0.38 l 0,-1.703 c -2.116,-0.56 -3.896,-1.127 -5.34,-1.699 -1.451,-0.579 -2.987,-1.341 -4.606,-2.285 l -0.925,0.68 c 0.257,1.521 0.403,3.046 0.442,4.571 -2.429,-2.268 -4.246,-3.702 -5.459,-4.326 -1.215,-0.615 -2.571,-0.925 -4.074,-0.925 -2.837,0 -4.951,0.702 -6.351,2.106 -1.422,1.378 -2.132,3.488 -2.132,6.336 l 0,10.82 C 5.475,-4 5.258,-1.782 4.839,-1.206 4.419,-0.626 3.165,-0.266 1.075,-0.12 0.828,-0.098 0.47,-0.064 0,0"
             style="fill:#006db7;fill-opacity:1;fill-rule:nonzero;stroke:none"
             id="path96"
             inkscape:connector-curvature="0" /></g><g
           id="g98"
           transform="matrix(0.55839597,0,0,0.55839597,268.25098,557.2734)"><path
             d="M 0,0 1.793,0 1.078,-7.898 9.66,-7.836 9.906,-8.313 c -0.517,-0.814 -0.989,-1.686 -1.42,-2.622 -2.436,0.099 -4.905,0.161 -7.408,0.188 l -0.274,-15.895 0,-0.182 c 0,-2.456 0.274,-4.223 0.82,-5.302 0.551,-1.083 1.479,-1.624 2.802,-1.624 1.094,0 2.535,0.457 4.333,1.391 l 0.894,-1.761 c -2.249,-1.399 -3.965,-2.316 -5.137,-2.763 -1.178,-0.442 -2.2,-0.661 -3.07,-0.661 -1.362,0 -2.519,0.355 -3.468,1.066 -0.947,0.714 -1.578,1.692 -1.889,2.949 -0.184,0.703 -0.279,2.848 -0.279,6.436 0,3.83 0.113,9.278 0.341,16.346 -1.431,-0.027 -2.912,-0.089 -4.45,-0.188 l 0,1.708 c 1.731,0.78 3.227,1.835 4.49,3.18 C -2.542,-4.703 -1.271,-2.687 0,0"
             style="fill:#006db7;fill-opacity:1;fill-rule:nonzero;stroke:none"
             id="path100"
             inkscape:connector-curvature="0" /></g><g
           id="g102"
           transform="matrix(0.55839597,0,0,0.55839597,273.95164,551.44921)"><path
             d="m 0,0 0,1.707 c 3.733,0.202 7.169,0.644 10.309,1.327 l 0.768,-0.588 c -0.432,-3.558 -0.575,-7.881 -0.646,-12.971 -0.079,-5.614 0.1,-7.816 0.413,-8.478 0.538,-1.139 0.881,-2.187 1.807,-2.888 0.928,-0.706 2.039,-1.05 3.332,-1.05 1.482,0 2.875,0.401 4.181,1.204 1.307,0.808 2.216,1.828 2.733,3.068 0.513,1.235 0.768,3.148 0.768,5.727 0,0.314 -0.06,3.789 -0.185,10.436 -0.1,0.888 -0.364,1.486 -0.787,1.795 -0.42,0.313 -1.59,0.517 -3.502,0.616 L 18.076,0 l 0,1.707 c 4.403,0.32 7.841,0.761 10.316,1.327 L 29.19,2.446 c -0.182,-1.707 -0.323,-3.843 -0.418,-6.411 -0.089,-2.563 -0.137,-5.556 -0.137,-8.974 0,-4.304 0.111,-6.854 0.339,-7.662 0.224,-0.801 0.8,-1.206 1.73,-1.206 0.532,0 1.612,0.127 3.241,0.38 l 0,-1.703 c -2.114,-0.56 -3.9,-1.127 -5.349,-1.699 -1.442,-0.579 -2.98,-1.341 -4.601,-2.285 l -0.922,0.68 c 0.257,1.521 0.401,3.046 0.441,4.571 -2.427,-2.268 -4.244,-3.702 -5.458,-4.326 -1.215,-0.615 -2.574,-0.925 -4.077,-0.925 -2.833,0 -4.95,0.702 -6.354,2.106 C 6.209,-23.63 5.5,-21.52 5.5,-18.672 l 0,10.82 C 5.479,-4 5.258,-1.782 4.835,-1.206 4.419,-0.626 3.16,-0.266 1.074,-0.12 0.828,-0.098 0.471,-0.064 0,0"
             style="fill:#006db7;fill-opacity:1;fill-rule:nonzero;stroke:none"
             id="path104"
             inkscape:connector-curvature="0" /></g><g
           id="g106"
           transform="matrix(0.55839597,0,0,0.55839597,293.85075,550.3207)"><path
             d="m 0,0 0,1.704 c 3.836,0.953 7.112,2.26 9.818,3.922 L 10.617,5.038 C 10.301,3.03 10.111,0.837 10.052,-1.528 c 2.48,3.024 4.216,4.88 5.196,5.563 0.985,0.679 2.143,1.02 3.481,1.02 0.879,0 1.863,-0.211 2.953,-0.63 C 21.215,2.315 20.839,0.167 20.54,-2.02 l -1.575,0 c -0.185,0.978 -0.488,1.679 -0.917,2.121 -0.427,0.439 -0.911,0.655 -1.437,0.655 -0.809,0 -1.688,-0.377 -2.625,-1.139 -1.382,-1.126 -2.383,-2.427 -3.005,-3.895 -0.619,-1.474 -0.929,-3.553 -0.929,-6.244 0,-4.77 0.128,-7.973 0.379,-9.621 0.104,-0.612 0.387,-1.093 0.854,-1.444 0.466,-0.347 1.929,-0.802 4.392,-1.359 l 0,-1.706 c -2.573,0.214 -4.908,0.321 -7.007,0.321 -1.747,0 -4.64,-0.107 -8.67,-0.321 l 0,1.706 c 2.854,0.704 4.461,1.243 4.824,1.631 0.364,0.38 0.551,1.406 0.551,3.079 l 0.062,6.723 c 0,6.592 -0.085,10.133 -0.252,10.63 C 4.978,-0.028 4.402,0.403 3.455,0.403 2.922,0.403 2.037,0.295 0.802,0.095 0.616,0.07 0.349,0.039 0,0"
             style="fill:#006db7;fill-opacity:1;fill-rule:nonzero;stroke:none"
             id="path108"
             inkscape:connector-curvature="0" /></g><g
           id="g110"
           transform="matrix(0.55839597,0,0,0.55839597,317.87161,548.26625)"><path
             d="m 0,0 c -0.123,2.043 -0.578,3.59 -1.365,4.642 -1.163,1.55 -2.732,2.326 -4.699,2.326 -1.7,0 -3.215,-0.587 -4.541,-1.751 -1.329,-1.164 -2.314,-3.094 -2.955,-5.772 0.762,-0.02 1.343,-0.034 1.743,-0.034 3.397,0 7.338,0.192 11.817,0.589 m 4.453,-13.514 1.178,-1.823 -6.161,-4.539 c -0.849,-0.577 -1.725,-0.997 -2.628,-1.268 -1.321,-0.388 -2.672,-0.587 -4.057,-0.587 -3.361,0 -6.232,1.346 -8.611,4.048 -2.385,2.698 -3.576,6.343 -3.576,10.936 0,4.936 1.427,8.901 4.285,11.886 2.853,2.985 6.346,4.48 10.471,4.48 3.198,0 5.665,-0.878 7.409,-2.648 1.742,-1.766 2.633,-4.469 2.674,-8.102 -0.854,-0.494 -1.635,-1.105 -2.351,-1.83 -1.467,0.023 -2.39,0.035 -2.761,0.035 -5.472,0 -10.243,-0.074 -14.293,-0.22 -0.018,-4.607 0.765,-8.091 2.353,-10.452 1.592,-2.39 3.716,-3.584 6.375,-3.584 1.346,0 2.751,0.267 4.212,0.789 1.468,0.525 3.292,1.481 5.481,2.879"
             style="fill:#006db7;fill-opacity:1;fill-rule:evenodd;stroke:none"
             id="path112"
             inkscape:connector-curvature="0" /></g><g
           id="g114"
           transform="matrix(0.55839597,0,0,0.55839597,338.31521,554.45059)"><path
             d="m 0,0 -2.338,0 c -0.534,2.631 -1.14,4.561 -1.815,5.774 -0.68,1.221 -1.71,2.167 -3.091,2.861 -1.39,0.691 -2.941,1.033 -4.666,1.033 -2.442,0 -4.387,-0.679 -5.831,-2.04 -1.445,-1.364 -2.172,-3.015 -2.172,-4.954 0,-1.716 0.592,-3.213 1.778,-4.491 1.157,-1.279 4.022,-2.906 8.577,-4.878 4.558,-1.966 7.662,-3.99 9.32,-6.07 1.634,-2.094 2.451,-4.451 2.451,-7.062 0,-2.347 -0.61,-4.521 -1.838,-6.538 -1.226,-2.014 -3.065,-3.622 -5.525,-4.827 -2.458,-1.204 -5.111,-1.8 -7.951,-1.8 -1.936,0 -3.877,0.179 -5.821,0.55 -1.946,0.368 -4.276,1.01 -6.996,1.912 0.3,2.907 0.445,6.762 0.445,11.567 l 2.403,0 c 0.678,-3.1 1.38,-5.269 2.111,-6.503 0.728,-1.243 1.832,-2.258 3.308,-3.05 1.478,-0.794 3.101,-1.19 4.869,-1.19 2.421,0 4.549,0.679 6.374,2.041 1.83,1.361 2.744,3.267 2.744,5.722 0,1.995 -0.658,3.772 -1.978,5.321 -1.336,1.527 -4.236,3.249 -8.692,5.181 -4.46,1.929 -7.444,3.776 -8.943,5.549 -1.506,1.751 -2.257,3.841 -2.257,6.275 0,2.117 0.604,4.138 1.815,6.067 1.215,1.925 2.998,3.446 5.354,4.571 2.355,1.125 4.796,1.681 7.324,1.681 3.043,0 6.724,-0.733 11.041,-2.212 C -0.103,7.496 -0.152,5.691 -0.152,5.074 -0.152,3.827 -0.103,2.128 0,0"
             style="fill:#006db7;fill-opacity:1;fill-rule:nonzero;stroke:none"
             id="path116"
             inkscape:connector-curvature="0" /></g><g
           id="g118"
           transform="matrix(0.55839597,0,0,0.55839597,347.22174,539.67739)"><path
             d="m 0,0 c 1.13,-0.989 2.276,-1.734 3.454,-2.242 1.182,-0.507 2.396,-0.757 3.647,-0.757 2.271,0 4.274,1.006 6.004,3.016 1.734,2.008 2.599,4.869 2.599,8.58 0,3.815 -0.869,6.818 -2.612,8.999 -1.289,1.65 -2.974,2.477 -5.041,2.477 -1.351,0 -2.694,-0.411 -4.027,-1.24 C 2.691,18.008 1.706,16.944 1.072,15.634 0.44,14.323 0.1,12.677 0.06,10.7 L 0,0 Z m -10.084,18.996 0,1.708 c 4.272,1.248 7.515,2.551 9.722,3.921 l 1.024,-0.619 c -0.267,-1.785 -0.437,-3.75 -0.514,-5.888 2.604,2.983 4.571,4.873 5.883,5.674 0.991,0.594 2.264,0.895 3.826,0.895 3.263,0 5.944,-1.14 8.029,-3.414 2.086,-2.273 3.13,-5.51 3.13,-9.713 0,-3.393 -0.699,-6.378 -2.097,-8.964 -1.399,-2.585 -3.384,-4.687 -5.968,-6.312 -2.575,-1.627 -5.045,-2.443 -7.405,-2.443 -0.763,0 -1.596,0.106 -2.513,0.334 -0.911,0.232 -1.893,0.556 -2.943,0.984 0.056,-5.472 0.142,-8.696 0.258,-9.665 0.08,-0.531 0.275,-0.927 0.585,-1.184 0.307,-0.262 1.492,-0.634 3.549,-1.123 0.291,-0.068 0.722,-0.178 1.299,-0.344 l 0,-1.71 c -3.189,0.212 -5.691,0.322 -7.504,0.322 -1.46,0 -4.289,-0.11 -8.489,-0.322 l 0,1.71 1.474,0.369 c 1.759,0.392 2.825,0.792 3.193,1.204 0.364,0.41 0.581,1.23 0.642,2.467 0.045,0.823 0.061,5.575 0.061,14.248 l -0.089,12.802 0.028,1.02 c 0,2.076 -0.153,3.36 -0.461,3.86 -0.188,0.304 -0.564,0.461 -1.119,0.461 -0.6,0 -1.8,-0.093 -3.601,-0.278"
             style="fill:#006db7;fill-opacity:1;fill-rule:evenodd;stroke:none"
             id="path120"
             inkscape:connector-curvature="0" /></g><g
           id="g122"
           transform="matrix(0.55839597,0,0,0.55839597,370.90337,546.34977)"><path
             d="m 0,0 c -5.382,-2.404 -8.631,-4.165 -9.754,-5.258 -1.126,-1.102 -1.684,-2.424 -1.684,-3.971 0,-1.539 0.424,-2.773 1.267,-3.696 0.849,-0.931 1.833,-1.388 2.968,-1.388 1.177,0 2.448,0.391 3.819,1.178 1.372,0.785 2.28,1.658 2.722,2.623 C -0.22,-9.548 0,-7.797 0,-5.252 L 0,0 Z m -12.96,3.447 -2.019,0.185 c 0.423,2.14 0.714,4.269 0.887,6.392 3.999,1.804 7.615,2.713 10.834,2.713 1.399,0 2.66,-0.203 3.786,-0.596 C 1.659,11.735 2.553,11.18 3.21,10.475 3.863,9.766 4.363,8.919 4.698,7.933 5.037,6.949 5.206,5.378 5.206,3.221 L 4.932,-9.495 c 0,-1.729 0.197,-2.855 0.589,-3.391 0.393,-0.531 0.902,-0.797 1.521,-0.797 0.745,0 1.915,0.528 3.508,1.579 l 0.956,-1.271 c -2.905,-2.577 -4.494,-3.952 -4.765,-4.115 -0.576,-0.326 -1.297,-0.492 -2.164,-0.492 -1.338,0 -2.372,0.338 -3.11,1.016 -0.731,0.685 -1.216,1.826 -1.467,3.435 -2.468,-1.943 -4.298,-3.168 -5.493,-3.68 -1.193,-0.513 -2.488,-0.771 -3.885,-0.771 -2.285,0 -4.128,0.694 -5.523,2.084 -1.401,1.389 -2.102,3.167 -2.102,5.33 0,1.318 0.249,2.503 0.739,3.57 0.496,1.059 1.207,1.993 2.132,2.794 0.72,0.6 1.934,1.318 3.646,2.162 4.009,1.959 7.507,3.534 10.486,4.729 -0.101,2.907 -0.583,4.83 -1.444,5.781 -0.862,0.949 -2.19,1.421 -3.969,1.421 -1.684,0 -3.127,-0.515 -4.329,-1.555 -1.197,-1.04 -2.268,-2.667 -3.218,-4.887"
             style="fill:#006db7;fill-opacity:1;fill-rule:evenodd;stroke:none"
             id="path124"
             inkscape:connector-curvature="0" /></g><g
           id="g126"
           transform="matrix(0.55839597,0,0,0.55839597,391.5782,547.67295)"><path
             d="m 0,0 -2.071,0.19 c -0.082,2.598 -0.734,4.527 -1.955,5.775 -1.22,1.248 -2.891,1.875 -5.007,1.875 -1.522,0 -2.976,-0.419 -4.369,-1.259 -1.4,-0.829 -2.493,-2.2 -3.284,-4.09 -0.792,-1.89 -1.184,-4.031 -1.184,-6.43 0,-3.844 0.929,-6.84 2.783,-9.005 1.861,-2.156 4.017,-3.234 6.459,-3.234 2.566,0 5.657,1.031 9.277,3.094 l 1.136,-1.85 c -3.228,-2.397 -5.916,-4.079 -8.055,-5.051 -1.028,-0.453 -2.283,-0.684 -3.765,-0.684 -3.6,0 -6.514,1.051 -8.736,3.152 -2.941,2.779 -4.412,6.547 -4.412,11.306 0,4.921 1.541,8.966 4.629,12.134 3.086,3.174 6.897,4.759 11.419,4.759 3.087,0 6.061,-0.793 8.92,-2.375 C 1.644,7.607 1.434,6.696 1.169,5.587 0.82,4.125 0.429,2.268 0,0"
             style="fill:#006db7;fill-opacity:1;fill-rule:nonzero;stroke:none"
             id="path128"
             inkscape:connector-curvature="0" /></g><g
           id="g130"
           transform="matrix(0.55839597,0,0,0.55839597,405.39359,548.26625)"><path
             d="m 0,0 c -0.124,2.043 -0.583,3.59 -1.367,4.642 -1.165,1.55 -2.729,2.326 -4.697,2.326 -1.704,0 -3.215,-0.587 -4.542,-1.751 -1.328,-1.164 -2.316,-3.094 -2.958,-5.772 0.77,-0.02 1.349,-0.034 1.745,-0.034 3.4,0 7.34,0.192 11.819,0.589 m 4.451,-13.514 1.174,-1.823 -6.155,-4.539 c -0.847,-0.577 -1.724,-0.997 -2.632,-1.268 -1.319,-0.388 -2.672,-0.587 -4.056,-0.587 -3.355,0 -6.226,1.346 -8.611,4.048 -2.384,2.698 -3.576,6.343 -3.576,10.936 0,4.936 1.428,8.901 4.286,11.886 2.853,2.985 6.346,4.48 10.473,4.48 3.198,0 5.665,-0.878 7.408,-2.648 1.74,-1.766 2.634,-4.469 2.674,-8.102 -0.856,-0.494 -1.639,-1.105 -2.352,-1.83 -1.468,0.023 -2.383,0.035 -2.761,0.035 -5.474,0 -10.239,-0.074 -14.291,-0.22 -0.023,-4.607 0.764,-8.091 2.354,-10.452 1.588,-2.39 3.713,-3.584 6.376,-3.584 1.345,0 2.745,0.267 4.214,0.789 1.461,0.525 3.288,1.481 5.475,2.879"
             style="fill:#006db7;fill-opacity:1;fill-rule:evenodd;stroke:none"
             id="path132"
             inkscape:connector-curvature="0" /></g></g></g></g></svg>