<svg xmlns="http://www.w3.org/2000/svg" width="299.999" height="86.983" viewBox="0 0 299.99896 86.983"><defs><clipPath id="a"><path d="M0 841.89h595.28V0H0v841.89z"/></clipPath></defs><g clip-path="url(#a)" transform="matrix(1.25 0 0 -1.25 -210.67 733.498)"><path d="M199.418 582.777c-1.334-.473-5.609-1.788-7.81-2.999-4.732-2.608-14.378-9.041-20.658-26.623-3.899-10.91-3.686-26.972 5.204-31.846 1.967-1.073 5.182-2.266 6.262-2.716-4.59 4.496-9.206 6.884-8.238 24.247.236 4.187 4.095 21.938 17.228 34.086 1.537 1.422 7.475 5.331 8.012 5.85" fill="#006db7"/><path d="M193.997 579.532c5.569 4.159 13.625 7.165 20.528 1.542 3.351-2.726 11.822-15.35.489-40.623-.86-1.912-10.492-22.283-26.517-23.22-8.79-.513-17.705 9.546-13.929 29.057.304 1.58 3.124 21.08 19.429 33.244m-.004-1.71c5.251 3.855 12.386 5.61 19.012.38 3.185-2.514 11.991-13.73 1.276-37.724-.814-1.815-10.13-21.027-25.578-21.624-8.448-.325-16.964 9.497-13.355 27.86.29 1.481 3.304 19.848 18.645 31.107" fill="#006db7" fill-rule="evenodd"/><path d="M206.586 581.585c0-1.456.29-12.783.29-14.023-4.431 2.042-9.241 3.777-14.51-.424-1.635-1.303-4.307-5.216-7.955-12.981-1.016.722-4.127 2.634-4.127 2.634l-3.468-6.102s1.755-1.197 3.52-2.505c.209-.153.25-.298.11-.58-.142-.286-6.92-13.124-6.92-13.124l4.784-12.804s9.99 19.623 10.767 21.056c4.645-5.488 14.019-8.778 19.44-4.287 1.867 1.544 7.537 4.935 7.537 21.258 0 3.785-.54 17.85-.54 17.85l-8.613 4.934s-.315.555-.315-.902m.496-21.254c.191-7.405-.467-14.491-6.1-15.07-4.274-.435-7.44 3.712-7.964 4.943 4.29 8.317 5.179 9.462 7.573 10.93 2.082 1.276 5.206.218 6.491-.803" fill="#006db7" fill-rule="evenodd"/><path d="M222.328 559.992v1.024c2.675-.121 5.62-.178 8.834-.178 3.378 0 7.083.057 11.115.178l.38-6.459h-1.2c-.482 1.826-.842 2.992-1.085 3.5a1.489 1.489 0 0 1-.763.75c-.348.155-1.131.231-2.342.231h-7.494c-.07-1.51-.125-4.427-.171-8.753h4.716c.907 0 1.495.052 1.765.157.27.103.495.304.672.604.178.302.376.982.594 2.042.034.2.098.487.19.869h1.13c-.095-2.417-.144-3.99-.144-4.718 0-.232.049-1.706.143-4.424h-1.129c-.059.321-.097.564-.122.723-.239 1.486-.509 2.364-.808 2.639-.297.276-1.063.414-2.301.414h-4.691a294.322 294.322 0 0 1-.017-2.31c0-4.583.034-7.048.102-7.393a.737.737 0 0 1 .38-.516c.268-.161 1.574-.425 3.924-.79v-1.027c-2.599.12-4.466.18-5.605.18l-6.039-.18v1.026c.457.09.801.152 1.03.186 1.388.207 2.207.44 2.464.69.258.255.387.78.387 1.588l.087 4.907c.014.757.019 2.206.019 4.34 0 5.203-.025 8.145-.07 8.823-.036.447-.149.75-.346.912-.254.218-1.144.476-2.676.775-.204.035-.517.097-.93.19M243.825 551.45v.952c2.083.113 4.003.36 5.755.741l.43-.328c-.24-1.987-.361-4.4-.361-7.243 0-2.474.078-4.05.233-4.734.155-.686.491-1.221 1.007-1.613.518-.394 1.135-.586 1.861-.586.826 0 1.605.224 2.333.672.73.452 1.24 1.021 1.526 1.714.286.69.432 1.757.432 3.197 0 .176-.037 2.116-.105 5.828-.057.496-.203.83-.44 1.002-.235.175-.886.289-1.955.344l-.624.053v.953c2.46.18 4.38.425 5.759.741l.449-.328c-.105-.953-.181-2.146-.236-3.58-.05-1.431-.076-3.102-.076-5.01 0-2.404.064-3.828.19-4.28.125-.447.449-.673.965-.673.298 0 .903.071 1.81.212v-.95c-1.182-.313-2.175-.63-2.982-.95a19.488 19.488 0 0 1-2.572-1.275l-.516.38c.143.849.225 1.7.247 2.552-1.357-1.266-2.371-2.067-3.049-2.416-.678-.343-1.435-.516-2.275-.516-1.584 0-2.764.392-3.546 1.176-.794.77-1.19 1.948-1.19 3.538v6.042c-.013 2.15-.134 3.39-.368 3.71-.234.325-.935.526-2.102.607-.138.012-.338.031-.6.067M268.251 557.273h1.001l-.4-4.41 4.793.035.137-.267a12.387 12.387 0 0 1-.792-1.464c-1.36.056-2.74.09-4.137.105l-.153-8.875v-.102c0-1.371.153-2.358.458-2.96.307-.605.826-.907 1.564-.907.611 0 1.416.255 2.42.776l.5-.983c-1.257-.781-2.215-1.293-2.87-1.543-.657-.247-1.228-.369-1.714-.369-.76 0-1.406.198-1.936.595-.529.399-.881.945-1.055 1.647-.103.392-.156 1.59-.156 3.594 0 2.138.063 5.18.19 9.127-.798-.015-1.625-.05-2.484-.105v.954a7.778 7.778 0 0 1 2.507 1.776c.708.75 1.417 1.876 2.127 3.376M273.952 551.45v.952c2.084.113 4.003.36 5.756.741l.429-.328c-.241-1.987-.321-4.4-.36-7.243-.045-3.135.055-4.364.23-4.734.3-.636.492-1.221 1.009-1.613.518-.394 1.138-.586 1.86-.586a4.38 4.38 0 0 1 2.335.672c.73.452 1.238 1.021 1.526 1.714.287.69.43 1.757.43 3.197 0 .176-.034 2.116-.104 5.828-.056.496-.203.83-.44 1.002-.234.175-.888.289-1.955.344l-.623.053v.953c2.459.18 4.379.425 5.76.741l.446-.328a53.269 53.269 0 0 1-.233-3.58c-.05-1.431-.077-3.102-.077-5.01 0-2.404.062-3.828.19-4.28.125-.447.446-.673.966-.673.297 0 .9.071 1.81.212v-.95c-1.181-.313-2.178-.63-2.987-.95a19.846 19.846 0 0 1-2.57-1.275l-.514.38c.143.849.223 1.7.246 2.552-1.355-1.266-2.37-2.067-3.048-2.416-.678-.343-1.437-.516-2.277-.516-1.581 0-2.764.392-3.548 1.176-.79.77-1.186 1.948-1.186 3.538v6.042c-.012 2.15-.135 3.39-.372 3.71-.232.325-.935.526-2.1.607a12.65 12.65 0 0 0-.6.067M293.85 550.32v.952c2.143.532 3.972 1.262 5.483 2.19l.446-.328a28.19 28.19 0 0 1-.315-3.667c1.385 1.69 2.354 2.725 2.901 3.107.55.379 1.197.57 1.944.57.49 0 1.04-.118 1.649-.352a44.602 44.602 0 0 1-.638-3.6h-.88c-.103.547-.272.938-.511 1.185-.239.245-.509.366-.803.366-.451 0-.942-.21-1.466-.636-.771-.629-1.33-1.355-1.678-2.175-.345-.823-.518-1.984-.518-3.487 0-2.663.071-4.452.211-5.372.058-.342.216-.61.477-.806.26-.194 1.077-.448 2.453-.76v-.952c-1.437.12-2.74.18-3.913.18-.975 0-2.59-.06-4.841-.18v.953c1.593.393 2.49.694 2.693.91.204.213.308.786.308 1.72l.035 3.754c0 3.68-.048 5.658-.141 5.936-.116.477-.437.718-.966.718-.298 0-.792-.06-1.481-.172a22.5 22.5 0 0 0-.448-.053" fill="#006db7"/><path d="M317.872 548.266c-.07 1.141-.323 2.005-.763 2.592-.649.866-1.525 1.3-2.624 1.3-.949 0-1.795-.329-2.535-.979-.742-.65-1.292-1.727-1.65-3.223.425-.01.75-.019.973-.019 1.897 0 4.098.108 6.599.33m2.486-7.547l.658-1.018-3.44-2.534a5.328 5.328 0 0 0-1.468-.708 7.996 7.996 0 0 0-2.265-.328c-1.877 0-3.48.751-4.809 2.26-1.331 1.507-1.996 3.542-1.996 6.107 0 2.756.796 4.97 2.392 6.637 1.593 1.667 3.544 2.501 5.847 2.501 1.786 0 3.164-.49 4.137-1.478.973-.986 1.47-2.496 1.494-4.524a6.214 6.214 0 0 1-1.313-1.022c-.82.013-1.335.02-1.542.02-3.055 0-5.72-.042-7.981-.123-.01-2.573.427-4.518 1.314-5.837.889-1.334 2.075-2.001 3.56-2.001.751 0 1.536.149 2.352.44.82.294 1.838.827 3.06 1.608" fill="#006db7" fill-rule="evenodd"/><path d="M338.315 554.45h-1.305c-.299 1.47-.637 2.547-1.014 3.225-.38.682-.955 1.21-1.726 1.597-.776.386-1.642.577-2.605.577-1.364 0-2.45-.379-3.256-1.139-.807-.762-1.213-1.684-1.213-2.766 0-.958.33-1.794.993-2.508.646-.714 2.246-1.623 4.79-2.724 2.544-1.098 4.277-2.228 5.203-3.39.913-1.169 1.369-2.485 1.369-3.943 0-1.31-.34-2.524-1.026-3.65-.685-1.125-1.712-2.023-3.086-2.696-1.372-.672-2.853-1.005-4.44-1.005-1.08 0-2.164.1-3.25.307-1.086.206-2.387.564-3.906 1.068.167 1.623.248 3.776.248 6.459h1.342c.379-1.731.77-2.942 1.179-3.632.406-.694 1.023-1.26 1.847-1.703a5.653 5.653 0 0 1 2.719-.664c1.352 0 2.54.379 3.559 1.14 1.022.76 1.532 1.824 1.532 3.195 0 1.114-.367 2.106-1.104 2.97-.746.854-2.366 1.815-4.854 2.894-2.49 1.077-4.157 2.108-4.994 3.099-.84.977-1.26 2.144-1.26 3.503 0 1.183.337 2.311 1.014 3.388.678 1.075 1.674 1.924 2.99 2.553a9.377 9.377 0 0 0 4.089.938c1.7 0 3.755-.409 6.165-1.235a134.3 134.3 0 0 1-.085-3.024c0-.696.028-1.645.085-2.833" fill="#006db7"/><path d="M347.222 539.677c.63-.552 1.27-.968 1.928-1.252a5.112 5.112 0 0 1 2.037-.422c1.268 0 2.386.562 3.353 1.684.968 1.121 1.45 2.719 1.45 4.79 0 2.131-.484 3.808-1.458 5.026-.72.921-1.66 1.383-2.815 1.383-.754 0-1.504-.23-2.248-.692-.745-.461-1.295-1.055-1.649-1.787-.353-.732-.542-1.65-.565-2.755l-.033-5.975zm-5.631 10.608v.953c2.385.697 4.196 1.425 5.429 2.19l.571-.346a29.527 29.527 0 0 1-.287-3.288c1.454 1.666 2.553 2.721 3.285 3.169.554.331 1.265.5 2.137.5 1.822 0 3.319-.637 4.483-1.907 1.165-1.27 1.748-3.077 1.748-5.424 0-1.894-.39-3.561-1.171-5.005-.781-1.443-1.89-2.617-3.332-3.525-1.438-.908-2.818-1.364-4.135-1.364-.426 0-.892.06-1.404.187-.508.13-1.057.31-1.643.55.031-3.056.08-4.857.144-5.398.045-.296.154-.517.327-.66.171-.147.833-.355 1.981-.628.163-.038.404-.1.726-.192v-.955c-1.78.119-3.178.18-4.19.18-.816 0-2.395-.061-4.74-.18v.955l.822.206c.983.219 1.578.442 1.783.672.204.23.325.687.359 1.378.025.46.034 3.113.034 7.956l-.05 7.149.016.57c0 1.158-.086 1.875-.257 2.154-.105.17-.315.258-.625.258-.335 0-1.005-.052-2.011-.155M370.903 546.35c-3.005-1.343-4.82-2.326-5.446-2.936-.629-.616-.94-1.354-.94-2.218 0-.859.236-1.548.707-2.063.474-.52 1.023-.776 1.657-.776.657 0 1.367.219 2.133.658.766.439 1.273.926 1.52 1.465.247.538.37 1.516.37 2.937v2.933zm-7.236 1.925l-1.128.103c.236 1.195.399 2.384.495 3.57 2.233 1.006 4.253 1.514 6.05 1.514.781 0 1.485-.113 2.114-.333.632-.226 1.131-.536 1.498-.93.364-.396.644-.869.83-1.42.19-.549.284-1.426.284-2.63l-.153-7.101c0-.966.11-1.594.33-1.894.219-.296.503-.445.849-.445.416 0 1.069.295 1.958.882l.534-.71c-1.622-1.439-2.51-2.207-2.66-2.298-.322-.182-.725-.274-1.209-.274-.747 0-1.324.188-1.736.567-.409.383-.68 1.02-.82 1.918-1.378-1.085-2.4-1.769-3.067-2.055a5.433 5.433 0 0 0-2.17-.43c-1.275 0-2.304.387-3.083 1.163-.783.776-1.174 1.769-1.174 2.977 0 .736.139 1.397.413 1.993a4.672 4.672 0 0 0 1.19 1.56c.402.335 1.08.736 2.036 1.208 2.239 1.093 4.192 1.973 5.855 2.64-.056 1.623-.325 2.697-.806 3.228-.481.53-1.223.794-2.216.794-.94 0-1.746-.288-2.418-.869-.668-.58-1.266-1.489-1.796-2.728" fill="#006db7" fill-rule="evenodd"/><path d="M391.578 547.673l-1.156.106c-.046 1.45-.41 2.528-1.092 3.225-.681.697-1.614 1.047-2.796 1.047-.85 0-1.662-.234-2.44-.703-.781-.463-1.392-1.229-1.833-2.284-.442-1.055-.661-2.251-.661-3.59 0-2.147.518-3.82 1.554-5.029 1.039-1.204 2.243-1.806 3.606-1.806 1.433 0 3.16.576 5.18 1.728l.635-1.033c-1.803-1.339-3.304-2.278-4.498-2.82-.574-.254-1.275-.383-2.102-.383-2.01 0-3.638.587-4.878 1.76-1.643 1.552-2.464 3.656-2.464 6.314 0 2.748.86 5.006 2.585 6.775 1.723 1.773 3.851 2.658 6.376 2.658 1.724 0 3.384-.443 4.98-1.326-.078-.391-.195-.9-.343-1.52a69.121 69.121 0 0 1-.653-3.119" fill="#006db7"/><path d="M405.394 548.266c-.07 1.141-.326 2.005-.764 2.592-.65.866-1.524 1.3-2.623 1.3-.951 0-1.795-.329-2.536-.979-.741-.65-1.293-1.727-1.651-3.223.43-.01.753-.019.974-.019 1.898 0 4.099.108 6.6.33m2.485-7.547l.656-1.018-3.437-2.534a5.287 5.287 0 0 0-1.47-.708 7.99 7.99 0 0 0-2.265-.328c-1.873 0-3.476.751-4.808 2.26-1.331 1.507-1.997 3.542-1.997 6.107 0 2.756.797 4.97 2.393 6.637 1.593 1.667 3.544 2.501 5.848 2.501 1.786 0 3.164-.49 4.137-1.478.971-.986 1.47-2.496 1.493-4.524a6.147 6.147 0 0 1-1.313-1.022c-.82.013-1.331.02-1.542.02-3.057 0-5.717-.042-7.98-.123-.013-2.573.427-4.518 1.314-5.837.887-1.334 2.074-2.001 3.56-2.001.752 0 1.534.149 2.354.44.816.294 1.836.827 3.057 1.608" fill="#006db7" fill-rule="evenodd"/></g></svg>