<?xml version="1.0" encoding="UTF-8" standalone="no"?>
<svg
   xmlns:dc="http://purl.org/dc/elements/1.1/"
   xmlns:cc="http://creativecommons.org/ns#"
   xmlns:rdf="http://www.w3.org/1999/02/22-rdf-syntax-ns#"
   xmlns:svg="http://www.w3.org/2000/svg"
   xmlns="http://www.w3.org/2000/svg"
   viewBox="0 0 584.10675 165.7625"
   height="165.7625"
   width="584.10675"
   xml:space="preserve"
   version="1.1"
   id="svg2"><metadata
     id="metadata8"><rdf:RDF><cc:Work
         rdf:about=""><dc:format>image/svg+xml</dc:format><dc:type
           rdf:resource="http://purl.org/dc/dcmitype/StillImage" /><dc:title></dc:title></cc:Work></rdf:RDF></metadata><defs
     id="defs6"><clipPath
       id="clipPath16"
       clipPathUnits="userSpaceOnUse"><path
         id="path18"
         d="m 90.837,167.759 c 0,0 0.602,-10.725 4.822,-22.737 l 0,0 c 0,0 5.86,4.313 13.501,9.279 l 0,0 c -3.478,7.653 -6.195,14.726 -8.038,20.849 l 0,0 c -3.173,-2.133 -7.584,-5.176 -10.285,-7.391 m -11.44,-9.974 c 0,0 -1.064,-12.294 2.324,-23.661 l 0,0 c 0,0 3.493,3.389 9.371,7.514 l 0,0 c 0,0 -3.815,10.863 -3.86,23.201 l 0,0 c 0,0 -4.993,-4.218 -7.835,-7.054 m -6.786,-7.092 c 0,0 -1.102,-12.727 1.641,-23.247 l 0,0 c 0,0 2.199,2.112 4.487,4.106 l 0,0 c 0,0 -3.187,10.431 -1.951,23.634 l 0,0 c 0,0 -2.821,-2.934 -4.177,-4.493 m -3.795,-4.5 c 0,0 -0.4,-2.833 -0.41,-7.175 l 0,0 0,-0.35 c 0.01,-4.15 0.379,-9.595 1.76,-15.248 l 0,0 c 0,0 1.567,1.586 1.939,1.947 l 0,0 c 0,0 -3.247,13.202 -1.48,23.03 l 0,0 c 0,0 -1.087,-1.296 -1.809,-2.204 m 29.567,-8.394 c 0,0 6.419,-16.568 18.19,-31.083 l 0,0 c 0,0 6.909,3.204 14.98,7.534 l 0,0 c -3.37,5.031 -6.742,10.445 -10.049,16.171 l 0,0 c -3.29,5.694 -6.281,11.302 -8.944,16.711 l 0,0 c -3.94,-2.451 -9.437,-5.954 -14.177,-9.333 M 83.861,127.211 c 0,0 4.713,-14.634 16.366,-27.768 l 0,0 c 0,0 4.239,1.6 11.089,4.815 l 0,0 c 0,0 -10.642,11.931 -17.709,30.203 l 0,0 c 0,0 -4.019,-2.661 -9.746,-7.25 m -7.703,-6.247 c 0,0 2.868,-11.214 14.842,-25.089 l 0,0 c 0,0 2.953,1.057 5.592,2.106 l 0,0 c 0,0 -10.25,11.151 -15.814,26.794 l 0,0 c 0,0 -2.486,-1.965 -4.62,-3.811 m -4.209,-3.689 c 0,0 2.662,-10.634 13.77,-23.211 l 0,0 c 0,0 -0.027,-0.053 2.626,0.883 l 0,0 c 0,0 -9.231,9.439 -14.321,24.178 l 0,0 c 0,0 -0.921,-0.791 -2.075,-1.85 m 48.82,-15.681 c 8.305,-9.646 17.295,-15.523 17.295,-15.523 l 0,0 c 3.183,1.207 7.86,3.417 11.266,5.09 l 0,0 c -4.358,4.726 -9.074,10.636 -13.894,17.444 l 0,0 c -8.068,-4.114 -14.667,-7.011 -14.667,-7.011 m -16.4,-6.647 c 8.161,-8.607 19.35,-13.81 19.35,-13.81 l 0,0 c 3.873,1.047 10.023,3.262 10.023,3.262 l 0,0 c -10.67,6.2 -18.191,14.929 -18.191,14.929 l 0,0 c -6.505,-3.034 -11.182,-4.381 -11.182,-4.381 m -9.514,-3.136 c 7.753,-7.622 19.331,-13.023 19.331,-13.023 l 0,0 c 2.027,0.399 5.979,1.381 5.979,1.381 l 0,0 c -12.061,5.515 -19.517,13.486 -19.517,13.486 l 0,0 c -2.864,-0.988 -5.793,-1.844 -5.793,-1.844 m -5.527,-1.533 c 8.813,-8.415 19.066,-12.525 19.066,-12.525 l 0,0 c 1.143,0.167 2.816,0.464 2.816,0.464 l 0,0 C 101.811,81.583 91.983,90.98 91.983,90.98 l 0,0 c -0.505,-0.138 -2.655,-0.702 -2.655,-0.702" /></clipPath><linearGradient
       id="linearGradient24"
       spreadMethod="pad"
       gradientTransform="matrix(62.405621,-108.08972,108.08972,62.405621,77.665337,180.49666)"
       gradientUnits="userSpaceOnUse"
       y2="0"
       x2="1"
       y1="0"
       x1="0"><stop
         id="stop26"
         offset="0"
         style="stop-opacity:1;stop-color:#d21d63" /><stop
         id="stop28"
         offset="0.25"
         style="stop-opacity:1;stop-color:#d21d63" /><stop
         id="stop30"
         offset="0.25248921"
         style="stop-opacity:1;stop-color:#d21d63" /><stop
         id="stop32"
         offset="1"
         style="stop-opacity:1;stop-color:#eea4c0" /></linearGradient><clipPath
       id="clipPath40"
       clipPathUnits="userSpaceOnUse"><path
         id="path42"
         d="m 130.102,204.749 c 0,0 11.579,0.05 19.79,-2.739 l 0,0 c 0,0 2.135,0.441 2.453,0.476 l 0,0 c 0,0 -8.188,2.423 -17.985,2.423 l 0,0 c -1.395,0 -2.818,-0.051 -4.258,-0.16 m -16.1,-3.162 c 0,0 12.433,3.225 27.435,-1.569 l 0,0 c 0,0 4.39,1.126 5.625,1.395 l 0,0 c 0,0 -8.289,2.634 -18.217,2.634 l 0,0 c -4.816,0 -10.015,-0.617 -14.843,-2.46 m -7.258,-2.884 c 0,0 9.282,3.087 22.51,-2.654 l 0,0 c 0,0 7.418,2.585 8.946,3.036 l 0,0 c 0,0 -7.839,2.735 -16.928,2.735 l 0,0 c -4.821,0 -9.99,-0.762 -14.528,-3.117 m 51.385,0.286 c 9.395,-3.366 19.225,-12.77 19.225,-12.77 l 0,0 c 0.496,0.141 2.652,0.708 2.652,0.708 l 0,0 c -8.821,8.411 -19.064,12.528 -19.064,12.528 l 0,0 c -1.144,-0.171 -2.813,-0.466 -2.813,-0.466 m -55.676,-2.474 c 4.145,-1.203 9.535,-8.227 9.535,-8.227 l 0,0 c 10.564,5.495 13.505,6.272 13.505,6.272 l 0,0 c -6.58,3.221 -11.575,4.189 -15.194,4.189 l 0,0 c -5.501,0.002 -7.846,-2.234 -7.846,-2.234 m 46.721,0.521 c 12.054,-5.512 19.509,-13.481 19.509,-13.481 l 0,0 c 2.865,0.992 5.796,1.839 5.796,1.839 l 0,0 c -7.753,7.619 -19.328,13.024 -19.328,13.024 l 0,0 c -2.032,-0.398 -5.977,-1.382 -5.977,-1.382 m -13.581,-4.232 c 10.673,-6.196 18.191,-14.923 18.191,-14.923 l 0,0 c 6.501,3.035 11.179,4.375 11.179,4.375 l 0,0 c -8.161,8.609 -19.347,13.818 -19.347,13.818 l 0,0 c -3.88,-1.049 -10.023,-3.27 -10.023,-3.27 m -44.85,-18.331 c 0,0 1.653,1.661 8.838,6.404 l 0,0 c -1.428,6.158 -1.668,10.911 -0.578,13.727 l 0,0 c -2.524,-1.699 -7.34,-6.663 -8.26,-20.131 m -10.26,-8.757 c 1.156,1.097 7.104,6.234 7.104,6.234 l 0,0 c 1.618,14.328 8.925,20.847 8.925,20.847 l 0,0 C 84.095,184.819 80.483,165.716 80.483,165.716 m 35.141,18.14 c 6.029,-7.401 12.888,-18.077 12.888,-18.077 l 0,0 c 10.286,5.549 20.056,9.834 20.056,9.834 l 0,0 c -8.312,9.649 -17.298,15.527 -17.298,15.527 l 0,0 c -5.555,-2.109 -15.646,-7.284 -15.646,-7.284 M 74.048,159.197 c 0.846,0.936 4.017,4.176 4.017,4.176 l 0,0 c 3.325,15.398 12.323,24.568 12.323,24.568 l 0,0 C 78.129,177.935 74.048,159.197 74.048,159.197 m 107.749,22.243 c 10.239,-11.759 13.822,-24.473 13.822,-24.473 l 0,0 c 2.133,1.839 2.071,1.839 2.071,1.839 l 0,0 c -5.365,15.898 -13.248,23.519 -13.248,23.519 l 0,0 c -1.494,-0.478 -2.645,-0.885 -2.645,-0.885 m -8.263,-3.031 c 10.784,-12.62 15.333,-27.072 15.333,-27.072 l 0,0 c 2.226,1.759 4.617,3.796 4.617,3.796 l 0,0 c -6.048,17.298 -14.347,25.378 -14.347,25.378 l 0,0 c -2.657,-0.935 -5.603,-2.102 -5.603,-2.102 m -14.784,-6.287 c 12.298,-15.241 17.328,-30.42 17.328,-30.42 l 0,0 c 6.212,4.345 9.713,7.213 9.713,7.213 l 0,0 c -5.568,16.654 -15.902,28.037 -15.902,28.037 l 0,0 c -6.841,-2.673 -11.139,-4.83 -11.139,-4.83 M 70.48,155.153 c 0.191,0.25 1.637,1.887 1.637,1.887 l 0,0 c 1.684,8.509 7.498,18.519 7.498,18.519 l 0,0 C 73.072,165.983 70.48,155.153 70.48,155.153 m 62.383,3.879 C 143.339,142.31 151.954,125.9 151.954,125.9 l 0,0 c 10.071,5.913 19.374,12.48 19.374,12.48 l 0,0 c -6.699,17.442 -17.866,31.268 -17.866,31.268 l 0,0 c -9.511,-4.362 -20.599,-10.616 -20.599,-10.616 m 64.366,-7.193 c 0,0 3.252,-13.206 1.477,-23.03 l 0,0 c 0,0 1.09,1.298 1.806,2.21 l 0,0 c 0,0 1.545,10.935 -1.344,22.771 l 0,0 c 0,0 -1.566,-1.586 -1.939,-1.951 m -6.64,-6.181 c 0,0 3.194,-10.437 1.96,-23.633 l 0,0 c 0,0 2.82,2.935 4.175,4.492 l 0,0 c 0,0 1.099,12.723 -1.645,23.249 l 0,0 c 0,0 -2.2,-2.119 -4.49,-4.108 m -12.346,-10.085 c 0,0 3.81,-10.87 3.855,-23.209 l 0,0 c 0,0 4.998,4.22 7.836,7.056 l 0,0 c 0,0 1.069,12.295 -2.318,23.659 l 0,0 c 0,0 -3.497,-3.385 -9.373,-7.506 M 155.149,119.71 c 0,0 5.83,-11.271 9.238,-20.187 l 0,0 c 0,0 9.518,6.168 14.114,9.924 l 0,0 c 0,0 -0.613,10.721 -4.824,22.739 l 0,0 c 0,0 -8.586,-6.325 -18.528,-12.476 m 42.068,0.455 c -1.681,-8.511 -7.504,-18.521 -7.504,-18.521 l 0,0 c 6.548,9.583 9.134,20.408 9.134,20.408 l 0,0 c -0.191,-0.252 -1.63,-1.887 -1.63,-1.887 m -5.947,-6.334 C 187.937,98.438 178.947,89.266 178.947,89.266 l 0,0 c 12.249,10 16.339,28.745 16.339,28.745 l 0,0 c -0.849,-0.934 -4.016,-4.18 -4.016,-4.18 m -9.523,-8.58 c -1.622,-14.326 -8.925,-20.836 -8.925,-20.836 l 0,0 c 12.414,7.976 16.03,27.077 16.03,27.077 l 0,0 c -1.163,-1.1 -7.105,-6.241 -7.105,-6.241 M 166.415,94.158 c 0,0 3.389,-8.178 2.374,-12.369 l 0,0 c 0,0 8.54,2.539 9.801,20.944 l 0,0 c 0,0 -2.141,-2.153 -12.175,-8.575 M 143.837,82.645 c 10.624,-5.192 17.088,-4.536 20.366,-3.39 l 0,0 c -2.931,1.054 -6.605,3.712 -10.741,7.68 l 0,0 c -7.418,-3.704 -9.625,-4.29 -9.625,-4.29 m -12.708,-4.524 c 0,0 18.355,-6.398 31.465,0.381 l 0,0 c 0,0 -9.293,-3.084 -22.515,2.656 l 0,0 c 0,0 -7.416,-2.588 -8.95,-3.037 m -8.86,-2.328 c 0,0 18.28,-5.809 33.066,-0.179 l 0,0 c 0,0 -12.435,-3.223 -27.439,1.578 l 0,0 c 0,0 -4.393,-1.133 -5.627,-1.399 m -5.28,-1.073 c 0,0 8.103,-2.396 17.834,-2.421 l 0,0 0.291,0 c 1.349,0.002 2.726,0.05 4.118,0.158 l 0,0 c 0,0 -11.579,-0.044 -19.789,2.746 l 0,0 c 0,0 -2.138,-0.444 -2.454,-0.483" /></clipPath><linearGradient
       id="linearGradient48"
       spreadMethod="pad"
       gradientTransform="matrix(90.045303,-155.96291,155.96291,90.045303,90.608025,216.53227)"
       gradientUnits="userSpaceOnUse"
       y2="0"
       x2="1"
       y1="0"
       x1="0"><stop
         id="stop50"
         offset="0"
         style="stop-opacity:1;stop-color:#79787a" /><stop
         id="stop52"
         offset="0.25"
         style="stop-opacity:1;stop-color:#79787a" /><stop
         id="stop54"
         offset="0.25355309"
         style="stop-opacity:1;stop-color:#79787a" /><stop
         id="stop56"
         offset="1"
         style="stop-opacity:1;stop-color:#cac9ca" /></linearGradient><clipPath
       id="clipPath64"
       clipPathUnits="userSpaceOnUse"><path
         id="path66"
         d="m 0,261.233 595.28,0 L 595.28,0 0,0 0,261.233 Z" /></clipPath></defs><g
     transform="matrix(1.25,0,0,-1.25,-85.5075,256.13625)"
     id="g10"><g
       id="g12"><g
         clip-path="url(#clipPath16)"
         id="g14"><g
           id="g20"><g
             id="g22"><path
               id="path34"
               style="fill:url(#linearGradient24);stroke:none"
               d="m 90.837,167.759 c 0,0 0.602,-10.725 4.822,-22.737 l 0,0 c 0,0 5.86,4.313 13.501,9.279 l 0,0 c -3.478,7.653 -6.195,14.726 -8.038,20.849 l 0,0 c -3.173,-2.133 -7.584,-5.176 -10.285,-7.391 m -11.44,-9.974 c 0,0 -1.064,-12.294 2.324,-23.661 l 0,0 c 0,0 3.493,3.389 9.371,7.514 l 0,0 c 0,0 -3.815,10.863 -3.86,23.201 l 0,0 c 0,0 -4.993,-4.218 -7.835,-7.054 m -6.786,-7.092 c 0,0 -1.102,-12.727 1.641,-23.247 l 0,0 c 0,0 2.199,2.112 4.487,4.106 l 0,0 c 0,0 -3.187,10.431 -1.951,23.634 l 0,0 c 0,0 -2.821,-2.934 -4.177,-4.493 m -3.795,-4.5 c 0,0 -0.4,-2.833 -0.41,-7.175 l 0,0 0,-0.35 c 0.01,-4.15 0.379,-9.595 1.76,-15.248 l 0,0 c 0,0 1.567,1.586 1.939,1.947 l 0,0 c 0,0 -3.247,13.202 -1.48,23.03 l 0,0 c 0,0 -1.087,-1.296 -1.809,-2.204 m 29.567,-8.394 c 0,0 6.419,-16.568 18.19,-31.083 l 0,0 c 0,0 6.909,3.204 14.98,7.534 l 0,0 c -3.37,5.031 -6.742,10.445 -10.049,16.171 l 0,0 c -3.29,5.694 -6.281,11.302 -8.944,16.711 l 0,0 c -3.94,-2.451 -9.437,-5.954 -14.177,-9.333 M 83.861,127.211 c 0,0 4.713,-14.634 16.366,-27.768 l 0,0 c 0,0 4.239,1.6 11.089,4.815 l 0,0 c 0,0 -10.642,11.931 -17.709,30.203 l 0,0 c 0,0 -4.019,-2.661 -9.746,-7.25 m -7.703,-6.247 c 0,0 2.868,-11.214 14.842,-25.089 l 0,0 c 0,0 2.953,1.057 5.592,2.106 l 0,0 c 0,0 -10.25,11.151 -15.814,26.794 l 0,0 c 0,0 -2.486,-1.965 -4.62,-3.811 m -4.209,-3.689 c 0,0 2.662,-10.634 13.77,-23.211 l 0,0 c 0,0 -0.027,-0.053 2.626,0.883 l 0,0 c 0,0 -9.231,9.439 -14.321,24.178 l 0,0 c 0,0 -0.921,-0.791 -2.075,-1.85 m 48.82,-15.681 c 8.305,-9.646 17.295,-15.523 17.295,-15.523 l 0,0 c 3.183,1.207 7.86,3.417 11.266,5.09 l 0,0 c -4.358,4.726 -9.074,10.636 -13.894,17.444 l 0,0 c -8.068,-4.114 -14.667,-7.011 -14.667,-7.011 m -16.4,-6.647 c 8.161,-8.607 19.35,-13.81 19.35,-13.81 l 0,0 c 3.873,1.047 10.023,3.262 10.023,3.262 l 0,0 c -10.67,6.2 -18.191,14.929 -18.191,14.929 l 0,0 c -6.505,-3.034 -11.182,-4.381 -11.182,-4.381 m -9.514,-3.136 c 7.753,-7.622 19.331,-13.023 19.331,-13.023 l 0,0 c 2.027,0.399 5.979,1.381 5.979,1.381 l 0,0 c -12.061,5.515 -19.517,13.486 -19.517,13.486 l 0,0 c -2.864,-0.988 -5.793,-1.844 -5.793,-1.844 m -5.527,-1.533 c 8.813,-8.415 19.066,-12.525 19.066,-12.525 l 0,0 c 1.143,0.167 2.816,0.464 2.816,0.464 l 0,0 C 101.811,81.583 91.983,90.98 91.983,90.98 l 0,0 c -0.505,-0.138 -2.655,-0.702 -2.655,-0.702" /></g></g></g></g><g
       id="g36"><g
         clip-path="url(#clipPath40)"
         id="g38"><g
           id="g44"><g
             id="g46"><path
               id="path58"
               style="fill:url(#linearGradient48);stroke:none"
               d="m 130.102,204.749 c 0,0 11.579,0.05 19.79,-2.739 l 0,0 c 0,0 2.135,0.441 2.453,0.476 l 0,0 c 0,0 -8.188,2.423 -17.985,2.423 l 0,0 c -1.395,0 -2.818,-0.051 -4.258,-0.16 m -16.1,-3.162 c 0,0 12.433,3.225 27.435,-1.569 l 0,0 c 0,0 4.39,1.126 5.625,1.395 l 0,0 c 0,0 -8.289,2.634 -18.217,2.634 l 0,0 c -4.816,0 -10.015,-0.617 -14.843,-2.46 m -7.258,-2.884 c 0,0 9.282,3.087 22.51,-2.654 l 0,0 c 0,0 7.418,2.585 8.946,3.036 l 0,0 c 0,0 -7.839,2.735 -16.928,2.735 l 0,0 c -4.821,0 -9.99,-0.762 -14.528,-3.117 m 51.385,0.286 c 9.395,-3.366 19.225,-12.77 19.225,-12.77 l 0,0 c 0.496,0.141 2.652,0.708 2.652,0.708 l 0,0 c -8.821,8.411 -19.064,12.528 -19.064,12.528 l 0,0 c -1.144,-0.171 -2.813,-0.466 -2.813,-0.466 m -55.676,-2.474 c 4.145,-1.203 9.535,-8.227 9.535,-8.227 l 0,0 c 10.564,5.495 13.505,6.272 13.505,6.272 l 0,0 c -6.58,3.221 -11.575,4.189 -15.194,4.189 l 0,0 c -5.501,0.002 -7.846,-2.234 -7.846,-2.234 m 46.721,0.521 c 12.054,-5.512 19.509,-13.481 19.509,-13.481 l 0,0 c 2.865,0.992 5.796,1.839 5.796,1.839 l 0,0 c -7.753,7.619 -19.328,13.024 -19.328,13.024 l 0,0 c -2.032,-0.398 -5.977,-1.382 -5.977,-1.382 m -13.581,-4.232 c 10.673,-6.196 18.191,-14.923 18.191,-14.923 l 0,0 c 6.501,3.035 11.179,4.375 11.179,4.375 l 0,0 c -8.161,8.609 -19.347,13.818 -19.347,13.818 l 0,0 c -3.88,-1.049 -10.023,-3.27 -10.023,-3.27 m -44.85,-18.331 c 0,0 1.653,1.661 8.838,6.404 l 0,0 c -1.428,6.158 -1.668,10.911 -0.578,13.727 l 0,0 c -2.524,-1.699 -7.34,-6.663 -8.26,-20.131 m -10.26,-8.757 c 1.156,1.097 7.104,6.234 7.104,6.234 l 0,0 c 1.618,14.328 8.925,20.847 8.925,20.847 l 0,0 C 84.095,184.819 80.483,165.716 80.483,165.716 m 35.141,18.14 c 6.029,-7.401 12.888,-18.077 12.888,-18.077 l 0,0 c 10.286,5.549 20.056,9.834 20.056,9.834 l 0,0 c -8.312,9.649 -17.298,15.527 -17.298,15.527 l 0,0 c -5.555,-2.109 -15.646,-7.284 -15.646,-7.284 M 74.048,159.197 c 0.846,0.936 4.017,4.176 4.017,4.176 l 0,0 c 3.325,15.398 12.323,24.568 12.323,24.568 l 0,0 C 78.129,177.935 74.048,159.197 74.048,159.197 m 107.749,22.243 c 10.239,-11.759 13.822,-24.473 13.822,-24.473 l 0,0 c 2.133,1.839 2.071,1.839 2.071,1.839 l 0,0 c -5.365,15.898 -13.248,23.519 -13.248,23.519 l 0,0 c -1.494,-0.478 -2.645,-0.885 -2.645,-0.885 m -8.263,-3.031 c 10.784,-12.62 15.333,-27.072 15.333,-27.072 l 0,0 c 2.226,1.759 4.617,3.796 4.617,3.796 l 0,0 c -6.048,17.298 -14.347,25.378 -14.347,25.378 l 0,0 c -2.657,-0.935 -5.603,-2.102 -5.603,-2.102 m -14.784,-6.287 c 12.298,-15.241 17.328,-30.42 17.328,-30.42 l 0,0 c 6.212,4.345 9.713,7.213 9.713,7.213 l 0,0 c -5.568,16.654 -15.902,28.037 -15.902,28.037 l 0,0 c -6.841,-2.673 -11.139,-4.83 -11.139,-4.83 M 70.48,155.153 c 0.191,0.25 1.637,1.887 1.637,1.887 l 0,0 c 1.684,8.509 7.498,18.519 7.498,18.519 l 0,0 C 73.072,165.983 70.48,155.153 70.48,155.153 m 62.383,3.879 C 143.339,142.31 151.954,125.9 151.954,125.9 l 0,0 c 10.071,5.913 19.374,12.48 19.374,12.48 l 0,0 c -6.699,17.442 -17.866,31.268 -17.866,31.268 l 0,0 c -9.511,-4.362 -20.599,-10.616 -20.599,-10.616 m 64.366,-7.193 c 0,0 3.252,-13.206 1.477,-23.03 l 0,0 c 0,0 1.09,1.298 1.806,2.21 l 0,0 c 0,0 1.545,10.935 -1.344,22.771 l 0,0 c 0,0 -1.566,-1.586 -1.939,-1.951 m -6.64,-6.181 c 0,0 3.194,-10.437 1.96,-23.633 l 0,0 c 0,0 2.82,2.935 4.175,4.492 l 0,0 c 0,0 1.099,12.723 -1.645,23.249 l 0,0 c 0,0 -2.2,-2.119 -4.49,-4.108 m -12.346,-10.085 c 0,0 3.81,-10.87 3.855,-23.209 l 0,0 c 0,0 4.998,4.22 7.836,7.056 l 0,0 c 0,0 1.069,12.295 -2.318,23.659 l 0,0 c 0,0 -3.497,-3.385 -9.373,-7.506 M 155.149,119.71 c 0,0 5.83,-11.271 9.238,-20.187 l 0,0 c 0,0 9.518,6.168 14.114,9.924 l 0,0 c 0,0 -0.613,10.721 -4.824,22.739 l 0,0 c 0,0 -8.586,-6.325 -18.528,-12.476 m 42.068,0.455 c -1.681,-8.511 -7.504,-18.521 -7.504,-18.521 l 0,0 c 6.548,9.583 9.134,20.408 9.134,20.408 l 0,0 c -0.191,-0.252 -1.63,-1.887 -1.63,-1.887 m -5.947,-6.334 C 187.937,98.438 178.947,89.266 178.947,89.266 l 0,0 c 12.249,10 16.339,28.745 16.339,28.745 l 0,0 c -0.849,-0.934 -4.016,-4.18 -4.016,-4.18 m -9.523,-8.58 c -1.622,-14.326 -8.925,-20.836 -8.925,-20.836 l 0,0 c 12.414,7.976 16.03,27.077 16.03,27.077 l 0,0 c -1.163,-1.1 -7.105,-6.241 -7.105,-6.241 M 166.415,94.158 c 0,0 3.389,-8.178 2.374,-12.369 l 0,0 c 0,0 8.54,2.539 9.801,20.944 l 0,0 c 0,0 -2.141,-2.153 -12.175,-8.575 M 143.837,82.645 c 10.624,-5.192 17.088,-4.536 20.366,-3.39 l 0,0 c -2.931,1.054 -6.605,3.712 -10.741,7.68 l 0,0 c -7.418,-3.704 -9.625,-4.29 -9.625,-4.29 m -12.708,-4.524 c 0,0 18.355,-6.398 31.465,0.381 l 0,0 c 0,0 -9.293,-3.084 -22.515,2.656 l 0,0 c 0,0 -7.416,-2.588 -8.95,-3.037 m -8.86,-2.328 c 0,0 18.28,-5.809 33.066,-0.179 l 0,0 c 0,0 -12.435,-3.223 -27.439,1.578 l 0,0 c 0,0 -4.393,-1.133 -5.627,-1.399 m -5.28,-1.073 c 0,0 8.103,-2.396 17.834,-2.421 l 0,0 0.291,0 c 1.349,0.002 2.726,0.05 4.118,0.158 l 0,0 c 0,0 -11.579,-0.044 -19.789,2.746 l 0,0 c 0,0 -2.138,-0.444 -2.454,-0.483" /></g></g></g></g><g
       id="g60"><g
         clip-path="url(#clipPath64)"
         id="g62"><g
           transform="translate(511.3594,164.0689)"
           id="g68"><path
             id="path70"
             style="fill:#78787a;fill-opacity:1;fill-rule:nonzero;stroke:none"
             d="m 0,0 c -0.522,0.716 -0.782,1.596 -0.782,2.637 0,1.235 0.273,2.275 0.819,3.119 0.544,0.841 1.264,1.524 2.153,2.041 0.893,0.522 1.867,0.897 2.938,1.117 1.064,0.223 2.116,0.335 3.152,0.335 1.343,0 2.602,-0.163 3.791,-0.484 1.19,-0.325 2.242,-0.828 3.156,-1.523 0.919,-0.693 1.651,-1.572 2.197,-2.636 0.543,-1.066 0.84,-2.312 0.888,-3.752 l 4.681,0 c -0.099,2.081 -0.52,3.886 -1.263,5.426 -0.744,1.532 -1.746,2.819 -3.006,3.859 -1.265,1.042 -2.727,1.808 -4.386,2.304 -1.658,0.497 -3.456,0.742 -5.386,0.742 -1.683,0 -3.381,-0.195 -5.09,-0.595 C 2.155,12.194 0.603,11.577 -0.782,10.733 -2.167,9.895 -3.296,8.774 -4.162,7.391 -5.025,6.002 -5.461,4.344 -5.461,2.41 c 0,-1.633 0.272,-3.002 0.82,-4.122 0.54,-1.111 1.296,-2.052 2.261,-2.82 C -1.411,-5.3 -0.281,-5.945 1,-6.466 2.286,-6.985 3.705,-7.442 5.239,-7.84 l 6.014,-1.339 c 1.044,-0.246 2.069,-0.545 3.085,-0.888 1.012,-0.348 1.919,-0.783 2.715,-1.299 0.783,-0.519 1.419,-1.166 1.896,-1.937 0.465,-0.765 0.704,-1.717 0.704,-2.858 0,-1.335 -0.334,-2.463 -1.006,-3.382 -0.666,-0.913 -1.522,-1.669 -2.565,-2.264 -1.038,-0.594 -2.167,-1.015 -3.38,-1.266 -1.21,-0.245 -2.387,-0.369 -3.523,-0.369 -3.121,0 -5.74,0.807 -7.842,2.412 -2.105,1.613 -3.255,4.003 -3.454,7.175 l -4.681,0 c 0.397,-4.707 1.993,-8.128 4.791,-10.256 2.794,-2.131 6.45,-3.193 10.959,-3.193 1.784,0 3.592,0.2 5.424,0.596 1.834,0.395 3.476,1.051 4.943,1.97 1.455,0.91 2.66,2.103 3.602,3.565 0.936,1.457 1.411,3.233 1.411,5.314 0,1.679 -0.321,3.139 -0.968,4.377 -0.642,1.24 -1.468,2.278 -2.485,3.123 -1.015,0.846 -2.182,1.522 -3.498,2.044 -1.311,0.52 -2.632,0.878 -3.971,1.077 L 7.167,-3.827 C 6.378,-3.63 5.511,-3.37 4.569,-3.043 3.629,-2.728 2.761,-2.316 1.971,-1.82 1.173,-1.326 0.519,-0.72 0,0 m -19.353,-26.261 4.312,0 0,53.044 -4.681,0 0,-21.993 -0.145,0 c -0.505,1.388 -1.209,2.601 -2.124,3.646 -0.917,1.035 -1.966,1.914 -3.155,2.633 -1.19,0.72 -2.468,1.249 -3.829,1.599 -1.359,0.343 -2.761,0.517 -4.198,0.517 -2.918,0 -5.463,-0.543 -7.612,-1.633 -2.155,-1.085 -3.951,-2.561 -5.387,-4.421 -1.437,-1.856 -2.501,-4.009 -3.197,-6.463 -0.693,-2.451 -1.037,-5.042 -1.037,-7.762 0,-2.726 0.344,-5.313 1.037,-7.763 0.696,-2.453 1.76,-4.608 3.197,-6.464 1.436,-1.857 3.232,-3.319 5.387,-4.384 2.149,-1.065 4.694,-1.599 7.612,-1.599 1.389,0 2.785,0.201 4.198,0.596 1.414,0.395 2.734,0.953 3.979,1.671 1.232,0.72 2.336,1.599 3.298,2.636 0.971,1.04 1.699,2.182 2.196,3.419 l 0.149,0 0,-7.279 z m -0.369,19.167 c 0,-1.979 -0.237,-3.948 -0.704,-5.905 -0.476,-1.96 -1.247,-3.708 -2.306,-5.24 -1.064,-1.537 -2.449,-2.791 -4.163,-3.753 -1.709,-0.96 -3.801,-1.446 -6.278,-1.446 -2.229,0 -4.131,0.486 -5.719,1.446 -1.585,0.962 -2.883,2.216 -3.896,3.753 -1.02,1.532 -1.764,3.28 -2.232,5.24 -0.47,1.957 -0.706,3.926 -0.706,5.905 0,1.98 0.236,3.948 0.706,5.903 0.468,1.957 1.212,3.707 2.232,5.245 1.013,1.53 2.311,2.785 3.896,3.751 1.588,0.96 3.49,1.444 5.719,1.444 2.477,0 4.569,-0.484 6.278,-1.444 1.714,-0.966 3.099,-2.221 4.163,-3.751 1.059,-1.538 1.83,-3.288 2.306,-5.245 0.467,-1.955 0.704,-3.923 0.704,-5.903 m -36.849,-1.265 c 0.097,2.677 -0.153,5.314 -0.742,7.908 -0.595,2.603 -1.579,4.905 -2.936,6.913 -1.366,2.01 -3.133,3.632 -5.317,4.868 -2.177,1.237 -4.799,1.855 -7.872,1.855 -3.026,0 -5.634,-0.581 -7.837,-1.747 -2.206,-1.16 -4,-2.696 -5.385,-4.601 -1.389,-1.907 -2.418,-4.077 -3.087,-6.502 -0.668,-2.427 -1.003,-4.903 -1.003,-7.427 0,-2.726 0.335,-5.315 1.003,-7.765 0.669,-2.451 1.698,-4.608 3.087,-6.464 1.385,-1.855 3.179,-3.319 5.385,-4.384 2.203,-1.065 4.811,-1.599 7.837,-1.599 4.853,0 8.602,1.19 11.257,3.563 2.647,2.38 4.468,5.751 5.457,10.107 l -4.68,0 c -0.742,-2.97 -2.079,-5.351 -4.009,-7.135 -1.93,-1.778 -4.605,-2.67 -8.025,-2.67 -2.23,0 -4.136,0.467 -5.719,1.411 -1.589,0.942 -2.902,2.129 -3.94,3.563 -1.038,1.44 -1.794,3.061 -2.266,4.867 -0.471,1.81 -0.704,3.556 -0.704,5.239 l 29.496,0 z m -4.68,3.939 -24.816,0 c 0.199,1.731 0.608,3.43 1.228,5.092 0.615,1.654 1.447,3.115 2.483,4.38 1.043,1.264 2.306,2.279 3.794,3.05 1.485,0.763 3.191,1.148 5.124,1.148 1.878,0 3.568,-0.385 5.05,-1.148 1.49,-0.771 2.753,-1.786 3.793,-3.05 1.041,-1.265 1.844,-2.711 2.414,-4.345 0.566,-1.632 0.88,-3.343 0.93,-5.127 m -37.371,-10.437 c 0.688,2.45 1.04,5.037 1.04,7.763 0,2.725 -0.352,5.31 -1.04,7.764 -0.695,2.452 -1.76,4.605 -3.194,6.464 -1.441,1.857 -3.234,3.327 -5.387,4.42 -2.152,1.088 -4.692,1.631 -7.616,1.631 -1.389,0 -2.782,-0.174 -4.157,-0.517 -1.39,-0.348 -2.672,-0.883 -3.868,-1.599 -1.191,-0.719 -2.239,-1.598 -3.157,-2.638 -0.916,-1.04 -1.624,-2.257 -2.115,-3.641 l -0.147,0 0,21.993 -4.681,0 0,-53.046 4.305,0 0,7.28 0.148,0 c 1.09,-2.672 2.86,-4.726 5.309,-6.164 2.455,-1.436 5.243,-2.157 8.363,-2.157 2.924,0 5.464,0.534 7.616,1.599 2.153,1.065 3.946,2.529 5.387,4.384 1.434,1.856 2.499,4.011 3.194,6.464 m -3.643,7.763 c 0,-1.979 -0.234,-3.948 -0.703,-5.909 -0.474,-1.951 -1.217,-3.698 -2.232,-5.234 -1.012,-1.533 -2.313,-2.787 -3.899,-3.755 -1.583,-0.96 -3.49,-1.446 -5.72,-1.446 -2.475,0 -4.57,0.486 -6.278,1.446 -1.713,0.968 -3.095,2.222 -4.16,3.755 -1.062,1.536 -1.833,3.283 -2.305,5.234 -0.467,1.961 -0.701,3.93 -0.701,5.909 0,1.98 0.234,3.948 0.701,5.903 0.472,1.959 1.243,3.705 2.305,5.245 1.065,1.53 2.447,2.781 4.16,3.743 1.708,0.968 3.803,1.455 6.278,1.455 2.23,0 4.137,-0.487 5.72,-1.455 1.586,-0.962 2.887,-2.213 3.899,-3.743 1.015,-1.54 1.758,-3.286 2.232,-5.245 0.469,-1.955 0.703,-3.923 0.703,-5.903 m -45.836,-19.165 4.678,0 0,53.043 -4.678,0 0,-53.043 z m -7.877,17.9 c 0.1,2.677 -0.149,5.314 -0.742,7.908 -0.592,2.603 -1.572,4.905 -2.934,6.913 -1.366,2.01 -3.133,3.632 -5.314,4.868 -2.178,1.237 -4.803,1.855 -7.876,1.855 -3.018,0 -5.634,-0.581 -7.837,-1.747 -2.207,-1.16 -4,-2.696 -5.383,-4.601 -1.393,-1.907 -2.419,-4.077 -3.084,-6.502 -0.669,-2.427 -1.004,-4.903 -1.004,-7.427 0,-2.726 0.335,-5.315 1.004,-7.765 0.665,-2.451 1.691,-4.608 3.084,-6.464 1.383,-1.855 3.176,-3.319 5.383,-4.384 2.203,-1.065 4.819,-1.599 7.837,-1.599 4.859,0 8.607,1.19 11.257,3.563 2.649,2.38 4.472,5.751 5.46,10.107 l -4.678,0 c -0.747,-2.97 -2.084,-5.351 -4.013,-7.135 -1.928,-1.778 -4.608,-2.67 -8.026,-2.67 -2.224,0 -4.132,0.467 -5.718,1.411 -1.588,0.942 -2.897,2.129 -3.933,3.563 -1.047,1.44 -1.801,3.061 -2.271,4.867 -0.473,1.81 -0.706,3.556 -0.706,5.239 l 29.494,0 z m -4.678,3.939 -24.816,0 c 0.199,1.731 0.604,3.43 1.228,5.092 0.614,1.654 1.444,3.115 2.49,4.38 1.037,1.264 2.296,2.279 3.787,3.05 1.486,0.763 3.195,1.148 5.123,1.148 1.882,0 3.573,-0.385 5.054,-1.148 1.487,-0.771 2.746,-1.786 3.786,-3.05 1.043,-1.265 1.846,-2.711 2.417,-4.345 0.567,-1.632 0.877,-3.343 0.931,-5.127 m -37.892,-22.143 c 0.694,0.051 1.383,0.078 2.082,0.078 l 0,3.942 c -1.34,-0.157 -2.675,-0.23 -4.013,-0.23 -1.683,0.102 -2.736,0.584 -3.159,1.452 -0.422,0.865 -0.631,2.064 -0.631,3.604 l 0,25.852 7.803,0 0,3.937 -7.803,0 0,11.516 -4.678,0 0,-11.516 -6.687,0 0,-3.937 6.687,0 0,-26.225 c -0.052,-3.271 0.546,-5.512 1.781,-6.722 1.235,-1.216 3.424,-1.822 6.537,-1.822 0.692,0 1.385,0.026 2.081,0.071 m -22.807,11.63 c 0.792,2.451 1.189,5.064 1.189,7.835 0,2.776 -0.397,5.392 -1.189,7.841 -0.792,2.449 -1.955,4.59 -3.493,6.425 -1.537,1.832 -3.429,3.293 -5.68,4.384 -2.258,1.09 -4.844,1.631 -7.766,1.631 -2.923,0 -5.509,-0.541 -7.764,-1.631 -2.251,-1.091 -4.149,-2.552 -5.683,-4.384 -1.537,-1.835 -2.7,-3.976 -3.492,-6.425 -0.792,-2.449 -1.188,-5.065 -1.188,-7.841 0,-2.771 0.396,-5.384 1.188,-7.835 0.792,-2.449 1.955,-4.591 3.492,-6.428 1.534,-1.828 3.432,-3.279 5.683,-4.344 2.255,-1.065 4.841,-1.599 7.764,-1.599 2.922,0 5.508,0.534 7.766,1.599 2.251,1.065 4.143,2.516 5.68,4.344 1.538,1.837 2.701,3.979 3.493,6.428 m -3.493,7.835 c 0,-2.027 -0.283,-4.019 -0.853,-5.979 -0.57,-1.957 -1.413,-3.703 -2.528,-5.24 -1.11,-1.533 -2.51,-2.774 -4.197,-3.716 -1.679,-0.94 -3.638,-1.405 -5.868,-1.405 -2.228,0 -4.185,0.465 -5.865,1.405 -1.687,0.942 -3.086,2.183 -4.2,3.716 -1.115,1.537 -1.959,3.283 -2.525,5.24 -0.572,1.96 -0.857,3.952 -0.857,5.979 0,2.034 0.285,4.027 0.857,5.983 0.566,1.955 1.41,3.703 2.525,5.238 1.114,1.536 2.513,2.771 4.2,3.713 1.68,0.938 3.637,1.413 5.865,1.413 2.23,0 4.189,-0.475 5.868,-1.413 1.687,-0.942 3.087,-2.177 4.197,-3.713 1.115,-1.535 1.958,-3.283 2.528,-5.238 0.57,-1.956 0.853,-3.949 0.853,-5.983 m -44.647,-19.163 4.681,0 0,24.665 c 0,2.278 -0.228,4.329 -0.667,6.166 -0.452,1.83 -1.216,3.382 -2.304,4.645 -1.09,1.26 -2.54,2.237 -4.349,2.933 -1.809,0.691 -4.048,1.037 -6.723,1.037 -2.721,0 -5.226,-0.703 -7.506,-2.116 -2.274,-1.411 -3.858,-3.28 -4.754,-5.609 l -0.146,0 0,21.323 -4.679,0 0,-53.044 4.679,0 0,22.361 c 0.051,1.879 0.361,3.627 0.93,5.24 0.567,1.608 1.357,2.991 2.376,4.158 1.015,1.167 2.254,2.083 3.711,2.75 1.461,0.668 3.133,1.004 5.019,1.004 1.878,0 3.453,-0.298 4.717,-0.895 1.262,-0.592 2.266,-1.41 3.007,-2.45 0.746,-1.039 1.267,-2.264 1.565,-3.678 0.292,-1.412 0.443,-2.936 0.443,-4.57 l 0,-23.92 z" /></g><g
           transform="translate(214.0386,115.251)"
           id="g72"><path
             id="path74"
             style="fill:#d21d63;fill-opacity:1;fill-rule:nonzero;stroke:none"
             d="m 0,0 c 0.044,-10.92 8.269,-16.357 16.404,-16.357 5.892,0 11.969,2.558 14.253,9.23 1.098,3.106 1.098,6.167 0.914,9.364 l -15.124,0 0,-7.08 6.808,0 c -1.46,-3.063 -3.564,-3.929 -6.851,-3.929 -4.844,0 -7.95,3.472 -7.95,8.772 0,4.889 2.785,8.909 7.95,8.909 3.243,0 5.344,-1.096 6.671,-3.839 l 8.041,0 C 29.561,13.023 22.845,16.358 16.404,16.403 8.269,16.403 0.044,10.919 0,0 m 58.803,-4.659 c 8.089,5.48 5.805,20.606 -6.761,20.651 l -14.028,0 0,-31.985 8.179,0 0,9.413 4.249,0 5.484,-9.413 9.137,0 0,1.19 -6.26,10.144 z m -6.761,5.344 -5.849,0 0,7.995 c 1.919,0 3.931,0.048 5.849,0 4.659,-0.044 4.434,-7.995 0,-7.995 m 48.797,-0.731 c 0,22.114 -32.807,22.114 -32.807,0 0,-22.161 32.807,-22.161 32.807,0 m -24.399,0 c 0,11.514 16.038,11.514 16.038,0 0,-11.606 -16.038,-11.606 -16.038,0 m 42.949,-9.045 c -2.376,0 -4.889,1.277 -4.889,3.883 l 0,21.2 -7.812,0 0,-21.337 c 0,-7.039 6.167,-11.104 12.701,-11.104 6.584,0 12.658,4.065 12.658,11.104 l 0,21.337 -7.813,0 0,-21.2 c 0,-2.606 -2.47,-3.883 -4.845,-3.883 m 28.786,-6.902 0,8.179 5.895,0 c 15.305,0 15.305,23.761 0,23.806 l -14.073,0 0,-31.985 8.178,0 z m 5.849,15.536 -5.849,0 0,9.137 c 1.875,0 3.929,0.048 5.849,0 4.752,-0.044 4.478,-9.137 0,-9.137" /></g></g></g></g></svg>