<?xml version="1.0" encoding="UTF-8" standalone="no"?>
<!-- Created with Inkscape (http://www.inkscape.org/) -->

<svg
   xmlns:dc="http://purl.org/dc/elements/1.1/"
   xmlns:cc="http://creativecommons.org/ns#"
   xmlns:rdf="http://www.w3.org/1999/02/22-rdf-syntax-ns#"
   xmlns:svg="http://www.w3.org/2000/svg"
   xmlns="http://www.w3.org/2000/svg"
   xmlns:sodipodi="http://sodipodi.sourceforge.net/DTD/sodipodi-0.dtd"
   xmlns:inkscape="http://www.inkscape.org/namespaces/inkscape"
   version="1.1"
   width="1212.4399"
   height="243.34"
   id="svg2"
   xml:space="preserve"
   inkscape:version="0.48.4 r9939"
   sodipodi:docname="idealista.svg"><sodipodi:namedview
     pagecolor="#ffffff"
     bordercolor="#666666"
     borderopacity="1"
     objecttolerance="10"
     gridtolerance="10"
     guidetolerance="10"
     inkscape:pageopacity="0"
     inkscape:pageshadow="2"
     inkscape:window-width="1855"
     inkscape:window-height="1056"
     id="namedview37"
     showgrid="false"
     fit-margin-left="19"
     fit-margin-right="6.2"
     fit-margin-top="6.9388939e-16"
     fit-margin-bottom="0"
     inkscape:zoom="0.22040234"
     inkscape:cx="444.4605"
     inkscape:cy="-349.97507"
     inkscape:window-x="65"
     inkscape:window-y="24"
     inkscape:window-maximized="1"
     inkscape:current-layer="svg2" /><metadata
     id="metadata8"><rdf:RDF><cc:Work
         rdf:about=""><dc:format>image/svg+xml</dc:format><dc:type
           rdf:resource="http://purl.org/dc/dcmitype/StillImage" /><dc:title /></cc:Work></rdf:RDF></metadata><defs
     id="defs6" /><g
     transform="matrix(1.25,0,0,-1.25,-140.31662,667.80672)"
     id="g10"><path
       d="m 178.275,502.927 -25.411,0 0,25.41 25.411,0 0,-25.41 z"
       id="path12"
       style="fill:#050301;fill-opacity:1;fill-rule:nonzero;stroke:none"
       inkscape:connector-curvature="0" /><g
       transform="translate(610.2559,528.3369)"
       id="g14"><path
         d="m 0,0 -25.41,0 0,-25.41 25.41,0 0,-152.464 25.411,0 L 25.411,0 0,0 z"
         id="path16"
         style="fill:#050301;fill-opacity:1;fill-rule:nonzero;stroke:none"
         inkscape:connector-curvature="0" /></g><path
       d="m 203.686,375.873 25.411,0 0,76.232 -25.411,0 0,-76.232 z"
       id="path18"
       style="fill:#050301;fill-opacity:1;fill-rule:nonzero;stroke:none"
       inkscape:connector-curvature="0" /><g
       transform="translate(279.9175,528.3369)"
       id="g20"><path
         d="m 0,0 0,-50.821 -50.821,0 0,-25.41 50.821,0 0,-76.233 -50.821,0 0,-25.41 50.821,0 25.411,0 L 25.411,0 0,0 z"
         id="path22"
         style="fill:#050301;fill-opacity:1;fill-rule:nonzero;stroke:none"
         inkscape:connector-curvature="0" /></g><path
       d="m 457.791,375.873 25.412,0 0,25.411 -25.412,0 0,-25.411 z"
       id="path24"
       style="fill:#050301;fill-opacity:1;fill-rule:nonzero;stroke:none"
       inkscape:connector-curvature="0" /><g
       transform="translate(534.0244,452.1055)"
       id="g26"><path
         d="m 0,0 0,-25.411 -50.821,0 0,-25.41 50.821,0 0,-25.411 -50.821,0 0,-25.411 50.821,0 25.411,0 L 25.411,0 0,0 z"
         id="path28"
         style="fill:#050301;fill-opacity:1;fill-rule:nonzero;stroke:none"
         inkscape:connector-curvature="0" /></g><path
       d="m 483.203,452.105 50.821,0 0,25.41 -50.821,0 0,-25.41 z"
       id="path30"
       style="fill:#050301;fill-opacity:1;fill-rule:nonzero;stroke:none"
       inkscape:connector-curvature="0" /><path
       d="m 966.006,375.873 25.41,0 0,25.411 -25.41,0 0,-25.411 z"
       id="path32"
       style="fill:#050301;fill-opacity:1;fill-rule:nonzero;stroke:none"
       inkscape:connector-curvature="0" /><g
       transform="translate(1042.2373,452.1055)"
       id="g34"><path
         d="m 0,0 0,-25.411 -50.821,0 0,-25.41 50.821,0 0,-25.411 -50.821,0 0,-25.411 50.821,0 25.411,0 L 25.411,0 0,0 z"
         id="path36"
         style="fill:#050301;fill-opacity:1;fill-rule:nonzero;stroke:none"
         inkscape:connector-curvature="0" /></g><path
       d="m 991.416,452.105 50.821,0 0,25.41 -50.821,0 0,-25.41 z"
       id="path38"
       style="fill:#050301;fill-opacity:1;fill-rule:nonzero;stroke:none"
       inkscape:connector-curvature="0" /><g
       transform="translate(406.9707,452.1055)"
       id="g40"><path
         d="m 0,0 0,-25.411 -50.821,0 0,25.411 -25.411,0 0,-76.232 25.411,0 0,25.411 50.821,0 25.411,0 L 25.411,0 0,0 z"
         id="path42"
         style="fill:#050301;fill-opacity:1;fill-rule:nonzero;stroke:none"
         inkscape:connector-curvature="0" /></g><path
       d="m 406.971,477.516 -50.821,0 0,-25.41 50.821,0 0,25.41 z"
       id="path44"
       style="fill:#050301;fill-opacity:1;fill-rule:nonzero;stroke:none"
       inkscape:connector-curvature="0" /><path
       d="m 406.971,375.873 -50.821,0 0,-25.41 50.821,0 0,25.41 z"
       id="path46"
       style="fill:#050301;fill-opacity:1;fill-rule:nonzero;stroke:none"
       inkscape:connector-curvature="0" /><g
       transform="translate(152.8643,477.5156)"
       id="g48"><path
         d="m 0,0 -25.411,0 0,-25.41 25.411,0 0,-101.643 25.411,0 L 25.411,0 0,0 z"
         id="path50"
         style="fill:#050301;fill-opacity:1;fill-rule:nonzero;stroke:none"
         inkscape:connector-curvature="0" /></g><path
       d="m 711.898,502.927 -25.41,0 0,25.41 25.41,0 0,-25.41 z"
       id="path52"
       style="fill:#050301;fill-opacity:1;fill-rule:nonzero;stroke:none"
       inkscape:connector-curvature="0" /><g
       transform="translate(940.5947,452.1055)"
       id="g54"><path
         d="m 0,0 0,25.41 -25.411,0 0,50.821 -25.41,0 0,-50.821 -25.41,0 0,-25.41 25.41,0 0,-76.232 25.41,0 0,76.232 L 0,0 z"
         id="path56"
         style="fill:#050301;fill-opacity:1;fill-rule:nonzero;stroke:none"
         inkscape:connector-curvature="0" /></g><path
       d="m 940.595,375.873 -25.411,0 0,-25.41 25.411,0 0,25.41 z"
       id="path58"
       style="fill:#050301;fill-opacity:1;fill-rule:nonzero;stroke:none"
       inkscape:connector-curvature="0" /><path
       d="m 838.952,477.516 -76.231,0 0,-25.41 76.231,0 0,25.41 z"
       id="path60"
       style="fill:#050301;fill-opacity:1;fill-rule:nonzero;stroke:none"
       inkscape:connector-curvature="0" /><path
       d="m 813.541,426.694 -50.82,0 0,-25.41 50.82,0 0,25.41 z"
       id="path62"
       style="fill:#050301;fill-opacity:1;fill-rule:nonzero;stroke:none"
       inkscape:connector-curvature="0" /><path
       d="m 737.31,350.463 76.231,0 0,25.41 -76.231,0 0,-25.41 z"
       id="path64"
       style="fill:#050301;fill-opacity:1;fill-rule:nonzero;stroke:none"
       inkscape:connector-curvature="0" /><path
       d="m 737.31,426.694 25.411,0 0,25.411 -25.411,0 0,-25.411 z"
       id="path66"
       style="fill:#050301;fill-opacity:1;fill-rule:nonzero;stroke:none"
       inkscape:connector-curvature="0" /><path
       d="m 838.952,401.284 -25.411,0 0,-25.411 25.411,0 0,25.411 z"
       id="path68"
       style="fill:#050301;fill-opacity:1;fill-rule:nonzero;stroke:none"
       inkscape:connector-curvature="0" /><g
       transform="translate(686.4883,477.5156)"
       id="g70"><path
         d="m 0,0 -25.41,0 0,-25.41 25.41,0 0,-101.643 25.41,0 L 25.41,0 0,0 z"
         id="path72"
         style="fill:#050301;fill-opacity:1;fill-rule:nonzero;stroke:none"
         inkscape:connector-curvature="0" /></g></g></svg>