<?xml version="1.0" encoding="UTF-8" standalone="no"?>
<svg
   xmlns:dc="http://purl.org/dc/elements/1.1/"
   xmlns:cc="http://creativecommons.org/ns#"
   xmlns:rdf="http://www.w3.org/1999/02/22-rdf-syntax-ns#"
   xmlns:svg="http://www.w3.org/2000/svg"
   xmlns="http://www.w3.org/2000/svg"
   viewBox="0 0 567.5 120.44662"
   height="120.44662"
   width="567.5"
   xml:space="preserve"
   version="1.1"
   id="svg2"><metadata
     id="metadata8"><rdf:RDF><cc:Work
         rdf:about=""><dc:format>image/svg+xml</dc:format><dc:type
           rdf:resource="http://purl.org/dc/dcmitype/StillImage" /><dc:title></dc:title></cc:Work></rdf:RDF></metadata><defs
     id="defs6"><clipPath
       id="clipPath22"
       clipPathUnits="userSpaceOnUse"><path
         id="path24"
         d="m 0,96.357 454,0 L 454,0 0,0 0,96.357 Z" /></clipPath></defs><g
     transform="matrix(1.25,0,0,-1.25,0,120.44662)"
     id="g10"><path
       id="path12"
       style="fill:#003294;fill-opacity:1;fill-rule:nonzero;stroke:none"
       d="m 0,0 454,0 0,96.358 -454,0 L 0,0 Z" /><text
       id="text14"
       style="font-variant:normal;font-stretch:normal;font-size:24.74939919px;font-family:'Knockout 51 Middleweight';-inkscape-font-specification:Knockout-51Middleweight;writing-mode:lr-tb;fill:#ffca0f;fill-opacity:1;fill-rule:nonzero;stroke:none"
       transform="matrix(1,0,0,-0.99772116,52.9995,17.7373)"><tspan
         id="tspan16"
         y="0"
         x="0 22.596203 39.574291 57.542355 74.916435 84.246956 102.21502 109.88734 120.80182 128.47414 146.4422 164.45976 181.68535 197.15372 206.48424 224.92255 232.59486 243.50935 251.18166 275.08957 292.46365 310.35748 327.53357 344.33841 360.42551 384.33344">MADRID - DUBLIN - WROCŁAW </tspan></text>
<g
       id="g18"><g
         clip-path="url(#clipPath22)"
         id="g20"><g
           transform="translate(38.314,76.789)"
           id="g26"><path
             id="path28"
             style="fill:#ffca0f;fill-opacity:1;fill-rule:nonzero;stroke:none"
             d="m 0,0 c 2.222,-0.742 4.572,-1.312 6.97,-1.584 l 1.67,-0.017 0.054,0.047 c 0.998,-0.026 1.738,0.413 2.71,0.627 0.102,0.026 0.355,0.086 0.461,-0.055 0.049,-0.185 -0.027,-0.386 -0.237,-0.525 -1.19,-0.91 -2.611,-1.588 -3.949,-2.076 l 0,0.027 C 7.241,-3.643 6.771,-3.829 6.314,-3.979 4.666,-4.479 2.789,-4.791 1.017,-4.664 c -3.396,0.175 -6.284,1.389 -9.283,1.245 -2.943,0.17 -5.743,-0.954 -7.311,-3.174 -0.803,-1.162 -1.444,-2.388 -1.643,-3.735 0.09,-1.221 1.801,-1.69 2.444,-2.699 0.368,-0.609 0.551,-1.281 0.829,-1.916 0.71,-1.276 1.416,-2.55 2.29,-3.75 l -0.02,-0.027 c 0.514,-0.802 1.329,-1.498 2.294,-1.97 1.25,-0.893 2.354,-2.015 3.009,-3.218 l -0.034,-0.02 c 0.741,-1.176 1.153,-2.399 1.726,-3.628 0.257,-0.754 0.541,-1.417 0.76,-2.149 0.073,-0.068 0.073,-0.18 0.118,-0.274 0.203,-0.581 0.376,-1.201 0.623,-1.74 -0.106,-0.08 0.083,-0.111 0.06,-0.188 0.013,-0.326 0.332,-0.819 -0.093,-1.034 -0.619,0.545 -0.942,1.344 -1.276,1.926 -0.729,1.274 -1.564,2.502 -2.462,3.711 l 0.027,0.025 c -0.554,0.691 -1.162,1.474 -1.794,2.193 -2.659,2.945 -6.571,4.714 -9.43,7.517 l -0.025,-0.025 c -0.246,0.219 -0.4,0.508 -0.598,0.756 l 0.022,0.027 c -0.347,0.489 -0.555,1.045 -0.893,1.544 l 0.023,0.026 c -0.883,1.316 -1.734,2.717 -2.307,4.099 -0.119,0.615 -0.329,1.143 -0.376,1.848 l -0.066,0.232 c 0.036,0.643 -1.559,1.015 -0.681,2.247 0.551,0.594 2.683,1.327 3.407,2.442 0.02,0.167 0.058,0.366 -0.086,0.516 0,0.12 -0.126,0.246 -0.212,0.37 -0.402,0.501 -1.494,0.103 -1.478,0.843 0.113,0.005 0.007,0.103 0.081,0.148 -0.063,0.362 -0.088,0.604 0.012,0.914 0.221,0.604 0.437,1.304 0.394,1.916 0.043,0.229 0.274,0.368 0.506,0.456 0.454,0.117 0.851,0.176 1.297,0.235 l 0.055,-0.045 c 1.03,0.084 2.265,0.009 2.949,-0.797 0.296,-0.613 0.065,-1.339 -0.101,-1.957 -0.051,-0.356 -0.441,-0.647 -0.352,-1.021 0.137,-0.138 0.419,-0.131 0.6,-0.054 1.554,0.942 2.912,2.249 4.041,3.569 1.043,0.975 2.579,1.313 3.99,1.112 C -5.084,1.609 -2.667,0.65 0,0" /></g><g
           transform="translate(30.541,71.9247)"
           id="g30"><path
             id="path32"
             style="fill:#ffca0f;fill-opacity:1;fill-rule:nonzero;stroke:none"
             d="m 0,0 c 0.404,-0.536 -0.137,-1.007 -0.296,-1.481 -1.68,-2.522 -2.267,-5.376 -3.38,-8.078 -0.085,-0.093 -0.25,-0.122 -0.368,-0.085 -0.298,0.212 -0.298,0.563 -0.264,0.869 0.224,2.928 0.998,5.675 2.245,8.293 0.291,0.418 0.788,0.894 1.429,0.794 C -0.394,0.261 -0.178,0.177 0,0" /></g><g
           transform="translate(34.957,71.1581)"
           id="g34"><path
             id="path36"
             style="fill:#ffca0f;fill-opacity:1;fill-rule:nonzero;stroke:none"
             d="m 0,0 c 0.213,-0.963 -0.476,-1.751 -0.781,-2.613 -1.635,-3.263 -3.595,-6.454 -4.564,-9.941 -0.046,-0.111 -0.109,-0.258 -0.238,-0.31 -0.139,-0.037 -0.257,0.032 -0.292,0.132 -0.326,1.383 0.051,2.826 0.405,4.144 0.932,2.925 2.058,5.919 3.633,8.644 0.183,0.137 0.212,0.256 0.438,0.321 C -0.852,0.433 -0.304,0.393 0,0" /></g><g
           transform="translate(39.6919,70.9863)"
           id="g38"><path
             id="path40"
             style="fill:#ffca0f;fill-opacity:1;fill-rule:nonzero;stroke:none"
             d="m 0,0 c 0.44,-0.332 0.212,-0.959 0.04,-1.349 -1.915,-4.24 -5.016,-7.894 -6.3,-12.339 -0.354,-0.943 -0.584,-1.918 -0.878,-2.868 -0.05,-0.173 -0.302,-0.176 -0.48,-0.134 -0.169,0.403 -0.12,0.916 -0.12,1.351 0.404,3.572 1.257,7.044 3.003,10.152 0.795,1.556 1.562,2.953 2.393,4.47 0.234,0.43 0.629,0.818 1.202,0.957 C -0.72,0.266 -0.314,0.165 0,0" /></g><g
           transform="translate(44.9331,70.7695)"
           id="g42"><path
             id="path44"
             style="fill:#ffca0f;fill-opacity:1;fill-rule:nonzero;stroke:none"
             d="m 0,0 c 0.307,-0.514 0.011,-1.081 -0.129,-1.571 -1.216,-3.407 -3.495,-6.228 -5.325,-9.331 -1.566,-2.55 -2.591,-5.382 -3.633,-8.152 -0.361,-0.832 -0.492,-1.755 -0.928,-2.545 -0.036,-0.084 -0.15,-0.034 -0.225,-0.055 -0.271,0.226 -0.235,0.551 -0.298,0.839 0.206,3.465 1.543,6.595 2.798,9.724 1.57,3.487 3.676,6.82 5.106,10.427 0.201,0.454 0.594,1.011 1.201,1.184 C -0.824,0.608 -0.363,0.392 0,0" /></g></g></g><text
       id="text46"
       style="font-variant:normal;font-weight:900;font-stretch:normal;font-size:53.7521019px;font-family:Interstate;-inkscape-font-specification:Interstate-Black;writing-mode:lr-tb;fill:#ffffff;fill-opacity:1;fill-rule:nonzero;stroke:none"
       transform="matrix(1,0,0,-0.87755455,51.2715,43.3525)"><tspan
         id="tspan48"
         y="0"
         x="0 33.433807 64.717529 103.04278 141.04552 179.37076 195.55014 231.40279 246.50713 276.93082 315.25607 351.16248">RYANAIR LABS</tspan></text>
</g></svg>