<?xml version="1.0" encoding="UTF-8" standalone="no"?>
<!-- Created with Inkscape (http://www.inkscape.org/) -->

<svg
   xmlns:dc="http://purl.org/dc/elements/1.1/"
   xmlns:cc="http://creativecommons.org/ns#"
   xmlns:rdf="http://www.w3.org/1999/02/22-rdf-syntax-ns#"
   xmlns:svg="http://www.w3.org/2000/svg"
   xmlns="http://www.w3.org/2000/svg"
   xmlns:sodipodi="http://sodipodi.sourceforge.net/DTD/sodipodi-0.dtd"
   xmlns:inkscape="http://www.inkscape.org/namespaces/inkscape"
   id="svg2"
   version="1.1"
   inkscape:version="0.91 r13725"
   xml:space="preserve"
   width="633.31165"
   height="110"
   viewBox="0 0 633.31165 110"
   sodipodi:docname="thecocktail.svg"><metadata
     id="metadata8"><rdf:RDF><cc:Work
         rdf:about=""><dc:format>image/svg+xml</dc:format><dc:type
           rdf:resource="http://purl.org/dc/dcmitype/StillImage" /><dc:title></dc:title></cc:Work></rdf:RDF></metadata><defs
     id="defs6"><clipPath
       clipPathUnits="userSpaceOnUse"
       id="clipPath16"><path
         d="m 0,264.382 682,0 L 682,0 0,0 0,264.382 Z"
         id="path18"
         inkscape:connector-curvature="0" /></clipPath></defs><sodipodi:namedview
     pagecolor="#ffffff"
     bordercolor="#666666"
     borderopacity="1"
     objecttolerance="10"
     gridtolerance="10"
     guidetolerance="10"
     inkscape:pageopacity="0"
     inkscape:pageshadow="2"
     inkscape:window-width="1855"
     inkscape:window-height="1056"
     id="namedview4"
     showgrid="false"
     fit-margin-top="0"
     fit-margin-left="0"
     fit-margin-right="0"
     fit-margin-bottom="0"
     inkscape:zoom="0.47272727"
     inkscape:cx="64.925356"
     inkscape:cy="55.000121"
     inkscape:window-x="1985"
     inkscape:window-y="24"
     inkscape:window-maximized="1"
     inkscape:current-layer="g10" /><g
     id="g10"
     inkscape:groupmode="layer"
     inkscape:label="AF_THE-COCKTAIL_RGB"
     transform="matrix(1.25,0,0,-1.25,-109.59387,220.23863)"><g
       id="g12"><g
         id="g14"
         clip-path="url(#clipPath16)"><g
           id="g20"
           transform="translate(513.2084,112.998)"><path
             d="m 0,0 c -5.388,-0.332 -8.806,1.928 -8.806,7.849 l 0,15.1 8.346,0 0,9.51 -8.346,0 0,15.232 -10.053,0 0,-39.709 c 0,-11.708 6.571,-19.224 18.859,-17.894 L 0,0 Z m 81.116,47.691 -10.513,0 0,-56.872 10.513,0 0,56.872 z m -17.742,-15.232 -10.58,0 0,-41.64 10.58,0 0,41.64 z m -28.665,0 0,-4.39 C 31.49,31.462 27.087,33.39 22.028,33.39 11.383,33.39 2.511,24.013 2.511,11.64 c 0,-12.305 8.872,-21.684 19.517,-21.684 5.059,0 9.462,1.928 12.681,5.321 l 0,-4.786 11.097,0 0,41.968 -11.097,0 z M 23.67,-0.2 c -5.848,0 -10.579,5.122 -10.579,11.708 0,6.849 4.731,11.972 10.579,11.972 5.85,0 10.515,-5.322 10.515,-11.972 C 34.185,5.056 29.52,-0.2 23.67,-0.2 m -67.959,8.58 10.185,-17.561 13.471,0 -16.231,25.41 15.311,16.23 -14.522,0 -13.47,-15.099 0,30.331 -10.58,0 0,-56.872 10.58,0 0,11.974 5.256,5.587 z m -21.29,-3.458 -11.303,0 c -1.379,-2.927 -4.731,-5.388 -8.607,-5.388 -5.849,0 -10.58,5.454 -10.58,11.974 0,6.718 4.731,12.237 10.58,12.237 3.81,0 7.096,-2.394 8.542,-5.254 l 11.237,0 c -2.366,9.379 -9.857,15.033 -19.779,15.033 -12.42,0 -21.291,-9.844 -21.291,-21.884 0,-12.106 8.871,-21.751 21.291,-21.751 9.988,0 17.479,5.522 19.91,15.033 m -86.462,6.718 c 0,-12.505 9.266,-21.751 20.699,-21.751 11.434,0 20.765,9.246 20.765,21.751 0,12.438 -9.331,21.884 -20.765,21.884 -11.433,0 -20.699,-9.446 -20.699,-21.884 m 10.58,-0.132 c 0,7.248 4.534,12.237 10.119,12.237 5.586,0 10.185,-4.989 10.185,-12.237 0,-6.986 -4.599,-11.84 -10.185,-11.84 -5.585,0 -10.119,4.854 -10.119,11.84 m -14.048,-6.586 -11.237,0 c -1.379,-2.927 -4.731,-5.388 -8.608,-5.388 -5.848,0 -10.58,5.454 -10.58,11.974 0,6.718 4.732,12.237 10.58,12.237 3.811,0 7.097,-2.394 8.542,-5.254 l 11.237,0 c -2.365,9.379 -9.923,15.033 -19.779,15.033 -12.42,0 -21.291,-9.844 -21.291,-21.884 0,-12.106 8.871,-21.751 21.291,-21.751 9.988,0 17.479,5.522 19.845,15.033 m -65.974,11.041 c -1.708,6.785 -7.294,11.374 -13.274,11.374 -5.65,0 -11.697,-4.257 -13.405,-11.374 l 26.679,0 z m -0.657,-12.172 7.162,0 c -2.826,-8.913 -9.856,-13.902 -19.385,-13.902 -11.827,0 -21.093,9.511 -21.093,21.751 0,12.04 9.266,21.884 20.699,21.884 10.646,0 20.831,-8.913 20.765,-23.68 l -34.63,0 c 0.92,-8.648 7.492,-13.769 14.259,-13.769 5.849,0 9.989,2.861 12.223,7.716 m -37.587,12.105 c 0,10.377 -5.782,17.628 -15.836,17.628 -4.863,0 -8.937,-1.995 -11.763,-5.254 l 0,19.421 -6.768,0 0,-56.872 6.768,0 0,25.477 c 0,6.253 4.6,10.91 10.778,10.91 6.635,0 10.119,-4.59 10.119,-11.042 l 0,-25.345 6.702,0 0,25.077 z m -40.249,-19.412 c -4.901,-0.338 -9.286,1.553 -9.286,8.98 l 0,20.191 9.158,0 0,6.81 -9.158,0 0,15.268 -6.578,0 0,-15.268 -5.546,0 0,-6.81 5.546,0 0,-20.191 c 0,-10.667 6.513,-16.542 15.864,-15.395 l 0,6.415 z m 352.77,51.207 10.58,0 0,-10.709 -10.58,0 0,10.709 z"
             style="fill:#181818;fill-opacity:1;fill-rule:evenodd;stroke:none"
             id="path22"
             inkscape:connector-curvature="0" /></g><g
           id="g24"
           transform="translate(170.4521,176.1909)"><path
             d="m 0,0 -77.554,0 c -2.873,0 -5.223,-2.352 -5.223,-5.223 l 0,-77.554 c 0,-3.135 2.35,-5.223 5.223,-5.223 L 0,-88 c 2.873,0 5.223,2.088 5.223,5.223 l 0,77.554 C 5.223,-2.352 2.873,0 0,0"
             style="fill:#84ae09;fill-opacity:1;fill-rule:evenodd;stroke:none"
             id="path26"
             inkscape:connector-curvature="0" /></g><g
           id="g28"
           transform="translate(152.7045,111.1514)"><path
             d="m 0,0 c -14.104,-14.139 -34.989,-16.042 -46.38,-4.625 -11.662,11.694 -9.493,32.358 4.611,46.5 13.832,14.138 34.717,16.314 46.108,4.621 C 16.002,35.078 13.833,14.139 0,0"
             style="fill:#ffffff;fill-opacity:1;fill-rule:evenodd;stroke:none"
             id="path30"
             inkscape:connector-curvature="0" /></g><g
           id="g32"
           transform="translate(120.6474,118.4414)"><path
             d="m 0,0 4.139,4.139 c 0.752,0.752 0.752,1.969 0,2.721 -0.752,0.752 -1.971,0.752 -2.723,0 L -2.723,2.722 -6.861,6.86 c -0.752,0.752 -1.971,0.752 -2.723,0 -0.751,-0.752 -0.751,-1.969 0,-2.721 L -5.445,0 -9.584,-4.14 c -0.751,-0.752 -0.751,-1.969 0,-2.721 0.376,-0.376 0.869,-0.565 1.361,-0.565 0.493,0 0.986,0.189 1.362,0.565 l 4.138,4.138 4.139,-4.138 c 0.376,-0.376 0.869,-0.565 1.361,-0.565 0.493,0 0.986,0.189 1.362,0.565 0.752,0.752 0.752,1.969 0,2.721 L 0,0 Z"
             style="fill:#84ae09;fill-opacity:1;fill-rule:nonzero;stroke:none"
             id="path34"
             inkscape:connector-curvature="0" /></g></g></g></g></svg>