<svg xmlns="http://www.w3.org/2000/svg" width="1501.375" height="301.415" viewBox="0 0 1501.375 301.41501"><defs><clipPath id="a"><path d="M0 241.132h1201.097V0H0v241.132z"/></clipPath><clipPath id="b"><path d="M.885 240.226H1201.1V0H.885v240.226z"/></clipPath></defs><g clip-path="url(#a)" transform="matrix(1.25 0 0 -1.25 0 301.415)"><g clip-path="url(#b)"><path d="M417.884 75.697c-.986-.69-1.798-1.212-2.558-1.8-4.464-3.462-8.803-7.103-13.42-10.348-2.662-1.872-2.292-3.25-.607-5.566 15.692-21.566 36.12-36.875 60.869-46.608 2.514-.99 3.735-.434 5.01 1.905 2.937 5.391 5.944 10.78 9.413 15.833 2.52 3.672 1.227 4.712-2.3 6.05-21.345 8.097-39.968 20.144-54.284 38.262-.594.752-1.311 1.408-2.123 2.272m-80.066-19.386c-.42 1.566-1.293 2.702-2.431 3.751-4.644 4.28-9.375 8.481-13.77 13.007-2.34 2.411-3.725 2.933-5.974-.112-2.154-2.914-4.901-5.416-7.537-7.943-13.806-13.223-29.618-23.543-46.8-31.778-3.114-1.494-3.64-2.798-1.91-5.81 3.22-5.607 6.195-11.37 8.974-17.21 1.276-2.682 2.409-2.695 4.85-1.397 20.412 10.85 38.97 24.116 54.513 41.353 1.73 1.92 3.29 3.46 6.18 3.27 1.796-.118 3.692.513 3.905 2.87m554.368 17.772c0 15.81-.085 31.62.07 47.426.03 3.207-.74 4.458-4.12 4.237-4.308-.282-8.654-.205-12.973-.02-2.758.117-3.932-.692-3.76-3.623.213-3.648.05-7.319.05-10.98 0-27.624.072-55.249-.084-82.872-.021-3.704.884-5.064 4.7-4.742 3.965.335 7.993.257 11.972.017 3.2-.192 4.27.74 4.228 4.13-.19 15.473-.083 30.95-.083 46.427m-361.37 139.887c-5.161 0-10.33-.179-15.48.066-3.215.152-4.077-.806-4.283-4.119-1.233-19.807 2.05-39.087 6.18-58.3.458-2.126 1.084-3.493 3.813-3.4 6.65.228 13.318.203 19.972.011 2.634-.076 3.387 1.076 3.832 3.357 3.764 19.305 6.19 38.705 5.267 58.453-.162 3.456-1.261 4.122-4.322 3.99-4.985-.215-9.985-.058-14.98-.058M615.18 65.466c0 12.66.13 25.322-.083 37.978-.06 3.563.588 5.136 4.554 4.765 4.128-.386 8.324-.2 12.483-.054 4.27.15 9.948-1.874 12.39.924 2.089 2.39.312 7.953.73 12.063.404 3.952-1.19 4.632-4.77 4.605-20.99-.16-41.978-.06-62.966-.096-4.307-.007-10.183 1.447-12.524-.757-2.984-2.81-.538-8.777-1.038-13.343-.33-3 .988-3.544 3.669-3.485 7.325.164 14.667-.172 21.983.152 3.75.165 4.68-.88 4.644-4.63-.2-21.155-.12-42.31-.08-63.466.01-5.304-1.847-12.624.862-15.4 3.405-3.489 10.722-.662 16.318-1.168 3.137-.283 3.935.885 3.896 3.933-.163 12.657-.068 25.318-.068 37.98m429.975.493c0-12.83.094-25.66-.07-38.489-.04-3.082.875-4.104 3.937-3.935 4.153.228 8.345.295 12.488-.015 3.66-.274 4.81.754 4.77 4.622-.208 20.992-.122 41.988-.083 62.982.01 5.467-1.886 12.826.883 15.898 3.163 3.51 10.645.988 16.24 1.05 13.794.148 13.708.046 13.293 13.984-.085 2.852-.935 3.676-3.74 3.665-24.825-.089-49.651-.082-74.477-.007-2.502.007-3.624-.555-3.46-3.303.22-3.652.207-7.336.004-10.99-.145-2.594.658-3.427 3.313-3.362 7.16.178 14.338-.179 21.487.154 4.144.192 5.707-.583 5.552-5.27-.408-12.316-.138-24.654-.137-36.984M369.29 189.961c32.49 0 64.983-.012 97.474.014 4.48.003 10.433-1.513 13.057.747 3.056 2.633.45 8.791 1.073 13.352.658 4.825-1.031 6.064-5.905 6.022-29.49-.252-58.982-.142-88.473-.075-1.475.004-4.375-.915-4.251 1.02.335 5.217-2.554 10.921 1.872 15.638 2.796 2.983.85 4.484-1.9 5.302-6.352 1.893-12.907.717-19.371.96-2.476.092-1.83-1.904-1.844-3.25-.061-5.166-.271-10.347.057-15.49.233-3.628-1.057-4.344-4.451-4.31-17.494.173-34.99.08-52.485.08-13.996 0-27.994-.12-41.987.083-3.544.052-4.675-.993-4.39-4.464.287-3.476.348-7.023-.01-10.485-.423-4.079.788-5.276 5.065-5.253 35.489.192 70.979.11 106.469.11M790.18 80.727c0 14.646-.076 27.8.06 40.951.03 2.9-.49 4.27-3.786 4.062-4.478-.283-8.99-.169-13.482-.032-2.463.075-3.567-.548-3.56-3.307.078-31.804.075-63.607.005-95.41-.006-2.599.794-3.544 3.425-3.445 4.49.17 9 .23 13.482-.017 3.09-.17 4.01.832 3.927 3.925-.212 7.82-.01 15.651-.11 23.475-.027 2.143.444 3.824 2.082 5.3 5.068 4.571 10.052 9.238 15.128 13.922.327-.544 1.185-1.94 2.016-3.354 7.832-13.322 15.659-26.646 23.49-39.967.818-1.393 1.26-3.209 3.38-3.212 8.228-.01 16.456-.004 25.427-.004-1.421 2.264-2.274 3.664-3.168 5.04-11.676 17.987-23.3 36.01-35.102 53.913-1.69 2.564-1.73 4.011.568 6.231 6.099 5.895 11.892 12.107 17.785 18.213 5.705 5.913 11.384 11.851 17.913 18.651-9.558 0-17.827-.036-26.095.025-2.151.017-3.254-1.372-4.492-2.724a9298.336 9298.336 0 0 0-20.58-22.44c-5.804-6.306-11.64-12.586-18.312-19.796m-36.895-2.453c.228 7.403-1.774 18.22-7.827 28.024-13.004 21.062-39.266 24.956-61.177 18.145-6.67-2.073-12.091-6.079-16.834-11.154-11.151-11.932-13.602-26.59-13.272-42.093.844-39.603 39.517-62.388 74.636-43.74 18.642 9.896 24.403 26.99 24.474 50.818m203.478 49.03c-24.59 0-41.508-12.383-47.291-34.81-2.44-9.465-2.7-19.154-1.374-28.77 2.593-18.8 12.034-32.546 30.415-39.136 8.818-3.163 18.06-3.475 27.153-2.217 19.467 2.694 32.445 13.515 38.34 32.464 2.357 7.577 2.712 15.382 2.514 23.233-.765 30.342-19.871 49.236-49.757 49.236m-588.2 46.35c-24.49 0-48.98-.056-73.467.065-3.204.016-4.2-.767-4.181-4.127.148-26.32.114-52.643.03-78.965-.007-2.649.467-3.88 3.48-3.732 4.986.247 9.993.055 14.99.082.93.005 2.406-.286 2.443.967.08 2.753 1.93 2.172 3.485 2.174 14.16.017 28.32-.05 42.48.065 2.573.021 3.416-.623 3.398-3.308A4164.55 4164.55 0 0 1 361.2 35.9c.02-3.77-1.683-4.912-5.206-4.81-5.992.17-11.993.028-17.99.055-1.736.007-3.315.266-2.715-2.514 1.263-5.847 2.394-11.73 3.3-17.643.355-2.31 1.177-2.965 3.482-2.916 7.326.157 14.659.058 21.989.06 13.442 0 18.098 4.585 18.106 17.878.01 19.992.093 39.983-.08 59.973-.031 3.56 1.033 4.452 4.472 4.39 11.324-.207 22.655-.056 33.983-.11 1.229-.006 3.357.703 3.54-.795.577-4.678 3.962-2.973 6.413-3.125 3.154-.196 6.368.266 9.484-.124 4.29-.539 5.269 1.193 5.264 5.203-.03 25.815.06 51.631.383 77.445.052 4.151-1.34 4.89-5.093 4.866-23.99-.152-47.978-.078-71.967-.078M1201 23.132c0-6.83-.11-13.664.065-20.49.054-2.135-.387-2.965-2.56-2.53-.64.128-1.327.02-1.994.02C799.503.132 402.495.138 5.487.037 1.71.037.744.902.9 4.645 1.228 12.462 1 20.301 1 28.132c3.718-5.323 5.8-11.48 8.695-17.22 1.162-2.304 2.046-3.14 4.864-2.17 31.289 10.77 59.378 26.731 82.85 50.343 1.07 1.075 1.838 2.752 3.896 2.765.063-1.13.167-2.12.167-3.11.01-15.667.099-31.333-.065-46.997-.035-3.31.923-4.407 4.226-4.195 4.148.265 8.343.285 12.49-.004 3.519-.245 4.514.942 4.476 4.455-.177 16.33-.092 32.663-.058 48.995.004 1.703-.378 3.52.62 5.405 6.65-5.595 12.866-11.082 19.35-16.23 21.263-16.882 44.13-30.84 70.497-38.423 2.842-.818 4.107-.543 5.17 2.355 2.116 5.766 4.352 11.523 7.088 17.01 1.889 3.79 1.378 4.991-2.85 6.107-32.404 8.554-61.867 23.126-88.15 43.994-.908.721-2.537 1.005-2.36 2.918 11.712 0 23.366.01 35.02-.016 1.243-.003 3.17.342 2.828-1.709-.82-4.922 2.312-4.368 5.37-4.296 3.83.09 7.69.284 11.492-.054 3.705-.33 4.309 1.17 4.294 4.514-.13 28.831-.155 57.662.023 86.493.024 3.856-1.121 4.707-4.765 4.67-17.497-.179-34.996-.08-52.495-.08-11.25 0-11.052.004-11.256 11.137-.075 4.07 1.259 4.927 5.074 4.904 26.497-.155 52.996-.098 79.494-.065 4.14.005 9.648-1.345 12.065.758 2.817 2.452.813 8.111.909 12.37.157 6.893.042 6.896-6.722 6.896-28.665 0-57.33-.013-85.994.036-1.533.003-4.331-.775-4.367 1.048-.108 5.493-2.11 11.3 1.17 16.462 2.274 3.578 2.082 5.033-2.211 5.406-5.954.517-11.976.235-17.967.375-2.618.062-2.376-1.722-2.381-3.38-.015-5-.25-10.015.07-14.995.249-3.879-.9-5.074-4.922-5.047-26.497.184-52.996.145-79.494.05-4.951-.017-11.744 2.204-14.351-.94-2.488-3-.42-9.572-.88-14.524-.37-3.964 1.132-4.629 4.727-4.61 28.164.142 56.329.078 84.494.078 10.378 0 10.085-.01 10.479-10.436.183-4.868-1.58-5.662-5.905-5.614-19.163.21-38.331-.046-57.493.196-4.28.054-5.297-1.252-5.142-5.319.315-8.32.094-16.662.094-24.995 0-21.332.085-42.664-.084-63.994-.028-3.523.914-4.68 4.424-4.387 3.64.306 7.352.334 10.987 0 4.294-.396 6.563.651 5.726 5.486-.304 1.75-.48 3.648 2.505 3.624 12.589-.104 25.178-.044 38.97-.044C68.186 57.33 36.296 40.756 1 30.132c0 68.667.033 137.333-.096 206-.007 3.424.673 4.094 4.096 4.093 397.333-.099 794.666-.099 1192 0 3.423.001 4.103-.669 4.097-4.093-.13-69.666-.097-139.333-.097-209-1.68.862-1.692 2.676-2.274 4.125-12.007 29.901-24.048 59.79-35.87 89.764-1.462 3.71-3.305 5.08-7.254 4.735-4.464-.39-8.99-.174-13.486-.055-2.24.06-3.586-.445-4.503-2.812-12.417-32.05-24.932-64.067-37.491-96.064-1.127-2.87-.151-3.356 2.51-3.273 4.993.157 10.004.237 14.988-.027 2.932-.155 4.078 1.067 4.919 3.643 1.805 5.53 3.99 10.934 5.848 16.448.756 2.242 1.959 3.054 4.345 3.03 11.494-.11 22.99-.087 34.484-.017 2.154.013 3.24-.72 3.986-2.823 1.997-5.632 4.439-11.11 6.374-16.76.91-2.66 2.197-3.539 5.018-3.536 6.133.01 12.293.656 18.406-.378" fill="#fdfdfd" fill-rule="evenodd"/><path d="M146.065 101.128c6.825 0 13.652.11 20.474-.055 2.647-.064 3.484.788 3.352 3.404-.199 3.985-.253 8 .013 11.978.208 3.12-.864 3.974-3.918 3.915-9.485-.182-18.976-.032-28.464-.081-4.81-.025-11.429 1.673-13.978-.783-3.217-3.101-.737-9.74-1.069-14.838-.01-.166.02-.336-.004-.5-.336-2.427.756-3.132 3.12-3.087 6.822.133 13.65.047 20.474.047m-68.526 0c6.824 0 13.651.074 20.474-.041 2.377-.04 3.734.275 3.574 3.188-.238 4.315-.17 8.657-.02 12.979.085 2.452-.89 3.102-3.209 3.088-13.649-.081-27.3-.105-40.949.014-2.728.024-3.399-.987-3.296-3.503.172-4.155.208-8.33-.009-12.48-.144-2.751.961-3.345 3.46-3.293 6.656.14 13.316.048 19.975.048m68.516 36.155c6.661 0 13.33.166 19.982-.071 3.186-.114 4.038 1.009 3.867 4.007-.228 3.983-.174 7.995-.013 11.985.097 2.409-.762 3.16-3.14 3.147-13.657-.085-27.314-.103-40.97.013-2.676.024-3.469-.903-3.363-3.457.165-3.99.181-7.998-.005-11.987-.13-2.79.767-3.783 3.66-3.698 6.655.195 13.32.06 19.982.06m-68.557 0c3.164 0 6.33-.041 9.492.01 4.64.077 11.01-1.585 13.482.787 3.16 3.029.614 9.453 1.102 14.38.308 3.102-.83 3.982-3.909 3.922-9.656-.19-19.32.06-28.976-.125-4.742-.091-11.367 2.24-13.728-1.043-2.39-3.325-.605-9.584-.85-14.548-.129-2.614.768-3.493 3.403-3.432 6.658.155 13.322.05 19.984.05M1 30.132c35.295 10.624 67.185 27.197 94.691 53.996-13.792 0-26.38-.06-38.969.044-2.984.024-2.809-1.874-2.506-3.624.838-4.835-1.43-5.882-5.726-5.486-3.635.335-7.346.306-10.987 0-3.51-.293-4.45.865-4.423 4.387.17 21.33.084 42.662.084 63.994 0 8.333.221 16.674-.095 24.996-.154 4.066.863 5.373 5.142 5.318 19.163-.241 38.331.015 57.494-.195 4.324-.048 6.088.746 5.904 5.613-.394 10.426-.1 10.436-10.479 10.436-28.165 0-56.329.064-84.493-.078-3.596-.018-5.096.647-4.727 4.61.461 4.953-1.609 11.524.88 14.524 2.606 3.145 9.4.923 14.351.94 26.498.095 52.996.134 79.493-.05 4.023-.027 5.172 1.169 4.923 5.048-.319 4.979-.085 9.994-.07 14.994.004 1.658-.238 3.442 2.38 3.38 5.991-.14 12.013.142 17.968-.374 4.293-.373 4.484-1.83 2.211-5.407-3.28-5.163-1.278-10.968-1.17-16.462.035-1.823 2.833-1.045 4.367-1.047 28.664-.05 57.33-.037 85.993-.037 6.765 0 6.88-.003 6.723-6.896-.097-4.26 1.907-9.918-.91-12.37-2.417-2.103-7.923-.753-12.065-.758-26.498-.032-52.996-.09-79.493.065-3.816.023-5.15-.835-5.075-4.904.205-11.133.006-11.137 11.256-11.137 17.5 0 34.998-.098 52.496.08 3.643.038 4.788-.814 4.764-4.67-.178-28.83-.15-57.662-.023-86.493.015-3.344-.589-4.843-4.293-4.513-3.803.338-7.66.143-11.492.053-3.059-.072-6.19-.626-5.37 4.296.342 2.05-1.586 1.706-2.829 1.709-11.653.026-23.308.016-35.018.016-.179-1.913 1.45-2.196 2.358-2.918 26.283-20.867 55.747-35.44 88.151-43.994 4.227-1.115 4.74-2.317 2.85-6.107-2.736-5.487-4.973-11.244-7.088-17.01-1.063-2.898-2.329-3.172-5.17-2.355-26.368 7.582-49.235 21.54-70.497 38.423-6.485 5.148-12.7 10.636-19.349 16.23-1-1.885-.618-3.702-.62-5.405-.036-16.332-.12-32.665.057-48.995.038-3.513-.957-4.7-4.477-4.455-4.146.289-8.34.27-12.49.004-3.303-.212-4.26.886-4.226 4.195.164 15.664.076 31.33.066 46.996 0 .99-.104 1.98-.168 3.112-2.058-.014-2.825-1.691-3.894-2.766C73.937 35.474 45.847 19.513 14.56 8.742c-2.82-.97-3.704-.134-4.866 2.17C6.8 16.652 4.718 22.81 1 28.132v2z" fill="#343434" fill-rule="evenodd"/><path d="M1136.11 64.402h27.166l-13.755 36.887-13.412-36.887M1201 23.132c-6.114 1.034-12.274.387-18.407.378-2.82-.004-4.107.875-5.017 3.535-1.936 5.651-4.377 11.128-6.374 16.761-.745 2.102-1.832 2.836-3.987 2.823-11.494-.07-22.99-.093-34.484.017-2.386.024-3.589-.788-4.345-3.03-1.858-5.514-4.043-10.918-5.847-16.448-.84-2.577-1.988-3.798-4.919-3.643-4.985.264-9.995.184-14.989.027-2.66-.083-3.636.403-2.509 3.273 12.558 31.997 25.073 64.013 37.491 96.064.916 2.367 2.264 2.87 4.503 2.812 4.495-.119 9.021-.335 13.485.055 3.95.344 5.792-1.026 7.255-4.735 11.821-29.974 23.862-59.863 35.87-89.765.581-1.448.594-3.262 2.274-4.125v-4z" fill="#c10505" fill-rule="evenodd"/><path d="M367.97 156.292c-17.31 0-34.618-.087-51.926.076-3.268.031-4.157-.858-4.116-4.12.178-14.31.136-28.626.025-42.938-.021-2.782.317-4.096 3.687-4.088 35.113.077 70.228.005 105.342-.148 2.923-.012 3.572.949 3.549 3.69-.123 14.478-.154 28.96.016 43.437.038 3.259-.877 4.194-4.151 4.164-17.475-.156-34.95-.073-52.426-.073m.595 17.362c23.989 0 47.978-.074 71.968.078 3.752.024 5.144-.714 5.092-4.866-.322-25.813-.413-51.63-.383-77.445.005-4.01-.974-5.741-5.264-5.203-3.116.39-6.33-.072-9.484.124-2.451.152-5.836-1.553-6.412 3.125-.184 1.498-2.312.789-3.541.795-11.328.054-22.66-.097-33.983.11-3.44.063-4.503-.831-4.472-4.39.173-19.99.09-39.981.08-59.973-.008-13.293-4.664-17.878-18.106-17.879-7.33-.001-14.663.099-21.99-.059-2.304-.049-3.126.606-3.481 2.916-.906 5.912-2.037 11.796-3.3 17.643-.6 2.78.979 2.521 2.715 2.515 5.997-.028 11.998.113 17.99-.057 3.523-.101 5.227 1.04 5.206 4.811-.09 16.992-.096 33.986.022 50.977.019 2.686-.825 3.329-3.397 3.309-14.16-.117-28.321-.048-42.481-.066-1.554-.002-3.405.579-3.485-2.174-.036-1.253-1.512-.962-2.442-.966-4.998-.028-10.005.165-14.99-.083-3.014-.148-3.488 1.083-3.48 3.732.084 26.322.117 52.644-.031 78.965-.02 3.36.977 4.143 4.18 4.128 24.489-.121 48.979-.067 73.469-.067" fill="#353535" fill-rule="evenodd"/><path d="M984.981 75.718c.36 3.354-.27 7.479-1.09 11.556-2.654 13.17-11.672 21.306-24.555 22.303-12.844.995-23.669-5.578-27.696-17.503-4-11.847-4.03-23.92.481-35.666 4.011-10.445 13.77-16.743 24.886-16.746 11.566-.003 20.774 6.276 25.063 17.134 2.294 5.807 3.065 11.873 2.911 18.922m-28.218 51.588c29.886 0 48.992-18.895 49.757-49.236.198-7.852-.156-15.657-2.514-23.234-5.895-18.948-18.873-29.77-38.339-32.464-9.093-1.258-18.335-.945-27.154 2.217-18.38 6.59-27.822 20.335-30.415 39.136-1.326 9.616-1.065 19.305 1.374 28.769 5.783 22.428 22.701 34.812 47.291 34.812M675.866 74.833c-.295-5.596.384-11.36 2.364-16.905 4.138-11.585 14.535-18.734 26.384-18.261 12.276.489 21.818 7.829 25.187 19.767 2.665 9.443 2.88 19.055.6 28.619-3.322 13.927-12.924 21.618-26.62 21.552-13.836-.066-23.612-8.152-26.806-22.101-.935-4.089-1.246-8.215-1.109-12.671m77.42 3.442c-.07-23.828-5.832-40.921-24.475-50.819-35.119-18.646-73.792 4.139-74.635 43.741-.33 15.502 2.121 30.161 13.272 42.093 4.742 5.075 10.163 9.081 16.834 11.154 21.91 6.811 48.173 2.917 61.177-18.145 6.053-9.804 8.054-20.62 7.827-28.024" fill="#c00404" fill-rule="evenodd"/><path d="M790.18 80.728c6.674 7.21 12.509 13.49 18.314 19.797a9711.15 9711.15 0 0 1 20.58 22.438c1.237 1.353 2.34 2.742 4.49 2.725 8.269-.062 16.538-.025 26.096-.025-6.53-6.8-12.208-12.739-17.913-18.65-5.893-6.107-11.686-12.319-17.785-18.215-2.297-2.219-2.258-3.667-.568-6.23 11.802-17.904 23.426-35.926 35.102-53.913.894-1.376 1.748-2.777 3.168-5.04-8.971 0-17.2-.006-25.426.004-2.12.003-2.563 1.82-3.381 3.212-7.831 13.321-15.657 26.645-23.49 39.966-.831 1.413-1.69 2.811-2.016 3.355-5.076-4.685-10.06-9.35-15.128-13.922-1.638-1.477-2.108-3.157-2.081-5.3.1-7.824-.103-15.655.109-23.475.084-3.093-.837-4.095-3.926-3.925-4.483.246-8.993.185-13.483.016-2.631-.098-3.431.847-3.425 3.445.07 31.803.074 63.607-.005 95.411-.006 2.76 1.097 3.382 3.56 3.306 4.492-.136 9.004-.25 13.482.033 3.297.208 3.817-1.162 3.787-4.062-.137-13.152-.06-26.305-.06-40.95" fill="#c10606" fill-rule="evenodd"/><path d="M369.29 189.96c-35.49 0-70.98.084-106.47-.107-4.276-.024-5.488 1.173-5.065 5.253.359 3.46.298 7.008.012 10.484-.286 3.472.845 4.517 4.389 4.465 13.993-.204 27.991-.083 41.987-.083 17.495 0 34.991.093 52.485-.08 3.393-.035 4.683.68 4.451 4.308-.328 5.145-.118 10.325-.058 15.49.016 1.347-.631 3.343 1.845 3.25 6.464-.242 13.019.934 19.372-.958 2.749-.82 4.695-2.32 1.899-5.302-4.426-4.718-1.537-10.422-1.872-15.64-.124-1.933 2.776-1.015 4.251-1.018 29.491-.068 58.984-.177 88.473.075 4.874.042 6.563-1.198 5.905-6.023-.623-4.56 1.983-10.718-1.074-13.351-2.623-2.261-8.576-.744-13.056-.747-32.492-.027-64.983-.015-97.474-.015" fill="#353535" fill-rule="evenodd"/><path d="M1045.153 65.96c0 12.33-.27 24.668.138 36.984.154 4.687-1.409 5.462-5.552 5.27-7.149-.333-14.327.024-21.487-.153-2.656-.066-3.458.767-3.314 3.361a95.257 95.257 0 0 1-.003 10.99c-.165 2.748.957 3.311 3.46 3.303 24.825-.074 49.652-.082 74.478.008 2.803.01 3.653-.814 3.738-3.665.415-13.939.502-13.836-13.292-13.986-5.596-.06-13.077 2.461-16.24-1.049-2.77-3.072-.872-10.431-.883-15.898-.039-20.994-.125-41.989.083-62.981.04-3.869-1.11-4.897-4.77-4.622-4.143.309-8.335.243-12.489.014-3.06-.169-3.975.854-3.936 3.936.164 12.827.07 25.658.07 38.488M615.179 65.466c0-12.66-.095-25.321.068-37.98.039-3.046-.758-4.214-3.896-3.931-5.596.506-12.913-2.321-16.318 1.167-2.708 2.776-.851 10.097-.862 15.4-.04 21.156-.12 42.312.08 63.465.036 3.75-.894 4.796-4.644 4.63-7.316-.322-14.657.014-21.983-.15-2.681-.06-3.998.484-3.67 3.484.5 4.566-1.945 10.532 1.039 13.344 2.34 2.204 8.217.75 12.524.757 20.988.036 41.977-.066 62.966.095 3.58.028 5.175-.652 4.77-4.604-.418-4.111 1.359-9.673-.73-12.064-2.442-2.798-8.12-.773-12.39-.924-4.16-.147-8.355-.332-12.483.054-3.966.37-4.614-1.202-4.554-4.764.213-12.657.083-25.32.083-37.98" fill="#c10606" fill-rule="evenodd"/><path d="M530.815 213.972c4.994 0 9.994-.157 14.98.058 3.06.13 4.16-.535 4.322-3.991.924-19.748-1.503-39.147-5.268-58.453-.444-2.28-1.198-3.432-3.832-3.356-6.653.19-13.32.217-19.972-.011-2.729-.094-3.355 1.274-3.812 3.399-4.13 19.213-7.414 38.494-6.18 58.3.205 3.314 1.068 4.272 4.283 4.119 5.15-.245 10.318-.065 15.48-.065" fill="#353535" fill-rule="evenodd"/><path d="M892.186 74.084c0-15.477-.106-30.954.083-46.428.042-3.388-1.027-4.321-4.228-4.129-3.98.241-8.006.319-11.972-.016-3.816-.323-4.721 1.037-4.7 4.741.156 27.623.085 55.248.085 82.872 0 3.661.163 7.332-.051 10.981-.172 2.93 1.003 3.74 3.76 3.622 4.318-.185 8.665-.262 12.973.02 3.38.221 4.151-1.03 4.12-4.236-.155-15.808-.07-31.617-.07-47.427" fill="#c10808" fill-rule="evenodd"/><path d="M337.817 56.312c-.213-2.356-2.108-2.987-3.904-2.87-2.89.19-4.45-1.351-6.18-3.27C312.19 32.936 293.63 19.669 273.218 8.82c-2.44-1.298-3.574-1.285-4.85 1.396-2.779 5.84-5.752 11.604-8.973 17.21-1.73 3.013-1.205 4.317 1.911 5.81 17.18 8.236 32.992 18.555 46.798 31.779 2.637 2.525 5.384 5.027 7.537 7.942 2.25 3.045 3.635 2.524 5.975.113 4.394-4.528 9.126-8.729 13.77-13.008 1.137-1.049 2.011-2.186 2.43-3.75M417.884 75.697c.812-.864 1.529-1.52 2.123-2.272 14.316-18.118 32.939-30.165 54.285-38.263 3.526-1.337 4.82-2.377 2.299-6.049-3.47-5.054-6.476-10.442-9.413-15.833-1.275-2.339-2.496-2.895-5.01-1.905-24.75 9.733-45.177 25.042-60.87 46.608-1.684 2.316-2.054 3.694.608 5.566 4.617 3.245 8.956 6.886 13.42 10.348.76.588 1.572 1.11 2.558 1.8" fill="#353535" fill-rule="evenodd"/><path d="M77.498 137.284c-6.662 0-13.326.104-19.983-.05-2.635-.062-3.533.817-3.404 3.431.245 4.964-1.54 11.223.85 14.548 2.361 3.283 8.987.952 13.728 1.043 9.656.184 19.32-.065 28.976.125 3.079.06 4.217-.82 3.91-3.922-.489-4.927 2.058-11.35-1.102-14.38-2.474-2.372-8.843-.71-13.482-.786-3.164-.052-6.329-.01-9.493-.009M146.055 137.283c-6.662 0-13.327.134-19.983-.062-2.892-.084-3.788.91-3.659 3.7.186 3.988.17 7.996.005 11.986-.106 2.554.687 3.48 3.364 3.457 13.655-.116 27.312-.099 40.968-.014 2.38.015 3.238-.737 3.141-3.146-.16-3.99-.215-8.002.013-11.985.172-2.999-.68-4.122-3.867-4.007-6.653.237-13.32.071-19.982.071" fill="#f8f8f8" fill-rule="evenodd"/><path d="M77.54 101.128c-6.66 0-13.32.092-19.976-.048-2.499-.052-3.604.542-3.46 3.293.217 4.15.182 8.325.01 12.48-.104 2.516.568 3.527 3.296 3.503 13.65-.12 27.3-.095 40.948-.014 2.32.014 3.295-.636 3.21-3.088-.15-4.322-.218-8.664.02-12.98.16-2.912-1.198-3.227-3.575-3.187-6.823.115-13.649.04-20.474.04M146.065 101.128c-6.825 0-13.652.086-20.474-.047-2.364-.045-3.456.66-3.12 3.088.023.163-.007.333.004.499.332 5.098-2.148 11.737 1.07 14.838 2.548 2.456 9.166.758 13.977.783 9.488.049 18.98-.101 28.464.08 3.054.06 4.126-.794 3.918-3.914-.266-3.977-.212-7.993-.013-11.978.132-2.616-.705-3.468-3.352-3.404-6.822.165-13.649.055-20.474.055" fill="#fbfbfb" fill-rule="evenodd"/><path d="M1136.11 64.402l13.411 36.887 13.755-36.887h-27.167z" fill="#fdfafa" fill-rule="evenodd"/><path d="M367.97 156.292c17.476 0 34.95-.083 52.426.073 3.274.03 4.189-.905 4.15-4.164-.17-14.477-.138-28.959-.015-43.437.023-2.741-.626-3.702-3.55-3.69-35.113.153-70.228.225-105.341.148-3.37-.008-3.708 1.306-3.687 4.088.11 14.312.153 28.628-.025 42.938-.041 3.262.848 4.151 4.116 4.12 17.308-.163 34.617-.076 51.926-.076" fill="#fefefe" fill-rule="evenodd"/><path d="M984.981 75.718c.154-7.05-.617-13.115-2.91-18.922-4.29-10.858-13.498-17.137-25.064-17.134-11.116.003-20.875 6.3-24.886 16.746-4.51 11.747-4.482 23.819-.48 35.666 4.026 11.925 14.851 18.498 27.695 17.503 12.883-.997 21.901-9.132 24.554-22.303.82-4.077 1.451-8.202 1.091-11.556M675.866 74.833c-.137 4.456.174 8.582 1.11 12.671 3.193 13.949 12.97 22.035 26.804 22.101 13.697.066 23.3-7.625 26.62-21.552 2.28-9.564 2.066-19.176-.599-28.619-3.369-11.938-12.91-19.278-25.187-19.767-11.849-.473-22.246 6.676-26.384 18.261-1.98 5.545-2.659 11.309-2.364 16.905" fill="#fefdfd" fill-rule="evenodd"/></g></g></svg>