<?xml version="1.0" encoding="UTF-8" standalone="no"?>
<!-- Created with Inkscape (http://www.inkscape.org/) -->

<svg
   xmlns:dc="http://purl.org/dc/elements/1.1/"
   xmlns:cc="http://creativecommons.org/ns#"
   xmlns:rdf="http://www.w3.org/1999/02/22-rdf-syntax-ns#"
   xmlns:svg="http://www.w3.org/2000/svg"
   xmlns="http://www.w3.org/2000/svg"
   xmlns:sodipodi="http://sodipodi.sourceforge.net/DTD/sodipodi-0.dtd"
   xmlns:inkscape="http://www.inkscape.org/namespaces/inkscape"
   id="svg2"
   version="1.1"
   inkscape:version="0.91 r13725"
   xml:space="preserve"
   width="1501.375"
   height="301.41501"
   viewBox="0 0 1501.375 301.41501"
   sodipodi:docname="tokiota2.svg"><metadata
     id="metadata8"><rdf:RDF><cc:Work
         rdf:about=""><dc:format>image/svg+xml</dc:format><dc:type
           rdf:resource="http://purl.org/dc/dcmitype/StillImage" /><dc:title></dc:title></cc:Work></rdf:RDF></metadata><defs
     id="defs6"><clipPath
       clipPathUnits="userSpaceOnUse"
       id="clipPath16"><path
         d="m 0,241.132 1201.097,0 L 1201.097,0 0,0 0,241.132 Z"
         id="path18"
         inkscape:connector-curvature="0" /></clipPath><clipPath
       clipPathUnits="userSpaceOnUse"
       id="clipPath24"><path
         d="M 0.885254,240.226 1201.1,240.226 1201.1,0 0.885254,0 l 0,240.226 z"
         id="path26"
         inkscape:connector-curvature="0" /></clipPath></defs><sodipodi:namedview
     pagecolor="#ffffff"
     bordercolor="#666666"
     borderopacity="1"
     objecttolerance="10"
     gridtolerance="10"
     guidetolerance="10"
     inkscape:pageopacity="0"
     inkscape:pageshadow="2"
     inkscape:window-width="1855"
     inkscape:window-height="1056"
     id="namedview4"
     showgrid="false"
     inkscape:zoom="0.26642245"
     inkscape:cx="258.98719"
     inkscape:cy="150.7075"
     inkscape:window-x="1985"
     inkscape:window-y="24"
     inkscape:window-maximized="1"
     inkscape:current-layer="g10" /><g
     id="g10"
     inkscape:groupmode="layer"
     inkscape:label="Tokiota_Horizontal"
     transform="matrix(1.25,0,0,-1.25,0,301.415)"><g
       id="g12"><g
         id="g14"
         clip-path="url(#clipPath16)"><g
           id="g20"><g
             id="g22" /><g
             id="g28"><g
               clip-path="url(#clipPath24)"
               id="g30"><g
                 transform="translate(417.8838,75.6973)"
                 id="g32"><path
                   d="m 0,0 c -0.986,-0.691 -1.798,-1.212 -2.558,-1.8 -4.464,-3.462 -8.803,-7.103 -13.42,-10.348 -2.662,-1.872 -2.292,-3.25 -0.607,-5.566 15.692,-21.566 36.12,-36.875 60.869,-46.608 2.514,-0.99 3.735,-0.434 5.01,1.905 2.937,5.391 5.944,10.779 9.413,15.833 2.521,3.672 1.227,4.712 -2.299,6.049 C 35.062,-32.437 16.439,-20.39 2.123,-2.272 1.529,-1.52 0.812,-0.864 0,0 m -80.066,-19.386 c -0.419,1.566 -1.293,2.702 -2.431,3.751 -4.644,4.28 -9.375,8.481 -13.77,13.007 -2.339,2.411 -3.725,2.933 -5.974,-0.112 -2.154,-2.914 -4.901,-5.416 -7.537,-7.943 -13.806,-13.223 -29.618,-23.543 -46.799,-31.778 -3.115,-1.494 -3.641,-2.798 -1.91,-5.81 3.22,-5.607 6.194,-11.371 8.973,-17.21 1.276,-2.682 2.409,-2.695 4.85,-1.397 20.412,10.85 38.971,24.116 54.513,41.353 1.73,1.919 3.291,3.46 6.18,3.27 1.796,-0.118 3.692,0.513 3.905,2.869 m 554.368,17.773 c 0,15.809 -0.085,31.619 0.07,47.426 0.031,3.207 -0.739,4.458 -4.119,4.237 -4.309,-0.282 -8.655,-0.205 -12.974,-0.021 -2.758,0.118 -3.932,-0.691 -3.76,-3.622 0.213,-3.648 0.05,-7.319 0.05,-10.98 0,-27.624 0.072,-55.249 -0.084,-82.872 -0.021,-3.704 0.884,-5.064 4.7,-4.742 3.965,0.335 7.993,0.257 11.972,0.017 3.2,-0.192 4.27,0.74 4.228,4.129 -0.19,15.474 -0.083,30.951 -0.083,46.428 m -361.37,139.887 c -5.161,0 -10.33,-0.179 -15.479,0.066 -3.216,0.152 -4.078,-0.806 -4.284,-4.119 -1.233,-19.807 2.05,-39.087 6.181,-58.301 0.457,-2.125 1.083,-3.492 3.812,-3.399 6.651,0.228 13.318,0.203 19.972,0.011 2.634,-0.076 3.387,1.076 3.832,3.357 3.764,19.305 6.191,38.705 5.267,58.453 -0.162,3.456 -1.261,4.122 -4.322,3.99 -4.985,-0.215 -9.985,-0.058 -14.979,-0.058 m 84.363,-148.505 c 0,12.66 0.13,25.322 -0.083,37.978 -0.06,3.563 0.588,5.136 4.554,4.765 4.128,-0.386 8.324,-0.201 12.483,-0.054 4.27,0.15 9.948,-1.874 12.391,0.924 2.088,2.39 0.311,7.953 0.73,12.063 0.403,3.952 -1.19,4.632 -4.771,4.605 -20.989,-0.161 -41.978,-0.06 -62.966,-0.096 -4.307,-0.007 -10.183,1.447 -12.524,-0.757 -2.984,-2.811 -0.538,-8.777 -1.038,-13.343 -0.329,-3 0.988,-3.544 3.669,-3.485 7.325,0.164 14.667,-0.172 21.983,0.152 3.75,0.165 4.68,-0.88 4.644,-4.631 -0.199,-21.154 -0.119,-42.31 -0.08,-63.465 0.011,-5.304 -1.847,-12.624 0.862,-15.401 3.405,-3.488 10.722,-0.661 16.318,-1.167 3.137,-0.283 3.935,0.885 3.896,3.933 -0.163,12.657 -0.068,25.318 -0.068,37.979 m 429.975,0.494 c 0,-12.83 0.094,-25.661 -0.07,-38.489 -0.039,-3.082 0.875,-4.104 3.937,-3.935 4.153,0.228 8.345,0.295 12.488,-0.015 3.66,-0.274 4.81,0.754 4.771,4.622 -0.209,20.992 -0.123,41.988 -0.084,62.982 0.011,5.467 -1.886,12.826 0.883,15.898 3.163,3.51 10.645,0.988 16.241,1.049 13.793,0.149 13.707,0.047 13.292,13.985 -0.085,2.852 -0.935,3.676 -3.739,3.665 -24.826,-0.089 -49.652,-0.082 -74.478,-0.007 -2.502,0.007 -3.624,-0.555 -3.459,-3.303 0.219,-3.652 0.206,-7.336 0.003,-10.99 -0.145,-2.594 0.658,-3.427 3.313,-3.362 7.16,0.178 14.338,-0.179 21.487,0.154 4.144,0.192 5.707,-0.583 5.552,-5.27 C 626.999,14.931 627.269,2.593 627.27,-9.737 M -48.594,114.264 c 32.491,0 64.983,-0.012 97.474,0.014 4.48,0.003 10.433,-1.513 13.057,0.747 3.056,2.633 0.451,8.791 1.073,13.352 0.658,4.825 -1.031,6.064 -5.905,6.022 -29.489,-0.252 -58.982,-0.142 -88.473,-0.075 -1.475,0.004 -4.375,-0.915 -4.251,1.02 0.335,5.217 -2.554,10.921 1.872,15.638 2.796,2.983 0.851,4.484 -1.899,5.302 -6.353,1.893 -12.908,0.717 -19.372,0.959 -2.476,0.093 -1.829,-1.903 -1.844,-3.25 -0.061,-5.165 -0.271,-10.346 0.057,-15.49 0.233,-3.627 -1.057,-4.343 -4.451,-4.309 -17.494,0.173 -34.99,0.08 -52.485,0.08 -13.996,0 -27.994,-0.121 -41.987,0.083 -3.544,0.052 -4.675,-0.993 -4.389,-4.464 0.286,-3.476 0.347,-7.023 -0.011,-10.485 -0.423,-4.079 0.788,-5.276 5.065,-5.253 35.489,0.192 70.979,0.109 106.469,0.109 M 372.297,5.031 c 0,14.646 -0.077,27.799 0.059,40.951 0.031,2.9 -0.489,4.27 -3.786,4.062 -4.478,-0.283 -8.99,-0.169 -13.482,-0.032 -2.463,0.075 -3.567,-0.548 -3.56,-3.307 0.078,-31.804 0.075,-63.607 0.005,-95.411 -0.006,-2.598 0.794,-3.543 3.425,-3.444 4.49,0.169 9,0.229 13.482,-0.017 3.09,-0.17 4.011,0.832 3.927,3.925 -0.212,7.82 -0.01,15.651 -0.109,23.475 -0.028,2.143 0.443,3.824 2.081,5.3 5.068,4.571 10.052,9.238 15.128,13.922 0.327,-0.544 1.185,-1.941 2.016,-3.354 7.832,-13.322 15.659,-26.646 23.49,-39.967 0.818,-1.393 1.261,-3.209 3.381,-3.212 8.227,-0.01 16.455,-0.004 25.426,-0.004 -1.421,2.264 -2.274,3.664 -3.168,5.04 -11.676,17.987 -23.3,36.009 -35.102,53.913 -1.69,2.564 -1.729,4.011 0.568,6.231 6.099,5.895 11.892,12.107 17.785,18.213 5.705,5.913 11.384,11.851 17.913,18.651 -9.558,0 -17.827,-0.036 -26.095,0.025 -2.151,0.017 -3.254,-1.372 -4.492,-2.724 C 404.339,39.778 397.484,32.293 390.61,24.827 384.805,18.521 378.97,12.241 372.297,5.031 M 335.402,2.578 c 0.228,7.403 -1.774,18.22 -7.827,28.024 -13.004,21.062 -39.266,24.956 -61.177,18.145 -6.67,-2.073 -12.091,-6.079 -16.834,-11.154 C 238.413,25.661 235.962,11.002 236.292,-4.5 c 0.844,-39.603 39.517,-62.388 74.636,-43.741 18.642,9.897 24.403,26.991 24.474,50.819 m 203.478,49.03 c -24.59,0 -41.508,-12.383 -47.291,-34.811 -2.44,-9.464 -2.7,-19.153 -1.374,-28.77 2.593,-18.8 12.034,-32.545 30.415,-39.135 8.818,-3.163 18.06,-3.475 27.153,-2.217 19.467,2.694 32.445,13.515 38.34,32.464 2.357,7.577 2.712,15.382 2.514,23.233 -0.765,30.342 -19.871,49.236 -49.757,49.236 M -49.319,97.957 c -24.49,0 -48.98,-0.055 -73.468,0.066 -3.204,0.016 -4.2,-0.767 -4.181,-4.127 0.148,-26.321 0.114,-52.643 0.031,-78.965 -0.008,-2.649 0.466,-3.88 3.48,-3.732 4.985,0.247 9.992,0.055 14.99,0.082 0.93,0.005 2.405,-0.286 2.442,0.967 0.08,2.753 1.931,2.172 3.485,2.174 14.16,0.017 28.321,-0.051 42.481,0.065 2.572,0.021 3.415,-0.623 3.397,-3.308 -0.118,-16.991 -0.112,-33.986 -0.022,-50.977 0.021,-3.771 -1.683,-4.912 -5.206,-4.811 -5.992,0.17 -11.993,0.029 -17.99,0.056 -1.736,0.007 -3.315,0.266 -2.715,-2.514 1.263,-5.847 2.394,-11.731 3.3,-17.643 0.355,-2.311 1.177,-2.965 3.482,-2.916 7.326,0.157 14.659,0.058 21.989,0.059 13.442,10e-4 18.098,4.586 18.106,17.879 0.011,19.992 0.093,39.983 -0.08,59.973 -0.031,3.559 1.033,4.452 4.472,4.39 11.324,-0.207 22.655,-0.056 33.983,-0.111 1.229,-0.005 3.357,0.704 3.541,-0.794 0.576,-4.678 3.961,-2.973 6.412,-3.125 3.154,-0.196 6.368,0.266 9.484,-0.124 4.29,-0.539 5.269,1.193 5.264,5.203 -0.03,25.815 0.061,51.631 0.383,77.445 0.052,4.151 -1.34,4.89 -5.093,4.866 C -1.341,97.883 -25.33,97.957 -49.319,97.957 M 783.116,-52.565 c 0,-6.831 -0.109,-13.664 0.065,-20.491 0.054,-2.134 -0.387,-2.964 -2.559,-2.529 -0.641,0.128 -1.328,0.02 -1.995,0.02 -397.008,0 -794.016,0.006 -1191.024,-0.095 -3.776,-0.001 -4.743,0.865 -4.586,4.608 0.327,7.817 0.099,15.656 0.099,23.487 3.718,-5.323 5.8,-11.48 8.695,-17.22 1.162,-2.304 2.046,-3.14 4.864,-2.17 31.289,10.77 59.378,26.731 82.851,50.343 1.069,1.075 1.837,2.752 3.895,2.765 0.063,-1.131 0.167,-2.121 0.167,-3.111 0.011,-15.666 0.099,-31.332 -0.065,-46.996 -0.035,-3.31 0.923,-4.407 4.226,-4.195 4.148,0.265 8.343,0.285 12.49,-0.004 3.519,-0.245 4.514,0.942 4.476,4.455 -0.177,16.33 -0.092,32.663 -0.058,48.995 0.004,1.703 -0.378,3.519 0.621,5.405 6.65,-5.595 12.865,-11.082 19.349,-16.23 21.263,-16.882 44.13,-30.841 70.497,-38.423 2.842,-0.818 4.107,-0.543 5.171,2.355 2.115,5.766 4.351,11.523 7.087,17.01 1.889,3.79 1.378,4.991 -2.849,6.107 -32.405,8.554 -61.868,23.126 -88.151,43.994 -0.908,0.721 -2.537,1.005 -2.359,2.918 11.711,0 23.365,0.009 35.019,-0.016 1.243,-0.003 3.17,0.342 2.828,-1.709 -0.82,-4.922 2.312,-4.368 5.37,-4.296 3.831,0.09 7.69,0.284 11.492,-0.054 3.705,-0.33 4.309,1.169 4.294,4.514 -0.129,28.831 -0.155,57.662 0.023,86.493 0.024,3.856 -1.121,4.707 -4.765,4.67 -17.497,-0.179 -34.996,-0.08 -52.495,-0.08 -11.25,0 -11.052,0.004 -11.256,11.137 -0.075,4.069 1.259,4.927 5.074,4.904 26.497,-0.155 52.996,-0.098 79.494,-0.065 4.141,0.005 9.648,-1.345 12.065,0.758 2.817,2.452 0.813,8.111 0.909,12.37 0.157,6.893 0.042,6.896 -6.722,6.896 -28.665,0 -57.329,-0.013 -85.994,0.036 -1.533,0.003 -4.331,-0.775 -4.367,1.048 -0.108,5.493 -2.11,11.299 1.171,16.462 2.273,3.578 2.081,5.033 -2.212,5.406 -5.954,0.517 -11.976,0.235 -17.967,0.375 -2.618,0.062 -2.376,-1.722 -2.381,-3.381 -0.015,-5 -0.249,-10.014 0.07,-14.994 0.249,-3.879 -0.899,-5.074 -4.922,-5.047 -26.497,0.184 -52.996,0.145 -79.494,0.05 -4.951,-0.017 -11.744,2.204 -14.351,-0.94 -2.488,-3 -0.419,-9.572 -0.88,-14.524 -0.369,-3.964 1.132,-4.629 4.727,-4.61 28.164,0.142 56.329,0.078 84.494,0.078 10.378,0 10.085,-0.011 10.479,-10.436 0.183,-4.868 -1.58,-5.662 -5.905,-5.614 -19.163,0.21 -38.331,-0.046 -57.493,0.196 -4.28,0.054 -5.297,-1.252 -5.142,-5.319 0.315,-8.321 0.094,-16.662 0.094,-24.995 0,-21.332 0.085,-42.664 -0.084,-63.994 -0.028,-3.523 0.914,-4.681 4.424,-4.387 3.641,0.306 7.352,0.334 10.987,-0.001 4.294,-0.395 6.563,0.652 5.726,5.487 -0.304,1.75 -0.479,3.648 2.505,3.624 12.589,-0.104 25.178,-0.044 38.97,-0.044 -27.506,-26.799 -59.396,-43.372 -94.692,-53.996 0,68.667 0.033,137.333 -0.096,206 -0.007,3.424 0.673,4.094 4.096,4.093 397.333,-0.099 794.666,-0.099 1192,0 3.423,0.001 4.103,-0.669 4.097,-4.093 -0.129,-69.666 -0.097,-139.333 -0.097,-209 -1.679,0.862 -1.692,2.676 -2.274,4.125 -12.007,29.901 -24.048,59.79 -35.869,89.764 -1.463,3.709 -3.306,5.079 -7.255,4.735 -4.464,-0.39 -8.99,-0.174 -13.486,-0.055 -2.239,0.059 -3.586,-0.445 -4.503,-2.812 -12.417,-32.051 -24.932,-64.067 -37.491,-96.064 -1.127,-2.87 -0.151,-3.356 2.51,-3.273 4.993,0.157 10.004,0.237 14.988,-0.027 2.932,-0.155 4.078,1.067 4.919,3.643 1.805,5.53 3.99,10.934 5.848,16.448 0.756,2.242 1.959,3.054 4.345,3.03 11.494,-0.11 22.99,-0.087 34.484,-0.017 2.154,0.013 3.241,-0.721 3.986,-2.823 1.997,-5.632 4.439,-11.11 6.374,-16.761 0.911,-2.66 2.197,-3.538 5.018,-3.535 6.133,0.009 12.293,0.656 18.406,-0.378"
                   style="fill:#fdfdfd;fill-opacity:1;fill-rule:evenodd;stroke:none"
                   id="path34"
                   inkscape:connector-curvature="0" /></g><g
                 transform="translate(146.0654,101.1279)"
                 id="g36"><path
                   d="m 0,0 c 6.825,0 13.652,0.11 20.474,-0.055 2.647,-0.064 3.484,0.788 3.352,3.404 -0.199,3.985 -0.253,8.001 0.013,11.978 0.208,3.12 -0.864,3.974 -3.918,3.915 C 10.436,19.06 0.945,19.21 -8.543,19.161 c -4.811,-0.025 -11.429,1.673 -13.978,-0.783 -3.217,-3.101 -0.737,-9.74 -1.069,-14.838 -0.011,-0.166 0.019,-0.336 -0.004,-0.499 -0.336,-2.428 0.756,-3.133 3.12,-3.088 C -13.652,0.086 -6.825,0 0,0 m -68.526,0 c 6.824,0 13.651,0.074 20.474,-0.041 2.377,-0.04 3.734,0.275 3.574,3.188 -0.238,4.315 -0.17,8.657 -0.02,12.979 0.085,2.452 -0.89,3.102 -3.209,3.088 -13.649,-0.081 -27.3,-0.105 -40.949,0.014 -2.728,0.024 -3.399,-0.987 -3.296,-3.503 0.172,-4.155 0.208,-8.329 -0.009,-12.48 C -92.105,0.494 -91,-0.1 -88.501,-0.048 -81.845,0.092 -75.185,0 -68.526,0 M -0.01,36.155 c 6.661,0 13.329,0.166 19.982,-0.071 3.186,-0.114 4.038,1.009 3.867,4.007 -0.228,3.983 -0.174,7.995 -0.013,11.985 0.097,2.409 -0.762,3.161 -3.141,3.147 -13.656,-0.085 -27.313,-0.103 -40.969,0.013 -2.676,0.024 -3.469,-0.903 -3.363,-3.457 0.165,-3.99 0.181,-7.998 -0.005,-11.987 -0.13,-2.789 0.767,-3.783 3.659,-3.698 6.656,0.195 13.321,0.061 19.983,0.061 m -68.557,0 c 3.164,0 6.329,-0.042 9.492,0.01 4.639,0.076 11.009,-1.586 13.482,0.786 3.16,3.029 0.614,9.453 1.102,14.38 0.308,3.102 -0.831,3.982 -3.909,3.922 -9.656,-0.19 -19.32,0.06 -28.976,-0.125 -4.742,-0.091 -11.367,2.24 -13.728,-1.043 -2.391,-3.325 -0.605,-9.584 -0.851,-14.548 -0.128,-2.614 0.769,-3.493 3.404,-3.432 6.658,0.155 13.322,0.051 19.984,0.05 m -76.498,-107.151 c 35.295,10.624 67.185,27.197 94.691,53.996 -13.792,0 -26.381,-0.06 -38.969,0.044 -2.984,0.024 -2.809,-1.874 -2.506,-3.624 0.838,-4.835 -1.431,-5.882 -5.726,-5.486 -3.635,0.335 -7.346,0.306 -10.987,10e-4 -3.51,-0.294 -4.451,0.864 -4.423,4.386 0.169,21.33 0.084,42.662 0.084,63.994 0,8.333 0.221,16.674 -0.095,24.996 -0.154,4.066 0.863,5.373 5.142,5.318 19.163,-0.241 38.331,0.015 57.494,-0.195 4.324,-0.048 6.088,0.746 5.904,5.613 -0.394,10.426 -0.101,10.436 -10.479,10.436 -28.165,0 -56.329,0.064 -84.493,-0.078 -3.596,-0.018 -5.096,0.647 -4.727,4.611 0.461,4.952 -1.609,11.523 0.879,14.523 2.607,3.145 9.4,0.923 14.352,0.94 26.498,0.095 52.996,0.134 79.493,-0.049 4.023,-0.028 5.172,1.168 4.923,5.047 -0.319,4.979 -0.085,9.994 -0.071,14.994 0.005,1.658 -0.237,3.442 2.381,3.381 5.991,-0.141 12.013,0.141 17.968,-0.375 4.293,-0.373 4.484,-1.829 2.211,-5.407 -3.28,-5.163 -1.278,-10.968 -1.17,-16.462 0.035,-1.823 2.833,-1.045 4.367,-1.047 28.664,-0.049 57.329,-0.037 85.993,-0.037 6.765,0 6.879,-0.003 6.723,-6.896 C 73.797,97.369 75.801,91.71 72.984,89.259 70.567,87.155 65.061,88.505 60.919,88.5 34.421,88.468 7.923,88.41 -18.574,88.565 c -3.816,0.023 -5.15,-0.835 -5.075,-4.904 0.205,-11.133 0.006,-11.137 11.256,-11.137 17.499,0 34.998,-0.098 52.496,0.08 3.643,0.038 4.788,-0.814 4.764,-4.669 -0.178,-28.831 -0.151,-57.663 -0.023,-86.494 0.015,-3.344 -0.589,-4.843 -4.293,-4.513 -3.803,0.338 -7.661,0.143 -11.492,0.053 -3.059,-0.072 -6.191,-0.626 -5.371,4.296 0.343,2.051 -1.585,1.706 -2.828,1.709 -11.653,0.026 -23.308,0.016 -35.018,0.016 -0.179,-1.913 1.45,-2.196 2.358,-2.918 26.283,-20.867 55.747,-35.439 88.151,-43.994 4.227,-1.115 4.739,-2.317 2.849,-6.107 -2.735,-5.487 -4.972,-11.244 -7.087,-17.009 -1.063,-2.899 -2.329,-3.173 -5.171,-2.356 -26.367,7.582 -49.234,21.541 -70.496,38.423 -6.485,5.148 -12.7,10.636 -19.349,16.23 -1,-1.885 -0.618,-3.702 -0.621,-5.405 -0.035,-16.332 -0.12,-32.665 0.058,-48.995 0.038,-3.513 -0.957,-4.7 -4.477,-4.455 -4.146,0.289 -8.341,0.27 -12.49,0.004 -3.303,-0.212 -4.26,0.886 -4.226,4.195 0.164,15.664 0.076,31.33 0.066,46.996 -10e-4,0.991 -0.104,1.981 -0.168,3.112 -2.058,-0.014 -2.825,-1.691 -3.894,-2.766 -23.473,-23.611 -51.563,-39.572 -82.851,-50.343 -2.819,-0.969 -3.703,-0.134 -4.865,2.17 -2.895,5.74 -4.976,11.898 -8.694,17.22 l 0,2 z"
                   style="fill:#343434;fill-opacity:1;fill-rule:evenodd;stroke:none"
                   id="path38"
                   inkscape:connector-curvature="0" /></g><g
                 transform="translate(1136.1094,64.4023)"
                 id="g40"><path
                   d="M 0,0 27.167,0 C 22.621,12.191 18.225,23.981 13.412,36.887 8.689,23.897 4.435,12.197 0,0 m 64.891,-41.271 c -6.114,1.035 -12.274,0.388 -18.407,0.379 -2.821,-0.004 -4.107,0.875 -5.017,3.535 -1.936,5.651 -4.377,11.128 -6.374,16.761 -0.745,2.102 -1.832,2.836 -3.987,2.823 -11.494,-0.07 -22.99,-0.093 -34.484,0.017 -2.386,0.024 -3.589,-0.788 -4.345,-3.03 -1.858,-5.514 -4.043,-10.918 -5.847,-16.448 -0.841,-2.577 -1.988,-3.798 -4.919,-3.643 -4.985,0.264 -9.995,0.184 -14.989,0.027 -2.661,-0.083 -3.636,0.403 -2.509,3.273 12.558,31.997 25.073,64.013 37.491,96.064 0.916,2.367 2.264,2.87 4.503,2.812 4.495,-0.119 9.021,-0.335 13.485,0.055 3.949,0.344 5.792,-1.026 7.255,-4.735 11.821,-29.974 23.862,-59.863 35.869,-89.765 0.582,-1.448 0.595,-3.262 2.275,-4.125 l 0,-4 z"
                   style="fill:#c10505;fill-opacity:1;fill-rule:evenodd;stroke:none"
                   id="path42"
                   inkscape:connector-curvature="0" /></g><g
                 transform="translate(367.9697,156.292)"
                 id="g44"><path
                   d="m 0,0 c -17.309,0 -34.618,-0.087 -51.926,0.076 -3.268,0.031 -4.157,-0.858 -4.116,-4.12 0.178,-14.31 0.136,-28.626 0.025,-42.938 -0.021,-2.782 0.317,-4.096 3.687,-4.088 35.113,0.077 70.228,0.005 105.342,-0.148 2.923,-0.012 3.572,0.949 3.549,3.69 -0.123,14.478 -0.154,28.96 0.016,43.437 C 56.615,-0.832 55.7,0.103 52.426,0.073 34.951,-0.083 17.476,0 0,0 m 0.595,17.362 c 23.989,0 47.978,-0.074 71.968,0.078 3.752,0.024 5.144,-0.714 5.092,-4.866 -0.322,-25.813 -0.413,-51.63 -0.383,-77.445 0.005,-4.01 -0.974,-5.741 -5.264,-5.203 -3.116,0.39 -6.33,-0.072 -9.484,0.124 -2.451,0.152 -5.836,-1.553 -6.412,3.125 -0.184,1.498 -2.312,0.789 -3.541,0.795 -11.328,0.054 -22.659,-0.097 -33.983,0.11 -3.439,0.063 -4.503,-0.831 -4.472,-4.39 0.173,-19.99 0.091,-39.981 0.08,-59.973 -0.008,-13.293 -4.664,-17.878 -18.106,-17.879 -7.33,-0.001 -14.663,0.099 -21.989,-0.059 -2.305,-0.049 -3.127,0.606 -3.482,2.916 -0.906,5.912 -2.037,11.796 -3.3,17.643 -0.6,2.78 0.979,2.521 2.715,2.515 5.997,-0.028 11.998,0.113 17.99,-0.057 3.523,-0.101 5.227,1.04 5.206,4.811 -0.09,16.992 -0.096,33.986 0.022,50.977 0.019,2.686 -0.825,3.329 -3.397,3.309 -14.16,-0.117 -28.321,-0.048 -42.481,-0.066 -1.554,-0.002 -3.405,0.579 -3.485,-2.174 -0.036,-1.253 -1.512,-0.962 -2.442,-0.966 -4.998,-0.028 -10.005,0.165 -14.99,-0.083 -3.014,-0.148 -3.488,1.083 -3.479,3.732 0.083,26.322 0.116,52.644 -0.032,78.965 -0.019,3.36 0.977,4.143 4.181,4.128 24.488,-0.121 48.978,-0.067 73.468,-0.067"
                   style="fill:#353535;fill-opacity:1;fill-rule:evenodd;stroke:none"
                   id="path46"
                   inkscape:connector-curvature="0" /></g><g
                 transform="translate(984.9814,75.7178)"
                 id="g48"><path
                   d="m 0,0 c 0.36,3.354 -0.271,7.479 -1.091,11.556 -2.653,13.171 -11.671,21.306 -24.554,22.303 -12.844,0.995 -23.669,-5.578 -27.696,-17.503 -4.001,-11.847 -4.03,-23.919 0.481,-35.666 4.011,-10.445 13.77,-16.743 24.886,-16.746 11.566,-0.003 20.774,6.276 25.063,17.134 C -0.617,-13.115 0.154,-7.049 0,0 M -28.218,51.588 C 1.668,51.588 20.774,32.693 21.539,2.352 21.737,-5.5 21.383,-13.305 19.025,-20.882 13.13,-39.83 0.152,-50.651 -19.314,-53.346 c -9.093,-1.258 -18.335,-0.945 -27.154,2.217 -18.381,6.591 -27.822,20.335 -30.415,39.136 -1.326,9.616 -1.065,19.305 1.374,28.769 5.783,22.428 22.701,34.812 47.291,34.812"
                   style="fill:#c00404;fill-opacity:1;fill-rule:evenodd;stroke:none"
                   id="path50"
                   inkscape:connector-curvature="0" /></g><g
                 transform="translate(675.8662,74.833)"
                 id="g52"><path
                   d="m 0,0 c -0.295,-5.596 0.384,-11.36 2.364,-16.905 4.138,-11.585 14.535,-18.734 26.384,-18.261 12.276,0.489 21.818,7.829 25.187,19.767 C 56.6,-5.956 56.814,3.656 54.534,13.22 51.213,27.147 41.611,34.838 27.914,34.772 14.079,34.706 4.303,26.62 1.109,12.671 0.174,8.582 -0.137,4.456 0,0 m 77.42,3.442 c -0.071,-23.828 -5.832,-40.921 -24.475,-50.819 -35.119,-18.646 -73.792,4.139 -74.635,43.741 -0.331,15.502 2.121,30.161 13.272,42.093 4.742,5.075 10.163,9.081 16.834,11.154 21.91,6.811 48.173,2.917 61.177,-18.145 6.053,-9.804 8.054,-20.62 7.827,-28.024"
                   style="fill:#c00404;fill-opacity:1;fill-rule:evenodd;stroke:none"
                   id="path54"
                   inkscape:connector-curvature="0" /></g><g
                 transform="translate(790.1807,80.7285)"
                 id="g56"><path
                   d="m 0,0 c 6.673,7.21 12.508,13.489 18.313,19.796 6.874,7.466 13.729,14.951 20.58,22.439 1.237,1.353 2.34,2.742 4.491,2.725 8.268,-0.062 16.537,-0.025 26.095,-0.025 C 62.95,38.135 57.271,32.196 51.566,26.284 45.673,20.178 39.88,13.966 33.781,8.07 31.484,5.851 31.523,4.403 33.213,1.84 c 11.802,-17.904 23.426,-35.926 35.102,-53.913 0.894,-1.376 1.748,-2.777 3.168,-5.04 -8.971,0 -17.199,-0.006 -25.426,0.004 -2.119,0.003 -2.563,1.819 -3.381,3.212 -7.831,13.321 -15.657,26.645 -23.489,39.966 -0.832,1.413 -1.69,2.811 -2.017,3.355 -5.076,-4.685 -10.06,-9.351 -15.128,-13.922 -1.638,-1.477 -2.108,-3.157 -2.081,-5.3 0.1,-7.824 -0.103,-15.655 0.109,-23.475 0.084,-3.093 -0.837,-4.095 -3.926,-3.925 -4.483,0.246 -8.993,0.185 -13.483,0.016 -2.631,-0.098 -3.431,0.847 -3.425,3.445 0.07,31.803 0.074,63.607 -0.005,95.411 -0.006,2.759 1.097,3.382 3.56,3.306 4.492,-0.136 9.004,-0.251 13.482,0.033 C -0.43,45.221 0.09,43.851 0.06,40.951 -0.077,27.799 0,14.646 0,0"
                   style="fill:#c10606;fill-opacity:1;fill-rule:evenodd;stroke:none"
                   id="path58"
                   inkscape:connector-curvature="0" /></g><g
                 transform="translate(369.29,189.9609)"
                 id="g60"><path
                   d="m 0,0 c -35.49,0 -70.98,0.083 -106.47,-0.108 -4.276,-0.024 -5.488,1.173 -5.065,5.253 0.359,3.461 0.298,7.008 0.012,10.484 -0.286,3.472 0.845,4.517 4.389,4.465 13.993,-0.204 27.991,-0.083 41.987,-0.083 17.495,0 34.991,0.093 52.485,-0.08 3.393,-0.035 4.683,0.681 4.451,4.308 -0.328,5.145 -0.118,10.325 -0.058,15.49 0.016,1.347 -0.631,3.343 1.845,3.25 6.464,-0.242 13.019,0.934 19.372,-0.958 2.749,-0.819 4.695,-2.32 1.899,-5.302 -4.426,-4.718 -1.537,-10.422 -1.872,-15.639 -0.124,-1.934 2.776,-1.016 4.251,-1.019 29.491,-0.068 58.984,-0.177 88.473,0.075 4.874,0.042 6.563,-1.198 5.905,-6.023 C 110.981,9.553 113.587,3.395 110.53,0.762 107.907,-1.499 101.954,0.018 97.474,0.015 64.982,-0.012 32.491,0 0,0"
                   style="fill:#353535;fill-opacity:1;fill-rule:evenodd;stroke:none"
                   id="path62"
                   inkscape:connector-curvature="0" /></g><g
                 transform="translate(1045.1533,65.96)"
                 id="g64"><path
                   d="m 0,0 c -0.001,12.33 -0.271,24.668 0.138,36.984 0.154,4.687 -1.409,5.462 -5.552,5.27 -7.149,-0.333 -14.327,0.024 -21.487,-0.153 -2.656,-0.066 -3.458,0.767 -3.314,3.361 0.203,3.654 0.217,7.338 -0.003,10.99 -0.165,2.748 0.957,3.311 3.459,3.303 24.826,-0.074 49.653,-0.082 74.479,0.008 2.803,0.01 3.653,-0.814 3.738,-3.665 C 51.873,42.159 51.96,42.262 38.166,42.112 32.57,42.052 25.089,44.573 21.926,41.063 19.156,37.991 21.054,30.632 21.043,25.165 21.004,4.171 20.918,-16.824 21.126,-37.816 c 0.039,-3.869 -1.11,-4.897 -4.771,-4.622 -4.142,0.309 -8.334,0.243 -12.488,0.014 -3.061,-0.169 -3.975,0.854 -3.936,3.936 C 0.095,-25.661 0,-12.83 0,0"
                   style="fill:#c10606;fill-opacity:1;fill-rule:evenodd;stroke:none"
                   id="path66"
                   inkscape:connector-curvature="0" /></g><g
                 transform="translate(615.1787,65.4658)"
                 id="g68"><path
                   d="m 0,0 c 0,-12.66 -0.095,-25.321 0.068,-37.979 0.039,-3.047 -0.758,-4.215 -3.896,-3.932 -5.596,0.506 -12.913,-2.321 -16.318,1.167 -2.708,2.776 -0.851,10.097 -0.862,15.4 -0.039,21.156 -0.119,42.312 0.08,63.465 0.036,3.751 -0.894,4.796 -4.644,4.631 -7.316,-0.323 -14.657,0.013 -21.983,-0.151 -2.681,-0.06 -3.998,0.484 -3.669,3.484 0.5,4.566 -1.946,10.532 1.038,13.344 2.341,2.204 8.217,0.75 12.524,0.757 20.988,0.036 41.977,-0.066 62.966,0.095 3.581,0.028 5.175,-0.652 4.771,-4.604 -0.419,-4.111 1.358,-9.673 -0.73,-12.064 C 26.902,40.815 21.224,42.84 16.954,42.689 12.795,42.542 8.599,42.357 4.471,42.743 0.505,43.114 -0.143,41.541 -0.083,37.979 0.13,25.322 0,12.66 0,0"
                   style="fill:#c10606;fill-opacity:1;fill-rule:evenodd;stroke:none"
                   id="path70"
                   inkscape:connector-curvature="0" /></g><g
                 transform="translate(530.8154,213.9717)"
                 id="g72"><path
                   d="m 0,0 c 4.994,0 9.994,-0.157 14.979,0.058 3.061,0.131 4.161,-0.535 4.323,-3.991 0.924,-19.748 -1.503,-39.147 -5.268,-58.453 -0.444,-2.28 -1.198,-3.432 -3.832,-3.356 -6.653,0.191 -13.321,0.217 -19.972,-0.011 -2.729,-0.094 -3.355,1.274 -3.812,3.399 -4.131,19.213 -7.414,38.494 -6.181,58.3 0.206,3.314 1.069,4.272 4.284,4.119 C -10.33,-0.18 -5.161,0 0,0"
                   style="fill:#353535;fill-opacity:1;fill-rule:evenodd;stroke:none"
                   id="path74"
                   inkscape:connector-curvature="0" /></g><g
                 transform="translate(892.1855,74.084)"
                 id="g76"><path
                   d="m 0,0 c 0,-15.477 -0.106,-30.954 0.083,-46.428 0.042,-3.388 -1.027,-4.321 -4.228,-4.129 -3.979,0.241 -8.006,0.319 -11.972,-0.016 -3.816,-0.323 -4.721,1.037 -4.699,4.741 0.155,27.623 0.084,55.248 0.084,82.872 0,3.661 0.163,7.332 -0.051,10.981 -0.172,2.93 1.003,3.74 3.761,3.622 4.318,-0.185 8.665,-0.262 12.973,0.02 3.38,0.221 4.151,-1.03 4.119,-4.236 C -0.085,31.619 0,15.81 0,0"
                   style="fill:#c10808;fill-opacity:1;fill-rule:evenodd;stroke:none"
                   id="path78"
                   inkscape:connector-curvature="0" /></g><g
                 transform="translate(337.8174,56.3115)"
                 id="g80"><path
                   d="m 0,0 c -0.213,-2.356 -2.108,-2.987 -3.904,-2.869 -2.89,0.189 -4.45,-1.352 -6.181,-3.271 -15.542,-17.236 -34.101,-30.503 -54.513,-41.352 -2.441,-1.298 -3.574,-1.285 -4.85,1.396 -2.779,5.84 -5.752,11.604 -8.973,17.21 -1.731,3.013 -1.205,4.317 1.911,5.811 17.18,8.235 32.992,18.554 46.798,31.778 2.637,2.526 5.384,5.028 7.537,7.943 2.249,3.044 3.635,2.523 5.975,0.112 C -11.806,12.231 -7.074,8.03 -2.431,3.751 -1.293,2.702 -0.419,1.565 0,0"
                   style="fill:#353535;fill-opacity:1;fill-rule:evenodd;stroke:none"
                   id="path82"
                   inkscape:connector-curvature="0" /></g><g
                 transform="translate(417.8838,75.6973)"
                 id="g84"><path
                   d="m 0,0 c 0.812,-0.864 1.529,-1.52 2.123,-2.272 14.316,-18.118 32.939,-30.165 54.285,-38.263 3.526,-1.337 4.82,-2.377 2.299,-6.049 -3.469,-5.054 -6.476,-10.442 -9.413,-15.833 -1.275,-2.339 -2.496,-2.895 -5.01,-1.905 -24.749,9.733 -45.177,25.042 -60.869,46.608 -1.685,2.316 -2.055,3.694 0.607,5.566 4.617,3.245 8.956,6.886 13.42,10.348 0.76,0.588 1.572,1.109 2.558,1.8"
                   style="fill:#353535;fill-opacity:1;fill-rule:evenodd;stroke:none"
                   id="path86"
                   inkscape:connector-curvature="0" /></g><g
                 transform="translate(77.498,137.2842)"
                 id="g88"><path
                   d="m 0,0 c -6.662,0 -13.326,0.104 -19.983,-0.051 -2.635,-0.061 -3.533,0.818 -3.404,3.432 0.245,4.964 -1.54,11.223 0.85,14.548 2.361,3.283 8.987,0.952 13.728,1.043 9.656,0.184 19.32,-0.065 28.976,0.125 3.079,0.06 4.217,-0.821 3.91,-3.922 C 23.588,10.248 26.135,3.824 22.975,0.795 20.501,-1.577 14.132,0.085 9.493,0.009 6.329,-0.043 3.164,-0.001 0,0"
                   style="fill:#f8f8f8;fill-opacity:1;fill-rule:evenodd;stroke:none"
                   id="path90"
                   inkscape:connector-curvature="0" /></g><g
                 transform="translate(146.0552,137.2832)"
                 id="g92"><path
                   d="m 0,0 c -6.662,0 -13.327,0.134 -19.983,-0.062 -2.892,-0.084 -3.788,0.91 -3.659,3.699 0.186,3.989 0.17,7.997 0.005,11.987 -0.106,2.554 0.687,3.48 3.364,3.457 13.655,-0.116 27.312,-0.099 40.968,-0.014 2.38,0.015 3.238,-0.737 3.141,-3.146 C 23.675,11.931 23.621,7.919 23.849,3.936 24.021,0.937 23.168,-0.186 19.982,-0.071 13.329,0.166 6.662,0 0,0"
                   style="fill:#f8f8f8;fill-opacity:1;fill-rule:evenodd;stroke:none"
                   id="path94"
                   inkscape:connector-curvature="0" /></g><g
                 transform="translate(77.5391,101.1279)"
                 id="g96"><path
                   d="m 0,0 c -6.659,0 -13.319,0.092 -19.975,-0.048 -2.499,-0.052 -3.604,0.542 -3.46,3.293 0.217,4.151 0.182,8.325 0.01,12.48 -0.104,2.516 0.568,3.527 3.296,3.503 13.649,-0.119 27.299,-0.095 40.948,-0.014 2.319,0.014 3.295,-0.636 3.209,-3.088 -0.15,-4.322 -0.217,-8.664 0.02,-12.979 0.16,-2.913 -1.197,-3.228 -3.574,-3.188 C 13.651,0.074 6.825,0 0,0"
                   style="fill:#fbfbfb;fill-opacity:1;fill-rule:evenodd;stroke:none"
                   id="path98"
                   inkscape:connector-curvature="0" /></g><g
                 transform="translate(146.0654,101.1279)"
                 id="g100"><path
                   d="m 0,0 c -6.825,0 -13.652,0.086 -20.474,-0.047 -2.364,-0.045 -3.456,0.66 -3.12,3.088 0.023,0.163 -0.007,0.333 0.004,0.499 0.332,5.098 -2.148,11.737 1.069,14.838 2.549,2.456 9.167,0.758 13.978,0.783 9.488,0.049 18.979,-0.101 28.464,0.081 3.054,0.059 4.126,-0.795 3.918,-3.915 C 23.573,11.35 23.627,7.334 23.826,3.349 23.958,0.733 23.121,-0.119 20.474,-0.055 13.652,0.11 6.825,0 0,0"
                   style="fill:#fbfbfb;fill-opacity:1;fill-rule:evenodd;stroke:none"
                   id="path102"
                   inkscape:connector-curvature="0" /></g><g
                 transform="translate(1136.1094,64.4023)"
                 id="g104"><path
                   d="M 0,0 C 4.435,12.197 8.689,23.897 13.412,36.887 18.225,23.981 22.621,12.191 27.167,0 L 0,0 Z"
                   style="fill:#fdfafa;fill-opacity:1;fill-rule:evenodd;stroke:none"
                   id="path106"
                   inkscape:connector-curvature="0" /></g><g
                 transform="translate(367.9697,156.292)"
                 id="g108"><path
                   d="m 0,0 c 17.476,0 34.951,-0.083 52.426,0.073 3.274,0.03 4.189,-0.905 4.151,-4.164 -0.17,-14.477 -0.139,-28.959 -0.016,-43.437 0.023,-2.741 -0.626,-3.702 -3.549,-3.69 -35.114,0.153 -70.229,0.225 -105.342,0.148 -3.37,-0.008 -3.708,1.306 -3.687,4.088 0.111,14.312 0.153,28.628 -0.025,42.938 -0.041,3.262 0.848,4.151 4.116,4.12 C -34.618,-0.087 -17.309,0 0,0"
                   style="fill:#fefefe;fill-opacity:1;fill-rule:evenodd;stroke:none"
                   id="path110"
                   inkscape:connector-curvature="0" /></g><g
                 transform="translate(984.9814,75.7178)"
                 id="g112"><path
                   d="M 0,0 C 0.154,-7.049 -0.617,-13.115 -2.911,-18.922 -7.2,-29.78 -16.408,-36.059 -27.974,-36.056 c -11.116,0.003 -20.875,6.301 -24.886,16.746 -4.511,11.747 -4.482,23.819 -0.481,35.666 4.027,11.925 14.852,18.498 27.696,17.503 C -12.762,32.862 -3.744,24.727 -1.091,11.556 -0.271,7.479 0.36,3.354 0,0"
                   style="fill:#fefdfd;fill-opacity:1;fill-rule:evenodd;stroke:none"
                   id="path114"
                   inkscape:connector-curvature="0" /></g><g
                 transform="translate(675.8662,74.833)"
                 id="g116"><path
                   d="M 0,0 C -0.137,4.456 0.174,8.582 1.109,12.671 4.303,26.62 14.079,34.706 27.914,34.772 41.611,34.838 51.213,27.147 54.534,13.22 56.814,3.656 56.6,-5.956 53.935,-15.399 50.566,-27.337 41.024,-34.677 28.748,-35.166 16.899,-35.639 6.502,-28.49 2.364,-16.905 0.384,-11.36 -0.295,-5.596 0,0"
                   style="fill:#fefdfd;fill-opacity:1;fill-rule:evenodd;stroke:none"
                   id="path118"
                   inkscape:connector-curvature="0" /></g></g></g></g></g></g></g></svg>