<?xml version="1.0" encoding="UTF-8" standalone="no"?>
<svg
   xmlns:dc="http://purl.org/dc/elements/1.1/"
   xmlns:cc="http://creativecommons.org/ns#"
   xmlns:rdf="http://www.w3.org/1999/02/22-rdf-syntax-ns#"
   xmlns:svg="http://www.w3.org/2000/svg"
   xmlns="http://www.w3.org/2000/svg"
   viewBox="0 0 410 87.5"
   height="87.5"
   width="410"
   xml:space="preserve"
   version="1.1"
   id="svg2"><metadata
     id="metadata8"><rdf:RDF><cc:Work
         rdf:about=""><dc:format>image/svg+xml</dc:format><dc:type
           rdf:resource="http://purl.org/dc/dcmitype/StillImage" /><dc:title></dc:title></cc:Work></rdf:RDF></metadata><defs
     id="defs6"><clipPath
       id="clipPath16"
       clipPathUnits="userSpaceOnUse"><path
         id="path18"
         d="M 0,70 328,70 328,0 0,0 0,70 Z" /></clipPath></defs><g
     transform="matrix(1.25,0,0,-1.25,0,87.5)"
     id="g10"><g
       id="g12"><g
         clip-path="url(#clipPath16)"
         id="g14"><g
           transform="translate(49.8662,28.7002)"
           id="g20"><path
             id="path22"
             style="fill:#1d1d1b;fill-opacity:1;fill-rule:nonzero;stroke:none"
             d="m 0,0 c -0.802,-3.741 -2.284,-7.238 -4.426,-10.357 -0.635,-0.936 -1.657,-1.441 -2.713,-1.441 -0.627,0 -1.274,0.19 -1.84,0.582 -1.508,1.016 -1.884,3.049 -0.857,4.558 1.643,2.41 2.789,5.121 3.422,8.027 0.691,3.221 0.691,6.611 0,9.818 -0.633,2.905 -1.779,5.616 -3.422,8.045 -1.027,1.492 -0.651,3.529 0.877,4.554 1.486,1.015 3.525,0.632 4.533,-0.875 C -2.284,19.79 -0.802,16.318 0,12.553 0.884,8.46 0.884,4.104 0,0 m -17.773,12.945 c -0.794,-0.788 -1.897,-1.24 -3.039,-1.24 -1.128,0 -2.239,0.452 -3.035,1.24 -0.798,0.804 -1.265,1.919 -1.265,3.051 0,1.129 0.467,2.22 1.265,3.027 1.594,1.613 4.492,1.613 6.074,0 0.798,-0.807 1.258,-1.898 1.258,-3.027 0,-1.132 -0.46,-2.247 -1.258,-3.051 m 0.094,-13.546 -4.451,-9.133 c -0.566,-1.191 -1.766,-1.874 -2.986,-1.874 -0.488,0 -0.988,0.124 -1.459,0.329 -1.652,0.806 -2.341,2.811 -1.529,4.445 l 4.432,9.16 c 0.814,1.663 2.808,2.35 4.45,1.528 1.663,-0.803 2.35,-2.79 1.543,-4.455 m 21.603,38.434 -36.305,0 c -7.596,0 -13.754,-6.158 -13.754,-13.754 l 0,-36.306 c 0,-7.595 6.158,-13.753 13.754,-13.753 l 36.305,0 c 7.597,0 13.755,6.158 13.755,13.753 l 0,36.306 c 0,7.596 -6.158,13.754 -13.755,13.754" /></g><g
           transform="translate(92.6436,19.9932)"
           id="g24"><path
             id="path26"
             style="fill:#1d1d1b;fill-opacity:1;fill-rule:nonzero;stroke:none"
             d="m 0,0 0,23.029 13.531,0 0,11.419 -13.531,0 0,12.093 -13.531,-1.345 0,-45.007 c 0,-17.656 17.273,-19.286 29.557,-16.215 l -2.88,10.075 C 6.91,-7.197 0,-6.718 0,0" /></g><g
           transform="translate(146.1113,17.8818)"
           id="g28"><path
             id="path30"
             style="fill:#1d1d1b;fill-opacity:1;fill-rule:nonzero;stroke:none"
             d="m 0,0 c -17.273,-5.278 -19.194,-1.056 -19.194,8.827 l 0,27.733 -13.433,0 0,-30.612 c 0,-13.912 6.431,-21.11 17.56,-21.11 2.303,0 7.101,1.055 18.52,4.991 l 1.729,-3.744 8.252,0 0,50.475 L 0,36.56 0,0 Z" /></g><g
           transform="translate(288.2266,19.9932)"
           id="g32"><path
             id="path34"
             style="fill:#1d1d1b;fill-opacity:1;fill-rule:nonzero;stroke:none"
             d="m 0,0 0,23.029 13.532,0 0,11.419 -13.532,0 0,12.093 -13.53,-1.345 0,-45.007 c 0,-17.656 17.273,-19.286 29.556,-16.215 l -2.88,10.075 C 6.91,-7.197 0,-6.718 0,0" /></g><path
           id="path36"
           style="fill:#1d1d1b;fill-opacity:1;fill-rule:nonzero;stroke:none"
           d="m 309.435,3.967 13.34,0 0,50.475 -13.34,0 0,-50.475 z" /><g
           transform="translate(249.8428,55.6895)"
           id="g38"><path
             id="path40"
             style="fill:#1d1d1b;fill-opacity:1;fill-rule:nonzero;stroke:none"
             d="m 0,0 c -2.303,0 -7.196,-1.055 -18.711,-4.99 l -1.728,3.742 -8.251,0 0,-50.475 13.433,0 0,36.561 c 17.465,5.374 19.481,1.056 19.481,-8.828 l 0,-27.733 13.433,0 0,30.613 C 17.657,-7.197 11.227,0 0,0" /></g><g
           transform="translate(190.3477,43.6934)"
           id="g42"><path
             id="path44"
             style="fill:#1d1d1b;fill-opacity:1;fill-rule:nonzero;stroke:none"
             d="m 0,0 c 5.565,0.289 9.596,-2.207 11.611,-7.196 l -23.798,-5.95 C -11.707,-5.757 -6.621,-0.383 0,0 m 1.919,-29.556 c -4.894,0.288 -9.308,1.537 -11.707,5.952 l 34.642,8.54 C 24.47,-0.287 17.082,11.899 0.576,11.899 c -13.722,0 -25.238,-10.843 -25.238,-26.772 0,-15.16 10.172,-26.101 26.965,-26.101 8.061,0 13.915,1.824 17.849,3.359 l -3.167,10.171 c -4.606,-1.63 -9.98,-2.303 -15.066,-2.112" /></g></g></g></g></svg>