<?xml version="1.0" encoding="UTF-8" standalone="no"?>
<svg
   xmlns:dc="http://purl.org/dc/elements/1.1/"
   xmlns:cc="http://creativecommons.org/ns#"
   xmlns:rdf="http://www.w3.org/1999/02/22-rdf-syntax-ns#"
   xmlns:svg="http://www.w3.org/2000/svg"
   xmlns="http://www.w3.org/2000/svg"
   viewBox="0 0 584.97626 79.203747"
   height="79.203751"
   width="584.97626"
   xml:space="preserve"
   version="1.1"
   id="svg2"><metadata
     id="metadata8"><rdf:RDF><cc:Work
         rdf:about=""><dc:format>image/svg+xml</dc:format><dc:type
           rdf:resource="http://purl.org/dc/dcmitype/StillImage" /><dc:title></dc:title></cc:Work></rdf:RDF></metadata><defs
     id="defs6"><clipPath
       id="clipPath16"
       clipPathUnits="userSpaceOnUse"><path
         id="path18"
         d="m 0,841.89 595.276,0 L 595.276,0 0,0 0,841.89 Z" /></clipPath></defs><g
     transform="matrix(1.25,0,0,-1.25,-81.250375,564.99987)"
     id="g10"><g
       id="g12"><g
         clip-path="url(#clipPath16)"
         id="g14"><g
           transform="translate(337.0293,448.1899)"
           id="g20"><path
             id="path22"
             style="fill:#231f20;fill-opacity:1;fill-rule:evenodd;stroke:none"
             d="m 0,0 0,-25.723 17.48,0.063 c 3.735,0.011 6.653,0.401 8.855,0.758 2.992,0.49 5.39,1.717 7.175,3.741 1.817,2.012 2.697,5.225 2.697,9.624 0,3.594 -0.906,6.227 -2.719,7.896 -1.811,1.655 -4.029,2.678 -6.594,3.073 C 24.296,-0.189 20.925,0 16.747,0 L 0,0 Z m -17.547,-57.205 0,57.205 -15.56,0 0,2.366 54.206,0 19.486,-0.126 c 10.436,-0.064 13.097,-8.483 13.097,-14.151 0,-7.671 -1.819,-13.907 -13.038,-16.035 -0.201,-0.043 -1.676,-0.112 -3.763,-0.19 l 16.442,-29.069 13.291,0 0,-2.348 -29.839,0 -17.983,31.46 -18.792,0.009 0,-29.121 15.563,0 0,-2.343 -48.67,0 0,2.343 15.56,0 z m -119.828,19.313 28.705,0 -13.951,24.79 -0.274,0 -14.48,-24.79 z m 30.516,-2.345 -31.418,0 -10.125,-16.956 18.306,0 0,-2.351 -35.853,0 0,2.351 13.649,0 36.074,61.003 2.266,0 34.594,-61.003 13.297,0 0,-2.351 -47.133,0 0,2.351 15.989,0 -9.646,16.956 z m 231.984,2.335 28.704,0 -13.949,24.791 -0.279,0 -14.476,-24.791 z m 30.037,-2.344 -31.423,0 -10.119,-16.959 18.3,0 0,-2.343 -35.849,0 0,2.343 13.645,0 36.08,61.003 2.265,0 34.594,-61.003 13.297,0 0,-2.343 -47.138,0 0,2.343 15.989,0 -9.641,16.959 z m -351.359,-19.302 -75.832,0 0,2.343 56.799,57.205 -23.317,0 -23.721,0 -1.354,-14.259 -3.472,0 1.56,16.625 70.948,0 0,-1.677 -57.684,-57.894 52.374,-0.009 1.434,17.974 3.876,0 -1.611,-20.308 z" /></g></g></g></g></svg>