<?xml version="1.0" encoding="UTF-8" standalone="no"?>
<svg
   xmlns:dc="http://purl.org/dc/elements/1.1/"
   xmlns:cc="http://creativecommons.org/ns#"
   xmlns:rdf="http://www.w3.org/1999/02/22-rdf-syntax-ns#"
   xmlns:svg="http://www.w3.org/2000/svg"
   xmlns="http://www.w3.org/2000/svg"
   viewBox="0 0 343.97501 103.6625"
   height="103.6625"
   width="343.97501"
   xml:space="preserve"
   version="1.1"
   id="svg2"><metadata
     id="metadata8"><rdf:RDF><cc:Work
         rdf:about=""><dc:format>image/svg+xml</dc:format><dc:type
           rdf:resource="http://purl.org/dc/dcmitype/StillImage" /><dc:title></dc:title></cc:Work></rdf:RDF></metadata><defs
     id="defs6" /><g
     transform="matrix(1.25,0,0,-1.25,0,103.6625)"
     id="g10"><g
       transform="scale(0.1,0.1)"
       id="g12"><path
         id="path14"
         style="fill:#f79118;fill-opacity:1;fill-rule:evenodd;stroke:none"
         d="M 1707.19,180.738 C 1547.3,62.7422 1315.51,0 1115.9,0 836.16,0 584.242,103.406 393.613,275.531 c -14.965,13.524 -1.617,31.977 16.375,21.512 205.672,-119.68 460.02,-191.758 722.712,-191.758 177.21,0 372,36.778 551.25,112.809 27.03,11.465 49.69,-17.809 23.24,-37.356" /><path
         id="path16"
         style="fill:#f79118;fill-opacity:1;fill-rule:evenodd;stroke:none"
         d="m 1773.72,256.699 c -20.45,26.18 -135.17,12.406 -186.72,6.231 -15.61,-1.875 -18.03,11.773 -3.96,21.648 91.53,64.281 241.49,45.727 258.92,24.199 17.55,-21.703 -4.62,-172.058 -90.38,-243.8082 -13.2,-11.0313 -25.75,-5.1446 -19.89,9.4257 19.3,48.1995 62.5,156.1015 42.03,182.3045" /><path
         id="path18"
         style="fill:#303843;fill-opacity:1;fill-rule:evenodd;stroke:none"
         d="m 1590.63,738.691 0,62.465 c 0.06,9.512 7.21,15.84 15.84,15.809 l 279.96,0.031 c 8.95,0 16.14,-6.516 16.14,-15.758 l 0,-53.57 c -0.09,-8.996 -7.66,-20.711 -21.08,-39.324 L 1736.47,501.297 c 53.83,1.258 110.77,-6.813 159.68,-34.301 11.03,-6.195 13.99,-15.367 14.85,-24.371 l 0,-66.656 c 0,-9.172 -10.05,-19.809 -20.62,-14.266 -86.16,45.133 -200.51,50.063 -295.79,-0.562 -9.74,-5.18 -19.92,5.297 -19.92,14.492 l 0,63.347 c 0,10.149 0.19,27.481 10.42,42.93 l 168.01,241.035 -146.29,0.016 c -8.94,0 -16.12,6.371 -16.18,15.73" /><path
         id="path20"
         style="fill:#303843;fill-opacity:1;fill-rule:evenodd;stroke:none"
         d="m 2144.35,735.805 c -62.81,0 -66.77,-85.524 -66.77,-138.883 0,-53.352 -0.79,-167.406 66,-167.406 65.99,0 69.16,91.984 69.16,148.074 0,36.789 -1.59,80.949 -12.74,115.91 -9.53,30.359 -28.62,42.305 -55.65,42.305 z m -0.77,89.238 c 126.4,0 194.76,-108.555 194.76,-246.523 0,-133.36 -75.5,-239.168 -194.76,-239.168 -124.03,0 -191.62,108.57 -191.62,243.765 0,136.145 68.37,241.926 191.62,241.926" /><path
         id="path22"
         style="fill:#303843;fill-opacity:1;fill-rule:evenodd;stroke:none"
         d="m 1453.36,349.656 c -5.63,-5.058 -15.92,-5.226 -20.12,-1.98 -29.1,22.515 -48.82,56.754 -48.82,56.754 -46.76,-47.621 -79.87,-61.914 -140.42,-61.914 -71.7,0 -127.48,44.261 -127.48,132.75 0,69.136 37.44,116.152 90.83,139.195 46.2,20.289 110.75,23.973 160.13,29.516 0,0 4.13,53.367 -10.34,72.82 -11.21,15.082 -30.29,22.133 -47.8,22.133 -31.6,0.129 -62.12,-17.055 -68.18,-50.11 -1.73,-9.449 -8.71,-17.386 -16.06,-16.593 l -81.56,8.836 c -6.25,0.722 -14.73,7.164 -12.72,17.812 18.97,100.141 109.4,130.391 190.46,130.391 41.43,0 95.61,-11.047 128.28,-42.407 41.42,-38.714 37.45,-90.347 37.45,-146.593 l 0,-132.664 c 0,-39.934 16.57,-57.434 32.13,-78.926 5.43,-7.774 6.67,-16.973 -0.26,-22.645 -17.41,-14.586 -65.52,-56.375 -65.52,-56.375 z m -85.88,207.66 c 0,-33.203 0.81,-60.836 -15.92,-90.351 -13.54,-23.953 -35.06,-38.719 -58.96,-38.719 -32.66,0 -51.79,24.902 -51.79,61.781 0,72.539 65.08,85.719 126.67,85.719 l 0,-18.43" /><path
         id="path24"
         style="fill:#303843;fill-opacity:1;fill-rule:evenodd;stroke:none"
         d="m 336.836,349.656 c -5.629,-5.058 -15.926,-5.226 -20.121,-1.98 -29.102,22.515 -48.82,56.754 -48.82,56.754 C 221.133,356.809 188.027,342.516 127.477,342.516 55.7695,342.516 0,386.777 0,475.266 c 0,69.136 37.4375,116.152 90.8281,139.195 46.1989,20.289 110.7499,23.973 160.1329,29.516 0,0 4.121,53.367 -10.344,72.82 -11.215,15.082 -30.293,22.133 -47.804,22.133 -31.594,0.129 -62.122,-17.055 -68.176,-50.11 -1.735,-9.449 -8.707,-17.386 -16.059,-16.593 l -81.5663,8.836 c -6.25,0.722 -14.7304,7.164 -12.7187,17.812 18.9687,100.141 109.398,130.391 190.465,130.391 41.43,0 95.609,-11.047 128.277,-42.407 41.418,-38.714 37.449,-90.347 37.449,-146.593 l 0,-132.664 c 0,-39.934 16.571,-57.434 32.133,-78.926 5.43,-7.774 6.672,-16.973 -0.265,-22.645 -17.403,-14.586 -65.516,-56.375 -65.516,-56.375 z m -85.875,207.66 c 0,-33.203 0.801,-60.836 -15.93,-90.351 -13.535,-23.953 -35.058,-38.719 -58.961,-38.719 -32.656,0 -51.785,24.902 -51.785,61.781 0,72.539 65.082,85.719 126.676,85.719 l 0,-18.43" /><path
         id="path26"
         style="fill:#303843;fill-opacity:1;fill-rule:evenodd;stroke:none"
         d="m 585.906,596.008 c 0,50.59 -2.39,120.48 58.832,120.48 60.41,0 52.461,-71.734 52.461,-120.48 l 0.086,-231.746 c 0,-8.387 6.738,-15.149 15.297,-15.696 l 85.07,0 c 9.075,0 16.418,7.008 16.418,15.727 l 0,231.715 c 0,24.84 -0.789,61.617 7.95,83.707 8.753,22.074 30.218,35.875 50.898,35.875 24.633,0 43.715,-8.289 50.074,-37.735 3.981,-17.472 2.391,-63.476 2.391,-81.847 l 0.027,-231.746 c 0,-8.387 6.723,-15.149 15.278,-15.696 l 85.062,0 c 9.09,0 16.43,7.008 16.43,15.727 l 0.08,275.859 c 0,46.918 5.55,100.254 -21.48,137.055 -23.846,33.121 -62.8,47.836 -98.577,47.836 -50.086,0 -96.992,-25.762 -117.672,-80.953 -23.847,55.191 -57.246,80.953 -110.508,80.953 -52.46,0 -91.421,-25.762 -112.085,-80.953 l -1.606,0 0,55.82 c 0,8.789 -7.121,15.91 -15.91,15.91 l -79.477,0 c -8.785,0 -15.91,-7.121 -15.91,-15.91 l 0,-435.433 c 0,-8.786 7.125,-15.911 15.91,-15.911 l 85.047,0 c 8.789,0 15.91,7.125 15.91,15.911 l 0.004,231.531" /><path
         id="path28"
         style="fill:#303843;fill-opacity:1;fill-rule:evenodd;stroke:none"
         d="m 2518.91,364.477 c 0,-8.786 -7.12,-15.911 -15.91,-15.911 l -85.05,0 c -8.78,0 -15.91,7.125 -15.91,15.911 l 0,435.433 c 0,8.789 7.13,15.91 15.91,15.91 l 78.64,0 c 9.21,0 15.91,-7.41 15.91,-12.429 l 0,-66.657 1.64,0 c 23.86,59.809 57.23,88.309 116.06,88.309 38.17,0 75.54,-13.789 99.39,-51.52 22.26,-34.945 22.26,-93.808 22.26,-136.128 l 0,-275.075 c -0.95,-7.734 -7.91,-13.754 -16.33,-13.754 l -85.37,0 c -7.89,0.504 -14.25,6.305 -15.16,13.754 l 0.14,264.133 c 0,88.367 -33.86,90.965 -53.4,90.965 -22.73,0 -41.01,-17.742 -49.01,-34.309 -11.92,-26.687 -13.82,-53.988 -13.82,-83.449 l 0.01,-235.183" /></g></g></svg>