<svg xmlns="http://www.w3.org/2000/svg" xmlns:xlink="http://www.w3.org/1999/xlink" viewBox="0 0 1920 548">
  <defs>
    <style>
      .cls-1 {
        fill: url(#linear-gradient);
      }

      .cls-2 {
        fill: url(#linear-gradient-2);
      }

      .cls-3 {
        clip-path: url(#clip-Logo_anfix_2018_Copy_1);
      }

      .cls-4 {
        clip-path: url(#clip-path);
      }

      .cls-5 {
        clip-path: url(#clip-path-2);
      }

      .cls-6 {
        fill: #323748;
      }
    </style>
    <linearGradient id="linear-gradient" y1="0.948" x2="1.156" y2="0.044" gradientUnits="objectBoundingBox">
      <stop offset="0" stop-color="#3ac98b"/>
      <stop offset="1" stop-color="#0adea0"/>
    </linearGradient>
    <linearGradient id="linear-gradient-2" x1="0.632" y1="0.87" x2="-0.164" y2="-0.149" xlink:href="#linear-gradient"/>
    <clipPath id="clip-path">
      <path id="Clip_5" data-name="Clip 5" class="cls-1" d="M74.321,148.622A74.311,74.311,0,1,0,0,74.3,74.32,74.32,0,0,0,74.321,148.622Z"/>
    </clipPath>
    <clipPath id="clip-path-2">
      <path id="Clip_2" data-name="Clip 2" class="cls-2" d="M85.958,114.347l-7.991,8.069a57.542,57.542,0,0,0,0,79.525l48.741,49.592a57.542,57.542,0,0,1,0,79.525l-48.741,49.65a56.918,56.918,0,0,0-15.982,39.182v2.264a55.156,55.156,0,0,0,16.253,38.563l5.379,5.186,2.341,2.322a54.86,54.86,0,0,0,39.55,16.273,57.172,57.172,0,0,0,40.324-15.982L215.4,419.736a57.594,57.594,0,0,1,79.506,0l49.631,48.779a57.47,57.47,0,0,0,79.467,0l8.088-7.933a55.053,55.053,0,0,0,0-78.113L295.046,247.779c-.755-.716-1.509-1.432-2.3-2.109L163.993,114.347a55.006,55.006,0,0,0-78.036,0L0,0"/>
    </clipPath>
    <clipPath id="clip-Logo_anfix_2018_Copy_1">
      <rect width="1920" height="548"/>
    </clipPath>
  </defs>
  <g id="Logo_anfix_2018_Copy_1" data-name="Logo anfix 2018 Copy – 1" class="cls-3">
    <g id="Group_2" data-name="Group 2">
      <g id="Group_6" data-name="Group 6" transform="translate(314.81 94.724)">
        <path id="Clip_5-2" data-name="Clip 5" class="cls-1" d="M74.321,148.622A74.311,74.311,0,1,0,0,74.3,74.32,74.32,0,0,0,74.321,148.622Z" transform="translate(0 0)"/>
      </g>
      <g id="Group" transform="translate(0.221 0.249)">
        <g id="Group_3" data-name="Group 3">
          <path id="Clip_2-2" data-name="Clip 2" class="cls-2" d="M85.958,114.347l-7.991,8.069a57.542,57.542,0,0,0,0,79.525l48.741,49.592a57.542,57.542,0,0,1,0,79.525l-48.741,49.65a56.918,56.918,0,0,0-15.982,39.182v2.264a55.156,55.156,0,0,0,16.253,38.563l5.379,5.186,2.341,2.322a54.86,54.86,0,0,0,39.55,16.273,57.172,57.172,0,0,0,40.324-15.982L215.4,419.736a57.594,57.594,0,0,1,79.506,0l49.631,48.779a57.47,57.47,0,0,0,79.467,0l8.088-7.933a55.053,55.053,0,0,0,0-78.113L295.046,247.779c-.755-.716-1.509-1.432-2.3-2.109L163.993,114.347a55.006,55.006,0,0,0-78.036,0L0,0"/>
        </g>
        <g id="Group_15" data-name="Group 15" transform="translate(555.152 104.422)">
          <path id="Fill_7" data-name="Fill 7" class="cls-6" d="M261.462,284.127l0-.026h0l-2.062.027c-12,0-21.025-7.053-26.82-20.963V260.29l.326-6.159a120.9,120.9,0,0,1-79.784,29.949c-1.89,0-3.808-.045-5.7-.134h-7.68a130.8,130.8,0,0,1-67.239-18C52.18,254,33.6,235.8,17.28,211.879A155.2,155.2,0,0,1,0,141.249c0-26.266,6.6-50.134,19.609-70.94s32.8-39.14,58.834-54.5A155.754,155.754,0,0,1,143.688.35q1.272-.024,2.543-.024a136.4,136.4,0,0,1,86.442,30.9c0-18.951,9.4-29.461,27.919-31.228,16.932,1.767,25.955,12.273,26.82,31.228v227.36C287.412,272.494,278.681,281.087,261.462,284.127Zm-118.8-229.7c-18.235,0-34.45,4.755-48.194,14.132s-25.394,23.628-34.645,42.37a102.793,102.793,0,0,0-5.35,29.332v2.826c0,17.837,4.6,33.665,13.676,47.042s22.891,24.7,41.063,33.647a88.267,88.267,0,0,0,30.527,6.328h7.68c29.939,0,55.043-15.069,74.615-44.789a89.356,89.356,0,0,0,10.639-40.055v-3.937c0-33.958-17.454-60.549-51.877-79.035a90.223,90.223,0,0,0-36.926-7.862h-1.209Z" transform="translate(0 95.94)"/>
          <path id="Fill_9" data-name="Fill 9" class="cls-6" d="M.387,34.925A33.15,33.15,0,0,1,8.823,12.113a28.355,28.355,0,0,1,42.2-.058,33.387,33.387,0,0,1,8.765,22.871v13.8C76.468,23.026,100.5,0,140.785,0,199.2,0,233.1,42.394,233.1,106.924V256.358a32.292,32.292,0,0,1-8.436,22.6,27.651,27.651,0,0,1-20.975,9.133,28.287,28.287,0,0,1-21.4-8.939,33.212,33.212,0,0,1-8.9-22.793V126.544c0-43.4-20.162-68.516-55.59-68.516-35.409,0-58.415,25.715-58.415,69.348v128.46c0,17.685-13.312,32-29.682,32-16.408,0-29.7-14.318-29.7-32Z" transform="translate(366.134 91.956)"/>
          <path id="Fill_11" data-name="Fill 11" class="cls-6" d="M68.493,380.081a31.234,31.234,0,0,1-31.36-31.034l.072-189.128H26.337l-.362,0a26.017,26.017,0,0,1-18.174-7.4A25.388,25.388,0,0,1,0,134.342a26.462,26.462,0,0,1,26.337-26.12H37.205V88.177c0-29.246,7.7-52.17,22.28-66.3C74.7,7.158,94.86,0,121.107,0h.649a185.032,185.032,0,0,1,30.808,2.573,25.463,25.463,0,0,1,21.809,25.443,25.384,25.384,0,0,1-7.692,18.307,25.833,25.833,0,0,1-18.067,7.3c-.208,0-.4,0-.59-.007a103.8,103.8,0,0,0-12.4-.75l-.569,0c-24.385,0-36.239,13.422-36.239,41.033V108.73h48.641q.3-.007.594-.007a25.472,25.472,0,0,1,17.966,43.793,26.047,26.047,0,0,1-18.2,7.4l-.362,0H99.817V349.047A31.216,31.216,0,0,1,68.493,380.081Zm184.347-.036a31.192,31.192,0,0,1-31.312-31V134.753a30.762,30.762,0,0,1,30.938-31.228h.326a31.4,31.4,0,0,1,22.147,9.069,30.76,30.76,0,0,1,9.19,22.159V349.047A31.179,31.179,0,0,1,252.84,380.045Zm-.278-312.421c-9.926,0-18.962-3-25.443-8.441A28.279,28.279,0,0,1,216.83,36.868V33.8c0-17.789,14.693-30.213,35.732-30.213S288.318,16.012,288.318,33.8v3.067a28.3,28.3,0,0,1-10.264,22.316C271.572,64.627,262.519,67.625,252.562,67.625Z" transform="translate(663.302 0)"/>
          <path id="Fill_13" data-name="Fill 13" class="cls-6" d="M9.1,236.012,88,140.968,14.9,53.9A38.2,38.2,0,0,1,4.336,29.555,28.738,28.738,0,0,1,33.746.009,35.808,35.808,0,0,1,63.273,15.8L125.81,98.206l63.427-81.634A35.443,35.443,0,0,1,216.616.183a28.4,28.4,0,0,1,20.9,7.643,28.73,28.73,0,0,1,9.094,20.355,31.863,31.863,0,0,1-8.939,21.671l-75.211,90.361,77.765,92.064a38.02,38.02,0,0,1,10.487,24.361A28.859,28.859,0,0,1,221.3,286.165a34.946,34.946,0,0,1-29.43-16.408l-67.239-87.11-67.355,87.11a37.108,37.108,0,0,1-27.863,16.408A28.452,28.452,0,0,1,0,258.166a31.179,31.179,0,0,1,8.92-22.194" transform="translate(1015.396 93.894)"/>
        </g>
      </g>
    </g>
  </g>
</svg>
