<?xml version="1.0" encoding="UTF-8" standalone="no"?>
<svg
   xmlns:dc="http://purl.org/dc/elements/1.1/"
   xmlns:cc="http://creativecommons.org/ns#"
   xmlns:rdf="http://www.w3.org/1999/02/22-rdf-syntax-ns#"
   xmlns:svg="http://www.w3.org/2000/svg"
   xmlns="http://www.w3.org/2000/svg"
   viewBox="0 0 612.43591 209.78537"
   height="209.78537"
   width="612.43591"
   xml:space="preserve"
   version="1.1"
   id="svg2"><metadata
     id="metadata8"><rdf:RDF><cc:Work
         rdf:about=""><dc:format>image/svg+xml</dc:format><dc:type
           rdf:resource="http://purl.org/dc/dcmitype/StillImage" /><dc:title></dc:title></cc:Work></rdf:RDF></metadata><defs
     id="defs6"><clipPath
       id="clipPath16"
       clipPathUnits="userSpaceOnUse"><path
         id="path18"
         d="m 0,246.677 676.677,0 L 676.677,0 0,0 0,246.677 Z" /></clipPath></defs><g
     transform="matrix(1.25,0,0,-1.25,-117.354,259.06537)"
     id="g10"><g
       id="g12"><g
         clip-path="url(#clipPath16)"
         id="g14"><g
           transform="translate(217.197,141.1189)"
           id="g20"><path
             id="path22"
             style="fill:#d8001f;fill-opacity:1;fill-rule:nonzero;stroke:none"
             d="m 0,0 c -10.298,0 -18.648,8.47 -18.648,18.908 0,10.444 8.35,18.911 18.648,18.911 10.297,0 18.648,-8.467 18.648,-18.911 C 18.648,8.47 10.297,0 0,0 m 0,58.274 c -21.44,0 -38.82,-17.625 -38.82,-39.366 0,-21.74 17.38,-39.366 38.82,-39.366 21.435,0 38.815,17.626 38.815,39.366 0,21.741 -17.38,39.366 -38.815,39.366" /></g><g
           transform="translate(289.4538,139.8113)"
           id="g24"><path
             id="path26"
             style="fill:#ee7e14;fill-opacity:1;fill-rule:nonzero;stroke:none"
             d="M 0,0 C -4.969,0 -20.655,15.905 -20.655,20.942 -20.655,25.981 -4.969,41.89 0,41.89 4.966,41.89 20.652,25.981 20.652,20.942 20.652,15.905 4.966,0 0,0 m 0,67.441 c -10.942,0 -45.517,-35.063 -45.517,-46.154 0,-11.105 34.575,-46.173 45.517,-46.173 10.943,0 45.52,35.068 45.52,46.173 0,11.091 -34.577,46.154 -45.52,46.154" /></g><path
           id="path28"
           style="fill:#fcc51c;fill-opacity:1;fill-rule:nonzero;stroke:none"
           d="m 380.953,143.038 -36.074,0 0,36.413 36.074,0 0,-36.413 z m -55.334,-19.619 74.586,0 0,75.641 -74.586,0 0,-75.641 z" /><g
           transform="translate(130.3132,65.5222)"
           id="g30"><path
             id="path32"
             style="fill:#8b8a8d;fill-opacity:1;fill-rule:nonzero;stroke:none"
             d="m 0,0 c -2.812,-1.811 -7.127,-2.714 -12.545,-3.311 -6.527,-0.707 -10.537,-2.11 -10.537,-5.923 0,-2.912 3.412,-4.915 8.732,-4.915 7.925,0 14.35,2.706 14.35,9.329 L 0,0 Z m 0.402,-20.077 c -3.415,-3.609 -8.632,-5.819 -15.857,-5.819 -10.941,0 -20.975,5.52 -20.975,16.757 0,11.645 9.733,14.652 21.175,15.659 8.627,0.8 14.753,1.804 14.753,6.017 0,2.72 -3.516,4.927 -9.439,4.927 -4.71,0 -10.134,-2.111 -11.333,-6.525 l -13.25,0 c 1.303,9.829 10.739,17.16 24.283,17.16 20.976,0 22.583,-13.553 22.583,-17.668 l 0,-26.893 c 0,-2.511 0.804,-6.422 1.507,-8.428 l -12.144,0 c -0.601,1.305 -1.003,2.913 -1.303,4.813" /></g><g
           transform="translate(178.8933,40.7273)"
           id="g34"><path
             id="path36"
             style="fill:#8b8a8d;fill-opacity:1;fill-rule:nonzero;stroke:none"
             d="m 0,0 c -15.155,-1.602 -23.184,7.529 -23.184,21.682 l 0,18.161 -6.222,0 0,11.748 6.222,0 0,13.145 13.25,0 0,-13.145 9.33,0 0,-11.748 -9.33,0 0,-18.262 c 0,-7.227 3.31,-9.936 9.934,-9.535 L 0,0 Z" /></g><g
           transform="translate(232.2839,45.445)"
           id="g38"><path
             id="path40"
             style="fill:#8b8a8d;fill-opacity:1;fill-rule:nonzero;stroke:none"
             d="m 0,0 c -3.716,-3.813 -9.837,-6.021 -17.065,-6.021 -13.044,0 -22.276,5.722 -23.985,16.261 l 3.716,0 c 1.807,-8.332 9.23,-12.749 20.174,-12.749 6.219,0 11.438,2.012 14.445,5.119 1.807,1.909 2.715,4.414 2.511,7.126 -0.202,6.324 -5.319,9.537 -17.963,11.343 -8.933,1.303 -19.969,2.812 -20.17,13.042 0,7.029 6.618,14.055 19.57,14.055 11.439,0 18.966,-5.117 21.171,-14.451 l -3.811,0 c -2.106,6.921 -8.026,10.936 -17.261,10.936 -9.333,0 -15.955,-4.516 -15.855,-10.54 0.101,-5.915 5.518,-7.828 16.96,-9.433 C -6.824,23.085 3.11,20.275 3.612,9.834 3.713,6.227 2.506,2.61 0,0" /></g><path
           id="path42"
           style="fill:#8b8a8d;fill-opacity:1;fill-rule:nonzero;stroke:none"
           d="m 250.744,40.633 -3.713,0 0,51.686 3.713,0 0,-51.686 z m 0,59.09 -3.713,0 0,9.233 3.713,0 0,-9.233 z" /><g
           transform="translate(302.7273,45.445)"
           id="g44"><path
             id="path46"
             style="fill:#8b8a8d;fill-opacity:1;fill-rule:nonzero;stroke:none"
             d="m 0,0 c -3.711,-3.813 -9.835,-6.021 -17.062,-6.021 -13.045,0 -22.278,5.722 -23.981,16.261 l 3.712,0 c 1.806,-8.332 9.237,-12.749 20.171,-12.749 6.223,0 11.442,2.012 14.451,5.119 1.806,1.909 2.709,4.414 2.508,7.126 -0.201,6.324 -5.318,9.537 -17.963,11.343 -8.931,1.303 -19.97,2.812 -20.174,13.042 0,7.029 6.626,14.055 19.576,14.055 11.436,0 18.962,-5.117 21.174,-14.451 l -3.815,0 c -2.107,6.921 -8.03,10.936 -17.261,10.936 -9.334,0 -15.959,-4.516 -15.859,-10.54 0.102,-5.915 5.523,-7.828 16.962,-9.433 C -6.824,23.085 3.11,20.275 3.615,9.834 3.717,6.227 2.51,2.61 0,0" /></g><g
           transform="translate(321.3933,58.4948)"
           id="g48"><path
             id="path50"
             style="fill:#8b8a8d;fill-opacity:1;fill-rule:nonzero;stroke:none"
             d="m 0,0 c 0,-8.832 4.112,-14.855 13.951,-14.448 l 0,-3.414 C 2.812,-18.869 -3.713,-11.538 -3.713,0 l 0,30.105 -7.023,0 0,3.718 7.023,0 0,11.034 3.713,0 0,-11.034 13.951,0 0,-3.718 L 0,30.105 0,0 Z" /></g><g
           transform="translate(386.53,70.237)"
           id="g52"><path
             id="path54"
             style="fill:#8b8a8d;fill-opacity:1;fill-rule:nonzero;stroke:none"
             d="M 0,0 C -1.802,11.142 -10.934,19.57 -21.773,19.57 -32.71,19.57 -41.746,11.142 -43.45,0 L 0,0 Z m -43.852,-3.713 c 0.098,-13.449 10.138,-23.387 22.678,-23.387 12.147,0 17.663,6.726 20.173,13.547 l 3.916,0 c -3.616,-11.131 -11.942,-17.259 -24.089,-17.259 -14.755,0 -26.394,11.847 -26.394,26.898 0,15.056 11.542,27.298 25.795,27.298 15.452,0 25.991,-14.055 25.793,-27.097 l -47.872,0 z" /></g><g
           transform="translate(475.2449,40.6325)"
           id="g56"><path
             id="path58"
             style="fill:#8b8a8d;fill-opacity:1;fill-rule:nonzero;stroke:none"
             d="m 0,0 -3.707,0 0,33.313 c 0,9.239 -6.732,15.862 -15.963,15.862 -9.132,0 -15.856,-6.623 -15.856,-15.862 l 0,-33.313 -3.712,0 0,33.313 c 0,9.239 -6.727,15.862 -15.955,15.862 -9.139,0 -15.86,-6.623 -15.86,-15.862 l 0,-33.313 -3.713,0 0,51.686 3.713,0 0,-7.028 c 3.213,5.116 8.835,8.33 15.86,8.33 8.428,0 15.153,-4.519 18.061,-11.438 2.711,6.919 9.131,11.438 17.462,11.438 C -8.229,52.988 0,44.658 0,33.313 L 0,0 Z" /></g><g
           transform="translate(526.1208,71.2409)"
           id="g60"><path
             id="path62"
             style="fill:#8b8a8d;fill-opacity:1;fill-rule:nonzero;stroke:none"
             d="m 0,0 c -4.012,-3.716 -11.535,-4.413 -18.666,-5.021 -13.248,-1.303 -18.362,-4.815 -18.362,-11.941 0,-8.53 9.631,-10.838 14.753,-10.838 C -11.138,-27.8 0,-22.783 0,-11.842 L 0,0 Z M 1.409,-30.608 C 0.503,-28.706 0,-26.293 0,-23.085 l 0,1.005 c -4.109,-5.82 -12.046,-9.436 -22.275,-9.436 -9.036,0 -18.766,4.52 -18.766,14.454 0,11.74 10.932,14.454 21.976,15.453 C -7.624,-0.502 0,0.698 0,7.022 0,16.555 -9.027,18.77 -16.654,18.77 c -9.436,0 -15.657,-3.919 -17.864,-10.944 l -3.812,0 c 2.304,9.231 10.028,14.554 21.676,14.554 12.944,0 20.371,-5.624 20.371,-15.358 l 0,-29.203 c 0,-2.606 0.703,-6.422 1.512,-8.427 l -3.82,0 z" /></g><g
           transform="translate(580.2136,45.445)"
           id="g64"><path
             id="path66"
             style="fill:#8b8a8d;fill-opacity:1;fill-rule:nonzero;stroke:none"
             d="m 0,0 c -3.712,-3.813 -9.833,-6.021 -17.061,-6.021 -13.045,0 -22.283,5.722 -23.989,16.261 l 3.716,0 c 1.805,-8.332 9.232,-12.749 20.173,-12.749 6.219,0 11.434,2.012 14.453,5.119 1.803,1.909 2.708,4.414 2.505,7.126 -0.195,6.324 -5.32,9.537 -17.961,11.343 -8.929,1.303 -19.976,2.812 -20.174,13.042 0,7.029 6.625,14.055 19.569,14.055 11.439,0 18.97,-5.117 21.176,-14.451 l -3.809,0 c -2.113,6.921 -8.036,10.936 -17.264,10.936 -9.333,0 -15.957,-4.516 -15.854,-10.54 0.098,-5.915 5.517,-7.828 16.957,-9.433 C -6.828,23.085 3.111,20.275 3.613,9.834 3.709,6.227 2.507,2.61 0,0" /></g></g></g></g></svg>