<?xml version="1.0" encoding="UTF-8" standalone="no"?>
<svg
   xmlns:dc="http://purl.org/dc/elements/1.1/"
   xmlns:cc="http://creativecommons.org/ns#"
   xmlns:rdf="http://www.w3.org/1999/02/22-rdf-syntax-ns#"
   xmlns:svg="http://www.w3.org/2000/svg"
   xmlns="http://www.w3.org/2000/svg"
   xmlns:sodipodi="http://sodipodi.sourceforge.net/DTD/sodipodi-0.dtd"
   xmlns:inkscape="http://www.inkscape.org/namespaces/inkscape"
   width="199.99983"
   height="46.153"
   viewBox="0 0 199.99983 46.153"
   version="1.1"
   id="svg2"
   inkscape:version="0.91 r13725"
   sodipodi:docname="autentia.svg">
  <metadata
     id="metadata30">
    <rdf:RDF>
      <cc:Work
         rdf:about="">
        <dc:format>image/svg+xml</dc:format>
        <dc:type
           rdf:resource="http://purl.org/dc/dcmitype/StillImage" />
        <dc:title></dc:title>
      </cc:Work>
    </rdf:RDF>
  </metadata>
  <defs
     id="defs28" />
  <sodipodi:namedview
     pagecolor="#ffffff"
     bordercolor="#666666"
     borderopacity="1"
     objecttolerance="10"
     gridtolerance="10"
     guidetolerance="10"
     inkscape:pageopacity="0"
     inkscape:pageshadow="2"
     inkscape:window-width="1855"
     inkscape:window-height="1056"
     id="namedview26"
     showgrid="false"
     fit-margin-top="0"
     fit-margin-left="0"
     fit-margin-right="0"
     fit-margin-bottom="0"
     inkscape:zoom="3.22"
     inkscape:cx="-16.248718"
     inkscape:cy="22.618747"
     inkscape:window-x="1985"
     inkscape:window-y="24"
     inkscape:window-maximized="1"
     inkscape:current-layer="svg2" />
  <g
     id="00Logo_Autentia"
     transform="matrix(2.0033466,0,0,2.0033466,-0.05580352,-0.04662509)"
     style="fill:none;fill-rule:evenodd;stroke:none;stroke-width:1">
    <g
       id="g5"
       style="fill:#10069f;fill-rule:nonzero">
      <g
         id="Group">
        <path
           d="m 0.02785515,12.114036 c 0,3.393052 2.52089135,6.057019 5.72423395,6.057019 1.1838441,0 2.2423399,-0.294439 3.1615599,-0.883316 l 0.1671309,-0.112167 0,0.757128 3.7047351,0 0,-11.5952643 -3.7047351,0 0,0.7290856 L 8.913649,6.9543543 C 8.0083566,6.3654775 6.9359332,6.0710391 5.7520891,6.0710391 c -3.2172702,0 -5.72423395,2.6499455 -5.72423395,6.0429969 z m 9.52646245,0.01402 c 0,1.934881 -1.1002786,3.04253 -3.0222842,3.04253 -1.643454,0 -2.8690808,-1.303941 -2.8690808,-3.04253 0,-1.738588 1.2395544,-3.0565505 2.8690808,-3.0565505 2.729805,-0.014021 3.0222842,2.1311735 3.0222842,3.0565505 z"
           id="Shape"
           inkscape:connector-curvature="0" />
        <path
           d="m 19.233983,12.366412 0,-6.0289763 -3.704735,0 0,6.6458953 c 0,3.238822 1.922005,5.327932 4.902507,5.327932 1.155989,0 2.158774,-0.350522 3.147632,-1.12167 l 0.181059,-0.140208 0,0.897336 3.704735,0 0,-11.5952644 -3.704735,0 0,7.3890014 -0.02786,0.02804 c -0.710306,0.785169 -1.476323,1.205795 -2.242339,1.205795 -1.434541,-0.01402 -2.256268,-0.953419 -2.256268,-2.607883 z"
           id="path9"
           inkscape:connector-curvature="0" />
        <path
           d="m 37.144847,14.89017 c -1.253482,0 -1.949861,-0.673002 -1.949861,-1.892818 l 0,-3.5052193 3.997215,0 0,-3.1687178 -3.997215,0 0,-4.7670977 -3.704735,1.9208599 0,2.8462378 -2.29805,0 0,3.1687178 2.29805,0 0,3.6173863 c 0,3.140676 1.810585,5.173703 4.610028,5.173703 1.114206,0 1.963788,-0.08413 3.440111,-0.546815 l -0.4039,-3.126655 c -0.849582,0.168251 -1.448468,0.280418 -1.991643,0.280418 z"
           id="path11"
           inkscape:connector-curvature="0" />
        <path
           d="m 46.963788,6.0710391 c -3.607242,0 -6.142061,2.4957159 -6.142061,6.0570179 0,3.575324 2.590529,6.08506 6.309192,6.08506 2.813371,0 4.986073,-1.472192 5.571031,-3.743573 l -3.67688,0 c -0.376045,0.546814 -1.030641,0.855273 -1.852368,0.855273 -1.392758,0 -2.367688,-0.701044 -2.743733,-1.976943 l -0.04178,-0.140209 8.398328,0 c 0.06964,-0.420626 0.06964,-0.869294 0.06964,-1.303942 0,-3.4491351 -2.423398,-5.8326839 -5.891365,-5.8326839 z m -2.618384,5.0194739 0.02785,-0.140209 c 0.320334,-1.3039416 1.253482,-2.0610689 2.576602,-2.0610689 1.350975,0 2.214484,0.7290855 2.437326,2.0750899 l 0.02786,0.126188 -5.069638,0 z"
           id="path13"
           inkscape:connector-curvature="0" />
        <path
           d="m 62.075209,5.972893 c -1.169916,0 -2.214485,0.3785636 -3.175488,1.1497118 l -0.181058,0.1402087 0,-0.9253778 -3.704735,0 0,11.5952643 3.704735,0 0,-7.346939 0.02786,-0.02804 c 0.696379,-0.7991896 1.26741,-1.2338368 2.270195,-1.2338368 1.420613,0 2.24234,0.9534198 2.24234,2.5938618 l 0,6.014956 3.718663,0 0,-6.645895 c 0,-3.2248016 -1.922006,-5.313912 -4.902507,-5.313912 z"
           id="path15"
           inkscape:connector-curvature="0" />
        <path
           d="m 76.350975,14.89017 c -1.253482,0 -1.949861,-0.673002 -1.949861,-1.892818 l 0,-3.5052193 3.997215,0 0,-3.1687178 -3.997215,0 0,-5.80464251 -3.704735,1.92085991 0,3.8837826 -2.29805,0 0,3.1687178 2.29805,0 0,3.6173863 c 0,3.140676 1.810585,5.173703 4.610028,5.173703 1.114206,0 1.963788,-0.08413 3.440111,-0.546815 l -0.4039,-3.126655 c -0.849582,0.168251 -1.448468,0.280418 -1.991643,0.280418 z"
           id="path17"
           inkscape:connector-curvature="0" />
        <rect
           id="Rectangle-path"
           x="81.044571"
           y="6.3374357"
           width="3.7047353"
           height="11.595264" />
        <path
           d="m 92.827298,6.0710391 c -3.21727,0 -5.724234,2.6639663 -5.724234,6.0570179 0,3.393052 2.520891,6.057019 5.724234,6.057019 1.183844,0 2.24234,-0.294439 3.16156,-0.883316 l 0.167131,-0.112167 0,0.757128 3.704735,0 0,-11.5952644 -3.704735,0 0,0.7290855 -0.167131,-0.112167 c -0.905292,-0.6028976 -1.977716,-0.897336 -3.16156,-0.897336 z m 3.802228,6.0570179 c 0,1.934881 -1.100278,3.04253 -3.022284,3.04253 -1.643454,0 -2.86908,-1.303941 -2.86908,-3.04253 0,-1.738588 1.239554,-3.0565505 2.86908,-3.0565505 2.729805,-0.014021 3.022284,2.1311735 3.022284,3.0565505 z"
           id="path20"
           inkscape:connector-curvature="0" />
        <path
           d="M 82.771588,0.02804175 C 81.629526,0.07010438 80.682451,1.0235239 80.682451,2.145194 c 0,0.5748559 0.208914,1.1076491 0.612814,1.5002336 0.417827,0.4206263 1.002785,0.6449603 1.643454,0.6309394 1.155988,-0.028042 2.130919,-0.9954821 2.130919,-2.1031313 0,-0.5888768 -0.222841,-1.12167 -0.640669,-1.51425455 -0.431755,-0.43464714 -1.03064,-0.67300203 -1.657381,-0.6309394 z"
           id="path22"
           inkscape:connector-curvature="0" />
      </g>
      <rect
         id="rect24"
         x="55"
         y="20"
         width="12"
         height="3.0612245" />
    </g>
  </g>
</svg>
