<?xml version="1.0" encoding="UTF-8" standalone="no"?>
<svg
   xmlns:dc="http://purl.org/dc/elements/1.1/"
   xmlns:cc="http://creativecommons.org/ns#"
   xmlns:rdf="http://www.w3.org/1999/02/22-rdf-syntax-ns#"
   xmlns:svg="http://www.w3.org/2000/svg"
   xmlns="http://www.w3.org/2000/svg"
   viewBox="0 0 1009.6713 158.21001"
   height="158.21001"
   width="1009.6713"
   xml:space="preserve"
   version="1.1"
   id="svg2"><metadata
     id="metadata8"><rdf:RDF><cc:Work
         rdf:about=""><dc:format>image/svg+xml</dc:format><dc:type
           rdf:resource="http://purl.org/dc/dcmitype/StillImage" /><dc:title></dc:title></cc:Work></rdf:RDF></metadata><defs
     id="defs6"><clipPath
       id="clipPath18"
       clipPathUnits="userSpaceOnUse"><path
         id="path20"
         d="m 821.902,500.07 1561.26,0 0,1561.27 -1561.26,0 0,-1561.27 z" /></clipPath></defs><g
     transform="matrix(1.25,0,0,-1.25,-106.80375,237.3575)"
     id="g10"><g
       transform="scale(0.1,0.1)"
       id="g12"><g
         id="g14"><g
           clip-path="url(#clipPath18)"
           id="g16"><path
             id="path22"
             style="fill:#f03a1f;fill-opacity:1;fill-rule:nonzero;stroke:none"
             d="m 1806.71,1566.32 47.92,-0.9 130.21,130.21 6.31,55.14 c -103.46,92.03 -239.58,148.09 -388.61,148.09 -269.85,0 -497.52,-183.56 -565.02,-432.33 14.25,9.85 44.57,2.51 44.57,2.51 l 260.23,42.76 c 0,0 13.46,22.12 20.11,20.76 59.52,65.15 145.12,106.09 240.11,106.09 77.27,0 148.3,-27.14 204.17,-72.33" /><path
             id="path24"
             style="fill:#1f8fd7;fill-opacity:1;fill-rule:nonzero;stroke:none"
             d="m 2167.64,1466.2 c -30.2,111.57 -92.59,209.98 -176.61,284.68 l -184.45,-184.45 c 73.86,-59.68 121.21,-150.92 121.21,-253.04 l 0,-32.53 c 89.68,0 162.64,-72.95 162.64,-162.63 0,-89.68 -72.96,-162.628 -162.67,-162.628 l -325.23,0 -32.55,-32.704 0,-195.16 32.55,-32.347 325.26,0 c 233.16,0 422.85,189.679 422.85,422.839 0,144.14 -72.55,271.6 -183,347.97" /><path
             id="path26"
             style="fill:#38b74d;fill-opacity:1;fill-rule:nonzero;stroke:none"
             d="m 1277.26,695.391 325,0 0,260.211 -324.96,0 c -23.9,0 -46.54,5.308 -67,14.609 l -46.88,-14.332 -130.27,-130.27 -11.42,-43.961 c 71.04,-54.07 159.58,-86.25 255.53,-86.257" /><path
             id="path28"
             style="fill:#fab41b;fill-opacity:1;fill-rule:nonzero;stroke:none"
             d="m 1277.27,1541.07 c -233.15,0 -422.84,-189.69 -422.84,-422.84 0,-137.289 65.804,-259.441 167.48,-336.742 l 188.6,188.602 c -56.44,25.539 -95.87,82.26 -95.87,148.14 0,89.68 72.95,162.63 162.63,162.63 65.87,0 122.6,-39.43 148.14,-95.87 l 188.6,188.6 c -77.29,101.68 -199.46,167.48 -336.74,167.48" /></g></g><path
         id="path30"
         style="fill:#6a6b6e;fill-opacity:1;fill-rule:nonzero;stroke:none"
         d="m 5741.09,1156.73 242.75,100.79 c -6.85,17.14 -19.54,31.01 -38.06,41.67 -18.51,10.61 -39.43,15.94 -62.74,15.94 -34.97,0 -67.72,-14.4 -98.23,-43.2 -30.52,-28.8 -45.1,-67.21 -43.72,-115.2 z M 5892.3,876.941 c -76.81,0 -140.92,26.071 -192.34,78.188 -51.44,52.081 -77.15,116.571 -77.15,193.371 0,79.52 24.85,144.68 74.57,195.43 49.71,50.73 110.22,76.12 181.54,76.12 32.92,0 63.43,-6.01 91.55,-18.01 28.11,-12.01 51.43,-27.43 69.95,-46.28 18.51,-18.88 33.25,-37.21 44.23,-55.03 10.96,-17.84 19.87,-35.66 26.74,-53.49 l 12.35,-30.87 -363.1,-150.16 c 28.11,-54.87 72,-82.3 131.66,-82.3 54.85,0 99.42,25.03 133.71,75.1 l 92.58,-61.721 c -20.57,-30.848 -49.72,-58.617 -87.43,-83.309 -37.72,-24.691 -84.01,-37.039 -138.86,-37.039 z m -327.09,814.649 0,-798.192 -119.32,0 0,798.192 119.32,0 z M 5113.65,983.91 c 41.15,0 75.61,15.59 103.38,46.81 27.77,31.2 41.65,70.12 41.65,116.75 0,47.31 -13.88,86.73 -41.65,118.28 -27.77,31.53 -62.23,47.31 -103.38,47.31 -41.83,0 -77.49,-15.78 -106.97,-47.31 -29.49,-31.55 -44.23,-70.97 -44.23,-118.28 0,-46.63 14.74,-85.55 44.23,-116.75 29.48,-31.22 65.14,-46.81 106.97,-46.81 z m -8.23,-350.73 c -60.34,0 -111.08,16.121 -152.23,48.34 -41.14,32.242 -70.64,69.609 -88.46,112.109 l 103.9,43.199 c 10.95,-26.058 28.1,-48.68 51.42,-67.879 23.3,-19.187 51.77,-28.808 85.37,-28.808 45.26,0 80.75,13.73 106.46,41.148 25.72,27.43 38.57,66.852 38.57,118.301 l 0,39.082 -4.11,0 c -33.61,-41.152 -81.25,-61.731 -142.97,-61.731 -69.27,0 -129.96,26.387 -182.06,79.219 -52.12,52.78 -78.18,116.57 -78.18,191.31 0,75.42 26.06,139.71 78.18,192.86 52.1,53.12 112.79,79.72 182.06,79.72 30.85,0 58.79,-5.84 83.83,-17.5 25.02,-11.66 44.74,-26.06 59.14,-43.19 l 4.11,0 0,44.23 113.15,0 0,-487.551 c 0,-94.629 -24.17,-165.43 -72.52,-212.41 -48.34,-46.957 -110.23,-70.449 -185.66,-70.449 z m -692.24,397.54 c 30.17,-31.22 66.17,-46.81 108,-46.81 41.82,0 77.83,15.59 108.01,46.81 30.17,31.2 45.25,70.47 45.25,117.78 0,47.99 -14.91,87.43 -44.74,118.28 -29.83,30.86 -66.01,46.28 -108.52,46.28 -42.52,0 -78.69,-15.42 -108.52,-46.28 -29.82,-30.85 -44.73,-70.29 -44.73,-118.28 0,-47.31 15.07,-86.58 45.25,-117.78 z m 301.38,-76.111 c -52.81,-51.8 -117.26,-77.668 -193.38,-77.668 -76.11,0 -140.58,25.868 -193.37,77.668 -52.81,51.771 -79.2,116.391 -79.2,193.891 0,77.48 26.39,142.1 79.2,193.9 52.79,51.76 117.26,77.65 193.37,77.65 76.12,0 140.57,-25.89 193.38,-77.65 52.8,-51.8 79.21,-116.42 79.21,-193.9 0,-77.5 -26.41,-142.12 -79.21,-193.891 z m -895.9,76.111 c 30.16,-31.22 66.16,-46.81 108,-46.81 41.81,0 77.81,15.59 108,46.81 30.16,31.2 45.26,70.47 45.26,117.78 0,47.99 -14.92,87.43 -44.75,118.28 -29.82,30.86 -66,46.28 -108.51,46.28 -42.53,0 -78.69,-15.42 -108.52,-46.28 -29.83,-30.85 -44.74,-70.29 -44.74,-118.28 0,-47.31 15.07,-86.58 45.26,-117.78 z m 301.37,-76.111 c -52.81,-51.8 -117.26,-77.668 -193.37,-77.668 -76.12,0 -140.58,25.868 -193.38,77.668 -52.81,51.771 -79.2,116.391 -79.2,193.891 0,77.48 26.39,142.1 79.2,193.9 52.8,51.76 117.26,77.65 193.38,77.65 76.11,0 140.56,-25.89 193.37,-77.65 52.8,-51.8 79.21,-116.42 79.21,-193.9 0,-77.5 -26.41,-142.12 -79.21,-193.891 z m -901.05,-77.668 c -116.58,0 -217.02,41.321 -301.38,123.949 -84.34,82.62 -126.52,181.89 -126.52,297.78 0,115.89 42.18,215.13 126.52,297.78 84.36,82.62 184.8,123.94 301.38,123.94 111.77,0 208.12,-38.74 289.04,-116.23 l -81.26,-81.26 c -58.29,54.86 -127.54,82.3 -207.78,82.3 -84.34,0 -155.83,-29.82 -214.46,-89.5 -58.63,-59.65 -87.94,-132.01 -87.94,-217.03 0,-85.04 29.31,-157.36 87.94,-217.04 58.63,-59.65 130.12,-89.489 214.46,-89.489 85.72,0 156.68,28.109 212.92,84.359 33.6,33.58 54.52,81.93 62.75,145.04 l -275.67,0 0,115.18 387.78,0 c 4.11,-20.56 6.17,-44.57 6.17,-72 0,-113.15 -33.26,-202.98 -99.77,-269.482 -75.43,-78.867 -173.5,-118.297 -294.18,-118.297" /><path
         id="path32"
         style="fill:#6a6b6e;fill-opacity:1;fill-rule:nonzero;stroke:none"
         d="m 6750.15,876.941 c -108.36,0 -199.21,36.68 -272.59,110.071 -73.37,73.358 -110.05,164.918 -110.05,274.638 0,109.7 36.68,201.25 110.05,274.63 73.38,73.37 164.23,110.06 272.59,110.06 111.08,0 201.24,-40.11 270.51,-120.34 l -65.82,-63.77 c -50.07,62.38 -118.29,93.59 -204.69,93.59 -80.23,0 -147.96,-27.1 -203.15,-81.27 -55.21,-54.17 -82.8,-125.15 -82.8,-212.9 0,-87.8 27.59,-158.76 82.8,-212.93 55.19,-54.169 122.92,-81.271 203.15,-81.271 88.46,0 163.88,35.671 226.29,106.991 l 65.82,-65.84 c -33.6,-40.471 -75.77,-72.51 -126.51,-96.17 -50.76,-23.66 -105.95,-35.489 -165.6,-35.489" /><path
         id="path34"
         style="fill:#6a6b6e;fill-opacity:1;fill-rule:nonzero;stroke:none"
         d="m 7126.59,893.398 94.6289,0 0,736.484 -94.6289,0 0,-736.484 z" /><path
         id="path36"
         style="fill:#6a6b6e;fill-opacity:1;fill-rule:nonzero;stroke:none"
         d="m 7445.98,1013.23 c 32.56,-33.25 71.13,-49.871 115.72,-49.871 44.56,0 83.13,16.621 115.71,49.871 32.57,33.26 48.87,77.31 48.87,132.18 0,54.86 -16.3,98.91 -48.87,132.18 -32.58,33.25 -71.15,49.88 -115.71,49.88 -44.59,0 -83.16,-16.63 -115.72,-49.88 -32.58,-33.27 -48.86,-77.32 -48.86,-132.18 0,-54.87 16.28,-98.92 48.86,-132.18 z m -70.46,324.01 c 48.68,51.08 110.74,76.64 186.18,76.64 75.42,0 137.47,-25.56 186.17,-76.64 48.69,-51.09 73.04,-115.04 73.04,-191.83 0,-76.81 -24.35,-140.75 -73.04,-191.828 -48.7,-51.094 -110.75,-76.641 -186.17,-76.641 -75.44,0 -137.5,25.547 -186.18,76.641 -48.69,51.078 -73.03,115.018 -73.03,191.828 0,76.79 24.34,140.74 73.03,191.83" /><path
         id="path38"
         style="fill:#6a6b6e;fill-opacity:1;fill-rule:nonzero;stroke:none"
         d="m 8344.47,893.398 -90.52,0 0,69.961 -4.12,0 c -14.4,-24.019 -36.35,-44.41 -65.83,-61.211 -29.48,-16.796 -60.68,-25.207 -93.59,-25.207 -63.1,0 -110.93,19.188 -143.5,57.61 -32.58,38.39 -48.86,89.829 -48.86,154.279 l 0,308.59 94.63,0 0,-293.16 c 0,-93.95 41.49,-140.901 124.46,-140.901 39.09,0 70.98,15.75 95.67,47.311 24.68,31.53 37.02,67.88 37.02,109.01 l 0,277.74 94.64,0 0,-504.022" /><path
         id="path40"
         style="fill:#6a6b6e;fill-opacity:1;fill-rule:nonzero;stroke:none"
         d="m 8680.82,963.359 c 44.57,0 82.45,16.461 113.65,49.371 31.2,32.91 46.81,77.13 46.81,132.68 0,55.54 -15.61,99.78 -46.81,132.7 -31.2,32.9 -69.08,49.36 -113.65,49.36 -43.89,0 -81.62,-16.63 -113.15,-49.88 -31.55,-33.27 -47.31,-77.32 -47.31,-132.18 0,-54.87 15.76,-98.92 47.31,-132.18 31.53,-33.25 69.26,-49.871 113.15,-49.871 z m -15.44,-86.418 c -65.15,0 -121.37,25.707 -168.69,77.149 -47.31,51.43 -70.96,115.2 -70.96,191.32 0,76.13 23.65,139.9 70.96,191.31 47.32,51.44 103.54,77.16 168.69,77.16 38.4,0 72.86,-8.23 103.38,-24.69 30.51,-16.46 53.31,-37.03 68.4,-61.72 l 4.12,0 -4.12,69.95 0,232.46 94.64,0 0,-736.482 -90.52,0 0,69.961 -4.12,0 c -15.09,-24.687 -37.89,-45.269 -68.4,-61.73 -30.52,-16.457 -64.98,-24.688 -103.38,-24.688" /></g></g></svg>