<?xml version="1.0" encoding="UTF-8" standalone="no"?>
<svg
   xmlns:dc="http://purl.org/dc/elements/1.1/"
   xmlns:cc="http://creativecommons.org/ns#"
   xmlns:rdf="http://www.w3.org/1999/02/22-rdf-syntax-ns#"
   xmlns:svg="http://www.w3.org/2000/svg"
   xmlns="http://www.w3.org/2000/svg"
   viewBox="0 0 547.71875 208.44624"
   height="208.44624"
   width="547.71875"
   xml:space="preserve"
   version="1.1"
   id="svg2"><metadata
     id="metadata8"><rdf:RDF><cc:Work
         rdf:about=""><dc:format>image/svg+xml</dc:format><dc:type
           rdf:resource="http://purl.org/dc/dcmitype/StillImage" /><dc:title></dc:title></cc:Work></rdf:RDF></metadata><defs
     id="defs6" /><g
     transform="matrix(1.25,0,0,-1.25,0,208.44625)"
     id="g10"><path
       id="path12"
       style="fill:#cce83a;fill-opacity:1;fill-rule:nonzero;stroke:none"
       d="m 0,0 438.175,0 0,166.757 L 0,166.757 0,0 Z" /><g
       transform="translate(324.9697,113.7632)"
       id="g14"><path
         id="path16"
         style="fill:#000000;fill-opacity:1;fill-rule:nonzero;stroke:none"
         d="m 0,0 -8.38,0 0,-16.758 -8.379,0 0,-8.38 8.379,0 0,-25.137 8.38,0 0,-8.38 8.38,0 0,8.38 -8.38,0 0,25.137 8.38,0 0,8.38 -8.38,0 L 0,0 Z" /></g><path
       id="path18"
       style="fill:#000000;fill-opacity:1;fill-rule:nonzero;stroke:none"
       d="m 350.106,88.625 16.758,0 0,8.379 -16.758,0 0,-8.379 z" /><path
       id="path20"
       style="fill:#000000;fill-opacity:1;fill-rule:nonzero;stroke:none"
       d="m 350.106,71.867 -8.377,0 0,-8.379 8.377,0 0,8.379 z" /><g
       transform="translate(350.1064,80.2466)"
       id="g22"><path
         id="path24"
         style="fill:#000000;fill-opacity:1;fill-rule:nonzero;stroke:none"
         d="m 0,0 0,-8.38 16.758,0 0,-8.379 -16.758,0 0,-8.38 25.138,0 0,33.518 -8.38,0 L 16.758,0 0,0 Z" /></g><path
       id="path26"
       style="fill:#000000;fill-opacity:1;fill-rule:nonzero;stroke:none"
       d="m 257.935,113.763 -8.379,0 0,-8.379 8.379,0 0,8.379 z" /><g
       transform="translate(257.9351,97.0049)"
       id="g28"><path
         id="path30"
         style="fill:#000000;fill-opacity:1;fill-rule:nonzero;stroke:none"
         d="m 0,0 -16.758,0 0,-8.379 8.379,0 0,-33.518 8.379,0 L 0,0 Z" /></g><path
       id="path32"
       style="fill:#000000;fill-opacity:1;fill-rule:nonzero;stroke:none"
       d="m 266.314,80.247 8.38,0 0,8.379 -8.38,0 0,-8.379 z" /><path
       id="path34"
       style="fill:#000000;fill-opacity:1;fill-rule:nonzero;stroke:none"
       d="m 299.832,97.005 -25.138,0 0,-8.379 25.138,0 0,8.379 z" /><path
       id="path36"
       style="fill:#000000;fill-opacity:1;fill-rule:nonzero;stroke:none"
       d="m 274.694,71.867 16.758,0 0,8.38 -16.758,0 0,-8.38 z" /><path
       id="path38"
       style="fill:#000000;fill-opacity:1;fill-rule:nonzero;stroke:none"
       d="m 291.452,63.488 8.379,0 0,8.379 -8.379,0 0,-8.379 z" /><path
       id="path40"
       style="fill:#000000;fill-opacity:1;fill-rule:nonzero;stroke:none"
       d="m 291.452,63.488 -25.138,0 0,-8.38 25.138,0 0,8.38 z" /><g
       transform="translate(232.7969,55.1079)"
       id="g42"><path
         id="path44"
         style="fill:#000000;fill-opacity:1;fill-rule:nonzero;stroke:none"
         d="m 0,0 0,58.655 -16.758,0 0,-8.379 8.379,0 L -8.379,0 0,0 Z" /></g><path
       id="path46"
       style="fill:#000000;fill-opacity:1;fill-rule:nonzero;stroke:none"
       d="m 182.521,88.625 16.759,0 0,8.379 -16.759,0 0,-8.379 z" /><g
       transform="translate(182.5205,80.2466)"
       id="g48"><path
         id="path50"
         style="fill:#000000;fill-opacity:1;fill-rule:nonzero;stroke:none"
         d="m 0,0 0,-8.38 16.759,0 0,-8.379 -16.759,0 0,-8.38 25.139,0 0,33.518 -8.38,0 L 16.759,0 0,0 Z" /></g><path
       id="path52"
       style="fill:#000000;fill-opacity:1;fill-rule:nonzero;stroke:none"
       d="m 182.521,71.867 -8.379,0 0,-8.379 8.379,0 0,8.379 z" /><path
       id="path54"
       style="fill:#000000;fill-opacity:1;fill-rule:nonzero;stroke:none"
       d="m 157.383,97.005 -16.758,0 0,-8.379 16.758,0 0,8.379 z" /><g
       transform="translate(157.3828,88.6255)"
       id="g56"><path
         id="path58"
         style="fill:#000000;fill-opacity:1;fill-rule:nonzero;stroke:none"
         d="m 0,0 0,-8.379 -16.758,0 0,8.379 -8.38,0 0,-25.138 8.38,0 0,8.379 25.137,0 L 8.379,0 0,0 Z" /></g><path
       id="path60"
       style="fill:#000000;fill-opacity:1;fill-rule:nonzero;stroke:none"
       d="m 140.625,55.108 16.758,0 0,8.38 -16.758,0 0,-8.38 z" /><g
       transform="translate(123.8652,113.7632)"
       id="g62"><path
         id="path64"
         style="fill:#000000;fill-opacity:1;fill-rule:nonzero;stroke:none"
         d="m 0,0 -8.379,0 0,-16.758 -16.759,0 0,-8.38 16.759,0 0,-25.137 -16.759,0 0,-8.38 25.138,0 L 0,0 Z" /></g><path
       id="path66"
       style="fill:#000000;fill-opacity:1;fill-rule:nonzero;stroke:none"
       d="m 98.728,88.625 -8.379,0 0,-25.138 8.379,0 0,25.138 z" /><path
       id="path68"
       style="fill:#000000;fill-opacity:1;fill-rule:nonzero;stroke:none"
       d="m 81.969,113.763 -8.38,0 0,-8.379 8.38,0 0,8.379 z" /><g
       transform="translate(65.2104,88.6255)"
       id="g70"><path
         id="path72"
         style="fill:#000000;fill-opacity:1;fill-rule:nonzero;stroke:none"
         d="m 0,0 8.379,0 0,-33.518 8.38,0 0,41.897 L 0,8.379 0,0 Z" /></g></g></svg>