<?xml version="1.0" encoding="UTF-8" standalone="no"?>
<!-- Generator: Adobe Illustrator 22.0.1, SVG Export Plug-In . SVG Version: 6.00 Build 0)  -->

<svg
   xmlns:dc="http://purl.org/dc/elements/1.1/"
   xmlns:cc="http://creativecommons.org/ns#"
   xmlns:rdf="http://www.w3.org/1999/02/22-rdf-syntax-ns#"
   xmlns:svg="http://www.w3.org/2000/svg"
   xmlns="http://www.w3.org/2000/svg"
   xmlns:sodipodi="http://sodipodi.sourceforge.net/DTD/sodipodi-0.dtd"
   xmlns:inkscape="http://www.inkscape.org/namespaces/inkscape"
   version="1.1"
   id="Capa_1"
   x="0px"
   y="0px"
   viewBox="0 0 385.86666 100.30001"
   xml:space="preserve"
   inkscape:version="0.91 r13725"
   sodipodi:docname="paradigma.svg"
   width="385.86667"
   height="100.3"><metadata
     id="metadata33"><rdf:RDF><cc:Work
         rdf:about=""><dc:format>image/svg+xml</dc:format><dc:type
           rdf:resource="http://purl.org/dc/dcmitype/StillImage" /><dc:title></dc:title></cc:Work></rdf:RDF></metadata><defs
     id="defs31" /><sodipodi:namedview
     pagecolor="#ffffff"
     bordercolor="#666666"
     borderopacity="1"
     objecttolerance="10"
     gridtolerance="10"
     guidetolerance="10"
     inkscape:pageopacity="0"
     inkscape:pageshadow="2"
     inkscape:window-width="1855"
     inkscape:window-height="1056"
     id="namedview29"
     showgrid="false"
     fit-margin-top="0"
     fit-margin-left="0"
     fit-margin-right="0"
     fit-margin-bottom="0"
     inkscape:zoom="0.35396127"
     inkscape:cx="-143.1783"
     inkscape:cy="50.350006"
     inkscape:window-x="1985"
     inkscape:window-y="24"
     inkscape:window-maximized="1"
     inkscape:current-layer="Capa_1" /><style
     type="text/css"
     id="style3">
	.st0{fill:#FA4F10;}
</style><g
     id="g5"
     transform="translate(-227.93333,-247.7)"><path
       class="st0"
       d="m 289.5,274.7 c -4.3,0 -7.6,1.4 -10,3.4 -0.3,0.2 -0.7,0.3 -1,-0.3 -0.7,-1.7 -2.3,-3.3 -4.8,-3.1 -2.8,0.1 -4.7,2.5 -4.7,4.8 l 0,41.9 c 0,2.7 2.2,4.8 4.8,4.8 2.7,0 4.8,-2.2 4.8,-4.8 l 0,-12.2 c 0,0 -0.2,-1.6 0.9,-0.8 3.5,2.5 6,3.1 9.8,3.1 10.6,0 16.3,-8.9 16.3,-18.4 0.3,-9.5 -5.4,-18.4 -16.1,-18.4 z m -2.1,28.6 c -5.5,0 -8.6,-4.8 -8.6,-10.2 0,-5.4 3.1,-10.2 8.6,-10.2 5.6,0 8.8,4.6 8.8,10.2 0,5.6 -3.2,10.2 -8.8,10.2 z"
       id="path7"
       inkscape:connector-curvature="0"
       style="fill:#fa4f10" /><path
       class="st0"
       d="m 328.4,274.7 c -10.9,0 -18.7,7.4 -18.7,18.4 0,10.1 6.5,18.4 17.4,18.4 4.9,0 8.3,-2.4 9.6,-3.6 0.5,-0.4 0.8,-0.1 0.8,0.2 0.5,1.7 2,3.4 4.7,3.4 2.9,0 4.8,-2.5 4.8,-4.9 l 0,-13.5 c 0.1,-11 -7.3,-18.4 -18.6,-18.4 z m 0,28.4 c -6.1,0 -9.2,-4.7 -9.2,-10.1 0,-5.6 3.6,-10.1 9.2,-10.1 5.7,0 9.1,4.2 9.1,10.1 0,5.5 -3.3,10.1 -9.1,10.1 z"
       id="path9"
       inkscape:connector-curvature="0"
       style="fill:#fa4f10" /><path
       class="st0"
       d="m 394.2,274.7 c -10.9,0 -18.7,7.4 -18.7,18.4 0,10.1 6.5,18.4 17.4,18.4 4.9,0 8.3,-2.4 9.6,-3.6 0.5,-0.4 0.8,-0.1 0.8,0.2 0.5,1.7 2,3.4 4.7,3.4 2.9,0 4.8,-2.5 4.8,-4.9 l 0,-13.5 c 0.1,-11 -7.3,-18.4 -18.6,-18.4 z m 0,28.4 c -6.1,0 -9.2,-4.7 -9.2,-10.1 0,-5.6 3.6,-10.1 9.2,-10.1 5.7,0 9.1,4.2 9.1,10.1 0,5.5 -3.3,10.1 -9.1,10.1 z"
       id="path11"
       inkscape:connector-curvature="0"
       style="fill:#fa4f10" /><path
       class="st0"
       d="m 595.2,274.7 c -10.9,0 -18.7,7.4 -18.7,18.4 0,10.1 6.5,18.4 17.4,18.4 4.9,0 8.3,-2.4 9.6,-3.6 0.5,-0.4 0.8,-0.1 0.8,0.2 0.5,1.7 2,3.4 4.7,3.4 2.9,0 4.8,-2.5 4.8,-4.9 l 0,-13.5 c 0,-11 -7.3,-18.4 -18.6,-18.4 z m 0,28.4 c -6.1,0 -9.2,-4.7 -9.2,-10.1 0,-5.6 3.6,-10.1 9.2,-10.1 5.7,0 9.1,4.2 9.1,10.1 0,5.5 -3.3,10.1 -9.1,10.1 z"
       id="path13"
       inkscape:connector-curvature="0"
       style="fill:#fa4f10" /><path
       class="st0"
       d="m 375.2,279 c 0,-2.4 -1.5,-4.3 -4.3,-4.3 -4.4,0 -7.6,2.4 -8.8,3.9 -0.3,0.4 -0.6,0.4 -0.7,0 -0.5,-2.3 -2.3,-3.8 -4.7,-3.9 -2.9,-0.1 -4.9,2.3 -4.9,5.2 l 0,26.5 c 0,3.3 2.3,5.1 4.9,5.1 2.7,0 4.8,-1.7 4.8,-5.1 l 0,-12.6 c 0,-6.5 3.7,-10.5 9.4,-10.5 2.5,0 4.3,-1.9 4.3,-4.3 z"
       id="path15"
       inkscape:connector-curvature="0"
       style="fill:#fa4f10" /><path
       class="st0"
       d="m 448.8,258.5 c -2.7,0 -4.8,2.2 -4.8,4.8 0,0 0,10.9 0,13.7 0,0.3 -0.2,0.9 -0.9,0.4 -2.7,-2 -5.6,-2.8 -9.8,-2.8 -10.6,0 -16.3,8.9 -16.3,18.4 0,9.5 5.7,18.4 16.3,18.4 5.4,0 8.6,-2.2 10,-3.4 0.3,-0.3 0.8,-0.3 0.9,0.1 0.7,2.1 2.5,3.3 4.8,3.3 2.8,0 4.8,-2.4 4.7,-4.9 l 0,-43.3 c -0.1,-2.5 -2.2,-4.7 -4.9,-4.7 z m -13.4,44.8 c -5.6,0 -8.8,-4.6 -8.8,-10.2 0,-5.6 3.2,-10.2 8.8,-10.2 5.5,0 8.6,4.8 8.6,10.2 0,5.4 -3.1,10.2 -8.6,10.2 z"
       id="path17"
       inkscape:connector-curvature="0"
       style="fill:#fa4f10" /><path
       class="st0"
       d="m 458.8,263.4 c 0,2.7 2.1,4.8 4.8,4.8 2.7,0 4.9,-2.1 4.9,-4.8 0,-2.7 -2.1,-4.9 -4.9,-4.9 -2.7,0 -4.8,2.2 -4.8,4.9 l 0,0 z"
       id="path19"
       inkscape:connector-curvature="0"
       style="fill:#fa4f10" /><path
       class="st0"
       d="m 458.8,306.7 c 0,2.7 2.2,4.8 4.8,4.8 2.7,0 4.8,-2.2 4.8,-4.8 l 0,-27.2 c 0,-2.7 -2.2,-4.8 -4.8,-4.8 -2.7,0 -4.8,2.2 -4.8,4.8 l 0,27.2 z"
       id="path21"
       inkscape:connector-curvature="0"
       style="fill:#fa4f10" /><path
       class="st0"
       d="m 505.2,274.7 c -2.6,0 -4.2,1.3 -4.7,3.1 0,0.1 -0.2,0.6 -0.7,0.1 -1.2,-1.1 -4.5,-3.3 -10.5,-3.3 -10.7,0 -16.3,8.2 -16.3,17.6 0,12.1 7.8,17.5 16.3,17.6 4,0 6.8,-0.6 10.2,-3.6 0.3,-0.3 0.7,-0.1 0.7,0.2 0,0.3 0,2.3 0,2.3 0,6.5 -4.2,7.8 -8.1,8.2 -3,0.3 -4.9,0 -6.9,-0.5 -1.9,-0.4 -2.7,-1 -4.4,-1 -1.8,-0.1 -4.6,1.6 -4.4,4.7 0,1.4 0.8,2.9 2.3,3.8 2.3,1.4 6.2,2.2 11,2.2 13.1,0 20.4,-6.6 20.4,-18.1 l 0,-28.4 c -0.1,-2.5 -2.1,-4.9 -4.9,-4.9 z m -13.9,27.2 c -5.5,0 -8.8,-4.1 -8.8,-9.5 0,-5.4 3.2,-9.5 8.8,-9.5 5.6,0 8.6,4.4 8.6,9.5 0,5 -3.1,9.5 -8.6,9.5 z"
       id="path23"
       inkscape:connector-curvature="0"
       style="fill:#fa4f10" /><path
       class="st0"
       d="m 572.4,306.4 0,-15.5 c 0,-9.7 -4.5,-16.3 -14.2,-16.3 -5.3,0 -9.5,1.9 -12,5.4 -0.3,0.4 -0.7,0.1 -0.8,0 -2.6,-3.4 -5.8,-5.4 -10.8,-5.4 -4.9,0 -8.4,2.4 -9.5,3.5 -0.1,0.1 -0.6,0.6 -0.8,-0.1 -0.6,-1.7 -2.4,-3.5 -4.6,-3.4 -2.8,0.1 -4.8,2.1 -4.8,5.2 l 0,26.5 c 0,2.7 2.2,5.1 4.8,5.1 2.6,0 4.9,-2.2 4.9,-5.1 l 0,-14.7 c 0,-4.3 1.8,-8.4 7.2,-8.4 5,0 7,3.7 7,8.4 l 0,14.7 c 0,2.7 2.2,5.1 4.9,5.1 2.7,0 4.9,-2.5 4.9,-5.1 l 0,-14.7 c 0,-4.3 1.9,-8.4 7.3,-8.4 5,0 7,3.7 7,8.4 l 0,14.7 c 0,3.1 2.2,5.1 4.8,5.1 2.4,0.1 4.7,-2.1 4.7,-5 z"
       id="path25"
       inkscape:connector-curvature="0"
       style="fill:#fa4f10" /><path
       class="st0"
       d="m 248.1,338.5 c -1.2,-0.1 -2.5,-0.5 -3.3,-1 -1,-0.7 -1.8,-1.8 -1.8,-3.5 l 0,-2 0,-8.2 0,-15.8 c 0,-4.3 -2.3,-8.2 -3.2,-9.3 -0.3,-0.3 -0.4,-0.7 -0.4,-1 l 0,0 0,0 0,0 c 0,-0.4 0.1,-0.7 0.4,-1 0.8,-1.1 3.2,-5 3.2,-9.3 l 0,-15.9 0,-8.2 0,-2 c 0,-1.7 0.8,-2.8 1.8,-3.5 0.8,-0.5 2.1,-0.9 3.3,-1 2.3,-0.3 4.3,-1.7 4.3,-4.4 0,-2.4 -1.5,-4.7 -5.5,-4.7 -3.2,0 -7,1.4 -9.6,3.8 -3.4,3.2 -4.2,7.9 -4.2,10.6 l 0,9 0,16.4 c 0,4.1 -3.1,7.6 -4.5,9 0,0 -1.5,1.2 0,2.7 1.4,1.4 4.5,4.9 4.5,9 l 0,16.4 0,9 c 0,2.7 0.7,7.4 4.2,10.6 2.6,2.4 6.3,3.8 9.6,3.8 3.9,0 5.5,-2.3 5.5,-4.7 0,-3.1 -2,-4.5 -4.3,-4.8 z"
       id="path27"
       inkscape:connector-curvature="0"
       style="fill:#fa4f10" /></g></svg>