<?xml version="1.0" encoding="UTF-8" standalone="no"?>
<!-- Created with Inkscape (http://www.inkscape.org/) -->

<svg
   xmlns:dc="http://purl.org/dc/elements/1.1/"
   xmlns:cc="http://creativecommons.org/ns#"
   xmlns:rdf="http://www.w3.org/1999/02/22-rdf-syntax-ns#"
   xmlns:svg="http://www.w3.org/2000/svg"
   xmlns="http://www.w3.org/2000/svg"
   xmlns:sodipodi="http://sodipodi.sourceforge.net/DTD/sodipodi-0.dtd"
   xmlns:inkscape="http://www.inkscape.org/namespaces/inkscape"
   id="svg2"
   version="1.1"
   inkscape:version="0.91 r13725"
   xml:space="preserve"
   width="244.71001"
   height="58.941875"
   viewBox="0 0 244.71001 58.941875"
   sodipodi:docname="profile.svg"><metadata
     id="metadata8"><rdf:RDF><cc:Work
         rdf:about=""><dc:format>image/svg+xml</dc:format><dc:type
           rdf:resource="http://purl.org/dc/dcmitype/StillImage" /><dc:title></dc:title></cc:Work></rdf:RDF></metadata><defs
     id="defs6"><clipPath
       clipPathUnits="userSpaceOnUse"
       id="clipPath36"><path
         d="M 0,207 389,207 389,0 0,0 0,207 Z"
         id="path38"
         inkscape:connector-curvature="0" /></clipPath></defs><sodipodi:namedview
     pagecolor="#ffffff"
     bordercolor="#666666"
     borderopacity="1"
     objecttolerance="10"
     gridtolerance="10"
     guidetolerance="10"
     inkscape:pageopacity="0"
     inkscape:pageshadow="2"
     inkscape:window-width="1855"
     inkscape:window-height="1056"
     id="namedview4"
     showgrid="false"
     fit-margin-top="0"
     fit-margin-left="0"
     fit-margin-right="0"
     fit-margin-bottom="0"
     inkscape:zoom="0.86375321"
     inkscape:cx="-25.86244"
     inkscape:cy="129.94905"
     inkscape:window-x="1985"
     inkscape:window-y="24"
     inkscape:window-maximized="1"
     inkscape:current-layer="g10" /><g
     id="g10"
     inkscape:groupmode="layer"
     inkscape:label="Profile-logos editables"
     transform="matrix(1.25,0,0,-1.25,-117.32375,150.98687)"><path
       d="m 107.395,105.786 -13.536,0 0,13.526 13.536,0 0,-13.526 z"
       style="fill:#ed2044;fill-opacity:1;fill-rule:nonzero;stroke:none"
       id="path12"
       inkscape:connector-curvature="0" /><path
       d="m 107.395,89.734 -13.536,0 0,13.523 13.536,0 0,-13.523 z"
       style="fill:#100f0d;fill-opacity:1;fill-rule:nonzero;stroke:none"
       id="path14"
       inkscape:connector-curvature="0" /><path
       d="m 107.395,73.661 -13.536,0 0,13.524 13.536,0 0,-13.524 z"
       style="fill:#abaaaf;fill-opacity:1;fill-rule:nonzero;stroke:none"
       id="path16"
       inkscape:connector-curvature="0" /><path
       d="m 123.538,105.761 -13.538,0 0,13.526 13.538,0 0,-13.526 z"
       style="fill:#abaaaf;fill-opacity:1;fill-rule:nonzero;stroke:none"
       id="path18"
       inkscape:connector-curvature="0" /><path
       d="m 123.538,89.712 -13.538,0 0,13.523 13.538,0 0,-13.523 z"
       style="fill:#ed2044;fill-opacity:1;fill-rule:nonzero;stroke:none"
       id="path20"
       inkscape:connector-curvature="0" /><path
       d="m 123.538,73.636 -13.538,0 0,13.528 13.538,0 0,-13.528 z"
       style="fill:#100f0d;fill-opacity:1;fill-rule:nonzero;stroke:none"
       id="path22"
       inkscape:connector-curvature="0" /><g
       id="g24"
       transform="translate(139.2334,105.3135)"><path
         d="m 0,0 -13.365,2.114 2.11,13.362 L 2.116,13.356 0,0 Z"
         style="fill:#100f0d;fill-opacity:1;fill-rule:nonzero;stroke:none"
         id="path26"
         inkscape:connector-curvature="0" /></g><path
       d="m 139.575,89.777 -13.538,0 0,13.53 13.538,0 0,-13.53 z"
       style="fill:#abaaaf;fill-opacity:1;fill-rule:nonzero;stroke:none"
       id="path28"
       inkscape:connector-curvature="0" /><path
       d="m 139.575,73.636 -13.538,0 0,13.528 13.538,0 0,-13.528 z"
       style="fill:#ed2044;fill-opacity:1;fill-rule:nonzero;stroke:none"
       id="path30"
       inkscape:connector-curvature="0" /><g
       id="g32"><g
         id="g34"
         clip-path="url(#clipPath36)"><g
           id="g40"
           transform="translate(171.1602,94.6548)"><path
             d="m 0,0 c -0.139,-0.963 -0.428,-1.863 -0.85,-2.695 -0.42,-0.83 -1.023,-1.527 -1.817,-2.079 -0.793,-0.556 -1.837,-0.834 -3.143,-0.834 -1.303,0 -2.349,0.278 -3.143,0.834 -0.786,0.552 -1.401,1.249 -1.843,2.079 -0.442,0.832 -0.73,1.732 -0.876,2.695 -0.138,0.96 -0.209,1.851 -0.209,2.667 0,1.002 0.066,1.989 0.189,2.97 0.12,0.978 0.385,1.865 0.79,2.667 0.405,0.795 1.01,1.43 1.822,1.912 0.809,0.48 1.898,0.721 3.27,0.721 1.306,0 2.35,-0.276 3.143,-0.832 C -1.873,9.551 -1.27,8.856 -0.85,8.022 -0.428,7.189 -0.139,6.296 0,5.331 0.14,4.365 0.211,3.479 0.211,2.667 0.211,1.851 0.14,0.96 0,0 m 6.151,7.72 c -0.371,1.44 -0.843,2.691 -1.423,3.746 -0.58,1.051 -1.253,1.933 -2.007,2.638 -0.761,0.703 -1.527,1.277 -2.299,1.717 -1.829,1.041 -3.912,1.593 -6.232,1.672 -2.215,0 -4.099,-0.345 -5.652,-1.031 -1.544,-0.684 -2.821,-1.665 -3.822,-2.944 -1.003,-1.274 -1.737,-2.831 -2.192,-4.662 -0.458,-1.831 -0.689,-3.914 -0.689,-6.249 l 0,-23.32 6.284,0 0,12.554 c 0.343,-0.499 0.71,-0.924 1.106,-1.279 0.921,-0.817 1.818,-1.408 2.695,-1.78 1.019,-0.403 2.077,-0.646 3.17,-0.722 2.181,0.039 4.118,0.556 5.806,1.557 0.742,0.445 1.454,1.005 2.136,1.691 0.689,0.688 1.303,1.544 1.851,2.584 0.548,1.038 0.984,2.275 1.321,3.717 0.334,1.446 0.498,3.127 0.498,5.058 0,1.919 -0.181,3.61 -0.551,5.053"
             style="fill:#100f0d;fill-opacity:1;fill-rule:nonzero;stroke:none"
             id="path42"
             inkscape:connector-curvature="0" /></g><g
           id="g44"
           transform="translate(180.8154,103.2061)"><path
             d="m 0,0 c 0,1.921 0.387,3.433 1.163,4.524 0.776,1.089 1.618,1.913 2.535,2.471 1.089,0.667 2.32,1.073 3.698,1.222 l 7.388,0 0,-6.717 -4.961,0 C 9.117,1.5 8.546,1.371 8.104,1.109 7.665,0.851 7.325,0.574 7.079,0.278 6.795,-0.093 6.604,-0.499 6.502,-0.944 l 0,-18.992 -6.502,0 L 0,0 Z"
             style="fill:#100f0d;fill-opacity:1;fill-rule:nonzero;stroke:none"
             id="path46"
             inkscape:connector-curvature="0" /></g><g
           id="g48"
           transform="translate(210.5937,105.5913)"><path
             d="M 0,0 C -1.302,0 -2.352,-0.275 -3.143,-0.832 -3.93,-1.386 -4.539,-2.08 -4.967,-2.914 -5.387,-3.748 -5.67,-4.641 -5.809,-5.605 -5.947,-6.572 -6.023,-7.457 -6.023,-8.27 c 0,-0.815 0.076,-1.707 0.214,-2.667 0.139,-0.963 0.422,-1.863 0.842,-2.695 0.428,-0.83 1.037,-1.526 1.824,-2.079 0.791,-0.556 1.841,-0.833 3.143,-0.833 1.301,0 2.35,0.277 3.141,0.833 0.791,0.553 1.398,1.249 1.82,2.079 0.428,0.832 0.71,1.732 0.846,2.695 0.139,0.96 0.209,1.852 0.209,2.667 0,0.813 -0.07,1.698 -0.209,2.665 C 5.671,-4.641 5.389,-3.748 4.961,-2.914 4.539,-2.08 3.932,-1.386 3.141,-0.832 2.35,-0.275 1.301,0 0,0 m -12.517,-8.27 c 0,1.919 0.181,3.61 0.531,5.053 0.353,1.441 0.817,2.692 1.4,3.747 0.582,1.05 1.246,1.933 2.008,2.637 0.754,0.704 1.517,1.278 2.295,1.717 C -4.453,5.926 -2.356,6.478 0,6.556 2.325,6.478 4.394,5.926 6.228,4.884 7.002,4.445 7.768,3.871 8.529,3.167 9.281,2.463 9.949,1.58 10.534,0.53 c 0.579,-1.055 1.05,-2.306 1.425,-3.747 0.369,-1.443 0.551,-3.134 0.551,-5.053 0,-1.93 -0.182,-3.611 -0.551,-5.057 -0.375,-1.443 -0.846,-2.68 -1.425,-3.718 -0.585,-1.039 -1.253,-1.896 -2.005,-2.584 -0.761,-0.685 -1.527,-1.245 -2.301,-1.69 -1.834,-1.002 -3.903,-1.519 -6.228,-1.558 -2.356,0.039 -4.453,0.556 -6.283,1.558 -0.778,0.445 -1.541,1.005 -2.295,1.69 -0.762,0.688 -1.426,1.545 -2.008,2.584 -0.583,1.038 -1.047,2.275 -1.4,3.718 -0.35,1.446 -0.531,3.127 -0.531,5.057"
             style="fill:#100f0d;fill-opacity:1;fill-rule:nonzero;stroke:none"
             id="path50"
             inkscape:connector-curvature="0" /></g><g
           id="g52"
           transform="translate(238.0439,109.4263)"><path
             d="m 0,0 0,-6.276 -5.544,0 0,-19.88 -6.281,0 0,29.262 c 0,1.923 0.379,3.434 1.133,4.523 0.761,1.097 1.595,1.919 2.507,2.471 1.096,0.669 2.327,1.076 3.698,1.225 l 7.39,0 0,-6.272 -4.961,0 C -2.9,5.053 -3.556,4.9 -4.017,4.607 -4.468,4.309 -4.821,3.974 -5.065,3.608 -5.35,3.199 -5.508,2.721 -5.544,2.164 L -5.544,0 0,0 Z"
             style="fill:#100f0d;fill-opacity:1;fill-rule:nonzero;stroke:none"
             id="path54"
             inkscape:connector-curvature="0" /></g><path
           d="m 250.664,83.271 -6.441,0 0,28.153 6.441,0 0,-28.153 z"
           style="fill:#100f0d;fill-opacity:1;fill-rule:nonzero;stroke:none"
           id="path56"
           inkscape:connector-curvature="0" /><path
           d="m 261.066,83.271 -6.441,0 0,37.481 6.441,0 0,-37.481 z"
           style="fill:#100f0d;fill-opacity:1;fill-rule:nonzero;stroke:none"
           id="path58"
           inkscape:connector-curvature="0" /><g
           id="g60"
           transform="translate(282.707,100.9316)"><path
             d="m 0,0 c -0.176,0.587 -0.39,1.179 -0.658,1.776 -0.266,0.587 -0.625,1.125 -1.08,1.607 -0.459,0.482 -1.006,0.864 -1.639,1.14 -0.635,0.273 -1.371,0.419 -2.219,0.419 -0.841,0 -1.585,-0.146 -2.216,-0.419 C -8.443,4.247 -8.994,3.865 -9.447,3.383 -9.906,2.901 -10.273,2.363 -10.555,1.776 -10.837,1.179 -11.051,0.587 -11.195,0 L 0,0 Z M 6.654,0 C 6.724,-0.561 6.787,-1.132 6.838,-1.724 6.894,-2.316 6.92,-2.949 6.92,-3.61 l 0,-1.001 -18.483,0 c 0.075,-0.632 0.163,-1.273 0.266,-1.916 0.102,-0.649 0.281,-1.287 0.529,-1.915 0.385,-0.968 0.986,-1.811 1.797,-2.556 0.811,-0.738 1.932,-1.11 3.375,-1.11 1.448,0 2.571,0.372 3.381,1.11 0.812,0.745 1.408,1.588 1.793,2.556 l 6.863,0 c -0.283,-1.302 -0.673,-2.427 -1.188,-3.39 -0.507,-0.96 -1.069,-1.794 -1.688,-2.496 -0.615,-0.703 -1.272,-1.29 -1.974,-1.75 -0.71,-0.463 -1.398,-0.848 -2.066,-1.138 -1.62,-0.666 -3.319,-1.001 -5.121,-1.001 -2.355,0.039 -4.45,0.556 -6.279,1.557 -0.775,0.446 -1.54,1.005 -2.296,1.691 -0.761,0.688 -1.429,1.544 -2.007,2.584 -0.58,1.038 -1.046,2.275 -1.402,3.718 -0.354,1.445 -0.527,3.126 -0.527,5.057 0,1.919 0.173,3.61 0.527,5.053 0.356,1.44 0.822,2.691 1.402,3.746 0.578,1.051 1.246,1.934 2.007,2.638 0.756,0.703 1.521,1.277 2.296,1.717 1.829,1.041 3.924,1.593 6.279,1.672 1.937,-0.079 3.748,-0.504 5.442,-1.28 C 0.548,9.601 1.262,9.168 1.982,8.631 2.703,8.092 3.373,7.424 3.987,6.631 4.603,5.836 5.15,4.892 5.625,3.8 6.103,2.708 6.441,1.443 6.654,0"
             style="fill:#100f0d;fill-opacity:1;fill-rule:nonzero;stroke:none"
             id="path62"
             inkscape:connector-curvature="0" /></g><g
           id="g64"
           transform="translate(250.3193,120.4175)"><path
             d="M 0,0 C -0.194,0.185 -0.51,0.288 -0.95,0.309 -1.39,0.324 -2.034,0.334 -2.878,0.334 -3.72,0.334 -4.366,0.324 -4.8,0.309 -5.247,0.288 -5.563,0.185 -5.761,0 c -0.185,-0.181 -0.291,-0.482 -0.308,-0.892 -0.02,-0.403 -0.028,-1.014 -0.028,-1.832 0,-0.81 0.008,-1.421 0.028,-1.831 0.017,-0.408 0.123,-0.702 0.308,-0.884 0.198,-0.188 0.514,-0.291 0.961,-0.306 0.434,-0.02 1.08,-0.029 1.922,-0.029 0.844,0 1.488,0.009 1.928,0.029 0.44,0.015 0.756,0.118 0.95,0.306 0.192,0.182 0.304,0.476 0.317,0.884 0.017,0.41 0.028,1.021 0.028,1.831 0,0.818 -0.011,1.429 -0.028,1.832 C 0.304,-0.482 0.192,-0.181 0,0"
             style="fill:#ed2044;fill-opacity:1;fill-rule:nonzero;stroke:none"
             id="path66"
             inkscape:connector-curvature="0" /></g></g></g></g></svg>