<?xml version="1.0" encoding="UTF-8" standalone="no"?>
<!-- Created with Inkscape (http://www.inkscape.org/) -->

<svg
   xmlns:dc="http://purl.org/dc/elements/1.1/"
   xmlns:cc="http://creativecommons.org/ns#"
   xmlns:rdf="http://www.w3.org/1999/02/22-rdf-syntax-ns#"
   xmlns:svg="http://www.w3.org/2000/svg"
   xmlns="http://www.w3.org/2000/svg"
   xmlns:sodipodi="http://sodipodi.sourceforge.net/DTD/sodipodi-0.dtd"
   xmlns:inkscape="http://www.inkscape.org/namespaces/inkscape"
   id="svg2"
   version="1.1"
   inkscape:version="0.91 r13725"
   xml:space="preserve"
   width="300.00104"
   height="105.82201"
   viewBox="0 0 300.00104 105.822"
   sodipodi:docname="rsi.svg"><metadata
     id="metadata8"><rdf:RDF><cc:Work
         rdf:about=""><dc:format>image/svg+xml</dc:format><dc:type
           rdf:resource="http://purl.org/dc/dcmitype/StillImage" /><dc:title></dc:title></cc:Work></rdf:RDF></metadata><defs
     id="defs6"><clipPath
       clipPathUnits="userSpaceOnUse"
       id="clipPath24"><path
         d="m 0,841.89 595.276,0 L 595.276,0 0,0 0,841.89 Z"
         id="path26"
         inkscape:connector-curvature="0" /></clipPath></defs><sodipodi:namedview
     pagecolor="#ffffff"
     bordercolor="#666666"
     borderopacity="1"
     objecttolerance="10"
     gridtolerance="10"
     guidetolerance="10"
     inkscape:pageopacity="0"
     inkscape:pageshadow="2"
     inkscape:window-width="1855"
     inkscape:window-height="1056"
     id="namedview4"
     showgrid="false"
     fit-margin-top="0"
     fit-margin-left="0"
     fit-margin-right="0"
     fit-margin-bottom="0"
     inkscape:zoom="1.2685909"
     inkscape:cx="167.37018"
     inkscape:cy="-69.326749"
     inkscape:window-x="1985"
     inkscape:window-y="24"
     inkscape:window-maximized="1"
     inkscape:current-layer="g20" /><g
     id="g10"
     inkscape:groupmode="layer"
     inkscape:label="logoRSI"
     transform="matrix(1.25,0,0,-1.25,-200.01317,645.3345)"><g
       id="g12"
       transform="matrix(0.87911011,0,0,0.87911011,207.48248,465.16933)"><path
         d="m 0,0 -54,0 36,-36 54,0 L 0,0 Z"
         style="fill:#77b800;fill-opacity:1;fill-rule:nonzero;stroke:none"
         id="path14"
         inkscape:connector-curvature="0" /></g><g
       id="g16"
       transform="matrix(0.87911011,0,0,0.87911011,242.99712,484.61964)"><path
         d="m 0,0 0,-54 -36,36 0,54 L 0,0 Z"
         style="fill:#77b800;fill-opacity:1;fill-rule:nonzero;stroke:none"
         id="path18"
         inkscape:connector-curvature="0" /></g><g
       id="g20"><g
         id="g22"
         clip-path="url(#clipPath24)"
         transform="matrix(0.87911011,0,0,0.87911011,33.850494,57.294411)"><g
           id="g28"
           transform="translate(272.7354,473.5317)"><path
             d="m 0,0 18.32,0 c 4.362,0 7.631,0.89 9.812,2.668 2.181,1.778 3.27,4.463 3.27,8.058 0,3.556 -1.035,6.223 -3.105,8.001 -2.07,1.778 -5.178,2.667 -9.318,2.667 L 0,21.394 0,0 Z m -16.89,-45.488 0,80.845 8.416,0 31.083,0 c 7.702,0 13.907,-2.066 18.618,-6.198 4.711,-4.131 7.066,-9.576 7.066,-16.332 0,-7.786 -2.621,-13.478 -7.863,-17.077 -1.391,-0.955 -2.968,-1.763 -4.727,-2.425 0.99,-0.403 1.888,-0.843 2.693,-1.319 4.62,-2.75 7.403,-7.018 7.586,-13.506 l 0.002,-13.603 c 0.073,-2.639 0.034,-10.385 0.034,-10.385 l -16.729,0 0,21.808 c -0.073,3.627 -1.338,6.211 -3.407,7.749 -2.069,1.538 -5.504,2.308 -10.302,2.308 l -15.58,0 0,-31.865 -8.416,0 -8.474,0 z"
             style="fill:#1a171b;fill-opacity:1;fill-rule:evenodd;stroke:none"
             id="path30"
             inkscape:connector-curvature="0" /></g><g
           id="g32"
           transform="translate(373.6777,484.6792)"><path
             d="m 0,0 c -0.293,3.838 -1.975,6.881 -5.047,9.128 -3.074,2.247 -7.078,3.371 -12.016,3.371 -4.279,0 -7.626,-0.943 -10.041,-2.832 -2.414,-1.888 -3.621,-4.517 -3.621,-7.89 0,-2.42 1.264,-4.289 3.793,-5.609 2.493,-1.319 7.787,-2.877 15.887,-4.672 11.764,-2.643 19.625,-5.69 23.582,-9.142 3.963,-3.413 5.947,-8.9 5.947,-16.464 0,-7.599 -2.988,-13.627 -8.963,-18.087 -5.974,-4.46 -14.056,-6.693 -24.248,-6.693 -10.226,0 -18.219,2.364 -23.973,7.088 -5.756,4.724 -8.834,11.444 -9.238,20.162 l 16.327,0 c 0.183,-4.263 1.736,-7.547 4.662,-9.841 2.924,-2.297 6.998,-3.446 12.226,-3.446 5.375,0 9.571,0.871 12.586,2.612 3.016,1.741 4.522,4.152 4.522,7.231 0,3.042 -1.09,5.278 -3.27,6.709 -2.121,1.427 -6.654,2.912 -13.603,4.452 -12.799,2.863 -21.359,5.964 -25.673,9.305 -4.293,3.304 -6.438,8.462 -6.438,15.473 0,7.857 2.838,14.088 8.512,18.696 5.674,4.606 13.343,6.91 23.009,6.91 9.041,0 16.398,-2.383 22.072,-7.151 C 12.668,14.542 15.816,8.105 16.439,0 L 0,0 Z"
             style="fill:#1a171b;fill-opacity:1;fill-rule:evenodd;stroke:none"
             id="path34"
             inkscape:connector-curvature="0" /></g><g
           id="g36"
           transform="translate(399.6221,427.7925)"><path
             d="m 0,0 0,80.846 8.418,0 8.473,0 L 16.891,0 8.473,0 0,0 Z"
             style="fill:#1a171b;fill-opacity:1;fill-rule:evenodd;stroke:none"
             id="path38"
             inkscape:connector-curvature="0" /></g><g
           transform="matrix(1,0,0,-1,165.9644,79.915)"
           style="font-variant:normal;font-weight:normal;font-stretch:normal;font-size:12px;font-family:'Myriad Pro';-inkscape-font-specification:MyriadPro-Regular;writing-mode:lr-tb;fill:#1a171b;fill-opacity:1;fill-rule:nonzero;stroke:none"
           id="text44" /></g></g></g></svg>