<?xml version="1.0" encoding="UTF-8" standalone="no"?>
<svg
   xmlns:dc="http://purl.org/dc/elements/1.1/"
   xmlns:cc="http://creativecommons.org/ns#"
   xmlns:rdf="http://www.w3.org/1999/02/22-rdf-syntax-ns#"
   xmlns:svg="http://www.w3.org/2000/svg"
   xmlns="http://www.w3.org/2000/svg"
   viewBox="0 0 722.10147 290.92237"
   height="290.92236"
   width="722.1015"
   xml:space="preserve"
   version="1.1"
   id="svg2"><metadata
     id="metadata8"><rdf:RDF><cc:Work
         rdf:about=""><dc:format>image/svg+xml</dc:format><dc:type
           rdf:resource="http://purl.org/dc/dcmitype/StillImage" /><dc:title></dc:title></cc:Work></rdf:RDF></metadata><defs
     id="defs6"><clipPath
       id="clipPath16"
       clipPathUnits="userSpaceOnUse"><path
         id="path18"
         d="m 0,595.28 841.89,0 L 841.89,0 0,0 0,595.28 Z" /></clipPath></defs><g
     transform="matrix(1.25,0,0,-1.25,-165.1305,517.51125)"
     id="g10"><g
       id="g12"><g
         clip-path="url(#clipPath16)"
         id="g14"><g
           transform="translate(175.8394,356.4147)"
           id="g20"><path
             id="path22"
             style="fill:#04192a;fill-opacity:1;fill-rule:nonzero;stroke:none"
             d="m 0,0 c -2.856,3.906 -6.762,5.977 -11.722,6.208 -1.746,0.081 -3.464,-0.253 -5.156,-1.003 -1.692,-0.749 -2.586,-2.136 -2.68,-4.155 -0.077,-1.653 0.716,-2.911 2.38,-3.77 1.661,-0.86 3.788,-1.65 6.379,-2.368 2.59,-0.72 5.36,-1.493 8.313,-2.319 2.952,-0.83 5.705,-2.04 8.255,-3.63 2.548,-1.592 4.612,-3.691 6.194,-6.296 1.582,-2.604 2.273,-6.019 2.076,-10.243 -0.201,-4.318 -1.308,-7.833 -3.321,-10.547 -2.014,-2.713 -4.53,-4.851 -7.547,-6.412 -3.02,-1.564 -6.381,-2.603 -10.086,-3.119 -3.706,-0.519 -7.35,-0.693 -10.932,-0.526 -4.683,0.218 -9.383,1.105 -14.096,2.658 -4.715,1.552 -8.646,4.106 -11.792,7.66 l 13.185,13.33 c 1.817,-2.479 3.867,-4.392 6.152,-5.74 2.284,-1.35 4.986,-2.097 8.11,-2.243 2.389,-0.111 4.562,0.133 6.523,0.732 1.962,0.6 2.985,1.815 3.071,3.653 0.081,1.745 -0.709,3.094 -2.367,4.046 -1.659,0.95 -3.782,1.786 -6.372,2.506 -2.591,0.718 -5.362,1.493 -8.313,2.321 -2.954,0.828 -5.706,1.991 -8.26,3.491 -2.552,1.499 -4.622,3.55 -6.202,6.156 -1.584,2.605 -2.273,6.02 -2.076,10.246 0.184,3.947 1.144,7.308 2.885,10.081 1.739,2.771 3.96,5.015 6.664,6.731 2.704,1.713 5.774,2.929 9.214,3.644 3.437,0.712 6.901,0.989 10.393,0.826 4.407,-0.205 8.832,-1.056 13.272,-2.55 4.441,-1.497 8.147,-3.971 11.115,-7.421 L 0,0 Z" /></g><path
           id="path24"
           style="fill:#04192a;fill-opacity:1;fill-rule:nonzero;stroke:none"
           d="m 211.75,275.266 -6.852,0 0,137.914 6.852,0 0,-137.914 z" /><g
           transform="translate(229.2283,376.7717)"
           id="g26"><path
             id="path28"
             style="fill:#04192a;fill-opacity:1;fill-rule:nonzero;stroke:none"
             d="m 0,0 19.86,0 0,-9.103 0.274,0 c 0.644,1.288 1.565,2.573 2.76,3.863 1.194,1.285 2.62,2.434 4.275,3.447 1.655,1.011 3.539,1.838 5.655,2.483 2.114,0.641 4.412,0.965 6.896,0.965 5.24,0 9.468,-0.806 12.686,-2.413 3.22,-1.609 5.726,-3.841 7.517,-6.688 1.794,-2.853 3.012,-6.208 3.657,-10.069 0.64,-3.861 0.965,-8.046 0.965,-12.551 l 0,-36.961 -20.688,0 0,32.824 c 0,1.931 -0.07,3.931 -0.207,6 -0.138,2.069 -0.551,3.976 -1.241,5.724 -0.691,1.744 -1.748,3.171 -3.171,4.274 -1.429,1.103 -3.472,1.656 -6.139,1.656 -2.668,0 -4.827,-0.484 -6.481,-1.45 -1.655,-0.964 -2.921,-2.252 -3.794,-3.861 -0.875,-1.609 -1.448,-3.425 -1.724,-5.448 -0.274,-2.022 -0.413,-4.135 -0.413,-6.343 l 0,-33.376 L 0,-67.027 0,0 Z" /></g><g
           transform="translate(382.6237,315.3996)"
           id="g30"><path
             id="path32"
             style="fill:#04192a;fill-opacity:1;fill-rule:nonzero;stroke:none"
             d="m 0,0 c 0,-12.688 -3.197,-22.318 -9.585,-28.893 -6.393,-6.573 -16.115,-9.861 -29.171,-9.861 -5.977,0 -11.859,0.669 -17.654,2 -5.791,1.333 -11.125,3.93 -15.997,7.793 l 11.448,17.1 c 3.217,-2.666 6.596,-4.779 10.138,-6.344 3.537,-1.562 7.424,-2.344 11.654,-2.344 6.343,0 11.007,1.54 13.997,4.621 2.986,3.08 4.482,7.01 4.482,11.791 l 0,6.482 -0.276,0 c -2.393,-3.22 -5.357,-5.496 -8.894,-6.827 -3.542,-1.333 -6.875,-2 -10.001,-2 -4.964,0 -9.471,0.849 -13.515,2.552 -4.047,1.7 -7.518,4.09 -10.412,7.17 -2.897,3.079 -5.127,6.735 -6.688,10.965 -1.565,4.228 -2.346,8.873 -2.346,13.929 0,4.414 0.71,8.735 2.139,12.965 1.424,4.228 3.446,7.95 6.067,11.17 2.619,3.218 5.813,5.815 9.585,7.793 3.77,1.976 8.045,2.965 12.827,2.965 2.942,0 5.63,-0.324 8.067,-0.965 2.436,-0.645 4.62,-1.472 6.551,-2.482 1.93,-1.014 3.587,-2.138 4.964,-3.38 1.381,-1.24 2.484,-2.461 3.312,-3.655 l 0.275,0 0,8.827 L 0,61.372 0,0 Z m -52.132,28.272 c 0,-2.206 0.412,-4.299 1.241,-6.275 0.828,-1.978 2,-3.724 3.516,-5.24 1.518,-1.518 3.263,-2.736 5.24,-3.655 1.976,-0.92 4.16,-1.38 6.551,-1.38 2.297,0 4.46,0.46 6.484,1.38 2.021,0.919 3.792,2.137 5.31,3.655 1.515,1.516 2.688,3.262 3.517,5.24 0.825,1.976 1.24,4.069 1.24,6.275 0,2.207 -0.415,4.298 -1.24,6.276 -0.829,1.976 -2.002,3.724 -3.517,5.24 -1.518,1.517 -3.289,2.735 -5.31,3.654 -2.024,0.919 -4.187,1.381 -6.484,1.381 -2.391,0 -4.575,-0.462 -6.551,-1.381 -1.977,-0.919 -3.722,-2.137 -5.24,-3.654 -1.516,-1.516 -2.688,-3.264 -3.516,-5.24 -0.829,-1.978 -1.241,-4.069 -1.241,-6.276" /></g><g
           transform="translate(467.6114,309.7449)"
           id="g34"><path
             id="path36"
             style="fill:#04192a;fill-opacity:1;fill-rule:nonzero;stroke:none"
             d="m 0,0 -19.86,0 0,9.103 -0.274,0 c -0.739,-1.29 -1.678,-2.576 -2.827,-3.863 -1.151,-1.288 -2.553,-2.437 -4.208,-3.448 -1.655,-1.011 -3.54,-1.838 -5.654,-2.482 -2.116,-0.641 -4.413,-0.965 -6.897,-0.965 -5.24,0 -9.494,0.806 -12.756,2.413 -3.265,1.608 -5.793,3.839 -7.584,6.69 -1.794,2.849 -2.991,6.206 -3.587,10.067 -0.6,3.861 -0.895,8.045 -0.895,12.551 l 0,36.961 20.685,0 0,-32.824 c 0,-1.931 0.07,-3.931 0.207,-6 0.139,-2.069 0.551,-3.978 1.242,-5.724 0.69,-1.746 1.747,-3.171 3.172,-4.274 1.425,-1.103 3.47,-1.656 6.137,-1.656 2.666,0 4.827,0.484 6.484,1.45 1.654,0.964 2.915,2.25 3.793,3.861 0.871,1.607 1.446,3.424 1.72,5.448 0.278,2.02 0.414,4.137 0.414,6.343 l 0,33.376 L 0,67.027 0,0 Z" /></g><path
           id="path38"
           style="fill:#04192a;fill-opacity:1;fill-rule:nonzero;stroke:none"
           d="m 486.403,414.009 20.687,0 0,-104.263 -20.687,0 0,104.263 z" /><g
           transform="translate(567.9448,318.1575)"
           id="g40"><path
             id="path42"
             style="fill:#04192a;fill-opacity:1;fill-rule:nonzero;stroke:none"
             d="m 0,0 -0.276,0 c -2.3,-3.585 -5.357,-6.161 -9.172,-7.722 -3.816,-1.563 -7.839,-2.345 -12.069,-2.345 -3.125,0 -6.135,0.437 -9.031,1.31 -2.897,0.873 -5.448,2.182 -7.655,3.93 -2.206,1.746 -3.954,3.908 -5.242,6.482 -1.288,2.573 -1.928,5.561 -1.928,8.964 0,3.863 0.71,7.124 2.135,9.793 1.426,2.666 3.357,4.872 5.793,6.62 2.436,1.746 5.218,3.103 8.345,4.068 3.123,0.966 6.365,1.676 9.722,2.138 3.355,0.459 6.711,0.734 10.067,0.828 3.356,0.089 6.46,0.137 9.311,0.137 0,3.676 -1.31,6.596 -3.93,8.757 -2.621,2.16 -5.725,3.242 -9.31,3.242 -3.403,0 -6.505,-0.714 -9.309,-2.137 -2.807,-1.427 -5.311,-3.38 -7.517,-5.862 l -11.033,11.309 c 3.861,3.585 8.364,6.275 13.515,8.067 5.148,1.793 10.482,2.69 15.997,2.69 6.069,0 11.057,-0.758 14.966,-2.275 3.906,-1.517 7.033,-3.747 9.378,-6.689 2.345,-2.944 3.976,-6.551 4.897,-10.826 0.916,-4.276 1.377,-9.219 1.377,-14.827 l 0,-34.064 L 0,-8.412 0,0 Z m -5.103,20.963 c -1.566,0 -3.517,-0.069 -5.863,-0.206 -2.343,-0.139 -4.597,-0.53 -6.757,-1.173 -2.162,-0.645 -3.998,-1.609 -5.516,-2.896 -1.516,-1.29 -2.276,-3.08 -2.276,-5.379 0,-2.482 1.055,-4.322 3.173,-5.516 C -20.229,4.597 -18.023,4 -15.723,4 c 2.021,0 3.977,0.276 5.862,0.827 1.882,0.552 3.562,1.333 5.032,2.345 1.471,1.01 2.644,2.297 3.519,3.862 0.873,1.562 1.31,3.4 1.31,5.517 l 0,4.412 -5.103,0 z" /></g><g
           transform="translate(603.8353,376.7717)"
           id="g44"><path
             id="path46"
             style="fill:#04192a;fill-opacity:1;fill-rule:nonzero;stroke:none"
             d="m 0,0 20.688,0 0,-10.757 0.275,0 c 2.206,4.138 4.827,7.241 7.861,9.309 3.034,2.069 6.849,3.103 11.446,3.103 1.194,0 2.391,-0.048 3.587,-0.139 1.194,-0.092 2.297,-0.274 3.309,-0.55 l 0,-18.896 c -1.47,0.46 -2.918,0.804 -4.343,1.036 -1.427,0.228 -2.92,0.345 -4.481,0.345 -3.957,0 -7.082,-0.553 -9.379,-1.656 -2.3,-1.103 -4.07,-2.643 -5.311,-4.619 -1.24,-1.979 -2.046,-4.345 -2.413,-7.105 -0.369,-2.756 -0.551,-5.791 -0.551,-9.101 l 0,-27.997 L 0,-67.027 0,0 Z" /></g><g
           transform="translate(139.867,238.914)"
           id="g48"><path
             id="path50"
             style="fill:#29badb;fill-opacity:1;fill-rule:nonzero;stroke:none"
             d="M 0,0 C 0,1.109 0.38,2.046 1.14,2.808 1.899,3.566 2.836,3.947 3.947,3.947 5.058,3.947 5.994,3.566 6.755,2.808 7.515,2.046 7.896,1.109 7.896,0 7.896,-1.113 7.515,-2.048 6.755,-2.808 5.994,-3.569 5.058,-3.949 3.947,-3.949 2.836,-3.949 1.899,-3.569 1.14,-2.808 0.38,-2.048 0,-1.113 0,0 m 1.315,-16.056 5.264,0 0,-40.534 -5.264,0 0,40.534 z" /></g><g
           transform="translate(181.1888,218.1207)"
           id="g52"><path
             id="path54"
             style="fill:#29badb;fill-opacity:1;fill-rule:nonzero;stroke:none"
             d="m 0,0 -11.58,0 0,-26.407 c 0,-1.815 0.496,-3.218 1.49,-4.213 0.995,-0.994 2.369,-1.491 4.123,-1.491 0.995,0 2.004,0.131 3.028,0.395 1.022,0.263 2.002,0.598 2.939,1.008 l 0.439,-4.737 c -0.996,-0.351 -2.136,-0.672 -3.422,-0.966 -1.287,-0.292 -2.428,-0.437 -3.423,-0.437 -1.872,0 -3.479,0.278 -4.825,0.833 -1.345,0.555 -2.428,1.301 -3.245,2.236 -0.82,0.936 -1.419,2.032 -1.799,3.29 -0.381,1.258 -0.57,2.618 -0.57,4.082 l 0,26.407 -8.774,0 0,4.737 8.774,0 0,11.669 5.265,0 0,-11.669 L 0,4.737 0,0 Z" /></g><g
           transform="translate(247.3402,188.291)"
           id="g56"><path
             id="path58"
             style="fill:#29badb;fill-opacity:1;fill-rule:nonzero;stroke:none"
             d="m 0,0 c -1.99,-2.399 -4.241,-4.168 -6.755,-5.309 -2.517,-1.14 -5.236,-1.709 -8.16,-1.709 -3.101,0 -5.966,0.526 -8.599,1.578 -2.632,1.052 -4.884,2.53 -6.755,4.431 -1.872,1.9 -3.334,4.152 -4.386,6.755 -1.053,2.602 -1.58,5.455 -1.58,8.554 0,3.1 0.527,5.953 1.58,8.554 1.052,2.602 2.514,4.854 4.386,6.757 1.871,1.899 4.123,3.378 6.755,4.429 2.633,1.054 5.498,1.581 8.599,1.581 2.982,0 5.746,-0.615 8.291,-1.842 2.544,-1.229 4.811,-2.955 6.8,-5.178 l -4.213,-3.158 c -1.521,1.695 -3.187,3.027 -4.999,3.991 -1.815,0.965 -3.773,1.449 -5.879,1.449 -2.456,0 -4.68,-0.439 -6.667,-1.317 -1.991,-0.876 -3.686,-2.062 -5.089,-3.553 -1.404,-1.491 -2.472,-3.247 -3.203,-5.264 -0.731,-2.018 -1.097,-4.168 -1.097,-6.449 0,-2.281 0.366,-4.429 1.097,-6.448 0.731,-2.018 1.799,-3.772 3.203,-5.265 1.403,-1.49 3.098,-2.675 5.089,-3.553 1.987,-0.876 4.211,-1.315 6.667,-1.315 2.222,0 4.254,0.511 6.098,1.536 1.842,1.021 3.435,2.381 4.78,4.078 L 0,0 Z" /></g><g
           transform="translate(287.0832,199.3451)"
           id="g60"><path
             id="path62"
             style="fill:#29badb;fill-opacity:1;fill-rule:nonzero;stroke:none"
             d="m 0,0 c 0,-1.989 0.013,-3.772 0.043,-5.352 0.029,-1.579 0.074,-3.041 0.133,-4.386 0.057,-1.346 0.13,-2.604 0.218,-3.772 0.088,-1.172 0.221,-2.342 0.396,-3.51 l -4.913,0 c -0.351,1.987 -0.528,4.182 -0.528,6.579 l -0.176,0 c -1.521,-2.63 -3.406,-4.562 -5.657,-5.789 -2.252,-1.229 -5.104,-1.844 -8.555,-1.844 -1.755,0 -3.48,0.221 -5.177,0.658 -1.697,0.439 -3.216,1.141 -4.562,2.107 -1.345,0.964 -2.442,2.207 -3.29,3.729 -0.849,1.519 -1.272,3.363 -1.272,5.527 0,3.098 0.79,5.555 2.369,7.37 1.579,1.812 3.523,3.171 5.834,4.078 2.31,0.907 4.766,1.493 7.37,1.756 2.603,0.263 4.898,0.394 6.887,0.394 l 6.142,0 0,2.457 c 0,3.51 -1.083,6.024 -3.246,7.545 -2.165,1.521 -4.885,2.281 -8.16,2.281 -4.68,0 -8.803,-1.521 -12.37,-4.562 l -3.071,3.598 c 1.929,1.871 4.328,3.29 7.195,4.254 2.865,0.965 5.614,1.449 8.246,1.449 4.913,0 8.832,-1.156 11.756,-3.467 C -1.464,18.789 0,15.06 0,9.914 L 0,0 Z m -10.529,3.334 c -2.223,0 -4.371,-0.146 -6.448,-0.439 -2.077,-0.293 -3.948,-0.79 -5.616,-1.492 -1.666,-0.701 -2.997,-1.636 -3.992,-2.806 -0.994,-1.172 -1.49,-2.632 -1.49,-4.386 0,-1.229 0.276,-2.326 0.833,-3.292 0.555,-0.964 1.272,-1.754 2.15,-2.369 0.876,-0.614 1.856,-1.082 2.938,-1.403 1.083,-0.322 2.179,-0.482 3.29,-0.482 2.808,0 5.118,0.407 6.931,1.228 1.813,0.819 3.261,1.887 4.343,3.202 1.082,1.317 1.828,2.808 2.238,4.476 0.409,1.666 0.614,3.347 0.614,5.044 l 0,2.719 -5.791,0 z" /></g><g
           transform="translate(301.12,211.4529)"
           id="g64"><path
             id="path66"
             style="fill:#29badb;fill-opacity:1;fill-rule:nonzero;stroke:none"
             d="m 0,0 c 0,0.76 -0.03,1.681 -0.088,2.763 -0.059,1.082 -0.102,2.179 -0.131,3.29 -0.03,1.111 -0.075,2.15 -0.132,3.116 -0.058,0.964 -0.086,1.709 -0.086,2.237 l 5.262,0 C 4.884,9.884 4.927,8.421 4.958,7.018 4.986,5.615 5.058,4.707 5.176,4.299 l 0.264,0 c 1.053,2.221 2.807,4.137 5.264,5.746 2.457,1.609 5.322,2.413 8.599,2.413 3.157,0 5.73,-0.498 7.721,-1.491 1.987,-0.996 3.553,-2.297 4.692,-3.904 1.14,-1.609 1.932,-3.467 2.369,-5.572 0.439,-2.106 0.659,-4.27 0.659,-6.492 l 0,-24.128 -5.264,0 0,23.865 c 0,1.637 -0.148,3.23 -0.439,4.782 -0.294,1.548 -0.806,2.938 -1.535,4.168 -0.733,1.227 -1.756,2.206 -3.071,2.938 -1.317,0.73 -3.028,1.097 -5.132,1.097 -1.932,0 -3.759,-0.339 -5.485,-1.009 C 12.093,6.038 10.602,5.015 9.344,3.641 8.085,2.265 7.092,0.539 6.361,-1.536 5.628,-3.612 5.264,-6.053 5.264,-8.862 l 0,-20.267 -5.264,0 L 0,0 Z" /></g><g
           transform="translate(371.5705,248.6525)"
           id="g68"><path
             id="path70"
             style="fill:#29badb;fill-opacity:1;fill-rule:nonzero;stroke:none"
             d="m 0,0 5.264,0 0,-32.901 0.176,0 c 0.817,1.405 1.842,2.616 3.071,3.641 1.227,1.023 2.557,1.871 3.992,2.545 1.432,0.671 2.939,1.169 4.517,1.49 1.58,0.321 3.129,0.484 4.652,0.484 3.098,0 5.95,-0.527 8.553,-1.58 2.602,-1.052 4.855,-2.53 6.756,-4.43 1.899,-1.902 3.377,-4.155 4.429,-6.756 1.054,-2.602 1.58,-5.455 1.58,-8.554 0,-3.1 -0.526,-5.953 -1.58,-8.554 -1.052,-2.604 -2.53,-4.856 -4.429,-6.756 -1.901,-1.901 -4.154,-3.377 -6.756,-4.43 -2.603,-1.052 -5.455,-1.579 -8.553,-1.579 -1.523,0 -3.072,0.161 -4.652,0.482 -1.578,0.322 -3.085,0.819 -4.517,1.491 -1.435,0.672 -2.765,1.521 -3.992,2.544 -1.229,1.023 -2.254,2.238 -3.071,3.641 l -0.176,0 0,-7.106 -5.264,0 L 0,0 Z m 4.737,-46.061 c 0,-2.281 0.439,-4.43 1.317,-6.447 0.877,-2.02 2.075,-3.774 3.598,-5.266 1.52,-1.491 3.303,-2.675 5.351,-3.553 2.046,-0.877 4.268,-1.316 6.669,-1.316 2.454,0 4.678,0.439 6.667,1.316 1.987,0.878 3.684,2.062 5.088,3.553 1.404,1.492 2.47,3.246 3.202,5.266 0.732,2.017 1.097,4.166 1.097,6.447 0,2.281 -0.365,4.431 -1.097,6.448 -0.732,2.018 -1.798,3.774 -3.202,5.264 -1.404,1.493 -3.101,2.677 -5.088,3.554 -1.989,0.878 -4.213,1.316 -6.667,1.316 -2.401,0 -4.623,-0.438 -6.669,-1.316 -2.048,-0.877 -3.831,-2.061 -5.351,-3.554 -1.523,-1.49 -2.721,-3.246 -3.598,-5.264 -0.878,-2.017 -1.317,-4.167 -1.317,-6.448" /></g><g
           transform="translate(462.1127,189.9573)"
           id="g72"><path
             id="path74"
             style="fill:#29badb;fill-opacity:1;fill-rule:nonzero;stroke:none"
             d="m 0,0 c -2.048,-3.1 -4.576,-5.322 -7.588,-6.667 -3.014,-1.346 -6.332,-2.018 -9.959,-2.018 -3.101,0 -5.907,0.527 -8.423,1.579 -2.514,1.053 -4.68,2.53 -6.492,4.431 -1.813,1.899 -3.202,4.151 -4.167,6.755 -0.965,2.602 -1.447,5.483 -1.447,8.642 0,3.04 0.495,5.848 1.49,8.423 0.996,2.573 2.399,4.809 4.212,6.712 1.813,1.899 3.947,3.39 6.404,4.474 2.458,1.082 5.178,1.623 8.16,1.623 3.099,0 5.834,-0.541 8.202,-1.623 2.371,-1.084 4.358,-2.516 5.967,-4.299 1.607,-1.786 2.822,-3.818 3.641,-6.097 0.819,-2.281 1.229,-4.594 1.229,-6.932 l 0,-3.684 -34.042,0 c 0,-1.113 0.219,-2.532 0.658,-4.256 0.439,-1.725 1.243,-3.408 2.413,-5.044 1.17,-1.639 2.733,-3.042 4.695,-4.212 1.958,-1.17 4.488,-1.754 7.588,-1.754 2.689,0 5.293,0.643 7.808,1.929 2.514,1.287 4.444,3.041 5.791,5.265 L 0,0 Z m -4.035,16.056 c 0,1.812 -0.366,3.509 -1.097,5.089 -0.732,1.578 -1.725,2.967 -2.983,4.167 -1.259,1.198 -2.75,2.149 -4.474,2.851 -1.727,0.703 -3.553,1.054 -5.485,1.054 -2.865,0 -5.25,-0.586 -7.149,-1.756 -1.903,-1.17 -3.408,-2.516 -4.519,-4.035 -1.112,-1.521 -1.901,-2.998 -2.369,-4.431 -0.469,-1.434 -0.702,-2.412 -0.702,-2.939 l 28.778,0 z" /></g><g
           transform="translate(533.3529,189.4312)"
           id="g76"><path
             id="path78"
             style="fill:#29badb;fill-opacity:1;fill-rule:nonzero;stroke:none"
             d="m 0,0 -0.176,0 c -0.82,-1.403 -1.842,-2.618 -3.071,-3.641 -1.227,-1.023 -2.558,-1.872 -3.992,-2.544 -1.433,-0.674 -2.938,-1.169 -4.517,-1.493 -1.58,-0.319 -3.13,-0.482 -4.65,-0.482 -3.101,0 -5.966,0.527 -8.598,1.579 -2.633,1.053 -4.885,2.53 -6.757,4.431 -1.871,1.901 -3.333,4.153 -4.386,6.757 -1.052,2.601 -1.579,5.452 -1.579,8.554 0,3.099 0.527,5.95 1.579,8.554 1.053,2.601 2.515,4.854 4.386,6.755 1.872,1.899 4.124,3.377 6.757,4.431 2.632,1.052 5.497,1.58 8.598,1.58 1.52,0 3.07,-0.163 4.65,-0.484 1.579,-0.322 3.084,-0.819 4.517,-1.491 1.434,-0.673 2.765,-1.522 3.992,-2.544 1.229,-1.025 2.251,-2.238 3.071,-3.641 l 0.176,0 0,32.901 5.264,0 0,-66.328 L 0,-7.106 0,0 Z m 0.527,13.161 c 0,2.281 -0.439,4.431 -1.317,6.448 -0.876,2.018 -2.077,3.772 -3.596,5.264 -1.523,1.491 -3.306,2.676 -5.352,3.554 -2.048,0.876 -4.27,1.315 -6.668,1.315 -2.458,0 -4.68,-0.439 -6.669,-1.315 -1.988,-0.878 -3.684,-2.063 -5.088,-3.554 -1.403,-1.492 -2.473,-3.246 -3.202,-5.264 -0.731,-2.017 -1.097,-4.167 -1.097,-6.448 0,-2.281 0.366,-4.431 1.097,-6.449 0.729,-2.019 1.799,-3.773 3.202,-5.264 1.404,-1.491 3.1,-2.677 5.088,-3.553 1.989,-0.878 4.211,-1.317 6.669,-1.317 2.398,0 4.62,0.439 6.668,1.317 2.046,0.876 3.829,2.062 5.352,3.553 1.519,1.491 2.72,3.245 3.596,5.264 0.878,2.018 1.317,4.168 1.317,6.449" /></g><g
           transform="translate(549.2328,202.5913)"
           id="g80"><path
             id="path82"
             style="fill:#29badb;fill-opacity:1;fill-rule:nonzero;stroke:none"
             d="m 0,0 c 0,3.1 0.527,5.952 1.579,8.554 1.053,2.602 2.515,4.854 4.386,6.757 1.872,1.899 4.125,3.377 6.757,4.429 2.632,1.054 5.497,1.58 8.598,1.58 3.099,0 5.951,-0.526 8.553,-1.58 2.603,-1.052 4.855,-2.53 6.756,-4.429 1.9,-1.903 3.378,-4.155 4.431,-6.757 C 42.112,5.952 42.639,3.1 42.639,0 c 0,-3.1 -0.527,-5.952 -1.579,-8.554 -1.053,-2.603 -2.531,-4.856 -4.431,-6.755 -1.901,-1.901 -4.153,-3.379 -6.756,-4.431 -2.602,-1.052 -5.454,-1.579 -8.553,-1.579 -3.101,0 -5.966,0.527 -8.598,1.579 -2.632,1.052 -4.885,2.53 -6.757,4.431 -1.871,1.899 -3.333,4.152 -4.386,6.755 C 0.527,-5.952 0,-3.1 0,0 m 5.264,0 c 0,-2.281 0.364,-4.429 1.097,-6.449 0.729,-2.017 1.799,-3.771 3.202,-5.264 1.404,-1.491 3.1,-2.675 5.088,-3.553 1.988,-0.876 4.211,-1.315 6.669,-1.315 2.457,0 4.679,0.439 6.668,1.315 1.987,0.878 3.684,2.062 5.088,3.553 1.403,1.493 2.471,3.247 3.202,5.264 0.731,2.02 1.097,4.168 1.097,6.449 0,2.281 -0.366,4.431 -1.097,6.449 -0.731,2.017 -1.799,3.773 -3.202,5.264 -1.404,1.491 -3.101,2.677 -5.088,3.553 -1.989,0.878 -4.211,1.317 -6.668,1.317 -2.458,0 -4.681,-0.439 -6.669,-1.317 C 12.663,14.39 10.967,13.204 9.563,11.713 8.16,10.222 7.09,8.466 6.361,6.449 5.628,4.431 5.264,2.281 5.264,0" /></g><g
           transform="translate(603.6276,211.4529)"
           id="g84"><path
             id="path86"
             style="fill:#29badb;fill-opacity:1;fill-rule:nonzero;stroke:none"
             d="m 0,0 c 0,0.76 -0.03,1.681 -0.088,2.763 -0.059,1.082 -0.102,2.179 -0.131,3.29 -0.03,1.111 -0.075,2.15 -0.132,3.116 -0.058,0.964 -0.086,1.709 -0.086,2.237 l 5.262,0 C 4.883,9.884 4.927,8.421 4.958,7.018 4.987,5.615 5.058,4.707 5.176,4.299 l 0.264,0 c 1.053,2.221 2.807,4.137 5.264,5.746 2.457,1.609 5.322,2.413 8.599,2.413 3.157,0 5.73,-0.498 7.721,-1.491 1.987,-0.996 3.553,-2.297 4.692,-3.904 1.14,-1.609 1.932,-3.467 2.369,-5.572 0.439,-2.106 0.659,-4.27 0.659,-6.492 l 0,-24.128 -5.264,0 0,23.865 c 0,1.637 -0.148,3.23 -0.439,4.782 -0.294,1.548 -0.806,2.938 -1.535,4.168 -0.733,1.227 -1.756,2.206 -3.071,2.938 -1.317,0.73 -3.027,1.097 -5.132,1.097 -1.932,0 -3.759,-0.339 -5.485,-1.009 C 12.093,6.038 10.602,5.015 9.344,3.641 8.085,2.265 7.092,0.539 6.361,-1.536 5.628,-3.612 5.264,-6.053 5.264,-8.862 l 0,-20.267 -5.264,0 L 0,0 Z" /></g><g
           transform="translate(688.204,189.9573)"
           id="g88"><path
             id="path90"
             style="fill:#29badb;fill-opacity:1;fill-rule:nonzero;stroke:none"
             d="m 0,0 c -2.048,-3.1 -4.576,-5.322 -7.588,-6.667 -3.014,-1.346 -6.332,-2.018 -9.959,-2.018 -3.101,0 -5.907,0.527 -8.423,1.579 -2.514,1.053 -4.68,2.53 -6.492,4.431 -1.813,1.899 -3.202,4.151 -4.168,6.755 -0.964,2.602 -1.446,5.483 -1.446,8.642 0,3.04 0.495,5.848 1.491,8.423 0.995,2.573 2.398,4.809 4.211,6.712 1.812,1.899 3.947,3.39 6.404,4.474 2.456,1.082 5.178,1.623 8.16,1.623 3.099,0 5.835,-0.541 8.202,-1.623 2.371,-1.084 4.358,-2.516 5.967,-4.299 1.609,-1.786 2.822,-3.818 3.641,-6.097 0.819,-2.281 1.227,-4.594 1.227,-6.932 l 0,-3.684 -34.04,0 c 0,-1.113 0.22,-2.532 0.658,-4.256 0.439,-1.725 1.243,-3.408 2.413,-5.044 1.17,-1.639 2.734,-3.042 4.693,-4.212 1.96,-1.17 4.49,-1.754 7.59,-1.754 2.689,0 5.293,0.643 7.808,1.929 2.514,1.287 4.444,3.041 5.79,5.265 L 0,0 Z m -4.035,16.056 c 0,1.812 -0.366,3.509 -1.097,5.089 -0.732,1.578 -1.727,2.967 -2.983,4.167 -1.26,1.198 -2.75,2.149 -4.474,2.851 -1.727,0.703 -3.553,1.054 -5.485,1.054 -2.865,0 -5.25,-0.586 -7.149,-1.756 -1.903,-1.17 -3.408,-2.516 -4.519,-4.035 -1.112,-1.521 -1.901,-2.998 -2.369,-4.431 -0.469,-1.434 -0.702,-2.412 -0.702,-2.939 l 28.778,0 z" /></g><g
           transform="translate(701.3646,186.0098)"
           id="g92"><path
             id="path94"
             style="fill:#29badb;fill-opacity:1;fill-rule:nonzero;stroke:none"
             d="m 0,0 c 0,1.168 0.409,2.163 1.229,2.983 0.817,0.818 1.812,1.228 2.982,1.228 1.17,0 2.163,-0.41 2.983,-1.228 C 8.013,2.163 8.421,1.168 8.421,0 c 0,-1.17 -0.408,-2.164 -1.227,-2.983 -0.82,-0.819 -1.813,-1.228 -2.983,-1.228 -1.17,0 -2.165,0.409 -2.982,1.228 C 0.409,-2.164 0,-1.17 0,0" /></g></g></g></g></svg>