<svg xmlns="http://www.w3.org/2000/svg" viewBox="0 0 757.5 386.25" height="386.25" width="757.5"><defs><clipPath id="a"><path d="M0 0h605.305v308.962H0V0z"/></clipPath></defs><path d="M514.206.048c5.565 0 10.1 4.537 10.1 10.157 0 5.621-4.535 10.158-10.1 10.158-5.594 0-10.099-4.537-10.099-10.158 0-5.62 4.505-10.157 10.1-10.157M512.409 205.335c5.594 0 10.104 4.534 10.104 10.156 0 5.62-4.51 10.156-10.104 10.156-5.56 0-10.099-4.536-10.099-10.156 0-5.622 4.539-10.156 10.099-10.156M528.389 179.74c5.561 0 10.1 4.535 10.1 10.157 0 5.593-4.539 10.156-10.1 10.156-5.565 0-10.099-4.563-10.099-10.155 0-5.623 4.534-10.158 10.099-10.158M515.405 102.761c5.593 0 10.099 4.538 10.099 10.158 0 5.621-4.507 10.157-10.099 10.157-5.561 0-10.099-4.536-10.099-10.157 0-5.62 4.538-10.158 10.099-10.158M530.81 128.352c5.598 0 10.104 4.567 10.104 10.16 0 5.62-4.506 10.157-10.104 10.157-5.56 0-10.094-4.538-10.094-10.158 0-5.592 4.534-10.159 10.094-10.159M493.41 51.405c5.564 0 10.07 4.536 10.07 10.158 0 5.62-4.506 10.157-10.07 10.157-5.595 0-10.1-4.537-10.1-10.157 0-5.622 4.505-10.158 10.1-10.158M499.828 25.7c5.592 0 10.098 4.535 10.098 10.155 0 5.622-4.506 10.157-10.098 10.157-5.56 0-10.1-4.535-10.1-10.157 0-5.62 4.54-10.155 10.1-10.155M497.2 77.168c5.599 0 10.104 4.537 10.104 10.158 0 5.593-4.505 10.157-10.104 10.157-5.559 0-10.065-4.564-10.065-10.157 0-5.621 4.506-10.158 10.065-10.158M535.406 154.119c5.593 0 10.099 4.563 10.099 10.157 0 5.62-4.506 10.156-10.099 10.156-5.561 0-10.098-4.536-10.098-10.156 0-5.594 4.537-10.157 10.098-10.157" fill="#104076"/><path d="M484.48.048c5.565 0 10.1 4.537 10.1 10.157 0 5.621-4.535 10.158-10.1 10.158-5.565 0-10.104-4.537-10.104-10.158 0-5.62 4.539-10.157 10.104-10.157M482.683 205.335c5.593 0 10.098 4.534 10.098 10.156 0 5.62-4.505 10.156-10.099 10.156-5.563 0-10.075-4.536-10.075-10.156 0-5.622 4.512-10.156 10.075-10.156M542.14 205.335c5.589 0 10.095 4.534 10.095 10.156 0 5.62-4.506 10.156-10.095 10.156-5.565 0-10.099-4.536-10.099-10.156 0-5.622 4.534-10.156 10.099-10.156M543.938.048c5.565 0 10.07 4.537 10.07 10.157 0 5.621-4.506 10.158-10.07 10.158-5.594 0-10.1-4.537-10.1-10.158 0-5.62 4.506-10.157 10.1-10.157M416.519 154.119c5.561 0 10.071 4.563 10.071 10.157 0 5.62-4.51 10.156-10.071 10.156-5.593 0-10.099-4.536-10.099-10.156 0-5.594 4.506-10.157 10.099-10.157M446.246 154.119c5.565 0 10.075 4.563 10.075 10.157 0 5.62-4.51 10.156-10.075 10.156-5.588 0-10.1-4.536-10.1-10.156 0-5.594 4.511-10.157 10.1-10.157M475.947 154.119c5.595 0 10.1 4.563 10.1 10.157 0 5.62-4.505 10.156-10.1 10.156-5.563 0-10.068-4.536-10.068-10.156 0-5.594 4.505-10.157 10.068-10.157M505.679 154.119c5.59 0 10.1 4.563 10.1 10.157 0 5.62-4.51 10.156-10.1 10.156-5.564 0-10.069-4.536-10.069-10.156 0-5.594 4.505-10.157 10.069-10.157M565.138 154.119c5.56 0 10.098 4.563 10.098 10.157 0 5.62-4.538 10.156-10.098 10.156-5.57 0-10.1-4.536-10.1-10.156 0-5.594 4.53-10.157 10.1-10.157M594.864 154.119c5.565 0 10.098 4.563 10.098 10.157 0 5.62-4.533 10.156-10.098 10.156-5.593 0-10.099-4.536-10.099-10.156 0-5.594 4.506-10.157 10.099-10.157M439.2 179.74c5.59 0 10.104 4.535 10.104 10.157 0 5.593-4.514 10.156-10.104 10.156-5.559 0-10.07-4.563-10.07-10.155 0-5.623 4.511-10.158 10.07-10.158M468.931 179.74c5.589 0 10.099 4.535 10.099 10.157 0 5.593-4.51 10.156-10.099 10.156-5.565 0-10.104-4.563-10.104-10.155 0-5.623 4.54-10.158 10.104-10.158M498.657 179.74c5.565 0 10.1 4.535 10.1 10.157 0 5.593-4.535 10.156-10.1 10.156-5.56 0-10.093-4.563-10.093-10.155 0-5.623 4.533-10.158 10.093-10.158M558.116 179.74c5.564 0 10.099 4.535 10.099 10.157 0 5.593-4.535 10.156-10.099 10.156-5.593 0-10.098-4.563-10.098-10.155 0-5.623 4.505-10.158 10.098-10.158M587.848 179.74c5.563 0 10.098 4.535 10.098 10.157 0 5.593-4.535 10.156-10.098 10.156-5.595 0-10.1-4.563-10.1-10.155 0-5.623 4.505-10.158 10.1-10.158M426.25 102.761c5.56 0 10.099 4.538 10.099 10.158 0 5.621-4.539 10.157-10.099 10.157-5.594 0-10.104-4.536-10.104-10.157 0-5.62 4.51-10.158 10.104-10.158M455.976 102.761c5.564 0 10.069 4.538 10.069 10.158 0 5.621-4.505 10.157-10.069 10.157-5.589 0-10.099-4.536-10.099-10.157 0-5.62 4.51-10.158 10.1-10.158M485.677 102.761c5.59 0 10.1 4.538 10.1 10.158 0 5.621-4.51 10.157-10.1 10.157-5.563 0-10.073-4.536-10.073-10.157 0-5.62 4.51-10.158 10.073-10.158M545.136 102.761c5.593 0 10.099 4.538 10.099 10.158 0 5.621-4.506 10.157-10.099 10.157-5.565 0-10.103-4.536-10.103-10.157 0-5.62 4.538-10.158 10.103-10.158M574.862 102.761c5.564 0 10.104 4.538 10.104 10.158 0 5.621-4.54 10.157-10.104 10.157-5.56 0-10.098-4.536-10.098-10.157 0-5.62 4.538-10.158 10.098-10.158M604.594 102.761c5.56 0 10.093 4.538 10.093 10.158 0 5.621-4.533 10.157-10.093 10.157-5.565 0-10.099-4.536-10.099-10.157 0-5.62 4.534-10.158 10.099-10.158M411.924 128.352c5.564 0 10.104 4.567 10.104 10.16 0 5.62-4.54 10.157-10.104 10.157-5.589 0-10.095-4.538-10.095-10.158 0-5.592 4.506-10.159 10.095-10.159M441.655 128.352c5.564 0 10.069 4.567 10.069 10.16 0 5.62-4.505 10.157-10.069 10.157-5.595 0-10.099-4.538-10.099-10.158 0-5.592 4.504-10.159 10.099-10.159M471.352 128.352c5.593 0 10.104 4.567 10.104 10.16 0 5.62-4.511 10.157-10.104 10.157-5.56 0-10.066-4.538-10.066-10.158 0-5.592 4.505-10.159 10.066-10.159M501.084 128.352c5.592 0 10.099 4.567 10.099 10.16 0 5.62-4.507 10.157-10.1 10.157-5.564 0-10.07-4.538-10.07-10.158 0-5.592 4.506-10.159 10.07-10.159M560.541 128.352c5.564 0 10.099 4.567 10.099 10.16 0 5.62-4.535 10.157-10.099 10.157-5.565 0-10.1-4.538-10.1-10.158 0-5.592 4.535-10.159 10.1-10.159M590.271 128.352c5.565 0 10.094 4.567 10.094 10.16 0 5.62-4.529 10.157-10.094 10.157-5.563 0-10.098-4.538-10.098-10.158 0-5.592 4.535-10.159 10.098-10.159M619.999 128.352c5.565 0 10.098 4.567 10.098 10.16 0 5.62-4.533 10.157-10.098 10.157-5.589 0-10.1-4.538-10.1-10.158 0-5.592 4.511-10.159 10.1-10.159M433.952 51.405c5.564 0 10.1 4.536 10.1 10.158 0 5.62-4.536 10.157-10.1 10.157-5.593 0-10.098-4.537-10.098-10.157 0-5.622 4.505-10.158 10.099-10.158M463.679 51.405c5.564 0 10.104 4.536 10.104 10.158 0 5.62-4.54 10.157-10.104 10.157-5.59 0-10.099-4.537-10.099-10.157 0-5.622 4.509-10.158 10.099-10.158M523.112 51.405c5.588 0 10.1 4.536 10.1 10.158 0 5.62-4.512 10.157-10.1 10.157-5.565 0-10.076-4.537-10.076-10.157 0-5.622 4.512-10.158 10.077-10.158M552.839 51.405c5.593 0 10.098 4.536 10.098 10.158 0 5.62-4.505 10.157-10.098 10.157-5.56 0-10.077-4.537-10.077-10.157 0-5.622 4.517-10.158 10.077-10.158M582.57 51.405c5.589 0 10.099 4.536 10.099 10.158 0 5.62-4.51 10.157-10.099 10.157-5.565 0-10.104-4.537-10.104-10.157 0-5.622 4.539-10.158 10.104-10.158M440.369 25.7c5.595 0 10.1 4.535 10.1 10.155 0 5.622-4.505 10.157-10.1 10.157-5.564 0-10.069-4.535-10.069-10.157 0-5.62 4.505-10.155 10.069-10.155M470.101 25.7c5.593 0 10.099 4.535 10.099 10.155 0 5.622-4.506 10.157-10.099 10.157-5.565 0-10.07-4.535-10.07-10.157 0-5.62 4.505-10.155 10.07-10.155M529.559 25.7c5.589 0 10.099 4.535 10.099 10.155 0 5.622-4.51 10.157-10.1 10.157-5.57 0-10.098-4.535-10.098-10.157 0-5.62 4.529-10.155 10.099-10.155M559.29 25.7c5.559 0 10.094 4.535 10.094 10.155 0 5.622-4.535 10.157-10.094 10.157-5.57 0-10.104-4.535-10.104-10.157 0-5.62 4.534-10.155 10.104-10.155M589.016 25.7c5.565 0 10.095 4.535 10.095 10.155 0 5.622-4.53 10.157-10.095 10.157-5.593 0-10.103-4.535-10.103-10.157 0-5.62 4.51-10.155 10.103-10.155M408.045 77.168c5.56 0 10.099 4.537 10.099 10.158 0 5.593-4.539 10.157-10.099 10.157-5.594 0-10.099-4.564-10.099-10.157 0-5.621 4.505-10.158 10.099-10.158M437.776 77.168c5.56 0 10.071 4.537 10.071 10.158 0 5.593-4.51 10.157-10.07 10.157-5.593 0-10.104-4.564-10.104-10.157 0-5.621 4.51-10.158 10.103-10.158M467.474 77.168c5.595 0 10.099 4.537 10.099 10.158 0 5.593-4.504 10.157-10.1 10.157-5.563 0-10.07-4.564-10.07-10.157 0-5.621 4.507-10.158 10.07-10.158M526.931 77.168c5.594 0 10.1 4.537 10.1 10.158 0 5.593-4.506 10.157-10.1 10.157-5.564 0-10.099-4.564-10.099-10.157 0-5.621 4.535-10.158 10.1-10.158M556.664 77.168c5.56 0 10.099 4.537 10.099 10.158 0 5.593-4.54 10.157-10.1 10.157-5.57 0-10.1-4.564-10.1-10.157 0-5.621 4.53-10.158 10.1-10.158M586.39 77.168c5.565 0 10.104 4.537 10.104 10.158 0 5.593-4.539 10.157-10.104 10.157-5.565 0-10.099-4.564-10.099-10.157 0-5.621 4.534-10.158 10.099-10.158" fill="#7fcc28"/><g clip-path="url(#a)" transform="matrix(1.25 0 0 -1.25 0 386.25)"><path d="M492.897 247.266c4.451 0 8.075-3.63 8.075-8.127 0-4.474-3.624-8.125-8.075-8.125-4.475 0-8.079 3.651-8.079 8.125 0 4.497 3.604 8.127 8.079 8.127" fill="#7fcc28"/><path d="M48.847 105.406c-9.359 0-18.9-4.954-18.9-15.361 0-12.897 11.504-14.378 21.958-16.434 18.146-4.608 44.643-9.747 44.643-33.712C96.548 10.295 71.031.023 45.467.023 18.33.023-.797 10.613.025 40.719H25.84c-.982-13.215 6.596-22.139 19.856-22.139 10.271 0 23.875 3.103 23.875 15.772 0 13.99-17.073 14.974-27.345 17.599C25.543 56.08 2.969 63.637 2.969 84.681c0 27.183 24.857 39.284 49.344 39.284 23.146 0 40.972-12.579 40.972-36.477l-24.719-.092c-.981 12.074-7.395 18.01-19.719 18.01" fill="#104076"/></g><path d="M190.929 365.592c18.802 0 21.855-17.688 21.855-34.15 0-16.433-3.053-34.123-21.855-34.123-18.773 0-21.855 17.69-21.855 34.124 0 16.46 3.082 34.15 21.855 34.15zm0 20.658c-33.552 0-53.667-22.311-53.667-54.807 0-32.472 20.115-54.783 53.667-54.783 33.578 0 53.692 22.311 53.692 54.782 0 32.497-20.114 54.808-53.692 54.808M292.866 279.597h18.689v20.688h-18.689v83.025h-30.813v-83.025h-15.404v-20.688h15.404c-.825-29.328 1.857-48.33 35.323-48.33 5.563 0 11.298.628 16.833 1.455v19.2c-21.766-2.482-22.169 7.393-21.343 27.675M340.059 259.146l30.811-11.161v31.612h23.194v20.688H370.87v47.991c0 13.609 2.054 17.316 12.725 17.316 3.28 0 6.563-.428 9.841-.627v18.175c-3.48 1.653-19.915 3.11-24.218 3.11-24.024 0-29.16-12.609-29.16-35.092v-50.873h-20.743v-20.688h20.744v-20.45M424.05 259.146l30.814-11.161v31.612h23.194v20.688h-23.194v47.991c0 13.609 2.056 17.316 12.726 17.316 3.277 0 6.566-.428 9.872-.627v18.175c-3.512 1.653-19.943 3.11-24.252 3.11-24.023 0-29.16-12.609-29.16-35.092v-50.873h-20.74v-20.688h20.74v-20.45M551.809 319.089c0-11.3-3.108-21.77-18.2-21.77-14.293 0-17.404 10.47-17.802 21.77h36.002zm-36.001 20.657c0 13.323 1.85 25.846 17.8 25.846 10.757 0 16.12-3.906 19.035-13.322h27.726c-2.684 25.506-22.594 33.98-46.76 33.98-35.464 0-49.643-20.027-49.643-54.551 0-31.103 18.085-55.039 49.643-55.039 19.431 0 35.464 6.616 44.076 24.765 2.886 5.761 4.314 11.93 5.139 18.487.829 6.423.829 13.01.829 19.834h-67.845M627.644 322.026l30.387-43.541h34.295l-35.521 45.396 37.803 59.429h-35.95l-31.014-56.745-.399.424v56.321h-30.814V234.204h30.814v87.42l.399.402M714.261 256.233c0-10.62 8.589-19.262 19.145-19.262 10.542 0 19.118 8.643 19.118 19.262 0 10.618-8.577 19.26-19.118 19.26-10.556 0-19.145-8.642-19.145-19.26zm-4.107 0c0 12.885 10.431 23.367 23.252 23.367 12.808 0 23.225-10.482 23.225-23.367 0-12.887-10.417-23.37-23.225-23.37-12.821 0-23.252 10.483-23.252 23.37" fill="#104076"/><path d="M724.851 266.475v-21.396h9.045c2.251 0 3.906.196 4.965.57 1.021.4 1.845 1.084 2.449 2.052.627.998.94 2.113.94 3.369 0 1.625-.484 2.938-1.4 3.993-.939 1.026-2.334 1.713-4.189 1.967.91.544 1.683 1.143 2.282 1.8.598.656 1.4 1.794 2.425 3.48l2.592 4.165h-5.133l-3.082-4.679c-1.083-1.655-1.849-2.683-2.248-3.138-.43-.43-.857-.714-1.317-.888-.456-.144-1.17-.224-2.167-.224h-.857v8.929h-4.305zm4.305-12.325h3.168c2.051 0 3.336-.112 3.853-.286.513-.171.91-.455 1.198-.881.312-.458.455-.973.455-1.63 0-.714-.201-1.31-.57-1.74-.398-.455-.939-.714-1.63-.858-.34-.029-1.394-.056-3.134-.056h-3.34v5.451" fill="#104076"/></svg>