<?xml version="1.0" encoding="UTF-8" standalone="no"?>
<svg
   xmlns:dc="http://purl.org/dc/elements/1.1/"
   xmlns:cc="http://creativecommons.org/ns#"
   xmlns:rdf="http://www.w3.org/1999/02/22-rdf-syntax-ns#"
   xmlns:svg="http://www.w3.org/2000/svg"
   xmlns="http://www.w3.org/2000/svg"
   xmlns:sodipodi="http://sodipodi.sourceforge.net/DTD/sodipodi-0.dtd"
   xmlns:inkscape="http://www.inkscape.org/namespaces/inkscape"
   width="1220.7603"
   height="155.196"
   viewBox="0 0 1220.7603 155.196"
   id="svg2"
   version="1.1"
   inkscape:version="0.91 r13725"
   sodipodi:docname="sopra.svg">
  <metadata
     id="metadata26">
    <rdf:RDF>
      <cc:Work
         rdf:about="">
        <dc:format>image/svg+xml</dc:format>
        <dc:type
           rdf:resource="http://purl.org/dc/dcmitype/StillImage" />
        <dc:title></dc:title>
      </cc:Work>
    </rdf:RDF>
  </metadata>
  <defs
     id="defs24" />
  <sodipodi:namedview
     pagecolor="#ffffff"
     bordercolor="#666666"
     borderopacity="1"
     objecttolerance="10"
     gridtolerance="10"
     guidetolerance="10"
     inkscape:pageopacity="0"
     inkscape:pageshadow="2"
     inkscape:window-width="1855"
     inkscape:window-height="1056"
     id="namedview22"
     showgrid="false"
     fit-margin-top="0"
     fit-margin-left="0"
     fit-margin-right="0"
     fit-margin-bottom="0"
     inkscape:zoom="1.3416667"
     inkscape:cx="512.79037"
     inkscape:cy="77.455"
     inkscape:window-x="1985"
     inkscape:window-y="24"
     inkscape:window-maximized="1"
     inkscape:current-layer="svg2" />
  <g
     id="g4"
     transform="matrix(5.1024461,0,0,5.1024461,-1.65829,-0.76026533)"
     style="fill:#1a1d1d">
    <path
       d="m 167.24,9.833 -3.6,0 0,-3.013 3.6,0 0,-4.47 3.49,0 0,4.47 5.74,0 0,3.013 -5.74,0 0,9.074 c 0,2.27 0.632,3.46 3.54,3.46 1.113,0 2.362,-0.32 2.362,-0.32 l 0,3.14 c -1.212,0.165 -2.095,0.263 -3.47,0.263 -5.495,0 -5.922,-3.96 -5.922,-6.13 l 0,-9.488 z m 46.347,-3.033 3.572,0 0,18.694 -3.573,0 z m 9.885,9.21 c 0,5.092 4.193,6.36 6.184,6.36 3.794,0 6.472,-2.145 6.472,-6.433 0,-4.29 -3.045,-6.256 -6.51,-6.256 -1.965,0 -6.146,1.158 -6.146,6.33 z m -3.633,-0.038 c 0,-7.03 5.68,-9.417 9.63,-9.417 4.48,0 6.657,2.57 6.657,2.57 l 0.185,-2.323 3.264,0 0,18.728 -3.27,0 -0.18,-2.474 c 0,0 -2.236,2.48 -6.697,2.48 -4.48,0 -9.59,-2.6 -9.59,-9.564 z"
       id="path6"
       inkscape:connector-curvature="0" />
    <circle
       cx="215.373"
       cy="2.4860001"
       r="2.3369999"
       id="circle8" />
    <path
       d="m 210.978,10.014 0,-3.164 c -3.528,-0.324 -6.004,0.52 -7.933,2.538 l -0.188,-2.58 -3.39,0 0,18.71 3.577,0 0,-9.695 c 0,-2.702 2.178,-6.132 7.934,-5.81 z m -33.648,6.03 c 0,-5.848 4.318,-9.603 10.093,-9.603 5.734,0 9.674,4.19 9.674,9.28 0,0 0,0.795 -0.074,1.516 l -15.977,0.07 c 0.152,2.887 3.485,5.06 6.926,5.06 3.706,0 5.902,-2.29 5.902,-2.29 l 2.557,2.247 c -2.594,2.49 -5.424,3.248 -8.457,3.248 -6.3,0 -10.644,-3.68 -10.644,-9.382 l 0,-0.144 z m 15.843,-1.606 c 0,-2.542 -2.56,-4.66 -5.702,-4.66 -3.363,0 -6.146,2.076 -6.37,4.66 l 12.073,0 z m -37.18,-0.078 c -3.597,-0.643 -7.133,-1.092 -7.133,-2.77 0,-1.093 1.084,-2.053 4.232,-2.053 2.34,0 5.04,0.54 5.77,2.198 l 3.317,-1.392 c -1.27,-2.55 -5.023,-3.775 -9.337,-3.775 -3.77,0 -7.818,1.428 -7.818,5.245 0,3.305 3.01,4.334 7.97,5.268 3.316,0.625 6.373,0.94 6.373,2.727 0,1.13 -1.504,2.575 -5.263,2.575 -2.673,0 -5.368,-0.562 -6.19,-2.464 l -3.218,1.35 c 1.318,2.938 4.818,4.46 8.872,4.46 8.094,0 9.658,-3.853 9.658,-6.038 0,-3.642 -3.622,-4.684 -7.235,-5.33 z"
       id="path10"
       inkscape:connector-curvature="0" />
  </g>
  <path
     d="m 268.92443,48.631413 c -17.69018,0 -33.21693,10.031409 -33.21693,31.926005 0,21.889492 13.65415,32.818932 33.02814,32.818932 10.13345,0 31.54332,-4.11767 31.54332,-32.451555 0,-28.344089 -21.34864,-32.298484 -31.35964,-32.298484 z m 0.94905,80.899287 c -22.84365,0 -34.16088,-14.52157 -34.16088,-14.52157 l 0,40.18687 -17.60343,0 0,-121.244324 16.66969,0 0.94395,11.852982 c 0,0 11.08761,-13.113287 33.96188,-13.113287 20.13936,0 49.13656,10.266122 49.13656,48.049735 0,37.783614 -26.10412,48.789594 -48.94267,48.789594 z M 405.9251,80.929897 c 0,25.981653 21.40477,32.451553 31.55353,32.451553 19.36889,0 33.01283,-10.94474 33.01283,-32.824032 0,-21.889494 -15.51144,-31.920902 -33.20162,-31.920902 -10.0212,0 -31.35963,5.908632 -31.35963,32.298483 z m -18.52187,-0.193893 c 0,-35.870196 28.98189,-48.049735 49.13655,-48.049735 22.85896,0 33.95168,13.113287 33.95168,13.113287 l 0.94395,-11.852983 16.66459,0 0,95.558607 -16.62377,0 -0.98477,-12.62345 c 0,0 -11.40907,12.65407 -34.16598,12.65407 -22.84875,0 -48.93246,-13.26636 -48.93246,-48.799796 z m 1.32663,-30.400374 0,-16.144139 c -18.00143,-1.653193 -30.64529,2.653272 -40.49811,12.950008 l -0.93375,-13.164311 -17.29729,0 0,95.466762 18.23104,0 0,-49.46821 c 0,-13.78681 11.13353,-31.2882 40.49301,-29.645212 z M 57.63213,72.510861 C 39.27353,69.229988 21.23638,66.938989 21.23638,58.377085 c 0,-5.576974 5.51065,-10.475322 21.58335,-10.475322 11.93973,0 25.71633,2.755321 29.45132,11.215176 L 89.19586,52.014335 C 82.71576,39.003097 63.56118,32.752601 41.55943,32.752601 c -19.23622,0 -39.90113,7.286293 -39.90113,26.762329 0,16.863585 15.35836,22.114002 40.6869,26.879687 16.89931,3.189029 32.51279,4.796299 32.51279,13.914373 0,5.76576 -7.67918,13.1388 -26.85417,13.1388 -13.64394,0 -27.40014,-2.86758 -31.59945,-12.57243 L 0,107.76366 c 6.71482,14.99099 24.57849,22.75691 45.2587,22.75691 41.3043,0 49.28963,-19.65972 49.28963,-30.808569 0,-18.583109 -18.48106,-23.899857 -36.9213,-27.196038 z m 97.47203,-39.81949 c -24.38969,0 -53.26954,12.184642 -53.26954,48.049735 0,35.523234 25.99186,49.325344 53.26954,49.325344 27.29809,0 53.25933,-13.79701 53.25933,-49.325344 0,-35.870196 -28.85433,-48.049735 -53.25423,-48.049735 z m 0,80.684979 c -14.99099,0 -34.72725,-6.48011 -34.72725,-32.451555 0,-26.389852 21.8895,-31.757625 34.72725,-31.757625 12.84286,0 34.72725,5.367773 34.72725,31.757625 -0.0102,25.981655 -19.74647,32.451555 -34.73235,32.451555 z"
     id="path12"
     inkscape:connector-curvature="0"
     style="fill:#1a1d1d" />
  <path
     d="m 663.81804,126.39269 c -1.01029,0.66332 -2.22977,1.42869 -3.337,2.06139 l -0.34697,0.2041 0.34187,0.0357 c 21.78744,5.99027 43.35038,5.76576 47.50377,-7.83736 5.35757,-17.55241 -29.30335,-36.38044 -45.66689,-45.360745 -3.50538,-1.91852 -5.02591,-0.724547 -2.79104,1.852188 10.32735,11.898904 25.0377,35.298717 4.28605,49.054917 z"
     id="path14"
     inkscape:connector-curvature="0"
     style="fill:#ef7d00" />
  <path
     d="m 660.15958,128.63777 c 0,0 -27.43585,17.24627 -75.86316,17.24627 -18.7617,0 -34.55377,-2.86758 -41.22777,-9.43953 -7.04137,-6.91381 -10.8478,-18.58311 -10.8478,-29.28804 0,-9.184403 3.81153,-16.904404 11.76114,-16.904404 20.40978,0 84.01688,32.349504 116.1827,38.390804 z"
     id="path16"
     inkscape:connector-curvature="0"
     style="fill:#cf022b" />
  <path
     d="m 568.71865,28.645132 c 1.00518,-0.663318 2.22977,-1.428685 3.3319,-2.061389 l 0.33676,-0.204097 -0.33676,-0.04082 c -21.78745,-5.980067 -43.3708,-5.755559 -47.51398,7.84246 -5.35757,17.552414 29.31355,36.38044 45.66689,45.360746 3.52069,1.908314 5.03101,0.714342 2.80635,-1.852188 -10.33246,-11.90911 -25.05302,-35.308927 -4.28606,-49.054917 z"
     id="path18"
     inkscape:connector-curvature="0"
     style="fill:#ef7d00" />
  <path
     d="m 572.3669,26.394953 c 0,0 27.45116,-17.2462683 75.87337,-17.2462683 18.75659,0 34.54356,2.8726773 41.22776,9.4395253 7.04138,6.929122 10.84781,18.572904 10.84781,29.298246 0,9.184403 -3.81153,16.904404 -11.76114,16.904404 -20.40979,0 -84.00668,-32.349508 -116.1827,-38.395907 z"
     id="path20"
     inkscape:connector-curvature="0"
     style="fill:#cf022b" />
</svg>
