<?xml version="1.0" encoding="UTF-8" standalone="no"?>
<svg
   xmlns:dc="http://purl.org/dc/elements/1.1/"
   xmlns:cc="http://creativecommons.org/ns#"
   xmlns:rdf="http://www.w3.org/1999/02/22-rdf-syntax-ns#"
   xmlns:svg="http://www.w3.org/2000/svg"
   xmlns="http://www.w3.org/2000/svg"
   viewBox="0 0 890.40338 192.17262"
   height="192.17262"
   width="890.40338"
   xml:space="preserve"
   version="1.1"
   id="svg2"><metadata
     id="metadata8"><rdf:RDF><cc:Work
         rdf:about=""><dc:format>image/svg+xml</dc:format><dc:type
           rdf:resource="http://purl.org/dc/dcmitype/StillImage" /><dc:title></dc:title></cc:Work></rdf:RDF></metadata><defs
     id="defs6" /><g
     transform="matrix(1.25,0,0,-1.25,-117.29787,283.58625)"
     id="g10"><g
       transform="scale(0.1,0.1)"
       id="g12"><path
         id="path14"
         style="fill:#252a35;fill-opacity:1;fill-rule:evenodd;stroke:none"
         d="m 1788.2,1090.06 c -88.02,-40.57 -182.2,-61.14 -279.94,-61.14 -97.88,0 -192.18,20.63 -280.29,61.3 -25,11.55 -54.63,0.63 -66.17,-24.38 -11.55,-25 -0.63,-54.62 24.37,-66.168 101.31,-46.762 209.68,-70.473 322.09,-70.473 112.25,0 220.48,23.641 321.68,70.289 25.01,11.522 35.94,41.152 24.42,66.162 -11.53,25.01 -41.15,35.93 -66.16,24.41" /><path
         id="path16"
         style="fill:#252a35;fill-opacity:1;fill-rule:evenodd;stroke:none"
         d="m 1508.26,1228.67 c -259.65,0 -470.14,210.49 -470.15,470.15 0,259.64 210.49,470.14 470.15,470.14 259.66,0 470.15,-210.5 470.15,-470.14 -0.01,-259.66 -210.5,-470.15 -470.15,-470.15 z m 569.88,470.15 c 0,314.73 -255.15,569.87 -569.88,569.87 -314.73,0 -569.877,-255.14 -569.877,-569.87 0,-314.74 255.147,-569.88 569.877,-569.88 314.73,0 569.88,255.14 569.88,569.88" /><path
         id="path18"
         style="fill:#252a35;fill-opacity:1;fill-rule:evenodd;stroke:none"
         d="m 1736.83,865.551 c -73.71,-22.903 -150.61,-34.512 -228.57,-34.512 -78.44,0 -155.77,11.742 -229.86,34.91 -26.3,8.199 -54.26,-6.429 -62.47,-32.711 -8.22,-26.289 6.42,-54.258 32.71,-62.476 83.73,-26.184 171.08,-39.453 259.62,-39.453 88.01,0 174.86,13.121 258.15,39 26.3,8.171 41,36.113 32.83,62.41 -8.17,26.301 -36.13,40.972 -62.41,32.832" /><path
         id="path20"
         style="fill:#252a35;fill-opacity:1;fill-rule:evenodd;stroke:none"
         d="m 1681.7,1445.19 -25.37,257.1 0.04,0.02 -2.77,28.03 c 0,0 -0.05,0.04 -0.06,0.04 l 0.01,0.01 c 0,0 -3.96,40.18 42.68,86.81 20.76,20.76 96.31,107.51 67.12,136.7 -29.2,29.2 -115.94,-46.36 -136.7,-67.12 -46.63,-46.64 -86.82,-42.67 -86.82,-42.67 l -285.2,28.15 c 0,0 -16.13,1.59 -27.6,-9.87 -2.23,-2.23 -19.35,-19.36 -21.63,-21.63 -11.46,-11.47 3.39,-17.97 3.39,-17.97 l 231,-100.94 c 0.03,-0.02 14.49,-5.94 -1.7,-23.62 -20.76,-24.78 -49.99,-61.34 -93.66,-116.13 -6.56,-5.74 -16.46,-12.53 -28.79,-14.97 -24.07,3.27 -65.59,8.77 -76.88,9.36 -1.26,0.06 -2.57,-0.05 -3.89,-0.25 -14.67,-1.45 -27.64,-14.25 -27.64,-14.25 l -7.07,-7.07 c 0,0 -9.11,-9.11 5.13,-16.84 3.81,-2.07 50.81,-27.59 75.14,-41.14 13.19,-7.96 25.95,-25.95 25.95,-25.95 l 0.01,0 c 11.46,-20.64 30.52,-55.61 41.12,-75.13 7.75,-14.26 16.73,-5.26 16.73,-5.26 l 7.08,7.07 c 0,0 12.89,13.07 14.36,27.74 0.2,1.33 0.32,2.64 0.25,3.9 -0.16,3.17 -6.25,51.14 -9.61,77.47 2.13,11.45 9.16,21.38 15.01,27.97 54.68,44.03 91.17,72.46 116.34,93.9 17.68,16.19 23.53,1.66 23.55,1.63 22.65,-51.79 95.54,-218.4 101.02,-230.93 6.5,-14.86 17.96,-3.39 17.96,-3.39 0,0 18.79,18.78 21.63,21.63 11.47,11.46 9.87,27.6 9.87,27.6" /><path
         id="path22"
         style="fill:#4c92d5;fill-opacity:1;fill-rule:nonzero;stroke:none"
         d="m 2332.17,1749.89 270.12,0 0,-696.39 127.65,0 0,696.39 268.98,0 0,112.83 -666.75,0 0,-112.83" /><path
         id="path24"
         style="fill:#4c92d5;fill-opacity:1;fill-rule:nonzero;stroke:none"
         d="m 4393.26,1159.5 -169.82,490.09 -139.73,0 227.95,-596.09 155.38,0 227.95,596.09 -129.63,0 -172.1,-490.09" /><path
         id="path26"
         style="fill:#4c92d5;fill-opacity:1;fill-rule:nonzero;stroke:none"
         d="m 5390.09,1180.02 c 0,-43.31 12.14,-76.76 36.47,-100.3 21.9,-21.22 51.58,-32.79 88.9,-34.89 l 0,817.9 -125.37,0 0,-682.71" /><path
         id="path28"
         style="fill:#4c92d5;fill-opacity:1;fill-rule:nonzero;stroke:none"
         d="m 4878.35,1520.23 c 15.96,14.82 34.37,26.39 55.28,34.76 20.89,8.36 43.11,12.54 66.67,12.54 23.55,0 45.97,-4.18 67.25,-12.54 21.26,-8.37 39.89,-19.94 55.85,-34.76 15.95,-14.82 29.06,-32.87 39.31,-54.14 8.98,-18.62 14.9,-38.69 17.77,-60.21 l -358.09,0 c 2.83,21.52 8.56,41.59 17.21,60.21 9.86,21.27 22.79,39.32 38.75,54.14 m 406.32,-49.01 c -2.95,7.72 -6.23,15.2 -9.73,22.52 -13.32,29.65 -30.77,56.21 -52.51,79.57 -26.46,28.39 -58.37,51.15 -95.77,68.27 -37.4,17.11 -79.15,25.68 -125.24,25.68 -46.85,0 -89.16,-8.37 -126.93,-25.09 -37.79,-16.74 -70.09,-39.69 -96.9,-68.86 -22.36,-24.32 -40.45,-51.93 -54.41,-82.74 -3.39,-7.05 -6.61,-14.22 -9.53,-21.63 -14.81,-37.61 -22.22,-77.32 -22.22,-119.1 0,-41.8 7.41,-81.32 22.22,-118.54 2.59,-6.5 5.43,-12.81 8.39,-19.04 14.1,-31.48 32.59,-59.57 55.55,-84.2 26.81,-28.79 59.11,-51.55 96.9,-68.27 37.77,-16.72 79.71,-25.09 125.8,-25.09 62.71,0 117.67,14.59 164.91,43.76 47.2,29.18 81.03,66.71 101.43,112.63 l 1.51,3.74 -107.13,30.78 c -6.09,-13.68 -14.45,-26.22 -25.08,-37.62 -10.65,-11.39 -22.79,-21.08 -36.47,-29.06 -13.68,-7.98 -28.69,-14.07 -45.02,-18.24 -16.35,-4.18 -32.88,-6.26 -49.58,-6.26 -22.79,0 -44.65,4.16 -65.53,12.53 -20.91,8.35 -39.52,20.32 -55.85,35.91 -16.35,15.56 -29.64,33.99 -39.89,55.27 -10.26,21.27 -16.53,45.2 -18.81,71.81 l 477.55,0 c 0.76,5.3 1.52,11.96 2.29,19.94 0.74,7.98 1.14,16.53 1.14,25.65 0,40.26 -7.04,78.82 -21.09,115.68" /><path
         id="path30"
         style="fill:#4c92d5;fill-opacity:1;fill-rule:nonzero;stroke:none"
         d="m 3034.25,1650.52 125.22,0 0,-48.42 c 23,24.12 43.41,40.63 61.21,49.53 18.18,9.27 39.7,13.92 64.56,13.92 33.02,0 67.52,-10.77 103.51,-32.28 l -57.32,-114.64 c -23.75,17.06 -46.94,25.59 -69.56,25.59 -68.27,0 -102.4,-51.57 -102.4,-154.71 l 0,-336.01 -125.22,0 0,597.02" /><path
         id="path32"
         style="fill:#4c92d5;fill-opacity:1;fill-rule:nonzero;stroke:none"
         d="m 3534.85,1353.24 c 0,-59.39 15.6,-107.75 46.8,-145.07 32.02,-37.76 72.37,-56.63 121.04,-56.63 52,0 94.01,18.23 126.04,54.72 32.03,37.75 48.05,85.68 48.05,143.8 0,58.11 -16.02,106.04 -48.05,143.8 -32.03,36.9 -73.63,55.36 -124.79,55.36 -48.26,0 -88.6,-18.67 -121.05,-56 -32.03,-37.75 -48.04,-84.41 -48.04,-139.98 m 328.76,289.32 135.18,0 0,-582.57 -135.18,0 0,61.01 c -55.42,-51.84 -115.04,-77.76 -178.83,-77.76 -80.55,0 -147.14,29.11 -199.78,87.33 -52.24,59.41 -78.35,133.58 -78.35,222.5 0,87.32 26.11,160.09 78.35,218.31 52.24,58.22 117.63,87.33 196.19,87.33 67.78,0 128.59,-27.92 182.42,-83.74 l 0,67.59" /><path
         id="path34"
         style="fill:#4c92d5;fill-opacity:1;fill-rule:nonzero;stroke:none"
         d="m 6192.46,1539.04 c -6.09,-18.24 -14.44,-34.19 -25.08,-47.87 -10.64,-13.68 -23.36,-24.33 -38.18,-31.91 -14.81,-7.61 -31.34,-11.4 -49.57,-11.4 l -210.86,0 0,302.03 204.02,0 c 16.7,0 32.85,-3.61 48.44,-10.83 15.56,-7.23 29.43,-17.48 41.59,-30.77 12.15,-13.3 21.66,-29.06 28.5,-47.3 6.84,-18.23 10.26,-38.75 10.26,-61.55 0,-22.04 -3.05,-42.17 -9.12,-60.4 m 68.39,241.06 c -22.05,24.68 -48.44,44.62 -79.22,59.83 -30.77,15.19 -64.39,22.8 -100.87,22.8 l -339.64,0 0,-809.22 127.65,0 0,281.51 218.83,0 c 36.47,0 69.7,7.41 99.73,22.23 30.01,14.81 55.65,34.57 76.93,59.27 21.27,24.68 37.8,52.8 49.58,84.34 11.77,31.52 17.67,64.39 17.67,98.58 0,32.67 -6.27,64.78 -18.81,96.32 -12.54,31.52 -29.83,59.64 -51.85,84.34" /><path
         id="path36"
         style="fill:#4c92d5;fill-opacity:1;fill-rule:nonzero;stroke:none"
         d="m 7272.43,1651.64 c -17.81,-8.9 -38.22,-25.42 -61.22,-49.53 l 0,48.42 -125.21,0 0,-597.02 125.21,0 0,336.01 c 0,103.14 34.13,154.71 102.4,154.71 22.63,0 45.82,-8.54 69.57,-25.6 l 57.32,114.64 c -35.99,21.52 -70.5,32.28 -103.51,32.28 -24.86,0 -46.39,-4.64 -64.56,-13.91" /><path
         id="path38"
         style="fill:#4c92d5;fill-opacity:1;fill-rule:nonzero;stroke:none"
         d="m 8047.94,1648.45 -159.51,0 -250.8,-265.37 0,502.44 -125.38,0 0,-832.02 125.38,0 0,181.22 99.15,93.46 190.35,-274.68 134.48,0 -243.9,345.35 230.23,249.6" /><path
         id="path40"
         style="fill:#4c92d5;fill-opacity:1;fill-rule:nonzero;stroke:none"
         d="m 6502.35,1405.88 c 2.82,21.52 8.55,41.59 17.2,60.21 9.87,21.27 22.8,39.33 38.76,54.14 15.95,14.82 34.37,26.4 55.27,34.77 20.89,8.35 43.12,12.53 66.68,12.53 23.54,0 45.96,-4.18 67.25,-12.53 21.25,-8.37 39.89,-19.95 55.84,-34.77 15.96,-14.81 29.06,-32.87 39.32,-54.14 8.98,-18.62 14.9,-38.69 17.77,-60.21 l -358.09,0 z m 452.54,87.86 c -13.32,29.66 -30.77,56.21 -52.51,79.57 -26.46,28.39 -58.36,51.15 -95.76,68.28 -37.41,17.1 -79.16,25.67 -125.24,25.67 -46.86,0 -89.16,-8.37 -126.93,-25.09 -37.79,-16.74 -70.09,-39.68 -96.91,-68.86 -22.36,-24.32 -40.45,-51.93 -54.4,-82.73 -3.39,-7.05 -6.61,-14.23 -9.53,-21.64 -14.82,-37.61 -22.23,-77.32 -22.23,-119.1 0,-41.8 7.41,-81.31 22.23,-118.53 2.59,-6.51 5.43,-12.82 8.39,-19.05 14.1,-31.48 32.59,-59.57 55.54,-84.19 26.82,-28.8 59.12,-51.56 96.91,-68.28 37.77,-16.72 79.7,-25.09 125.8,-25.09 62.71,0 117.67,14.59 164.9,43.77 47.21,29.17 81.03,66.7 101.43,112.62 l 1.52,3.74 -107.14,30.78 c -6.09,-13.68 -14.44,-26.22 -25.07,-37.61 -10.65,-11.4 -22.79,-21.09 -36.47,-29.07 -13.68,-7.98 -28.69,-14.07 -45.03,-18.23 -16.34,-4.19 -32.87,-6.27 -49.57,-6.27 -22.8,0 -44.65,4.16 -65.54,12.53 -20.91,8.36 -39.52,20.33 -55.85,35.91 -16.34,15.56 -29.63,33.99 -39.89,55.27 -10.26,21.27 -16.52,45.2 -18.81,71.81 l 477.56,0 c 0.75,5.31 1.51,11.97 2.28,19.94 0.75,7.98 1.14,16.53 1.14,25.65 0,40.26 -7.03,78.82 -21.08,115.68 -2.95,7.72 -6.24,15.2 -9.74,22.52" /></g></g></svg>