<?xml version="1.0" encoding="UTF-8" standalone="no"?>
<svg
   xmlns:dc="http://purl.org/dc/elements/1.1/"
   xmlns:cc="http://creativecommons.org/ns#"
   xmlns:rdf="http://www.w3.org/1999/02/22-rdf-syntax-ns#"
   xmlns:svg="http://www.w3.org/2000/svg"
   xmlns="http://www.w3.org/2000/svg"
   viewBox="0 0 509.63049 137.17474"
   height="137.17474"
   width="509.63049"
   xml:space="preserve"
   version="1.1"
   id="svg2"><metadata
     id="metadata8"><rdf:RDF><cc:Work
         rdf:about=""><dc:format>image/svg+xml</dc:format><dc:type
           rdf:resource="http://purl.org/dc/dcmitype/StillImage" /><dc:title></dc:title></cc:Work></rdf:RDF></metadata><defs
     id="defs6"><clipPath
       id="clipPath20"
       clipPathUnits="userSpaceOnUse"><path
         id="path22"
         d="M 0,144 444,144 444,0 0,0 0,144 Z" /></clipPath><clipPath
       id="clipPath42"
       clipPathUnits="userSpaceOnUse"><path
         id="path44"
         d="m 142.89,68.256 c 0,-19.797 16.047,-35.844 35.845,-35.844 l 0,0 c 19.794,0 35.841,16.047 35.841,35.844 l 0,0 c 0,19.795 -16.047,35.842 -35.841,35.842 l 0,0 c -19.798,0 -35.845,-16.047 -35.845,-35.842" /></clipPath><radialGradient
       id="radialGradient50"
       spreadMethod="pad"
       gradientTransform="matrix(37.128609,0,0,-37.128609,178.56686,68.25489)"
       gradientUnits="userSpaceOnUse"
       r="1"
       cy="0"
       cx="0"
       fy="0"
       fx="0"><stop
         id="stop52"
         offset="0"
         style="stop-opacity:1;stop-color:#f6e14c" /><stop
         id="stop54"
         offset="0.466667"
         style="stop-opacity:1;stop-color:#f6e14c" /><stop
         id="stop56"
         offset="0.50077121"
         style="stop-opacity:1;stop-color:#f6e14c" /><stop
         id="stop58"
         offset="0.612121"
         style="stop-opacity:1;stop-color:#e6ab34" /><stop
         id="stop60"
         offset="0.690909"
         style="stop-opacity:1;stop-color:#d5862a" /><stop
         id="stop62"
         offset="0.824242"
         style="stop-opacity:1;stop-color:#a65527" /><stop
         id="stop64"
         offset="0.91649276"
         style="stop-opacity:1;stop-color:#a65527" /><stop
         id="stop66"
         offset="0.957576"
         style="stop-opacity:1;stop-color:#422b21" /><stop
         id="stop68"
         offset="1"
         style="stop-opacity:1;stop-color:#422b21" /></radialGradient><clipPath
       id="clipPath76"
       clipPathUnits="userSpaceOnUse"><path
         id="path78"
         d="M 0,144 444,144 444,0 0,0 0,144 Z" /></clipPath><clipPath
       id="clipPath88"
       clipPathUnits="userSpaceOnUse"><path
         id="path90"
         d="m 156.535,80.539 c 0,-5.978 4.847,-10.826 10.825,-10.826 l 0,0 c 5.978,0 10.825,4.848 10.825,10.826 l 0,0 c 0,5.979 -4.847,10.824 -10.825,10.824 l 0,0 c -5.978,0 -10.825,-4.845 -10.825,-10.824" /></clipPath><clipPath
       id="clipPath96"
       clipPathUnits="userSpaceOnUse"><path
         id="path98"
         d="m -32768,32767 65535,0 0,-65535 -65535,0 0,65535 z" /></clipPath><radialGradient
       id="radialGradient100"
       spreadMethod="pad"
       gradientTransform="matrix(10.824949,0,0,-10.824949,167.35989,80.538094)"
       gradientUnits="userSpaceOnUse"
       r="1"
       cy="0"
       cx="0"
       fy="0"
       fx="0"><stop
         id="stop102"
         offset="0"
         style="stop-opacity:0.95001144;stop-color:#ffffff" /><stop
         id="stop104"
         offset="0.51632172"
         style="stop-opacity:0.95001144;stop-color:#ffffff" /><stop
         id="stop106"
         offset="1"
         style="stop-opacity:0;stop-color:#ffffff" /></radialGradient><mask
       id="mask108"
       height="1"
       width="1"
       y="0"
       x="0"
       maskUnits="userSpaceOnUse"><g
         id="g110"><g
           id="g112"
           clip-path="url(#clipPath96)"><g
             id="g114"><g
               id="g116"><path
                 id="path118"
                 style="fill:url(#radialGradient100);stroke:none"
                 d="m -32768,32767 65535,0 0,-65535 -65535,0 0,65535 z" /></g></g></g></g></mask><radialGradient
       id="radialGradient124"
       spreadMethod="pad"
       gradientTransform="matrix(10.824949,0,0,-10.824949,167.35989,80.538094)"
       gradientUnits="userSpaceOnUse"
       r="1"
       cy="0"
       cx="0"
       fy="0"
       fx="0"><stop
         id="stop126"
         offset="0"
         style="stop-opacity:1;stop-color:#e5e6e5" /><stop
         id="stop128"
         offset="0.51632172"
         style="stop-opacity:1;stop-color:#e5e6e5" /><stop
         id="stop130"
         offset="1"
         style="stop-opacity:1;stop-color:#e5e6e5" /></radialGradient><clipPath
       id="clipPath138"
       clipPathUnits="userSpaceOnUse"><path
         id="path140"
         d="m 68.729,68.256 c 0,-19.797 16.046,-35.844 35.843,-35.844 l 0,0 c 19.795,0 35.842,16.047 35.842,35.844 l 0,0 c 0,19.795 -16.047,35.842 -35.842,35.842 l 0,0 c -19.797,0 -35.843,-16.047 -35.843,-35.842" /></clipPath><radialGradient
       id="radialGradient146"
       spreadMethod="pad"
       gradientTransform="matrix(37.128609,0,0,-37.128609,104.40477,68.25489)"
       gradientUnits="userSpaceOnUse"
       r="1"
       cy="0"
       cx="0"
       fy="0"
       fx="0"><stop
         id="stop148"
         offset="0"
         style="stop-opacity:1;stop-color:#f6e14c" /><stop
         id="stop150"
         offset="0.466667"
         style="stop-opacity:1;stop-color:#f6e14c" /><stop
         id="stop152"
         offset="0.50077121"
         style="stop-opacity:1;stop-color:#f6e14c" /><stop
         id="stop154"
         offset="0.612121"
         style="stop-opacity:1;stop-color:#e6ab34" /><stop
         id="stop156"
         offset="0.690909"
         style="stop-opacity:1;stop-color:#d5862a" /><stop
         id="stop158"
         offset="0.824242"
         style="stop-opacity:1;stop-color:#a65527" /><stop
         id="stop160"
         offset="0.91649276"
         style="stop-opacity:1;stop-color:#a65527" /><stop
         id="stop162"
         offset="0.957576"
         style="stop-opacity:1;stop-color:#422b21" /><stop
         id="stop164"
         offset="1"
         style="stop-opacity:1;stop-color:#422b21" /></radialGradient><clipPath
       id="clipPath172"
       clipPathUnits="userSpaceOnUse"><path
         id="path174"
         d="M 0,144 444,144 444,0 0,0 0,144 Z" /></clipPath><clipPath
       id="clipPath184"
       clipPathUnits="userSpaceOnUse"><path
         id="path186"
         d="m 82.372,80.539 c 0,-5.978 4.847,-10.826 10.826,-10.826 l 0,0 c 5.978,0 10.823,4.848 10.823,10.826 l 0,0 c 0,5.979 -4.845,10.824 -10.823,10.824 l 0,0 c -5.979,0 -10.826,-4.845 -10.826,-10.824" /></clipPath><clipPath
       id="clipPath192"
       clipPathUnits="userSpaceOnUse"><path
         id="path194"
         d="m -32768,32767 65535,0 0,-65535 -65535,0 0,65535 z" /></clipPath><radialGradient
       id="radialGradient196"
       spreadMethod="pad"
       gradientTransform="matrix(10.824949,0,0,-10.824949,93.196793,80.538094)"
       gradientUnits="userSpaceOnUse"
       r="1"
       cy="0"
       cx="0"
       fy="0"
       fx="0"><stop
         id="stop198"
         offset="0"
         style="stop-opacity:0.95001144;stop-color:#ffffff" /><stop
         id="stop200"
         offset="0.51632172"
         style="stop-opacity:0.95001144;stop-color:#ffffff" /><stop
         id="stop202"
         offset="1"
         style="stop-opacity:0;stop-color:#ffffff" /></radialGradient><mask
       id="mask204"
       height="1"
       width="1"
       y="0"
       x="0"
       maskUnits="userSpaceOnUse"><g
         id="g206"><g
           id="g208"
           clip-path="url(#clipPath192)"><g
             id="g210"><g
               id="g212"><path
                 id="path214"
                 style="fill:url(#radialGradient196);stroke:none"
                 d="m -32768,32767 65535,0 0,-65535 -65535,0 0,65535 z" /></g></g></g></g></mask><radialGradient
       id="radialGradient220"
       spreadMethod="pad"
       gradientTransform="matrix(10.824949,0,0,-10.824949,93.196793,80.538094)"
       gradientUnits="userSpaceOnUse"
       r="1"
       cy="0"
       cx="0"
       fy="0"
       fx="0"><stop
         id="stop222"
         offset="0"
         style="stop-opacity:1;stop-color:#e5e6e5" /><stop
         id="stop224"
         offset="0.51632172"
         style="stop-opacity:1;stop-color:#e5e6e5" /><stop
         id="stop226"
         offset="1"
         style="stop-opacity:1;stop-color:#e5e6e5" /></radialGradient></defs><g
     transform="matrix(1.25,0,0,-1.25,-23.309625,155.7325)"
     id="g10"><g
       transform="translate(20.7227,99.3125)"
       id="g12"><path
         id="path14"
         style="fill:#3ea834;fill-opacity:1;fill-rule:nonzero;stroke:none"
         d="m 0,0 0,-13.479 25.015,0 -27.09,-29.541 0,-15.949 49.592,0 0,13.479 -27.746,0 27.746,30.215 L 47.517,0 0,0 Z" /></g><g
       id="g16"><g
         clip-path="url(#clipPath20)"
         id="g18"><g
           transform="translate(248.2021,85.1602)"
           id="g24"><path
             id="path26"
             style="fill:#3ea834;fill-opacity:1;fill-rule:evenodd;stroke:none"
             d="m 0,0 c 9.94,0 10.377,-3.932 10.377,-15.389 0,-13.367 -2.621,-15.275 -10.377,-15.275 -8.738,0 -9.395,5.391 -9.395,15.275 C -9.395,-2.92 -7.974,0 0,0 m -28.182,-70.314 18.787,0 0,34.371 0.875,0 c 3.059,-8.088 9.067,-9.547 15.948,-9.547 15.73,0 21.738,7.187 21.738,25.16 l 0,13.478 c 0,15.614 -7.865,21.678 -21.738,21.678 -8.193,0 -14.2,-2.021 -16.385,-9.996 l -0.874,0 0.436,9.322 -18.787,0 0,-84.466 z" /></g><path
           id="path28"
           style="fill:#3ea834;fill-opacity:1;fill-rule:nonzero;stroke:none"
           d="m 302.524,124.586 -18.788,0 0,-84.242 18.788,0 0,84.242 z" /><g
           transform="translate(363.8721,40.3438)"
           id="g30"><path
             id="path32"
             style="fill:#3ea834;fill-opacity:1;fill-rule:nonzero;stroke:none"
             d="m 0,0 0,58.969 -18.787,0 0,-36.28 c 0,-5.841 -5.572,-8.537 -10.596,-8.537 -6.336,0 -6.883,4.268 -6.883,9.66 l 0,35.157 -18.787,0 0,-40.324 c 0,-14.377 8.084,-19.319 19.444,-19.319 7.974,0 14.527,2.92 17.15,12.018 l 0.873,0 L -18.24,0 0,0 Z" /></g><g
           transform="translate(423.6201,82.5762)"
           id="g34"><path
             id="path36"
             style="fill:#3ea834;fill-opacity:1;fill-rule:nonzero;stroke:none"
             d="m 0,0 0,2.809 c 0,14.49 -14.855,14.601 -25.342,14.601 -15.947,0 -28.072,-0.336 -28.072,-19.318 0,-12.02 4.26,-17.524 28.072,-17.524 6.555,0 9.832,0 9.832,-5.839 0,-4.606 -1.31,-5.168 -9.832,-5.168 -4.588,0 -9.283,0 -9.283,6.627 l -18.789,0 c 0,-19.432 13.217,-19.094 28.072,-19.094 15.074,0 28.074,2.582 28.074,19.881 0,16.511 -8.63,17.634 -28.074,18.084 -9.611,0.224 -9.83,2.246 -9.83,5.166 0,3.482 0,4.718 9.83,4.718 2.949,0 6.992,0 7.647,-4.943 L 0,0 Z" /></g></g></g><g
       id="g38"><g
         clip-path="url(#clipPath42)"
         id="g40"><g
           id="g46"><g
             id="g48"><path
               id="path70"
               style="fill:url(#radialGradient50);stroke:none"
               d="m 142.89,68.256 c 0,-19.797 16.047,-35.844 35.845,-35.844 l 0,0 c 19.794,0 35.841,16.047 35.841,35.844 l 0,0 c 0,19.795 -16.047,35.842 -35.841,35.842 l 0,0 c -19.798,0 -35.845,-16.047 -35.845,-35.842" /></g></g></g></g><g
       id="g72"><g
         clip-path="url(#clipPath76)"
         id="g74"><g
           transform="translate(197.7646,68.2559)"
           id="g80"><path
             id="path82"
             style="fill:#1d191b;fill-opacity:1;fill-rule:nonzero;stroke:none"
             d="m 0,0 c 0,-10.512 -8.521,-19.031 -19.03,-19.031 -10.512,0 -19.032,8.519 -19.032,19.031 0,10.51 8.52,19.031 19.032,19.031 C -8.521,19.031 0,10.51 0,0" /></g></g></g><g
       id="g84"><g
         clip-path="url(#clipPath88)"
         id="g86"><g
           id="g92"><g
             id="g94" /><g
             mask="url(#mask108)"
             id="g120"><g
               id="g122"><path
                 id="path132"
                 style="fill:url(#radialGradient124);stroke:none"
                 d="m 156.535,80.539 c 0,-5.978 4.847,-10.826 10.825,-10.826 l 0,0 c 5.978,0 10.825,4.848 10.825,10.826 l 0,0 c 0,5.979 -4.847,10.824 -10.825,10.824 l 0,0 c -5.978,0 -10.825,-4.845 -10.825,-10.824" /></g></g></g></g></g><g
       id="g134"><g
         clip-path="url(#clipPath138)"
         id="g136"><g
           id="g142"><g
             id="g144"><path
               id="path166"
               style="fill:url(#radialGradient146);stroke:none"
               d="m 68.729,68.256 c 0,-19.797 16.046,-35.844 35.843,-35.844 l 0,0 c 19.795,0 35.842,16.047 35.842,35.844 l 0,0 c 0,19.795 -16.047,35.842 -35.842,35.842 l 0,0 c -19.797,0 -35.843,-16.047 -35.843,-35.842" /></g></g></g></g><g
       id="g168"><g
         clip-path="url(#clipPath172)"
         id="g170"><g
           transform="translate(123.6016,68.2559)"
           id="g176"><path
             id="path178"
             style="fill:#1d191b;fill-opacity:1;fill-rule:nonzero;stroke:none"
             d="m 0,0 c 0,-10.512 -8.521,-19.031 -19.029,-19.031 -10.512,0 -19.033,8.519 -19.033,19.031 0,10.51 8.521,19.031 19.033,19.031 C -8.521,19.031 0,10.51 0,0" /></g></g></g><g
       id="g180"><g
         clip-path="url(#clipPath184)"
         id="g182"><g
           id="g188"><g
             id="g190" /><g
             mask="url(#mask204)"
             id="g216"><g
               id="g218"><path
                 id="path228"
                 style="fill:url(#radialGradient220);stroke:none"
                 d="m 82.372,80.539 c 0,-5.978 4.847,-10.826 10.826,-10.826 l 0,0 c 5.978,0 10.823,4.848 10.823,10.826 l 0,0 c 0,5.979 -4.845,10.824 -10.823,10.824 l 0,0 c -5.979,0 -10.826,-4.845 -10.826,-10.824" /></g></g></g></g></g></g></svg>