<?xml version="1.0" encoding="UTF-8" standalone="no"?>
<svg
   xmlns:dc="http://purl.org/dc/elements/1.1/"
   xmlns:cc="http://creativecommons.org/ns#"
   xmlns:rdf="http://www.w3.org/1999/02/22-rdf-syntax-ns#"
   xmlns:svg="http://www.w3.org/2000/svg"
   xmlns="http://www.w3.org/2000/svg"
   xmlns:sodipodi="http://sodipodi.sourceforge.net/DTD/sodipodi-0.dtd"
   xmlns:inkscape="http://www.inkscape.org/namespaces/inkscape"
   version="1.1"
   id="Layer_1"
   x="0px"
   y="0px"
   width="299.99899"
   height="107.12947"
   viewBox="0 0 299.999 107.12947"
   enable-background="new 0 0 5573.111 1990.154"
   xml:space="preserve"
   inkscape:version="0.91 r13725"
   sodipodi:docname="meetup.svg"><metadata
     id="metadata9"><rdf:RDF><cc:Work
         rdf:about=""><dc:format>image/svg+xml</dc:format><dc:type
           rdf:resource="http://purl.org/dc/dcmitype/StillImage" /><dc:title></dc:title></cc:Work></rdf:RDF></metadata><defs
     id="defs7" /><sodipodi:namedview
     pagecolor="#ffffff"
     bordercolor="#666666"
     borderopacity="1"
     objecttolerance="10"
     gridtolerance="10"
     guidetolerance="10"
     inkscape:pageopacity="0"
     inkscape:pageshadow="2"
     inkscape:window-width="1855"
     inkscape:window-height="1056"
     id="namedview5"
     showgrid="false"
     fit-margin-top="0"
     fit-margin-left="0"
     fit-margin-right="0"
     fit-margin-bottom="0"
     inkscape:zoom="0.057777426"
     inkscape:cx="-2117.3245"
     inkscape:cy="53.569798"
     inkscape:window-x="1985"
     inkscape:window-y="24"
     inkscape:window-maximized="1"
     inkscape:current-layer="Layer_1" /><path
     d="m 176.76321,57.738003 c -0.4125,0.62356 -0.6759,1.05114 -0.9632,1.46314 -2.6831,3.8429 -5.6939,7.3515 -9.7981,9.7795 -5.5014,3.2524 -11.4641,4.5939 -17.6792,3.2468 -3.189,-0.6919 -6.156,-2.4767 -9.1594,-3.9007 -0.6922,-0.3267 -1.0706,-0.335 -1.6859,0.028 -2.5762,1.5195 -5.0818,3.2226 -7.8094,4.4039 -4.8414,2.096 -9.9391,3.2703 -15.2081,1.8764 -3.3026,-0.8738 -6.1595,-2.7345 -8.7406,-4.9727 -1.8304,-1.5868 -1.9479,-1.5854 -3.8045,-0.058 -3.338196,2.747 -7.191996,4.5182 -11.224696,5.9813 -5.0023,1.8167 -10.1613,2.9298 -15.4377,3.4524 -6.4379,0.6374 -12.4075,-0.4559 -16.7641,-5.748 -3.4921,-4.2404 -4.426,-9.1594 -2.2897,-14.273 2.3399,-5.59901 5.0456,-11.04739 7.5864,-16.56118 1.3248,-2.87273 2.6582,-5.74272 3.9432,-8.63258 0.235,-0.53086 0.33,-1.15023 0.3568,-1.73622 0.05,-1.07741 0.2695,-2.25741 -0.9763,-2.90568 -1.2728,-0.66012 -2.7745,-0.5411 -3.7075,0.63944 -1.1696,1.47699 -2.2044,3.09479 -3.0749,4.76701 -2.8838,5.53516 -5.6738,11.12118 -8.4868,16.69262 -2.1101,4.17773 -4.1798,8.37399 -6.3092,12.54099 -2.0175,3.9522 -5.8096,5.4581 -9.9193,3.9212 -1.3842,-0.5197 -2.2525,-1.5408 -2.4857,-3.0941 -0.33,-2.2037 0.3926,-4.1771 1.1744,-6.1498 1.7073,-4.31525 3.4366,-8.62233 5.1432,-12.93894 0.9139,-2.31442 1.8283,-4.63077 2.6863,-6.9665 0.6011,-1.63314 0.7817,-3.36517 0.081,-4.96935 -0.5426,-1.23684 -1.6105,-2.13069 -3.1086,-1.99794 -1.636,0.14507 -2.9231,0.99972 -3.5398,2.51869 -2.17,5.35752 -4.2514,10.75024 -6.3864,16.1216 -2.5536,6.42916 -5.0648,12.87574 -7.7249,19.26144 -0.9846,2.3598 -2.4698,4.5085 -4.9687,5.5185 -1.265,0.5129 -2.6972,0.8301 -4.0594,0.8492 -4.2499999,0.056 -7.9203999,-1.3642 -10.4271999,-4.9713 -1.99329997,-2.8685 -2.48079997,-6.0611 -1.51749997,-9.4384 0.89099997,-3.12656 1.78209997,-6.25294 2.71669997,-9.36716 0.8855,-2.95106 1.8269,-5.88634 2.7462,-8.82852 0.8567,-2.73934 1.6577,-5.49941 2.5867,-8.21394 1.8282999,-5.34385 3.3025999,-10.84794 6.1998999,-15.74979 1.9823,-3.35403 5.1934,-5.16734 8.8762,-6.29222 3.8503,-1.17435 7.1302,0.30403 10.4175,1.93975 1.2466,0.61867 2.4767,1.28029 3.7562,1.81929 1.7851,0.74947 3.4126,0.27502 4.8544,-0.89933 1.18,-0.9606 2.3708,-1.92044 3.4585,-2.98266 2.7173,-2.65279 8.5874,-3.1443596 11.456,-0.0572 0.6607,0.71093 1.4404,1.31065 2.17,1.95489 1.5016,1.32636 2.1226,1.46169 3.86,0.48123 4.1317,-2.33293 8.4119,-2.00989 12.6194,-0.51439 2.4409,0.86849 3.902,2.94217 4.835,5.39821 1.3723,3.61602 0.797,7.10763 -0.5782,10.50645 -2.5297,6.25276 -5.285,12.41299 -7.7533,18.68917 -1.4631,3.72324 -2.6987,7.55167 -3.7501,11.41052 -0.4282,1.5726 -0.431,3.4373 -0.032,5.0173 0.6044,2.3916 2.795,3.1752 5.0105,3.4559 3.3739,0.4276 6.6846,-0.1994 9.917,-1.0934 2.7606,-0.7604 5.4786,-1.699 8.1747,-2.6733 1.3009,-0.4703 2.5132,-1.1922 3.7549,-1.8228 1.0622,-0.5371 1.1442,-1.3235 0.5844,-2.3123 -1.1435,-2.0181 -2.3461,-4.01075 -3.3534,-6.09822 -2.1301,-4.41227 -3.8828,-8.96541 -3.4152,-13.99709 0.4084,-4.40403 1.9988,-8.22902 6.0624,-10.54698 5.999096,-3.41933 10.867296,-2.47521 15.276796,2.63346 3.8134,4.41926 5.071,9.73894 3.4338,15.43844 -0.9159,3.18689 -2.2263,6.2673 -3.4764,9.34921 -0.3459,0.85338 -0.1451,1.39998 0.3947,1.90248 2.5255,2.359 5.4051,4.1916 8.6017,5.4882 1.2053,0.4911 2.4795,0.8568 3.757,1.1134 2.7475,0.5506 5.2964,-0.1033 7.5853,-1.6558 1.09,-0.7386 1.1138,-1.4287 0.3576,-2.4594 -5.2649,-7.18065 -7.3489,-15.17303 -5.7668,-23.95558 0.5928,-3.28808 2.1137,-6.39385 5.6431,-7.34066 2.1817,-0.58589 4.6474,-0.56112 6.9159,-0.27227 3.6867,0.46885 7.0255,1.94029 9.2904,5.11431 2.7174,3.80852 3.4112,7.97661 2.2418,12.52975 -0.8397,3.27027 -2.5551,6.05225 -4.444,8.7544 -0.7481,1.07126 -0.7769,2.05865 0.2428,2.77515 1.5704,1.1036 3.1663,2.3136 4.9409,2.9526 3.8561,1.3876 7.8572,1.2665 11.742,0.018 4.2507,-1.3692 7.2374,-4.1888 8.9408,-8.37276 2.0344,-5.00354 2.0592,-10.24446 1.9562,-15.50433 -0.082,-4.10985 -0.2255,-8.21933 -0.3474,-12.33053 -0.043,-1.46799 -0.2797,-1.5532 -1.6791,-1.2685 -3.6867,0.74479 -7.392,1.4041 -11.092,2.08063 -1.1669,0.21182 -2.3441,0.3555 -3.5103,0.56586 -2.5419,0.45734 -4.639,-0.58707 -4.7827,-3.56035 -0.1465,-2.99644 -0.5803,-5.97856 -0.8884,-8.96826 -0.018,-0.16828 -0.032,-0.33752 -0.041,-0.5074 -0.172,-3.51827 0.6794,-5.4319196 4.9033,-5.2786096 4.3619,0.1603096 8.7239,0.3039796 13.0805,0.5328596 2.1431,0.11143 2.8968,-0.42838 3.0378,-2.5549796 0.1088,-1.65096 0.1548,-3.30321 0.2578,-4.95347 0.1548,-2.47519997 0.7191,-3.06317997 3.2336,-2.96483997 1.5032,0.0592 3.0137,0.32115 4.4839,0.65183 2.0703,0.46551997 3.1553,1.92322997 3.2989,3.98243997 0.1163,1.68735 0.068,3.38783 0.041,5.08061 -0.022,1.1977696 0.3499,1.8406596 1.6927,1.9761996 3.876,0.39458 7.7368,0.93374 11.6045,1.39296 1.8263,0.21736 2.8512,0.95661 3.0982,2.31446 0.4284,2.3584 -0.081,3.9735 -1.8614,4.61785 -2.4898,0.90068 -5.0639,1.5869 -7.6382,2.2215 -1.8015,0.44496 -3.6676,0.63541 -5.4986,0.97174 -1.2287,0.22484 -1.8964,0.87037 -1.8853,2.2525 0.046,6.82487 -0.1087,13.65598 0.089,20.47433 0.1031,3.57812 0.6402,7.16114 2.1645,10.50343 1.2313,2.70703 3.3341,3.77353 6.2585,3.28313 4.2911,-0.7198 8.2248,-2.22699 11.6511,-4.94222 1.9012,-1.50648 3.1519,-3.34999 3.2467,-5.89603 0.1713,-4.65908 0.4015,-9.3167 0.675,-13.96894 0.079,-1.34219 0.2314,-2.73391 0.6788,-3.98593 0.2495,-0.69457 1.1607,-1.61307 1.7953,-1.63169 3.5051,-0.10594 7.0342,-0.14093 10.5229,0.16165 2.1947,0.18969 3.7023,2.24292 3.5862,4.56627 -0.1573,3.25283 -0.578,6.49414 -0.8875,9.74029 -0.3824,4.0051 -0.7348,8.013 -1.1606,12.01271 -0.4312,4.04859 2.8071,6.05629 6.0113,6.09549 2.688,0.032 4.2748,-0.9709 5.4169,-3.81542 1.1827,-2.94427 1.8855,-6.13606 2.3956,-9.28397 0.7214,-4.46917 1.0629,-8.9997 1.5952,-13.50003 0.2167,-1.83797 1.3641,-3.25094 2.7909,-3.55756 1.6497,-0.35409 3.814,0.31507 4.354,1.82289 0.4531,1.26021 0.3499,2.79985 0.1922,4.18182 -0.5829,5.12536 -1.4236,10.22508 -1.9037,15.36061 -0.2958,3.15464 1.4728,5.40036 4.5378,6.33276 1.5273,0.4634 3.1114,0.8299 4.6931,1.0128 2.7779,0.3176 4.745,-1.7101 5.3253,-4.86751 0.4911,-2.65472 0.5563,-5.38804 0.795,-8.08803 0.2792,-3.20627 0.3197,-6.45377 0.8676,-9.61379 0.8059,-4.67835 3.8278,-8.92213 9.4269,-10.2837 3.3609,-0.81816 6.7492,-0.91575 10.1047,-0.52802 5.1163,0.58853 10.4679,4.06636 12.1037,9.94323 1.2423,4.46787 0.7486,8.78384 -0.713,13.08193 -1.693,4.98082 -4.7877,8.86239 -9.1092,11.81829 -0.399,0.2723 -0.6321,0.7893 -0.9387,1.1936 0.5424,0.24 1.0905,0.6958 1.6305,0.6862 5.1651,-0.079 10.0362,-1.2604 14.4964,-3.9659 1.0063,-0.6092 2.1025,-1.0707 3.1654,-1.57611 0.9766,-0.46272 1.552,0.0853 1.2804,0.92761 -0.4533,1.4116 -0.9985,2.9011 -1.9013,4.0415 -3.8223,4.8318 -9.0361,7.1483 -15.0664,7.554 -2.5579,0.1718 -5.154,-0.1699 -7.7312,-0.3123 -1.9452,-0.1087 -3.8869,-0.2778 -5.832,-0.4097 -0.9872,-0.065 -1.5573,0.3499 -1.8043,1.3703 -1.5485,6.3912 -2.368,12.8901 -3.171,19.4065 -0.5069,4.1028 -1.2723,8.1918 -2.2539,12.206697 -0.5317,2.1783 -2.2327,3.68 -4.5877,4.0596 -1.4076,0.2267 -2.4493,-0.3824 -2.9216,-1.6944 -0.3981,-1.1062 -0.77,-2.2675 -0.8648,-3.4267 -0.4644,-5.721497 -0.2746,-11.429097 0.4853,-17.123097 0.3852,-2.8968 0.6428,-5.8101 0.9737,-8.7131 0.2337,-2.0194 0.5378,-4.032 0.7277,-6.0555 0.149,-1.6343 -0.223,-2.0201 -1.7878,-2.3315 -3.2367,-0.6457 -6.475,-1.2804 -9.6976,-1.994 -2.1894,-0.4869 -3.896,0.2886 -5.3799,1.7973 -1.9717,2.0057 -4.1503,3.7488 -6.7356,4.8757 -3.1222,1.3621 -6.4316,1.0759 -9.6432,0.5671 -4.6331,-0.7377 -8.3336,-3.1737 -10.9644,-7.0827 -0.8171,-1.2128 -1.4083,-2.5812 -2.0485,-3.9035 -0.3581,-0.7405 -0.6806,-1.0285 -1.5488,-0.5858 -3.0792,1.5678 -6.147,3.1773 -9.3257,4.5202 -3.5404,1.4963 -7.2975,2.0222 -11.0599,0.973 -3.6676,-1.0246 -6.4805,-3.3857 -8.8162,-6.3368 -0.627,-0.7909 -1.2429,-1.5872 -2.214,-2.83097 z m 105.6366,-14.67724 c -0.041,-0.5074 -0.041,-1.0183 -0.1246,-1.51746 -0.4695,-2.89071 -3.3719,-4.18457 -5.7102,-2.4415 -1.0574,0.78785 -2.0181,1.82262 -2.7396,2.92979 -2.4091,3.69294 -3.4968,7.92369 -4.5846,12.13098 -0.2738,1.05684 -0.4643,2.17424 -0.4423,3.25912 0.041,2.02085 1.229,2.61495 2.9216,1.52305 3.513,-2.26633 6.115,-5.40988 8.3116,-8.9043 1.3348,-2.12272 2.428,-4.3621 2.3681,-6.97968 z m -137.8458,2.03865 c 0.031,-2.0085 -0.438,-3.86698 -1.9171,-5.31155 -0.82,-0.80045 -1.8453,-1.149 -3.0211,-0.78247 -1.4261,0.44199 -2.1969,1.50023 -2.3042,3.25632 -0.2075,3.40205 1.2536,6.32511 2.7573,9.20259 0.7743,1.48182 1.51,1.43494 2.5103,0.0654 1.3993,-1.91499 1.9452,-4.09187 1.9748,-6.43034 z m -34.6819,-0.64978 c -0.3719,-1.23023 -0.6179,-2.51865 -1.149,-3.67723 -0.678,-1.47429 -2.4257,-2.13774 -3.9713,-1.73342 -1.6359,0.42913 -2.2828,1.2088 -2.113,3.22408 0.1492,1.75404 0.5522,3.5033 1.019,5.20706 0.3423,1.25219 0.8698,2.47946 1.4934,3.62017 0.839,1.53667 1.7156,1.55185 2.5406,0.0639 1.1372,-2.04834 2.0161,-4.19964 2.1803,-6.70461 z"
     id="path3"
     inkscape:connector-curvature="0"
     style="fill:#f64060" /></svg>